<svg xmlns="http://www.w3.org/2000/svg" xmlns:xlink="http://www.w3.org/1999/xlink" viewBox="0 0 108.3 130"><defs><style>.cls-1{fill:#fff;}.cls-2{fill:url(#linear-gradient);}.cls-3{fill:url(#linear-gradient-2);}.cls-4{fill:url(#linear-gradient-3);}.cls-5{fill:url(#linear-gradient-4);}.cls-6{fill:url(#linear-gradient-5);}.cls-7{fill:url(#linear-gradient-6);}.cls-8{fill:url(#linear-gradient-7);}.cls-9{fill:url(#linear-gradient-8);}.cls-10{fill:url(#linear-gradient-9);}.cls-11{fill:url(#linear-gradient-10);}.cls-12{fill:url(#linear-gradient-11);}.cls-13{fill:url(#linear-gradient-12);}</style><linearGradient id="linear-gradient" x1="47" y1="38.54" x2="92.42" y2="64.32" gradientUnits="userSpaceOnUse"><stop offset="0" stop-color="#d53183"/><stop offset="1" stop-color="#761f83"/></linearGradient><linearGradient id="linear-gradient-2" x1="-1486.15" y1="814.03" x2="-1550.61" y2="814.03" gradientTransform="translate(136.62 -1637.7) rotate(-60)" xlink:href="#linear-gradient"/><linearGradient id="linear-gradient-3" x1="-1020.64" y1="-2830.39" x2="-1055.03" y2="-2830.39" gradientTransform="matrix(-0.5, 0.87, -0.87, -0.5, -2927.34, -457.66)" gradientUnits="userSpaceOnUse"><stop offset="0" stop-color="#761f83"/><stop offset="0.03" stop-color="#802183"/><stop offset="0.18" stop-color="#a52883"/><stop offset="0.31" stop-color="#bf2d83"/><stop offset="0.43" stop-color="#cf3083"/><stop offset="0.52" stop-color="#d53183"/><stop offset="0.61" stop-color="#cf3083"/><stop offset="0.72" stop-color="#be2d83"/><stop offset="0.85" stop-color="#a22783"/><stop offset="0.99" stop-color="#7b2083"/><stop offset="1" stop-color="#761f83"/></linearGradient><linearGradient id="linear-gradient-4" x1="-988.9" y1="-2835.43" x2="-1006.76" y2="-2835.43" gradientTransform="matrix(-0.5, 0.87, -0.87, -0.5, -2927.34, -457.66)" xlink:href="#linear-gradient"/><linearGradient id="linear-gradient-5" x1="-3027.97" y1="-880.19" x2="-2985" y2="-880.68" gradientTransform="translate(-2108.19 -2155.87) rotate(-150)" xlink:href="#linear-gradient"/><linearGradient id="linear-gradient-6" x1="-3042.85" y1="-884.68" x2="-2978.03" y2="-885.43" gradientTransform="translate(-2108.19 -2155.87) rotate(-150)" xlink:href="#linear-gradient"/><linearGradient id="linear-gradient-7" x1="-1535.36" y1="796.09" x2="-1534.99" y2="750.76" gradientTransform="translate(136.62 -1637.7) rotate(-60)" xlink:href="#linear-gradient"/><linearGradient id="linear-gradient-8" x1="33.64" y1="9.31" x2="79.06" y2="35.09" xlink:href="#linear-gradient"/><linearGradient id="linear-gradient-9" x1="-1498.44" y1="792.91" x2="-1532.84" y2="792.91" gradientTransform="translate(136.62 -1637.7) rotate(-60)" xlink:href="#linear-gradient-3"/><linearGradient id="linear-gradient-10" x1="-1466.68" y1="787.85" x2="-1484.55" y2="787.85" gradientTransform="translate(136.62 -1637.7) rotate(-60)" xlink:href="#linear-gradient"/><linearGradient id="linear-gradient-11" x1="-1545.49" y1="745.85" x2="-1480.67" y2="745.11" gradientTransform="translate(136.62 -1637.7) rotate(-60)" xlink:href="#linear-gradient"/><linearGradient id="linear-gradient-12" x1="-1545.54" y1="741.38" x2="-1480.72" y2="740.64" gradientTransform="translate(136.62 -1637.7) rotate(-60)" xlink:href="#linear-gradient"/></defs><title>beslides</title><g id="Layer_2" data-name="Layer 2"><g id="Layer_3" data-name="Layer 3"><path class="cls-1" d="M65.16,130a13.09,13.09,0,0,1-6.54-1.76L19.79,105.83A13.09,13.09,0,0,1,15,87.94L17.86,83,6.54,76.47A13.1,13.1,0,0,1,1.75,58.59l30.05-52A13.07,13.07,0,0,1,49.68,1.76L88.51,24.17A13.11,13.11,0,0,1,93.3,42.06L90.44,47l11.32,6.53a13.1,13.1,0,0,1,4.79,17.88l-30,52A13.13,13.13,0,0,1,65.16,130Z"/><path class="cls-2" d="M89.14,69.92a5.23,5.23,0,0,0-2-6.69l-32-18.47a10.05,10.05,0,0,0-13.75,3.68l6.4-11a10.06,10.06,0,0,1,13.75-3.69L87.8,48.87l1.42.83a10.06,10.06,0,0,1,3.69,13.75l-1.35,2.34h0Z"/><path class="cls-3" d="M89.17,49.71l11,6.4a10.07,10.07,0,0,1,3.69,13.76L81.07,109.41l-.83,1.42a10.06,10.06,0,0,1-13.75,3.69l-2.33-1.35,7.51-13,21-36.43A10.14,10.14,0,0,0,89.17,49.71Z"/><path class="cls-4" d="M39.41,77.33,49.89,59.18l7.52-13-2.33-1.34a10.08,10.08,0,0,0-13.76,3.68l-.82,1.43L28.36,71Z"/><path class="cls-5" d="M33,88.39,28.86,95.6a10.15,10.15,0,0,0,3.54,14l-11-6.4a10.06,10.06,0,0,1-3.69-13.75L22,82Z"/><path class="cls-6" d="M49.42,104.7l17.14,9.88a10.06,10.06,0,0,0,13.75-3.69l-6.4,11a10.07,10.07,0,0,1-13.75,3.68l-5.88-3.38h0a13,13,0,0,1-4.86-17.54Z"/><path class="cls-7" d="M47.11,118.11a13,13,0,0,1-.91-14.36c.13-.23.27-.45.42-.67h0l-3.28-1.89L30.06,93.53l-1.34,2.33a10.07,10.07,0,0,0,3.68,13.75l1.43.83,13.28,7.66Z"/><path class="cls-8" d="M66.93,81.59l-6.4,11a10.08,10.08,0,0,1-13.76,3.68L20.51,81.16l-1.43-.83A10.07,10.07,0,0,1,15.4,66.58l1.35-2.33h0l36.42,21A10.07,10.07,0,0,0,66.93,81.59Z"/><path class="cls-9" d="M75.78,40.69a5.23,5.23,0,0,0-2-6.69l-32-18.48A10.07,10.07,0,0,0,28,19.21l6.4-11A10.08,10.08,0,0,1,48.18,4.48L74.44,19.64l1.43.82a10.08,10.08,0,0,1,3.68,13.76l-1.34,2.33h0Z"/><path class="cls-10" d="M79.9,59.13l-12.15,21-.82,1.42a10.07,10.07,0,0,1-13.76,3.69l-2.33-1.35,7.52-13L68.84,52.75Z"/><path class="cls-11" d="M86.27,48.05l4.3-7.46a10.07,10.07,0,0,0-3.68-13.75l-11-6.4a10.13,10.13,0,0,1,3.54,14l-4.17,7.22Z"/><path class="cls-12" d="M32.91,36.25,15.39,66.59a10.06,10.06,0,0,0,3.69,13.75L8,73.94A10.07,10.07,0,0,1,4.35,60.19l11-19.08h0a13,13,0,0,1,17.55-4.86Z"/><path class="cls-13" d="M19.51,33.93A13,13,0,0,1,33.86,33c.23.13.46.27.67.41h0l1.89-3.27,7.67-13.28-2.34-1.35A10.06,10.06,0,0,0,28,19.22l-.82,1.43L19.51,33.93Z"/></g></g></svg>