<svg xmlns="http://www.w3.org/2000/svg" xmlns:xlink="http://www.w3.org/1999/xlink" viewBox="0 0 401.09 461.39"><defs><style>.cls-1{fill:#fff;}.cls-2{fill:url(#linear-gradient);}.cls-3{fill:url(#linear-gradient-2);}.cls-4{fill:url(#linear-gradient-3);}.cls-5{fill:url(#linear-gradient-4);}.cls-6{fill:url(#linear-gradient-5);}.cls-7{fill:url(#linear-gradient-6);}</style><linearGradient id="linear-gradient" x1="238.32" y1="14.04" x2="60.53" y2="357.57" gradientTransform="matrix(-0.87, -0.5, -0.5, 0.87, 545.31, 136.93)" gradientUnits="userSpaceOnUse"><stop offset="0" stop-color="#e5412d"/><stop offset="1" stop-color="#8b1731"/></linearGradient><linearGradient id="linear-gradient-2" x1="395.21" y1="357.93" x2="245.75" y2="40.6" xlink:href="#linear-gradient"/><linearGradient id="linear-gradient-3" x1="68.8" y1="378.69" x2="382.02" y2="365.35" xlink:href="#linear-gradient"/><linearGradient id="linear-gradient-4" x1="229.25" y1="419.81" x2="239.77" y2="393.77" xlink:href="#linear-gradient"/><linearGradient id="linear-gradient-5" x1="187.26" y1="450.96" x2="258.09" y2="450.96" xlink:href="#linear-gradient"/><linearGradient id="linear-gradient-6" x1="244.81" y1="149.29" x2="209.81" y2="204.4" xlink:href="#linear-gradient"/></defs><title>icon</title><g id="Layer_2" data-name="Layer 2"><g id="Layer_3" data-name="Layer 3"><path class="cls-1" d="M32,199.7c5.19-1.32,47.75-12.49,68.21-17.86l10.59-2.77a12.49,12.49,0,0,0,7.49-5.72L183.9,59.72a36.39,36.39,0,0,1,18.62-15.9c3.84-1.53,16.54-6.31,30-11.37,12.12-4.55,24.66-9.27,31.19-11.79L307,4.5c3.54-1.45,27.49-10.45,49.07,2S381.84,44.3,382.34,48l18.15,109.88c.63,3.82,2.11,12.78-4.37,24.22-3.63,6.39-44.37,76.88-59.71,103.42l-6,10.3a11.9,11.9,0,0,0-1.16,9.5c.67,2.58,3.78,13.85,7.39,26.9,5.4,19.54,12.13,43.86,14.16,51.75,2.57,10,3.33,28.82-20.25,43.57-2.85,2-28.2,19.66-39,27.17a36.54,36.54,0,0,1-51.09-9.27c-4.11-6-19.77-28.56-30.27-43.69a10.53,10.53,0,0,0-17.75.71c-3.63,6.25-7.86,12.63-11.22,15.09l-47,34.35-31.35-5.87L81.78,421.37l1.73-12.89a29.89,29.89,0,0,1,.54-3.49l3.47-35.09c.67-6.74,4.78-16.28,8.71-24.12a10.54,10.54,0,0,0-8.53-15.25l-54.08-4.47a37.14,37.14,0,0,1-15.57-4.75h0C4.27,313.36-.88,298.06.12,286.43l.32-3.15c.19-2.3,3.18-38.49,4.24-51.16C6.18,214.26,19.89,202.79,32,199.7Z"/><path class="cls-2" d="M388.63,161.12,370.45,51s-2.51-22.44-20.3-32.72-38.48-1.22-38.48-1.22L268.3,33.29S289,26.54,304,36,323.2,65,323.2,65L339,160.45,277.73,266.52a72.34,72.34,0,0,0-7.21,56l17,62L277,391.81s7.48,11.08,13.67,20.16c7.16,10.5,20.39,14.64,33.38,6.61,14.55-9,17.87-19.73,15.15-30.31-3.37-13-19.83-72-21.55-78.63a24,24,0,0,1,2.4-18.68c3.34-5.78,61.27-106,65.61-113.64S389.15,164.26,388.63,161.12Z"/><path class="cls-3" d="M323.2,65s-4-19.44-19.19-29-35.71-2.72-35.71-2.72c-13.8,5.32-53.93,20.26-61.06,23.1a24.09,24.09,0,0,0-12.56,10.66L129.07,180.69a24.69,24.69,0,0,1-15,11.42c-6.42,1.68-72.28,19-78.87,20.65s-17.06,8.52-18.16,21.61-4.25,51.25-4.25,51.25S14.14,268.43,31,264s33.36-8.34,33.36-8.34l62.15-16.28a73.69,73.69,0,0,0,44.93-34.27L232.64,99.07Z"/><path class="cls-4" d="M324.07,418.58c-13,8-26.22,3.89-33.38-6.61C284.5,402.89,277,391.81,277,391.81S259,365.87,250.78,354a68,68,0,0,0-23.6-21.73C220,328.1,148,286.39,139.76,281.77a77,77,0,0,0-30.61-9.58L63.26,268.4l1.07-12.72S47.81,259.61,31,264s-18.16,21.6-18.16,21.6l-.31,3.07c-.82,9.55,5.09,25,22.34,26.41,0,0,64.43,5.32,70.27,5.82a25.8,25.8,0,0,1,10.21,3.19l87.42,50.47a24.59,24.59,0,0,1,7.87,7.24c1.59,2.3,32.7,47.06,40.17,58a24.32,24.32,0,0,0,34,6.14C296.27,438,324.07,418.58,324.07,418.58Z"/><path class="cls-5" d="M94.12,407a24.45,24.45,0,0,1,36.55-18.76l30.25,17.47a21.93,21.93,0,0,1,8.41,8.3,24.45,24.45,0,0,0-5.46-38.06l-30.25-17.47a24.45,24.45,0,0,0-36.55,18.76Z"/><path class="cls-6" d="M169.19,413.87,133.05,440.3l-24.12-4.51-16.28-19L94,406.87a24.4,24.4,0,0,1,36.54-18.76l30.26,17.47A22.11,22.11,0,0,1,169.19,413.87Z"/><circle class="cls-7" cx="259.95" cy="174.55" r="33.84"/></g></g></svg>