<svg xmlns="http://www.w3.org/2000/svg" xmlns:xlink="http://www.w3.org/1999/xlink" viewBox="0 0 660.95 340.78"><defs><style>.cls-1{fill:#fff;}.cls-2{fill:#e6e6e6;}.cls-3{fill:#333;}.cls-4{fill:#666;}.cls-5{fill:#ccc;}.cls-10,.cls-6,.cls-7,.cls-9{fill:none;stroke-miterlimit:10;}.cls-6,.cls-7{stroke:#e6e6e6;stroke-width:0.5px;}.cls-7{stroke-dasharray:3.03 3.03;}.cls-8{fill:url(#linear-gradient);}.cls-9{stroke:#ff0071;}.cls-10{stroke:#60c;}.cls-11{fill:url(#linear-gradient-2);}</style><linearGradient id="linear-gradient" x1="451.08" y1="118.35" x2="451.08" y2="249.74" gradientUnits="userSpaceOnUse"><stop offset="0" stop-color="#ff0071" stop-opacity="0.6"/><stop offset="1" stop-opacity="0"/></linearGradient><linearGradient id="linear-gradient-2" x1="451.45" y1="196.45" x2="451.45" y2="283.42" gradientUnits="userSpaceOnUse"><stop offset="0" stop-color="#60c" stop-opacity="0.6"/><stop offset="1" stop-opacity="0"/></linearGradient></defs><title>graph</title><g id="Layer_3" data-name="Layer 3"><rect class="cls-1" width="660.95" height="340.78" rx="10"/><path class="cls-2" d="M10,0H227a0,0,0,0,1,0,0V340.78a0,0,0,0,1,0,0H10a10,10,0,0,1-10-10V10A10,10,0,0,1,10,0Z"/><rect class="cls-3" x="35.11" y="62.51" width="160.08" height="18.2" rx="3.62"/><rect class="cls-4" x="35.11" y="89.08" width="160.08" height="18.2" rx="3.62"/><rect class="cls-5" x="35.11" y="115.65" width="160.08" height="75.19" rx="3.62"/><rect class="cls-5" x="71.82" y="260.73" width="86.68" height="19.97" rx="2.01"/><line class="cls-6" x1="315.76" y1="85.52" x2="315.76" y2="87.02"/><line class="cls-7" x1="315.76" y1="90.05" x2="315.76" y2="294.25"/><line class="cls-6" x1="315.76" y1="295.76" x2="315.76" y2="297.26"/><line class="cls-6" x1="343.7" y1="85.52" x2="343.7" y2="87.02"/><line class="cls-7" x1="343.7" y1="90.05" x2="343.7" y2="294.25"/><line class="cls-6" x1="343.7" y1="295.76" x2="343.7" y2="297.26"/><line class="cls-6" x1="371.64" y1="85.52" x2="371.64" y2="87.02"/><line class="cls-7" x1="371.64" y1="90.05" x2="371.64" y2="294.25"/><line class="cls-6" x1="371.64" y1="295.76" x2="371.64" y2="297.26"/><line class="cls-6" x1="399.57" y1="85.52" x2="399.57" y2="87.02"/><line class="cls-7" x1="399.57" y1="90.05" x2="399.57" y2="294.25"/><line class="cls-6" x1="399.57" y1="295.76" x2="399.57" y2="297.26"/><line class="cls-6" x1="427.51" y1="85.52" x2="427.51" y2="87.02"/><line class="cls-7" x1="427.51" y1="90.05" x2="427.51" y2="294.25"/><line class="cls-6" x1="427.51" y1="295.76" x2="427.51" y2="297.26"/><line class="cls-6" x1="455.45" y1="85.52" x2="455.45" y2="87.02"/><line class="cls-7" x1="455.45" y1="90.05" x2="455.45" y2="294.25"/><line class="cls-6" x1="455.45" y1="295.76" x2="455.45" y2="297.26"/><line class="cls-6" x1="483.39" y1="85.52" x2="483.39" y2="87.02"/><line class="cls-7" x1="483.39" y1="90.05" x2="483.39" y2="294.25"/><line class="cls-6" x1="483.39" y1="295.76" x2="483.39" y2="297.26"/><line class="cls-6" x1="511.33" y1="85.52" x2="511.33" y2="87.02"/><line class="cls-7" x1="511.33" y1="90.05" x2="511.33" y2="294.25"/><line class="cls-6" x1="511.33" y1="295.76" x2="511.33" y2="297.26"/><line class="cls-6" x1="539.26" y1="85.52" x2="539.26" y2="87.02"/><line class="cls-7" x1="539.26" y1="90.05" x2="539.26" y2="294.25"/><line class="cls-6" x1="539.26" y1="295.76" x2="539.26" y2="297.26"/><line class="cls-6" x1="567.2" y1="85.52" x2="567.2" y2="87.02"/><line class="cls-7" x1="567.2" y1="90.05" x2="567.2" y2="294.25"/><line class="cls-6" x1="567.2" y1="295.76" x2="567.2" y2="297.26"/><line class="cls-6" x1="595.14" y1="85.52" x2="595.14" y2="87.02"/><line class="cls-7" x1="595.14" y1="90.05" x2="595.14" y2="294.25"/><line class="cls-6" x1="595.14" y1="295.76" x2="595.14" y2="297.26"/><path class="cls-8" d="M293,194.18s30.13-63.9,53.8-63.9c24.81,0,30.92,59.36,59.36,58.12s30.3-53.8,51.33-54.41,32.77,72.35,65.55,71.73,76-81,86.07-81v157H293Z"/><path class="cls-9" d="M293,194.18s30.13-63.9,53.8-63.9c24.81,0,30.92,59.36,59.36,58.12s30.3-53.8,51.33-54.41,32.77,72.35,65.55,71.73,75.83-81,86.07-81"/><path class="cls-10" d="M292.89,183.92c8.94,0,19.66,56.57,50.67,54.82s33.62-27.23,56.88-25.9,47.83,41.69,84.1,42.28,56.1-41,71.89-39.78S590.7,261.55,610,262.72"/><path class="cls-11" d="M292.89,183.92c9.31,0,19.66,56.37,50.67,54.62s33.62-27,56.88-25.7,47.83,41.69,84.1,42.28,56.1-41,71.89-39.78S590.7,261.55,610,262.72v30.2H293Z"/><rect class="cls-5" x="292.92" y="60.59" width="45.69" height="9.9" rx="2"/><rect class="cls-5" x="386.04" y="60.59" width="45.69" height="9.9" rx="2"/><rect class="cls-5" x="479.17" y="60.59" width="45.69" height="9.9" rx="2"/><rect class="cls-5" x="572.3" y="60.59" width="45.69" height="9.9" rx="2"/></g></svg>