<svg xmlns="http://www.w3.org/2000/svg" viewBox="0 0 660.95 340.78"><defs><style>.cls-1{fill:#fff;}.cls-2{fill:#e6e6e6;}.cls-3{fill:#333;}.cls-23,.cls-4{fill:#666;}.cls-5{fill:#ccc;}.cls-6{fill:#999;}.cls-7,.cls-8,.cls-9{fill:#ff3068;}.cls-11,.cls-14,.cls-15,.cls-16,.cls-7,.cls-8,.cls-9{stroke:#ff3068;}.cls-10,.cls-11,.cls-13,.cls-14,.cls-15,.cls-16,.cls-18,.cls-24,.cls-7,.cls-8,.cls-9{stroke-miterlimit:10;}.cls-7{stroke-width:0.95px;}.cls-8{stroke-width:0.38px;}.cls-10,.cls-9{stroke-width:0.47px;}.cls-10,.cls-11,.cls-13,.cls-15,.cls-16,.cls-18,.cls-24{fill:none;}.cls-10,.cls-18{stroke:#00ab40;}.cls-11{stroke-width:0.79px;}.cls-12{fill:#00dd68;}.cls-12,.cls-17,.cls-22{opacity:0.5;}.cls-13{stroke:#ff662b;stroke-width:8.4px;}.cls-14{fill:#ff662b;stroke-width:0.09px;}.cls-15,.cls-18{stroke-width:1.19px;}.cls-16{stroke-width:1.63px;}.cls-17{fill:#292d95;}.cls-19{fill:#1f191a;}.cls-20{fill:#007cbd;}.cls-21{fill:#869b50;}.cls-22{fill:#ab2292;}.cls-23{font-size:18.98px;font-family:Montserrat-Regular, Montserrat;}.cls-24{stroke:#666;stroke-width:0.79px;}</style></defs><title>process</title><g id="Layer_3" data-name="Layer 3"><rect class="cls-1" width="660.95" height="340.78" rx="10"/><path class="cls-2" d="M10,0H227a0,0,0,0,1,0,0V340.78a0,0,0,0,1,0,0H10a10,10,0,0,1-10-10V10A10,10,0,0,1,10,0Z"/><rect class="cls-3" x="35.11" y="62.51" width="160.08" height="18.2" rx="3.62"/><rect class="cls-4" x="35.11" y="89.08" width="160.08" height="18.2" rx="3.62"/><rect class="cls-5" x="35.11" y="115.65" width="160.08" height="75.19" rx="3.62"/><rect class="cls-5" x="71.82" y="260.73" width="86.68" height="19.97" rx="2.01"/><rect class="cls-4" x="283.96" y="196.84" width="36.14" height="7.83" rx="2"/><rect class="cls-6" x="283.96" y="210.25" width="36.14" height="17.46" rx="2"/><line class="cls-7" x1="320.5" y1="127.08" x2="345.65" y2="127.08"/><line class="cls-8" x1="332.97" y1="123.75" x2="340.09" y2="127.46"/><line class="cls-8" x1="332.97" y1="130.6" x2="340.09" y2="127.46"/><line class="cls-9" x1="333.08" y1="123.75" x2="333.08" y2="130.64"/><path class="cls-10" d="M315,133.17c-1,13.52-.15,13.52-14.91,13.52l-18.88-.35c-8.39,0-13.75.16-13.75-11.65l.35-15.39c0-8,.82-11.54,12.7-11.54l22.61.35c9.63,0,11.88,1.25,11.88,9.33Z"/><circle class="cls-11" cx="291.28" cy="127.22" r="23.11"/><circle class="cls-12" cx="285.38" cy="127.08" r="5.93"/><path class="cls-13" d="M401.66,97.65c8.46,0,17.56,8.62,17.56,17.09"/><circle class="cls-14" cx="403.01" cy="97.1" r="4.2"/><circle class="cls-14" cx="419.76" cy="114.33" r="4.2"/><circle class="cls-12" cx="597.43" cy="128.02" r="5.93"/><circle class="cls-15" cx="387.42" cy="127.55" r="34.65"/><circle class="cls-12" cx="375.55" cy="129.69" r="5.93"/><line class="cls-7" x1="423.96" y1="127.79" x2="449.12" y2="127.79"/><line class="cls-8" x1="441.89" y1="124.46" x2="449.01" y2="128.17"/><line class="cls-8" x1="441.89" y1="131.31" x2="449.01" y2="128.17"/><line class="cls-9" x1="442" y1="124.47" x2="442" y2="131.35"/><circle class="cls-16" cx="496.58" cy="128.26" r="47.46"/><circle class="cls-17" cx="484.95" cy="128.26" r="5.93"/><circle class="cls-12" cx="514.38" cy="128.97" r="5.93"/><path class="cls-18" d="M541.55,140.75c-1.66,30-.19,30-28.24,30L477.49,170c-15.95,0-26.11.34-26.11-25.86l.68-34.12c0-17.71,1.56-25.6,24.15-24.59l42.85.77c18.31-1,22.49,1.75,22.49,19.68Z"/><line class="cls-7" x1="544.04" y1="127.08" x2="569.19" y2="127.08"/><line class="cls-8" x1="561.97" y1="123.75" x2="569.09" y2="127.46"/><line class="cls-8" x1="561.97" y1="130.6" x2="569.09" y2="127.46"/><line class="cls-9" x1="562.07" y1="123.75" x2="562.07" y2="130.64"/><path class="cls-19" d="M635.57,129.25a.42.42,0,0,0,.38.45.44.44,0,0,0,.43-.42.42.42,0,0,0-.38-.45A.43.43,0,0,0,635.57,129.25Z"/><path class="cls-20" d="M633.64,135a.43.43,0,0,1,.5-.31.4.4,0,0,1,.28.5Z"/><path class="cls-20" d="M631.41,134.5a.4.4,0,0,1,.48-.28.39.39,0,0,1,.3.47Z"/><path class="cls-20" d="M635.57,129.25a.42.42,0,0,0,.38.45.44.44,0,0,0,.43-.42.42.42,0,0,0-.38-.45A.43.43,0,0,0,635.57,129.25Z"/><path class="cls-21" d="M635.4,131.69a.41.41,0,0,0,.34.47.42.42,0,0,0,.46-.38.4.4,0,0,0-.33-.48A.45.45,0,0,0,635.4,131.69Z"/><path class="cls-20" d="M635,134.11a.44.44,0,0,0,.32.5.4.4,0,0,0,.47-.35.44.44,0,0,0-.33-.51A.42.42,0,0,0,635,134.11Z"/><path class="cls-21" d="M632.08,130.21a.41.41,0,0,0,.38.41.37.37,0,0,0,.42-.35.4.4,0,0,0-.38-.42A.39.39,0,0,0,632.08,130.21Z"/><path class="cls-21" d="M631.82,132.37a.39.39,0,0,0,.34.44.38.38,0,0,0,.45-.32.4.4,0,0,0-.79-.12Z"/><path class="cls-21" d="M634.36,130.38a.43.43,0,0,0,.38.45.39.39,0,0,0,.43-.39.41.41,0,1,0-.81-.06Z"/><path class="cls-21" d="M634.08,132.72a.43.43,0,0,0,.34.48.41.41,0,0,0,.46-.36.4.4,0,0,0-.33-.47A.42.42,0,0,0,634.08,132.72Z"/><path class="cls-21" d="M633.28,129.16a.4.4,0,1,0,.42-.39A.42.42,0,0,0,633.28,129.16Z"/><path class="cls-20" d="M633.12,131.42a.4.4,0,0,0,.34.45.41.41,0,0,0,.46-.36.38.38,0,0,0-.34-.44A.44.44,0,0,0,633.12,131.42Z"/><path class="cls-21" d="M632.78,133.67a.43.43,0,0,0,.32.47.38.38,0,0,0,.47-.32.43.43,0,0,0-.33-.48A.4.4,0,0,0,632.78,133.67Z"/><path class="cls-20" d="M631,129.07a.39.39,0,0,0,.38.39.4.4,0,0,0,.43-.36.38.38,0,0,0-.39-.38A.39.39,0,0,0,631,129.07Z"/><path class="cls-21" d="M630.84,131.16a.37.37,0,0,0,.34.41.4.4,0,0,0,.46-.32.36.36,0,0,0-.34-.41A.41.41,0,0,0,630.84,131.16Z"/><path class="cls-20" d="M630.52,133.23a.42.42,0,0,0,.33.44.37.37,0,0,0,.46-.29.41.41,0,0,0-.34-.45A.39.39,0,0,0,630.52,133.23Z"/><path class="cls-20" d="M634.48,128a.39.39,0,0,0,.39.42.42.42,0,0,0,.42-.42Z"/><path class="cls-20" d="M632.19,128a.37.37,0,0,0,.38.39A.42.42,0,0,0,633,128Z"/><path class="cls-19" d="M634.45,136.48a.44.44,0,0,0,.28.53.4.4,0,0,0,.5-.31.43.43,0,0,0-.28-.53A.42.42,0,0,0,634.45,136.48Z"/><path class="cls-20" d="M631.23,141.66a.4.4,0,1,1,.72.36Z"/><path class="cls-20" d="M629.18,140.63a.39.39,0,0,1,.52-.17.4.4,0,0,1,.19.53Z"/><path class="cls-20" d="M634.45,136.48a.44.44,0,0,0,.28.53.4.4,0,0,0,.5-.31.43.43,0,0,0-.28-.53A.42.42,0,0,0,634.45,136.48Z"/><path class="cls-21" d="M633.7,138.81a.41.41,0,1,0,.76.28.42.42,0,0,0-.23-.55A.43.43,0,0,0,633.7,138.81Z"/><path class="cls-20" d="M632.78,141.08a.42.42,0,0,0,.18.56.44.44,0,0,0,.56-.23.42.42,0,0,0-.18-.56A.43.43,0,0,0,632.78,141.08Z"/><path class="cls-21" d="M630.84,136.61a.38.38,0,0,0,.25.49.42.42,0,0,0,.52-.24.39.39,0,0,0-.27-.5A.41.41,0,0,0,630.84,136.61Z"/><path class="cls-21" d="M630.09,138.66a.42.42,0,0,0,.24.51.38.38,0,0,0,.51-.21.43.43,0,0,0-.24-.52A.39.39,0,0,0,630.09,138.66Z"/><path class="cls-21" d="M633,137.31a.4.4,0,0,0,.24.52.42.42,0,0,0,.52-.27.39.39,0,0,0-.25-.52A.42.42,0,0,0,633,137.31Z"/><path class="cls-21" d="M632.22,139.52a.44.44,0,0,0,.22.55.39.39,0,0,0,.52-.24.43.43,0,0,0-.23-.55A.4.4,0,0,0,632.22,139.52Z"/><path class="cls-21" d="M632.24,135.87a.42.42,0,0,0,.29.5.4.4,0,0,0,.49-.29.41.41,0,0,0-.29-.49A.39.39,0,0,0,632.24,135.87Z"/><path class="cls-20" d="M631.54,138a.42.42,0,0,0,.24.52.4.4,0,1,0,.28-.76A.42.42,0,0,0,631.54,138Z"/><path class="cls-21" d="M630.69,140.13a.41.41,0,0,0,.19.53.43.43,0,0,0,.55-.2.39.39,0,0,0-.2-.53A.42.42,0,0,0,630.69,140.13Z"/><path class="cls-20" d="M630,135.25a.4.4,0,0,0,.29.47.38.38,0,0,0,.48-.25.4.4,0,0,0-.29-.47A.39.39,0,0,0,630,135.25Z"/><path class="cls-21" d="M629.38,137.24a.38.38,0,0,0,.26.48.37.37,0,1,0,.25-.69A.39.39,0,0,0,629.38,137.24Z"/><path class="cls-20" d="M628.6,139.17a.37.37,0,0,0,.21.5.38.38,0,0,0,.52-.16.37.37,0,0,0-.2-.5A.41.41,0,0,0,628.6,139.17Z"/><path class="cls-20" d="M633.64,135a.4.4,0,0,0,.29.5.42.42,0,0,0,.49-.31Z"/><path class="cls-20" d="M631.41,134.5a.38.38,0,0,0,.29.47.4.4,0,0,0,.49-.28Z"/><path class="cls-19" d="M631.7,143.27a.41.41,0,0,0,.13.57.43.43,0,0,0,.57-.18.39.39,0,0,0-.14-.57A.42.42,0,0,0,631.7,143.27Z"/><path class="cls-20" d="M627.36,147.56a.43.43,0,0,1,.58-.06.4.4,0,0,1,0,.58Z"/><path class="cls-20" d="M625.6,146.09a.42.42,0,0,1,.56,0,.39.39,0,0,1,.06.56Z"/><path class="cls-20" d="M631.7,143.27a.41.41,0,0,0,.13.57.43.43,0,0,0,.57-.18.39.39,0,0,0-.14-.57A.42.42,0,0,0,631.7,143.27Z"/><path class="cls-21" d="M630.43,145.36a.44.44,0,0,0,.1.59.4.4,0,0,0,.57-.15.43.43,0,0,0-.11-.59A.4.4,0,0,0,630.43,145.36Z"/><path class="cls-20" d="M629,147.34a.45.45,0,0,0,.06.6.41.41,0,0,0,.58-.1.43.43,0,0,0-.06-.6A.42.42,0,0,0,629,147.34Z"/><path class="cls-21" d="M628.12,142.54a.4.4,0,0,0,.14.54.4.4,0,0,0,.55-.13.39.39,0,0,0-.15-.54A.4.4,0,0,0,628.12,142.54Z"/><path class="cls-21" d="M626.93,144.36a.38.38,0,0,0,.09.54.41.41,0,0,0,.56-.07.38.38,0,0,0-.1-.55A.39.39,0,0,0,626.93,144.36Z"/><path class="cls-21" d="M630.08,143.72a.42.42,0,0,0,.13.57.42.42,0,0,0,.43-.72A.42.42,0,0,0,630.08,143.72Z"/><path class="cls-21" d="M628.79,145.69a.41.41,0,1,0,.66.47.4.4,0,0,0-.08-.57A.44.44,0,0,0,628.79,145.69Z"/><path class="cls-21" d="M629.69,142.16a.39.39,0,0,0,.14.54.42.42,0,0,0,.56-.15.39.39,0,0,0-.15-.55A.43.43,0,0,0,629.69,142.16Z"/><path class="cls-20" d="M628.51,144.1a.42.42,0,0,0,.12.56.37.37,0,0,0,.55-.12.41.41,0,0,0-.12-.56A.39.39,0,0,0,628.51,144.1Z"/><path class="cls-21" d="M627.18,145.93a.41.41,0,0,0,.08.57.38.38,0,0,0,.55-.07.4.4,0,1,0-.63-.5Z"/><path class="cls-20" d="M627.68,141.05a.36.36,0,0,0,.16.51.4.4,0,0,0,.54-.12.37.37,0,0,0-.17-.52A.39.39,0,0,0,627.68,141.05Z"/><path class="cls-21" d="M626.59,142.83a.42.42,0,0,0,.14.54.36.36,0,0,0,.53-.09.4.4,0,0,0-.14-.54A.38.38,0,0,0,626.59,142.83Z"/><path class="cls-20" d="M625.36,144.52a.41.41,0,0,0,.1.55.37.37,0,0,0,.54,0,.4.4,0,0,0-.1-.55A.39.39,0,0,0,625.36,144.52Z"/><path class="cls-20" d="M631.23,141.66a.43.43,0,0,0,.17.56.41.41,0,0,0,.55-.2Z"/><path class="cls-20" d="M629.18,140.63a.4.4,0,0,0,.19.53.37.37,0,0,0,.52-.17Z"/><path class="cls-19" d="M627.42,149.21a.42.42,0,0,0,0,.59.44.44,0,0,0,.59-.64A.43.43,0,0,0,627.42,149.21Z"/><path class="cls-20" d="M622.21,152.39a.41.41,0,1,1,.49.65Z"/><path class="cls-20" d="M620.84,150.55a.4.4,0,0,1,.48.65Z"/><path class="cls-20" d="M627.42,149.21a.42.42,0,0,0,0,.59.44.44,0,0,0,.59-.64A.43.43,0,0,0,627.42,149.21Z"/><path class="cls-21" d="M625.71,151a.41.41,0,0,0,0,.58.43.43,0,0,0,.64-.58A.43.43,0,0,0,625.71,151Z"/><path class="cls-20" d="M623.88,152.58a.41.41,0,0,0-.1.57.43.43,0,0,0,.6,0,.39.39,0,0,0,.09-.58A.44.44,0,0,0,623.88,152.58Z"/><path class="cls-21" d="M624.13,147.7a.43.43,0,0,0,0,.56.38.38,0,0,0,.56,0,.41.41,0,0,0,0-.57A.38.38,0,0,0,624.13,147.7Z"/><path class="cls-21" d="M622.54,149.19a.39.39,0,0,0,0,.56.38.38,0,0,0,.55,0,.4.4,0,0,0,0-.56A.38.38,0,0,0,622.54,149.19Z"/><path class="cls-21" d="M625.77,149.31a.43.43,0,0,0,0,.58.39.39,0,0,0,.58,0,.42.42,0,0,0,0-.59A.4.4,0,0,0,625.77,149.31Z"/><path class="cls-21" d="M624.05,150.92a.42.42,0,0,0,0,.58.4.4,0,0,0,.58,0,.41.41,0,0,0,0-.58A.39.39,0,0,0,624.05,150.92Z"/><path class="cls-21" d="M625.72,147.67a.41.41,0,0,0,0,.57.4.4,0,0,0,.57,0,.4.4,0,1,0-.59-.54Z"/><path class="cls-20" d="M624.13,149.29a.4.4,0,0,0,0,.56.4.4,0,0,0,.58,0,.4.4,0,0,0,0-.56A.42.42,0,0,0,624.13,149.29Z"/><path class="cls-21" d="M622.44,150.79a.4.4,0,0,0-.08.56.43.43,0,0,0,.58.07.39.39,0,0,0,.07-.56A.42.42,0,0,0,622.44,150.79Z"/><path class="cls-20" d="M624,146.12a.39.39,0,0,0,0,.55.38.38,0,0,0,.55,0,.37.37,0,0,0-.05-.54A.38.38,0,0,0,624,146.12Z"/><path class="cls-21" d="M622.56,147.62a.38.38,0,0,0,0,.54.39.39,0,0,0,.55,0,.38.38,0,0,0,0-.54A.4.4,0,0,0,622.56,147.62Z"/><path class="cls-20" d="M621,149a.38.38,0,0,0,0,.54.41.41,0,0,0,.55.09.37.37,0,0,0,0-.54A.42.42,0,0,0,621,149Z"/><path class="cls-20" d="M627.36,147.56a.4.4,0,0,0,0,.57.42.42,0,0,0,.59,0Z"/><path class="cls-20" d="M625.6,146.09a.37.37,0,0,0,0,.54.4.4,0,0,0,.57,0Z"/><path class="cls-19" d="M621.92,154a.43.43,0,0,0-.13.58.4.4,0,0,0,.58.09.43.43,0,0,0,.12-.59A.39.39,0,0,0,621.92,154Z"/><path class="cls-20" d="M616.12,155.94a.4.4,0,0,1,.53.19.42.42,0,0,1-.21.55Z"/><path class="cls-20" d="M615.21,153.84a.36.36,0,0,1,.5.2.41.41,0,0,1-.18.54Z"/><path class="cls-20" d="M621.92,154a.43.43,0,0,0-.13.58.4.4,0,0,0,.58.09.43.43,0,0,0,.12-.59A.39.39,0,0,0,621.92,154Z"/><path class="cls-21" d="M619.84,155.33a.44.44,0,0,0-.17.58.4.4,0,0,0,.57.12.4.4,0,1,0-.4-.7Z"/><path class="cls-20" d="M617.67,156.47a.41.41,0,1,0,.35.73.41.41,0,1,0-.35-.73Z"/><path class="cls-21" d="M619.05,151.79a.39.39,0,0,0-.12.54.41.41,0,0,0,.55.14.39.39,0,0,0,.11-.54A.4.4,0,0,0,619.05,151.79Z"/><path class="cls-21" d="M617.17,152.89a.38.38,0,0,0-.16.52.4.4,0,0,0,.54.19.39.39,0,0,0,.16-.53A.44.44,0,0,0,617.17,152.89Z"/><path class="cls-21" d="M620.27,153.73a.41.41,0,0,0-.14.56.41.41,0,0,0,.57.12.4.4,0,0,0,.15-.56A.44.44,0,0,0,620.27,153.73Z"/><path class="cls-21" d="M618.24,154.92a.4.4,0,0,0-.19.54.42.42,0,0,0,.57.17.39.39,0,0,0,.18-.54A.43.43,0,0,0,618.24,154.92Z"/><path class="cls-21" d="M620.62,152.15a.43.43,0,0,0-.11.56.38.38,0,0,0,.56.1.41.41,0,0,0,.1-.57A.39.39,0,0,0,620.62,152.15Z"/><path class="cls-20" d="M618.69,153.35a.4.4,0,0,0-.14.55.38.38,0,0,0,.54.14.4.4,0,1,0-.4-.69Z"/><path class="cls-21" d="M616.68,154.4a.42.42,0,0,0-.19.54.4.4,0,0,0,.54.18.39.39,0,0,0,.19-.53A.4.4,0,0,0,616.68,154.4Z"/><path class="cls-20" d="M619.32,150.26a.39.39,0,0,0-.08.54.37.37,0,0,0,.53.12.4.4,0,0,0,.07-.56A.36.36,0,0,0,619.32,150.26Z"/><path class="cls-21" d="M617.54,151.36a.41.41,0,0,0-.12.54.38.38,0,0,0,.52.15.4.4,0,0,0,.12-.54A.38.38,0,0,0,617.54,151.36Z"/><path class="cls-20" d="M615.69,152.33a.39.39,0,0,0-.16.52.38.38,0,0,0,.51.2.38.38,0,0,0,.16-.52A.39.39,0,0,0,615.69,152.33Z"/><path class="cls-20" d="M622.21,152.39a.41.41,0,1,0,.49.65Z"/><path class="cls-20" d="M620.84,150.55a.39.39,0,0,0-.07.55.39.39,0,0,0,.55.09Z"/><path class="cls-19" d="M615.43,157.44a.42.42,0,0,0-.26.53.41.41,0,0,0,.55.22.39.39,0,0,0,.26-.52A.43.43,0,0,0,615.43,157.44Z"/><path class="cls-20" d="M609.35,158a.41.41,0,0,1,.48.33.39.39,0,0,1-.34.46Z"/><path class="cls-20" d="M609,155.68a.42.42,0,0,1,.46.34.39.39,0,0,1-.32.46Z"/><path class="cls-20" d="M615.43,157.44a.42.42,0,0,0-.26.53.41.41,0,0,0,.55.22.39.39,0,0,0,.26-.52A.43.43,0,0,0,615.43,157.44Z"/><path class="cls-21" d="M613.12,158.25a.4.4,0,0,0-.3.49.43.43,0,0,0,.53.28.4.4,0,0,0,.31-.5A.45.45,0,0,0,613.12,158.25Z"/><path class="cls-20" d="M610.75,158.86a.44.44,0,0,0-.34.49.41.41,0,0,0,.51.3.44.44,0,0,0,.34-.5A.41.41,0,0,0,610.75,158.86Z"/><path class="cls-21" d="M613.17,154.6a.42.42,0,0,0-.24.52.39.39,0,0,0,.5.25.41.41,0,0,0,.23-.52A.39.39,0,0,0,613.17,154.6Z"/><path class="cls-21" d="M611.08,155.22a.39.39,0,0,0-.27.49.39.39,0,0,0,.47.29.4.4,0,0,0,.28-.49A.41.41,0,0,0,611.08,155.22Z"/><path class="cls-21" d="M613.91,156.78a.42.42,0,0,0-.26.52.39.39,0,0,0,.52.24.42.42,0,0,0,.26-.53A.4.4,0,0,0,613.91,156.78Z"/><path class="cls-21" d="M611.65,157.44a.41.41,0,0,0-.3.5.4.4,0,0,0,.5.28.41.41,0,0,0,.31-.49A.42.42,0,0,0,611.65,157.44Z"/><path class="cls-21" d="M614.6,155.3a.4.4,0,0,0,.29.75.39.39,0,0,0,.24-.51A.43.43,0,0,0,614.6,155.3Z"/><path class="cls-20" d="M612.46,156.05a.39.39,0,0,0-.27.49.41.41,0,0,0,.5.28.38.38,0,0,0,.28-.49A.43.43,0,0,0,612.46,156.05Z"/><path class="cls-21" d="M610.27,156.61a.43.43,0,0,0-.31.49.38.38,0,0,0,.48.3.42.42,0,0,0,.3-.49A.39.39,0,0,0,610.27,156.61Z"/><path class="cls-20" d="M613.77,153.16a.38.38,0,0,0-.2.5.39.39,0,0,0,.49.25.38.38,0,0,0,.21-.51A.41.41,0,0,0,613.77,153.16Z"/><path class="cls-21" d="M611.81,153.85a.37.37,0,0,0-.25.47.4.4,0,0,0,.48.3.37.37,0,0,0,.24-.49A.41.41,0,0,0,611.81,153.85Z"/><path class="cls-20" d="M609.78,154.37a.41.41,0,0,0-.28.48.37.37,0,0,0,.45.3.4.4,0,0,0,.28-.48A.37.37,0,0,0,609.78,154.37Z"/><path class="cls-20" d="M616.12,155.94a.44.44,0,0,0-.23.54.41.41,0,0,0,.55.2Z"/><path class="cls-20" d="M615.21,153.84a.41.41,0,0,0-.2.52.38.38,0,0,0,.52.21Z"/><path class="cls-19" d="M608.34,159.26a.43.43,0,0,0-.38.47.4.4,0,0,0,.48.33.4.4,0,1,0-.1-.8Z"/><path class="cls-20" d="M602.31,158.34a.42.42,0,0,1,.39.43.41.41,0,0,1-.44.38Z"/><path class="cls-20" d="M602.44,156.05a.41.41,0,0,1-.05.81Z"/><path class="cls-20" d="M608.34,159.26a.43.43,0,0,0-.38.47.4.4,0,0,0,.48.33.4.4,0,1,0-.1-.8Z"/><path class="cls-21" d="M605.91,159.49a.41.41,0,0,0-.41.42.4.4,0,0,0,.45.38.41.41,0,0,0,.41-.42A.42.42,0,0,0,605.91,159.49Z"/><path class="cls-20" d="M603.46,159.55a.41.41,0,0,0-.44.38.44.44,0,0,0,.43.43.4.4,0,0,0,.44-.39A.44.44,0,0,0,603.46,159.55Z"/><path class="cls-21" d="M606.8,156a.38.38,0,0,0-.35.42.41.41,0,0,0,.42.38.39.39,0,0,0,.35-.44A.4.4,0,0,0,606.8,156Z"/><path class="cls-21" d="M604.62,156.11a.42.42,0,0,0-.38.42.38.38,0,0,0,.39.38.4.4,0,0,0,.38-.42A.38.38,0,0,0,604.62,156.11Z"/><path class="cls-21" d="M607,158.28a.4.4,0,0,0-.38.43.42.42,0,0,0,.45.38.41.41,0,0,0,.38-.45A.43.43,0,0,0,607,158.28Z"/><path class="cls-21" d="M604.66,158.4a.44.44,0,0,0-.41.43.39.39,0,0,0,.43.38.42.42,0,0,0,.41-.42A.41.41,0,0,0,604.66,158.4Z"/><path class="cls-21" d="M608,157a.42.42,0,0,0-.35.46.39.39,0,0,0,.46.33.41.41,0,0,0,.34-.46A.38.38,0,0,0,608,157Z"/><path class="cls-20" d="M605.77,157.2a.4.4,0,1,0,.05.8.39.39,0,0,0,.38-.42A.42.42,0,0,0,605.77,157.2Z"/><path class="cls-21" d="M603.51,157.26a.38.38,0,0,0-.41.38.4.4,0,0,0,.39.42.38.38,0,0,0,.41-.38A.42.42,0,0,0,603.51,157.26Z"/><path class="cls-20" d="M607.72,154.71a.39.39,0,0,0-.31.45.37.37,0,0,0,.42.35.4.4,0,0,0,.31-.46A.38.38,0,0,0,607.72,154.71Z"/><path class="cls-21" d="M605.64,154.9a.41.41,0,0,0,.05.81.39.39,0,0,0,.35-.42A.41.41,0,0,0,605.64,154.9Z"/><path class="cls-20" d="M603.55,155a.38.38,0,0,0-.38.38.4.4,0,0,0,.36.42.37.37,0,0,0,.38-.38A.4.4,0,0,0,603.55,155Z"/><path class="cls-20" d="M609.35,158a.4.4,0,0,0-.34.46.41.41,0,0,0,.48.33Z"/><path class="cls-20" d="M609,155.68a.41.41,0,0,0,.13.8Z"/><path class="cls-19" d="M601,159.43a.4.4,0,1,0-.08.8.44.44,0,0,0,.47-.38A.4.4,0,0,0,601,159.43Z"/><path class="cls-20" d="M595.35,157.15a.4.4,0,0,1,.3.49.44.44,0,0,1-.53.28Z"/><path class="cls-20" d="M596,155a.38.38,0,0,1,.26.48.42.42,0,0,1-.49.29Z"/><path class="cls-20" d="M601,159.43a.4.4,0,1,0-.08.8.44.44,0,0,0,.47-.38A.4.4,0,0,0,601,159.43Z"/><path class="cls-21" d="M598.6,159.08a.43.43,0,0,0-.5.33.41.41,0,0,0,.36.46.43.43,0,0,0,.5-.33A.41.41,0,0,0,598.6,159.08Z"/><path class="cls-20" d="M596.21,158.55a.43.43,0,0,0-.52.29.4.4,0,0,0,.32.49.41.41,0,0,0,.52-.28A.43.43,0,0,0,596.21,158.55Z"/><path class="cls-21" d="M600.27,155.85a.4.4,0,0,0-.44.34.41.41,0,0,0,.33.46.39.39,0,0,0,.44-.34A.41.41,0,0,0,600.27,155.85Z"/><path class="cls-21" d="M598.12,155.49a.38.38,0,0,0-.46.3.42.42,0,0,0,.29.49.37.37,0,0,0,.46-.31A.41.41,0,0,0,598.12,155.49Z"/><path class="cls-21" d="M600,158.12a.42.42,0,0,0-.47.34.41.41,0,0,0,.36.46.39.39,0,0,0,.47-.33A.42.42,0,0,0,600,158.12Z"/><path class="cls-21" d="M597.64,157.74a.39.39,0,0,0-.49.29.42.42,0,0,0,.32.49.38.38,0,0,0,.49-.3A.43.43,0,0,0,597.64,157.74Z"/><path class="cls-21" d="M601.24,157.14a.42.42,0,0,0-.44.36.4.4,0,0,0,.36.44.41.41,0,0,0,.44-.38A.38.38,0,0,0,601.24,157.14Z"/><path class="cls-20" d="M599,156.81a.42.42,0,0,0-.47.34.39.39,0,0,0,.33.46.41.41,0,0,0,.46-.34A.4.4,0,0,0,599,156.81Z"/><path class="cls-21" d="M596.78,156.33a.42.42,0,0,0-.49.29.4.4,0,0,0,.29.49.39.39,0,0,0,.49-.29A.41.41,0,0,0,596.78,156.33Z"/><path class="cls-20" d="M601.46,154.85a.4.4,0,0,0-.41.36.38.38,0,0,0,.33.44.41.41,0,0,0,.41-.38A.37.37,0,0,0,601.46,154.85Z"/><path class="cls-21" d="M599.39,154.55a.39.39,0,0,0-.43.34.36.36,0,0,0,.29.45.39.39,0,0,0,.44-.34A.38.38,0,0,0,599.39,154.55Z"/><path class="cls-20" d="M597.35,154.1a.4.4,0,0,0-.46.3.37.37,0,1,0,.72.19A.4.4,0,0,0,597.35,154.1Z"/><path class="cls-20" d="M602.31,158.34a.42.42,0,0,0-.44.39.4.4,0,0,0,.39.42Z"/><path class="cls-20" d="M602.44,156.05a.41.41,0,0,0-.41.38.4.4,0,0,0,.36.43Z"/><path class="cls-19" d="M593.86,157.86a.42.42,0,0,0-.54.23.43.43,0,0,0,.28.53.4.4,0,0,0,.54-.23A.43.43,0,0,0,593.86,157.86Z"/><path class="cls-20" d="M588.88,154.34a.42.42,0,0,1,.16.56.4.4,0,0,1-.56.14Z"/><path class="cls-20" d="M590,152.35a.41.41,0,0,1,.13.55.38.38,0,0,1-.53.15Z"/><path class="cls-20" d="M593.86,157.86a.42.42,0,0,0-.54.23.43.43,0,0,0,.28.53.4.4,0,0,0,.54-.23A.43.43,0,0,0,593.86,157.86Z"/><path class="cls-21" d="M591.58,157a.41.41,0,0,0-.56.18.45.45,0,0,0,.24.56.4.4,0,0,0,.55-.2A.42.42,0,0,0,591.58,157Z"/><path class="cls-20" d="M589.37,155.93a.45.45,0,0,0-.58.17.4.4,0,0,0,.2.55.44.44,0,0,0,.58-.17A.41.41,0,0,0,589.37,155.93Z"/><path class="cls-21" d="M594,154.23a.4.4,0,0,0-.51.24.38.38,0,0,0,.22.51.4.4,0,0,0,.5-.24A.39.39,0,0,0,594,154.23Z"/><path class="cls-21" d="M592,153.36a.41.41,0,0,0-.35.73.41.41,0,0,0,.35-.73Z"/><path class="cls-21" d="M593.13,156.37a.42.42,0,0,0-.54.23.4.4,0,0,0,.25.52.4.4,0,1,0,.29-.75Z"/><path class="cls-21" d="M591,155.43a.4.4,0,1,0,.2.55A.43.43,0,0,0,591,155.43Z"/><path class="cls-21" d="M594.61,155.69a.39.39,0,0,0-.51.24.4.4,0,0,0,.25.52.39.39,0,0,0,.51-.24A.43.43,0,0,0,594.61,155.69Z"/><path class="cls-20" d="M592.49,154.89a.39.39,0,0,0-.53.19.42.42,0,0,0,.21.55.4.4,0,0,0,.53-.21A.43.43,0,0,0,592.49,154.89Z"/><path class="cls-21" d="M590.44,153.9a.43.43,0,0,0-.55.18.39.39,0,0,0,.17.54.43.43,0,0,0,.56-.19A.39.39,0,0,0,590.44,153.9Z"/><path class="cls-20" d="M595.35,153.51a.39.39,0,0,0-.48.26.4.4,0,0,0,.22.51.38.38,0,0,0,.48-.26A.4.4,0,0,0,595.35,153.51Z"/><path class="cls-21" d="M593.4,152.78a.37.37,0,0,0-.5.21.4.4,0,0,0,.18.53.38.38,0,0,0,.5-.22A.41.41,0,0,0,593.4,152.78Z"/><path class="cls-20" d="M591.51,151.87a.41.41,0,0,0-.52.19.37.37,0,0,0,.15.52.39.39,0,0,0,.52-.19A.37.37,0,0,0,591.51,151.87Z"/><path class="cls-20" d="M595.36,157.15a.43.43,0,0,0-.52.27.39.39,0,0,0,.28.5Z"/><path class="cls-20" d="M596,155a.4.4,0,0,0-.48.28.37.37,0,0,0,.25.49Z"/><path class="cls-19" d="M587.26,154.7a.43.43,0,0,0-.59.11.41.41,0,0,0,.16.57.44.44,0,0,0,.59-.12A.42.42,0,0,0,587.26,154.7Z"/><path class="cls-20" d="M583.23,150.12a.41.41,0,0,1,0,.58.42.42,0,0,1-.59,0Z"/><path class="cls-20" d="M584.8,148.45a.38.38,0,0,1,0,.55.4.4,0,0,1-.56,0Z"/><path class="cls-20" d="M587.26,154.7a.43.43,0,0,0-.59.11.41.41,0,0,0,.16.57.44.44,0,0,0,.59-.12A.42.42,0,0,0,587.26,154.7Z"/><path class="cls-21" d="M585.25,153.31a.43.43,0,0,0-.59.06.4.4,0,0,0,.11.58.41.41,0,0,0,.59-.06A.42.42,0,0,0,585.25,153.31Z"/><path class="cls-20" d="M583.34,151.78a.4.4,0,0,0-.58,0,.42.42,0,0,0,0,.59.4.4,0,0,0,.59,0A.43.43,0,0,0,583.34,151.78Z"/><path class="cls-21" d="M588.18,151.2a.39.39,0,0,0-.54.1.41.41,0,0,0,.08.56.38.38,0,0,0,.55-.11A.42.42,0,0,0,588.18,151.2Z"/><path class="cls-21" d="M586.43,149.9a.41.41,0,0,0-.56.07.38.38,0,0,0,.06.55.4.4,0,0,0,.56-.08A.37.37,0,0,0,586.43,149.9Z"/><path class="cls-21" d="M586.88,153.09a.4.4,0,0,0-.57.09.43.43,0,0,0,.11.58.39.39,0,0,0,.57-.1A.42.42,0,0,0,586.88,153.09Z"/><path class="cls-21" d="M585,151.68a.43.43,0,0,0-.58.06.39.39,0,0,0,.07.57.43.43,0,0,0,.59-.06A.4.4,0,0,0,585,151.68Z"/><path class="cls-21" d="M588.49,152.76a.41.41,0,0,0-.56.13.38.38,0,0,0,.13.55.42.42,0,0,0,.56-.14A.4.4,0,0,0,588.49,152.76Z"/><path class="cls-20" d="M586.62,151.47a.4.4,0,0,0-.56.08.4.4,0,0,0,.64.48A.4.4,0,0,0,586.62,151.47Z"/><path class="cls-21" d="M584.85,150.05a.4.4,0,0,0-.56,0,.41.41,0,0,0,0,.57.39.39,0,0,0,.57,0A.41.41,0,0,0,584.85,150.05Z"/><path class="cls-20" d="M589.71,150.81a.4.4,0,0,0-.53.15.37.37,0,0,0,.1.53.4.4,0,0,0,.54-.15A.38.38,0,0,0,589.71,150.81Z"/><path class="cls-21" d="M588,149.63a.4.4,0,1,0,.06.54A.38.38,0,0,0,588,149.63Z"/><path class="cls-20" d="M586.37,148.32a.37.37,0,0,0-.54.05.38.38,0,0,0,0,.55.36.36,0,0,0,.53,0A.4.4,0,0,0,586.37,148.32Z"/><path class="cls-20" d="M588.88,154.34a.41.41,0,0,0-.56.13.43.43,0,0,0,.16.57Z"/><path class="cls-20" d="M590,152.35a.39.39,0,0,0-.53.15.4.4,0,0,0,.13.55Z"/><path class="cls-19" d="M581.55,150.11a.41.41,0,0,0-.58,0,.43.43,0,0,0,0,.6.39.39,0,0,0,.59,0A.43.43,0,0,0,581.55,150.11Z"/><path class="cls-20" d="M578.68,144.73a.42.42,0,0,1-.11.57.39.39,0,0,1-.56-.13Z"/><path class="cls-20" d="M580.6,143.46a.43.43,0,0,1-.13.55.39.39,0,0,1-.55-.1Z"/><path class="cls-20" d="M581.55,150.11a.41.41,0,0,0-.58,0,.43.43,0,0,0,0,.6.39.39,0,0,0,.59,0A.43.43,0,0,0,581.55,150.11Z"/><path class="cls-21" d="M579.91,148.3a.44.44,0,0,0-.59-.07.4.4,0,0,0,0,.59.43.43,0,0,0,.6.06A.4.4,0,0,0,579.91,148.3Z"/><path class="cls-20" d="M578.42,146.36a.43.43,0,0,0-.58-.12.4.4,0,0,0-.07.59.42.42,0,0,0,.58.11A.41.41,0,0,0,578.42,146.36Z"/><path class="cls-21" d="M583.28,146.89a.41.41,0,0,0-.56,0,.39.39,0,1,0,.52.58A.41.41,0,0,0,583.28,146.89Z"/><path class="cls-21" d="M581.88,145.23a.4.4,0,0,0-.55-.07.4.4,0,0,0-.09.56.39.39,0,0,0,.55.06A.41.41,0,0,0,581.88,145.23Z"/><path class="cls-21" d="M581.58,148.43a.43.43,0,0,0-.58,0,.42.42,0,0,0,0,.59.4.4,0,0,0,.58,0A.41.41,0,0,0,581.58,148.43Z"/><path class="cls-21" d="M580.06,146.63a.4.4,0,0,0-.57-.08.42.42,0,0,0-.06.58.4.4,0,0,0,.57.09A.43.43,0,0,0,580.06,146.63Z"/><path class="cls-21" d="M583.19,148.5a.39.39,0,0,0-.56,0,.42.42,0,0,0,0,.58.38.38,0,0,0,.56,0A.42.42,0,0,0,583.19,148.5Z"/><path class="cls-20" d="M581.67,146.82a.43.43,0,0,0-.57,0,.37.37,0,0,0-.05.56.41.41,0,0,0,.58,0A.4.4,0,0,0,581.67,146.82Z"/><path class="cls-21" d="M580.29,145a.43.43,0,0,0-.57-.09.4.4,0,0,0-.09.56.41.41,0,0,0,.57.09A.4.4,0,0,0,580.29,145Z"/><path class="cls-20" d="M584.83,146.89a.37.37,0,0,0-.53,0,.41.41,0,0,0,0,.56.36.36,0,0,0,.54,0A.4.4,0,0,0,584.83,146.89Z"/><path class="cls-21" d="M583.43,145.35a.4.4,0,0,0-.55,0,.36.36,0,0,0-.07.54.39.39,0,0,0,.56,0A.37.37,0,0,0,583.43,145.35Z"/><path class="cls-20" d="M582.16,143.68a.4.4,0,0,0-.55-.06.37.37,0,0,0-.11.53.41.41,0,0,0,.66-.47Z"/><path class="cls-20" d="M583.23,150.12a.43.43,0,0,0-.59,0,.41.41,0,0,0,0,.58Z"/><path class="cls-20" d="M584.8,148.45a.42.42,0,0,0-.56,0,.39.39,0,0,0,0,.56Z"/><path class="cls-19" d="M577.08,144.31a.43.43,0,0,0-.57-.16.42.42,0,0,0-.12.58.4.4,0,1,0,.69-.42Z"/><path class="cls-20" d="M575.53,138.42a.41.41,0,0,1-.24.53.41.41,0,0,1-.52-.26Z"/><path class="cls-20" d="M577.68,137.63a.4.4,0,0,1-.75.27Z"/><path class="cls-20" d="M577.08,144.31a.43.43,0,0,0-.57-.16.42.42,0,0,0-.12.58.4.4,0,1,0,.69-.42Z"/><path class="cls-21" d="M575.9,142.18a.41.41,0,0,0-.55-.21.42.42,0,0,0-.17.57.41.41,0,0,0,.55.21A.44.44,0,0,0,575.9,142.18Z"/><path class="cls-20" d="M574.87,140a.4.4,0,0,0-.52-.25.44.44,0,0,0-.23.56.4.4,0,0,0,.53.25A.44.44,0,0,0,574.87,140Z"/><path class="cls-21" d="M579.46,141.6a.41.41,0,0,0-.54-.15.39.39,0,0,0-.16.54.4.4,0,0,0,.55.14A.39.39,0,0,0,579.46,141.6Z"/><path class="cls-21" d="M578.5,139.65a.42.42,0,0,0-.53-.19.38.38,0,0,0-.2.52.4.4,0,0,0,.73-.33Z"/><path class="cls-21" d="M577.45,142.71a.41.41,0,0,0-.55-.17.4.4,0,0,0-.15.56.43.43,0,0,0,.57.16A.39.39,0,0,0,577.45,142.71Z"/><path class="cls-21" d="M576.41,140.6a.42.42,0,0,0-.55-.21.4.4,0,0,0-.18.54.42.42,0,0,0,.55.21A.4.4,0,0,0,576.41,140.6Z"/><path class="cls-21" d="M579.05,143.12a.42.42,0,0,0-.56-.13.39.39,0,0,0-.13.55.4.4,0,0,0,.55.14A.42.42,0,0,0,579.05,143.12Z"/><path class="cls-20" d="M578,141.14a.42.42,0,0,0-.54-.18.41.41,0,0,0-.18.55.39.39,0,0,0,.53.18A.43.43,0,0,0,578,141.14Z"/><path class="cls-21" d="M577,139.09a.38.38,0,0,0-.51-.23.42.42,0,0,0-.23.53.39.39,0,0,0,.52.22A.42.42,0,0,0,577,139.09Z"/><path class="cls-20" d="M581,141.94a.37.37,0,0,0-.53-.11.37.37,0,0,0-.15.52.37.37,0,0,0,.53.11A.38.38,0,0,0,581,141.94Z"/><path class="cls-21" d="M580,140.11a.4.4,0,1,0-.2.52A.4.4,0,0,0,580,140.11Z"/><path class="cls-20" d="M579.12,138.22a.38.38,0,0,0-.5-.2.4.4,0,0,0-.24.5.36.36,0,0,0,.5.2A.41.41,0,0,0,579.12,138.22Z"/><path class="cls-20" d="M578.68,144.73a.4.4,0,0,0-.56-.14.42.42,0,0,0-.11.58Z"/><path class="cls-20" d="M580.6,143.47a.38.38,0,0,0-.54-.11.41.41,0,0,0-.14.55Z"/><path class="cls-19" d="M574,137.66a.44.44,0,0,0-.52-.3.41.41,0,0,0-.25.54.43.43,0,0,0,.53.29A.41.41,0,0,0,574,137.66Z"/><path class="cls-20" d="M573.89,131.55a.4.4,0,0,1-.34.46.41.41,0,0,1-.46-.37Z"/><path class="cls-20" d="M576.17,131.29a.38.38,0,0,1-.34.43.41.41,0,0,1-.46-.34Z"/><path class="cls-20" d="M574,137.66a.44.44,0,0,0-.52-.3.41.41,0,0,0-.25.54.43.43,0,0,0,.53.29A.41.41,0,0,0,574,137.66Z"/><path class="cls-21" d="M573.39,135.29a.44.44,0,0,0-.5-.33.42.42,0,0,0-.28.52.43.43,0,0,0,.5.33A.42.42,0,0,0,573.39,135.29Z"/><path class="cls-20" d="M572.93,132.89a.41.41,0,1,0-.8.12.41.41,0,1,0,.8-.12Z"/><path class="cls-21" d="M577,135.56a.39.39,0,0,0-.49-.27.4.4,0,0,0-.29.48.38.38,0,0,0,.48.27A.41.41,0,0,0,577,135.56Z"/><path class="cls-21" d="M576.5,133.44a.38.38,0,0,0-.46-.3.4.4,0,0,0-.33.46.37.37,0,0,0,.46.3A.42.42,0,0,0,576.5,133.44Z"/><path class="cls-21" d="M574.8,136.17a.4.4,0,0,0-.49-.3.42.42,0,0,0-.28.52.39.39,0,0,0,.49.29A.42.42,0,0,0,574.8,136.17Z"/><path class="cls-21" d="M574.24,133.88a.39.39,0,0,0-.46-.33.43.43,0,0,0-.33.49.4.4,0,0,0,.48.33A.43.43,0,0,0,574.24,133.88Z"/><path class="cls-21" d="M576.21,137a.42.42,0,0,0-.5-.26.39.39,0,0,0-.26.51.42.42,0,0,0,.52.26A.39.39,0,0,0,576.21,137Z"/><path class="cls-20" d="M575.63,134.77a.42.42,0,0,0-.5-.3.4.4,0,0,0-.29.48.42.42,0,0,0,.5.3A.41.41,0,0,0,575.63,134.77Z"/><path class="cls-21" d="M575.2,132.54a.4.4,0,1,0-.8.12.4.4,0,0,0,.46.34A.41.41,0,0,0,575.2,132.54Z"/><path class="cls-20" d="M578.4,136.25a.4.4,0,0,0-.49-.23.37.37,0,0,0-.27.48.4.4,0,0,0,.51.23A.38.38,0,0,0,578.4,136.25Z"/><path class="cls-21" d="M577.86,134.24a.39.39,0,0,0-.48-.27.37.37,0,0,0-.3.45.39.39,0,0,0,.48.27A.38.38,0,0,0,577.86,134.24Z"/><path class="cls-20" d="M577.47,132.19a.41.41,0,0,0-.8.12.4.4,0,0,0,.46.31A.39.39,0,0,0,577.47,132.19Z"/><path class="cls-20" d="M575.53,138.42a.43.43,0,0,0-.53-.26.4.4,0,0,0-.23.53Z"/><path class="cls-20" d="M577.68,137.63a.4.4,0,0,0-.51-.23.39.39,0,0,0-.24.51Z"/><path class="cls-19" d="M572.64,130.46a.41.41,0,0,0-.42-.4.42.42,0,0,0-.38.47.4.4,0,0,0,.42.4A.44.44,0,0,0,572.64,130.46Z"/><path class="cls-20" d="M573.89,124.5a.43.43,0,0,1-.46.36.38.38,0,0,1-.34-.46Z"/><path class="cls-20" d="M576.17,124.76a.42.42,0,0,1-.46.34.38.38,0,0,1-.34-.43Z"/><path class="cls-20" d="M572.64,130.46a.41.41,0,0,0-.42-.4.42.42,0,0,0-.38.47.4.4,0,0,0,.42.4A.44.44,0,0,0,572.64,130.46Z"/><path class="cls-21" d="M572.52,128a.4.4,0,0,0-.38-.43.44.44,0,0,0,0,.87A.41.41,0,0,0,572.52,128Z"/><path class="cls-20" d="M572.64,125.58a.43.43,0,0,0-.38-.46.39.39,0,0,0-.42.4.43.43,0,0,0,.38.46A.4.4,0,0,0,572.64,125.58Z"/><path class="cls-21" d="M576,129.11a.4.4,0,0,0-.42-.37.37.37,0,0,0-.38.4.4.4,0,0,0,.8,0Z"/><path class="cls-21" d="M576,126.93a.39.39,0,0,0-.38-.4.4.4,0,0,0-.42.37.39.39,0,0,0,.38.41A.42.42,0,0,0,576,126.93Z"/><path class="cls-21" d="M573.73,129.2a.43.43,0,0,0-.43-.4.4.4,0,0,0-.38.43.41.41,0,0,0,.42.4A.41.41,0,0,0,573.73,129.2Z"/><path class="cls-21" d="M573.73,126.85a.41.41,0,1,0-.81,0,.4.4,0,0,0,.38.43A.44.44,0,0,0,573.73,126.85Z"/><path class="cls-21" d="M574.93,130.29a.39.39,0,0,0-.42-.37.4.4,0,0,0-.38.43.38.38,0,0,0,.42.37A.42.42,0,0,0,574.93,130.29Z"/><path class="cls-20" d="M574.82,128a.38.38,0,0,0-.39-.4.41.41,0,1,0,0,.81A.39.39,0,0,0,574.82,128Z"/><path class="cls-21" d="M574.93,125.76a.43.43,0,0,0-.38-.44.39.39,0,0,0-.42.37.42.42,0,0,0,.38.44A.4.4,0,0,0,574.93,125.76Z"/><path class="cls-20" d="M577.22,130.11a.38.38,0,0,0-.42-.34.4.4,0,0,0-.38.4.38.38,0,0,0,.42.35A.42.42,0,0,0,577.22,130.11Z"/><path class="cls-21" d="M577.11,128a.37.37,0,0,0-.38-.37.41.41,0,0,0-.42.37.42.42,0,0,0,.42.38A.37.37,0,0,0,577.11,128Z"/><path class="cls-20" d="M577.22,125.93a.4.4,0,0,0-.38-.4.37.37,0,0,0-.42.34.39.39,0,0,0,.38.4A.38.38,0,0,0,577.22,125.93Z"/><path class="cls-20" d="M573.89,131.55a.44.44,0,0,0-.46-.37.39.39,0,0,0-.34.46Z"/><path class="cls-20" d="M576.17,131.29a.42.42,0,0,0-.46-.34.38.38,0,0,0-.34.43Z"/><path class="cls-19" d="M572.93,123.15a.42.42,0,0,0-.33-.49.41.41,0,0,0-.46.37.4.4,0,1,0,.79.12Z"/><path class="cls-20" d="M575.53,117.63a.43.43,0,0,1-.53.26.4.4,0,0,1-.23-.53Z"/><path class="cls-20" d="M577.68,118.42a.39.39,0,0,1-.51.22.38.38,0,0,1-.24-.5Z"/><path class="cls-20" d="M572.93,123.15a.42.42,0,0,0-.33-.49.41.41,0,0,0-.46.37.4.4,0,1,0,.79.12Z"/><path class="cls-21" d="M573.39,120.75a.41.41,0,0,0-.28-.51.42.42,0,0,0-.5.33.41.41,0,0,0,.28.51A.43.43,0,0,0,573.39,120.75Z"/><path class="cls-20" d="M574,118.39a.4.4,0,0,0-.24-.53.43.43,0,0,0-.53.28.41.41,0,0,0,.25.54A.45.45,0,0,0,574,118.39Z"/><path class="cls-21" d="M576.5,122.6a.41.41,0,0,0-.33-.45.36.36,0,0,0-.46.3.41.41,0,0,0,.33.46A.39.39,0,0,0,576.5,122.6Z"/><path class="cls-21" d="M577,120.49a.41.41,0,0,0-.3-.48.37.37,0,0,0-.48.26.42.42,0,0,0,.29.49A.41.41,0,0,0,577,120.49Z"/><path class="cls-21" d="M574.24,122.16a.44.44,0,0,0-.31-.49.41.41,0,0,0-.48.34.44.44,0,0,0,.34.49A.39.39,0,0,0,574.24,122.16Z"/><path class="cls-21" d="M574.8,119.87a.42.42,0,0,0-.28-.51.4.4,0,0,0-.49.3.41.41,0,0,0,.28.51A.39.39,0,0,0,574.8,119.87Z"/><path class="cls-21" d="M575.2,123.5a.42.42,0,0,0-.34-.46.41.41,0,0,0-.46.34.4.4,0,1,0,.8.12Z"/><path class="cls-20" d="M575.63,121.28a.4.4,0,0,0-.29-.48.41.41,0,0,0-.5.3.4.4,0,0,0,.3.48A.42.42,0,0,0,575.63,121.28Z"/><path class="cls-21" d="M576.22,119.09a.39.39,0,0,0-.25-.5.42.42,0,0,0-.52.25.39.39,0,0,0,.26.51A.44.44,0,0,0,576.22,119.09Z"/><path class="cls-20" d="M577.47,123.86a.39.39,0,0,0-.34-.43.37.37,0,1,0-.11.73A.38.38,0,0,0,577.47,123.86Z"/><path class="cls-21" d="M577.86,121.81a.37.37,0,0,0-.29-.45.39.39,0,0,0-.49.26.38.38,0,0,0,.3.46A.41.41,0,0,0,577.86,121.81Z"/><path class="cls-20" d="M578.41,119.79a.37.37,0,0,0-.26-.47.4.4,0,0,0-.51.23.36.36,0,0,0,.27.47A.41.41,0,0,0,578.41,119.79Z"/><path class="cls-20" d="M573.89,124.5a.4.4,0,0,0-.34-.46.41.41,0,0,0-.46.36Z"/><path class="cls-20" d="M576.17,124.76a.38.38,0,0,0-.34-.43.41.41,0,0,0-.46.34Z"/><path class="cls-19" d="M574.87,116.09a.45.45,0,0,0-.22-.56.39.39,0,0,0-.52.25.42.42,0,0,0,.22.56A.39.39,0,0,0,574.87,116.09Z"/><path class="cls-20" d="M578.68,111.32a.39.39,0,0,1-.55.14.42.42,0,0,1-.12-.58Z"/><path class="cls-20" d="M580.6,112.58a.38.38,0,0,1-.54.11.41.41,0,0,1-.14-.55Z"/><path class="cls-20" d="M574.87,116.09a.45.45,0,0,0-.22-.56.39.39,0,0,0-.52.25.42.42,0,0,0,.22.56A.39.39,0,0,0,574.87,116.09Z"/><path class="cls-21" d="M575.9,113.87a.43.43,0,0,0-.17-.57.41.41,0,0,0-.55.21.4.4,0,1,0,.72.36Z"/><path class="cls-20" d="M577.09,111.73a.43.43,0,0,0-.12-.58.41.41,0,0,0-.57.17.41.41,0,0,0,.12.58A.43.43,0,0,0,577.09,111.73Z"/><path class="cls-21" d="M578.5,116.4a.39.39,0,0,0-.2-.52.4.4,0,0,0-.53.19.38.38,0,0,0,.2.51A.4.4,0,0,0,578.5,116.4Z"/><path class="cls-21" d="M579.46,114.45a.38.38,0,0,0-.15-.53.4.4,0,0,0-.55.14.38.38,0,0,0,.17.53A.4.4,0,0,0,579.46,114.45Z"/><path class="cls-21" d="M576.41,115.45a.41.41,0,0,0-.18-.55.42.42,0,0,0-.55.21.4.4,0,0,0,.19.55A.42.42,0,0,0,576.41,115.45Z"/><path class="cls-21" d="M577.46,113.34a.41.41,0,0,0-.14-.56.42.42,0,0,0-.57.17.4.4,0,0,0,.15.56A.44.44,0,0,0,577.46,113.34Z"/><path class="cls-21" d="M577,117a.43.43,0,0,0-.23-.53.39.39,0,0,0-.52.22.41.41,0,0,0,.24.53A.39.39,0,0,0,577,117Z"/><path class="cls-20" d="M578,114.9a.42.42,0,0,0-.18-.54.4.4,0,0,0-.54.18.39.39,0,0,0,.19.54A.39.39,0,0,0,578,114.9Z"/><path class="cls-21" d="M579.05,112.92a.41.41,0,0,0-.13-.55.41.41,0,0,0-.56.13.4.4,0,0,0,.14.56A.4.4,0,0,0,579.05,112.92Z"/><path class="cls-20" d="M579.12,117.83a.41.41,0,0,0-.24-.5.36.36,0,0,0-.5.19.42.42,0,0,0,.24.51A.37.37,0,0,0,579.12,117.83Z"/><path class="cls-21" d="M580,115.94a.4.4,0,0,0-.2-.52.38.38,0,0,0-.52.15.4.4,0,0,0,.2.52A.38.38,0,0,0,580,115.94Z"/><path class="cls-20" d="M581,114.11a.41.41,0,0,0-.15-.53.39.39,0,0,0-.54.11.39.39,0,0,0,.15.53A.4.4,0,0,0,581,114.11Z"/><path class="cls-20" d="M575.53,117.63a.41.41,0,0,0-.24-.53.41.41,0,0,0-.52.26Z"/><path class="cls-20" d="M577.68,118.42a.4.4,0,0,0-.75-.28Z"/><path class="cls-19" d="M578.43,109.69a.41.41,0,1,0-.66-.47.41.41,0,0,0,.07.58A.43.43,0,0,0,578.43,109.69Z"/><path class="cls-20" d="M583.23,105.93a.43.43,0,0,1-.59,0,.4.4,0,0,1,0-.58Z"/><path class="cls-20" d="M584.8,107.6a.41.41,0,0,1-.56,0,.38.38,0,0,1,0-.55Z"/><path class="cls-20" d="M578.43,109.69a.41.41,0,1,0-.66-.47.41.41,0,0,0,.07.58A.43.43,0,0,0,578.43,109.69Z"/><path class="cls-21" d="M579.91,107.75a.4.4,0,0,0,0-.58.43.43,0,0,0-.6.06.41.41,0,0,0,0,.59A.44.44,0,0,0,579.91,107.75Z"/><path class="cls-20" d="M581.56,105.93a.44.44,0,0,0,0-.59.41.41,0,0,0-.59,0,.43.43,0,0,0,0,.6A.4.4,0,0,0,581.56,105.93Z"/><path class="cls-21" d="M581.88,110.82a.41.41,0,0,0-.09-.56.38.38,0,0,0-.55.07.39.39,0,0,0,.09.55A.38.38,0,0,0,581.88,110.82Z"/><path class="cls-21" d="M583.28,109.16a.41.41,0,0,0,0-.56.39.39,0,1,0-.53.57A.4.4,0,0,0,583.28,109.16Z"/><path class="cls-21" d="M580.06,109.41a.42.42,0,0,0-.06-.58.4.4,0,0,0-.57.09.41.41,0,0,0,.07.58A.4.4,0,0,0,580.06,109.41Z"/><path class="cls-21" d="M581.58,107.61a.4.4,0,1,0-.58,0A.41.41,0,0,0,581.58,107.61Z"/><path class="cls-21" d="M580.29,111a.39.39,0,0,0-.08-.55.4.4,0,0,0-.57.08.39.39,0,0,0,.08.56A.41.41,0,0,0,580.29,111Z"/><path class="cls-20" d="M581.67,109.22a.38.38,0,0,0,0-.55.41.41,0,0,0-.58,0,.39.39,0,0,0,.05.56A.42.42,0,0,0,581.67,109.22Z"/><path class="cls-21" d="M583.2,107.54a.43.43,0,0,0,0-.57.39.39,0,0,0-.57,0,.42.42,0,0,0,0,.58A.39.39,0,0,0,583.2,107.54Z"/><path class="cls-20" d="M582.16,112.36a.38.38,0,0,0-.1-.53.4.4,0,0,0-.55.06.37.37,0,0,0,.1.53A.4.4,0,0,0,582.16,112.36Z"/><path class="cls-21" d="M583.43,110.7a.36.36,0,0,0-.06-.53.4.4,0,0,0-.56,0,.39.39,0,0,0,.07.55A.41.41,0,0,0,583.43,110.7Z"/><path class="cls-20" d="M584.84,109.15a.41.41,0,0,0,0-.55.38.38,0,0,0-.55,0,.41.41,0,0,0,0,.56A.38.38,0,0,0,584.84,109.15Z"/><path class="cls-20" d="M578.68,111.32a.44.44,0,0,0-.11-.58.4.4,0,0,0-.56.14Z"/><path class="cls-20" d="M580.6,112.58a.42.42,0,0,0-.13-.54.38.38,0,0,0-.55.1Z"/><path class="cls-19" d="M583.35,104.27a.44.44,0,0,0,0-.6.4.4,0,0,0-.58,0,.43.43,0,0,0-.06.6A.42.42,0,0,0,583.35,104.27Z"/><path class="cls-20" d="M588.88,101.71a.41.41,0,0,1-.56-.13.43.43,0,0,1,.16-.57Z"/><path class="cls-20" d="M590,103.7a.39.39,0,0,1-.53-.15.4.4,0,0,1,.13-.55Z"/><path class="cls-20" d="M583.35,104.27a.44.44,0,0,0,0-.6.4.4,0,0,0-.58,0,.43.43,0,0,0-.06.6A.42.42,0,0,0,583.35,104.27Z"/><path class="cls-21" d="M585.25,102.74a.4.4,0,1,0-.48-.65.43.43,0,0,0-.11.59A.43.43,0,0,0,585.25,102.74Z"/><path class="cls-20" d="M587.26,101.35a.41.41,0,0,0,.16-.57.42.42,0,0,0-.59-.11.42.42,0,0,0-.15.57A.43.43,0,0,0,587.26,101.35Z"/><path class="cls-21" d="M586.44,106.15a.38.38,0,0,0,.06-.54.41.41,0,0,0-.57-.09.38.38,0,0,0,0,.56A.43.43,0,0,0,586.44,106.15Z"/><path class="cls-21" d="M588.18,104.85a.41.41,0,0,0,.09-.56.38.38,0,0,0-.54-.11.42.42,0,0,0-.09.57A.39.39,0,0,0,588.18,104.85Z"/><path class="cls-21" d="M585,104.36a.39.39,0,0,0,.09-.56.42.42,0,0,0-.59-.06.39.39,0,0,0-.08.57A.42.42,0,0,0,585,104.36Z"/><path class="cls-21" d="M586.88,103a.43.43,0,0,0,.12-.57.39.39,0,0,0-.57-.09.42.42,0,0,0-.11.58A.39.39,0,0,0,586.88,103Z"/><path class="cls-21" d="M584.86,106a.43.43,0,0,0,0-.58.39.39,0,0,0-.56,0,.41.41,0,0,0,0,.58A.42.42,0,0,0,584.86,106Z"/><path class="cls-20" d="M586.62,104.58a.4.4,0,1,0-.56-.08A.41.41,0,0,0,586.62,104.58Z"/><path class="cls-21" d="M588.49,103.29a.39.39,0,0,0,.13-.55.41.41,0,0,0-.56-.13.39.39,0,0,0-.13.55A.41.41,0,0,0,588.49,103.29Z"/><path class="cls-20" d="M586.37,107.73a.41.41,0,0,0,0-.56.37.37,0,0,0-.54,0,.4.4,0,0,0,0,.56A.39.39,0,0,0,586.37,107.73Z"/><path class="cls-21" d="M588,106.42a.39.39,0,0,0,0-.54.37.37,0,1,0-.59.44A.39.39,0,0,0,588,106.42Z"/><path class="cls-20" d="M589.72,105.24a.41.41,0,0,0-.43-.69.38.38,0,0,0-.11.54A.42.42,0,0,0,589.72,105.24Z"/><path class="cls-20" d="M583.23,105.93a.41.41,0,0,0,0-.58.42.42,0,0,0-.59,0Z"/><path class="cls-20" d="M584.8,107.6a.39.39,0,0,0,0-.56.41.41,0,0,0-.56,0Z"/><path class="cls-19" d="M589.37,100.11a.4.4,0,0,0,.21-.54.43.43,0,0,0-.58-.17.4.4,0,0,0-.2.55A.43.43,0,0,0,589.37,100.11Z"/><path class="cls-20" d="M595.36,98.9a.44.44,0,0,1-.52-.27.39.39,0,0,1,.29-.5Z"/><path class="cls-20" d="M596,101.1a.41.41,0,0,1-.48-.28.37.37,0,0,1,.25-.49Z"/><path class="cls-20" d="M589.37,100.11a.4.4,0,0,0,.21-.54.43.43,0,0,0-.58-.17.4.4,0,0,0-.2.55A.43.43,0,0,0,589.37,100.11Z"/><path class="cls-21" d="M591.58,99.05a.44.44,0,0,0,.24-.54.41.41,0,0,0-.56-.2.44.44,0,0,0-.23.56A.41.41,0,0,0,591.58,99.05Z"/><path class="cls-20" d="M593.87,98.19a.44.44,0,0,0,.28-.53.4.4,0,0,0-.54-.23.4.4,0,1,0,.26.76Z"/><path class="cls-21" d="M592,102.69a.4.4,0,0,0,.18-.53.39.39,0,1,0-.7.33A.4.4,0,0,0,592,102.69Z"/><path class="cls-21" d="M594,101.82a.39.39,0,0,0,.22-.51.4.4,0,0,0-.51-.24.39.39,0,0,0-.22.51A.41.41,0,0,0,594,101.82Z"/><path class="cls-21" d="M591,100.62a.42.42,0,0,0,.21-.55.42.42,0,0,0-.56-.18.4.4,0,0,0-.2.54A.43.43,0,0,0,591,100.62Z"/><path class="cls-21" d="M593.13,99.68a.4.4,0,0,0,.25-.52.42.42,0,0,0-.54-.23.4.4,0,0,0-.25.52A.43.43,0,0,0,593.13,99.68Z"/><path class="cls-21" d="M590.45,102.14a.39.39,0,0,0,.17-.53.41.41,0,0,0-.55-.18.39.39,0,0,0-.17.54A.42.42,0,0,0,590.45,102.14Z"/><path class="cls-20" d="M592.49,101.16a.43.43,0,0,0,.21-.53.39.39,0,0,0-.53-.21.41.41,0,0,0-.2.54A.38.38,0,0,0,592.49,101.16Z"/><path class="cls-21" d="M594.61,100.36a.42.42,0,0,0,.25-.52.39.39,0,0,0-.51-.24.42.42,0,0,0-.25.52A.4.4,0,0,0,594.61,100.36Z"/><path class="cls-20" d="M591.52,104.18a.38.38,0,0,0,.15-.52.41.41,0,0,0-.53-.2.36.36,0,0,0-.14.52A.42.42,0,0,0,591.52,104.18Z"/><path class="cls-21" d="M593.4,103.27a.4.4,0,0,0,.18-.52.37.37,0,0,0-.5-.22.39.39,0,0,0-.17.53A.37.37,0,0,0,593.4,103.27Z"/><path class="cls-20" d="M595.36,102.53a.4.4,0,0,0,.21-.51.36.36,0,0,0-.47-.25.39.39,0,0,0-.22.51A.38.38,0,0,0,595.36,102.53Z"/><path class="cls-20" d="M588.88,101.71a.43.43,0,0,0,.16-.57.4.4,0,0,0-.56-.13Z"/><path class="cls-20" d="M590,103.7a.41.41,0,0,0,.13-.55.38.38,0,0,0-.53-.15Z"/><path class="cls-19" d="M596.22,97.49a.43.43,0,0,0,.32-.49.42.42,0,0,0-.52-.29.4.4,0,1,0,.2.78Z"/><path class="cls-20" d="M602.31,97.71a.42.42,0,0,1-.44-.39.4.4,0,0,1,.39-.42Z"/><path class="cls-20" d="M602.44,100a.41.41,0,0,1-.41-.39.39.39,0,0,1,.37-.42Z"/><path class="cls-20" d="M596.22,97.49a.43.43,0,0,0,.32-.49.42.42,0,0,0-.52-.29.4.4,0,1,0,.2.78Z"/><path class="cls-21" d="M598.6,97a.4.4,0,0,0,.36-.46.42.42,0,0,0-.5-.33.4.4,0,0,0-.36.46A.44.44,0,0,0,598.6,97Z"/><path class="cls-20" d="M601,96.62a.4.4,0,0,0,.4-.42.44.44,0,0,0-.47-.38.4.4,0,0,0-.39.45A.41.41,0,0,0,601,96.62Z"/><path class="cls-21" d="M598.13,100.56a.42.42,0,0,0,.29-.48.37.37,0,0,0-.46-.31.41.41,0,0,0-.29.49A.38.38,0,0,0,598.13,100.56Z"/><path class="cls-21" d="M600.27,100.2a.41.41,0,0,0,.33-.46.38.38,0,0,0-.43-.34.4.4,0,0,0-.33.46A.39.39,0,0,0,600.27,100.2Z"/><path class="cls-21" d="M597.64,98.31a.44.44,0,0,0,.33-.49.39.39,0,0,0-.5-.29.42.42,0,0,0-.32.49A.39.39,0,0,0,597.64,98.31Z"/><path class="cls-21" d="M600,97.93a.45.45,0,0,0,.36-.47.4.4,0,0,0-.47-.33.4.4,0,1,0,.11.8Z"/><path class="cls-21" d="M596.79,99.72a.42.42,0,0,0,.29-.49.4.4,0,0,0-.49-.29.39.39,0,0,0-.29.49A.41.41,0,0,0,596.79,99.72Z"/><path class="cls-20" d="M599,99.23a.39.39,0,0,0,.33-.45.42.42,0,0,0-.47-.34.4.4,0,0,0-.33.46A.41.41,0,0,0,599,99.23Z"/><path class="cls-21" d="M601.24,98.91a.39.39,0,0,0,.37-.42.42.42,0,0,0-.44-.38.39.39,0,0,0-.36.44A.4.4,0,0,0,601.24,98.91Z"/><path class="cls-20" d="M597.36,101.94a.39.39,0,0,0,.26-.48.38.38,0,0,0-.46-.3.39.39,0,0,0-.26.49A.39.39,0,0,0,597.36,101.94Z"/><path class="cls-21" d="M599.4,101.5a.37.37,0,0,0,.29-.45.38.38,0,0,0-.43-.34.37.37,0,0,0-.3.45A.4.4,0,0,0,599.4,101.5Z"/><path class="cls-20" d="M601.46,101.2a.37.37,0,0,0,.34-.42.41.41,0,0,0-.41-.39.39.39,0,0,0-.33.45A.39.39,0,0,0,601.46,101.2Z"/><path class="cls-20" d="M595.36,98.9a.4.4,0,0,0,.29-.49.44.44,0,0,0-.53-.28Z"/><path class="cls-20" d="M596,101.1a.38.38,0,0,0,.26-.48.42.42,0,0,0-.49-.29Z"/><path class="cls-19" d="M603.47,96.5a.44.44,0,0,0,.42-.43.4.4,0,0,0-.44-.38.42.42,0,0,0-.42.43A.4.4,0,0,0,603.47,96.5Z"/><path class="cls-20" d="M609.35,98.1a.4.4,0,0,1-.34-.46.41.41,0,0,1,.48-.33Z"/><path class="cls-20" d="M609,100.37a.41.41,0,0,1,.13-.8Z"/><path class="cls-20" d="M603.47,96.5a.44.44,0,0,0,.42-.43.4.4,0,0,0-.44-.38.42.42,0,0,0-.42.43A.4.4,0,0,0,603.47,96.5Z"/><path class="cls-21" d="M605.91,96.56a.44.44,0,0,0,.46-.38.41.41,0,0,0-.41-.42.41.41,0,0,0-.46.38A.41.41,0,0,0,605.91,96.56Z"/><path class="cls-20" d="M608.34,96.79a.43.43,0,0,0,.49-.33.44.44,0,0,0-.38-.47.4.4,0,0,0-.48.33A.43.43,0,0,0,608.34,96.79Z"/><path class="cls-21" d="M604.62,99.94a.39.39,0,0,0,.4-.38.4.4,0,0,0-.38-.42.38.38,0,0,0-.4.38A.42.42,0,0,0,604.62,99.94Z"/><path class="cls-21" d="M606.8,100.05a.4.4,0,0,0,.42-.36.38.38,0,0,0-.34-.44.42.42,0,0,0-.43.38A.38.38,0,0,0,606.8,100.05Z"/><path class="cls-21" d="M604.67,97.65a.4.4,0,0,0,.42-.39.41.41,0,0,0-.41-.42.39.39,0,0,0-.42.38A.44.44,0,0,0,604.67,97.65Z"/><path class="cls-21" d="M607,97.77a.41.41,0,0,0,.45-.36.41.41,0,0,0-.37-.45.43.43,0,0,0-.46.38A.4.4,0,0,0,607,97.77Z"/><path class="cls-21" d="M603.51,98.79a.43.43,0,0,0,.4-.42.39.39,0,0,0-.41-.38.41.41,0,0,0-.4.42A.39.39,0,0,0,603.51,98.79Z"/><path class="cls-20" d="M605.78,98.85a.4.4,0,0,0,.42-.38.39.39,0,0,0-.38-.42.4.4,0,1,0,0,.8Z"/><path class="cls-21" d="M608,99.06a.4.4,0,0,0,.46-.33.41.41,0,0,0-.35-.46.38.38,0,0,0-.45.33A.41.41,0,0,0,608,99.06Z"/><path class="cls-20" d="M603.56,101.09a.41.41,0,0,0,.36-.42.37.37,0,0,0-.38-.38.39.39,0,0,0-.36.42A.37.37,0,0,0,603.56,101.09Z"/><path class="cls-21" d="M605.64,101.15a.41.41,0,0,0,.4-.39.38.38,0,0,0-.35-.42.41.41,0,0,0-.05.81Z"/><path class="cls-20" d="M607.73,101.34a.39.39,0,0,0,.42-.34.41.41,0,0,0-.32-.46.39.39,0,0,0-.42.35A.41.41,0,0,0,607.73,101.34Z"/><path class="cls-20" d="M602.31,97.71a.42.42,0,0,0,.39-.43.4.4,0,0,0-.44-.38Z"/><path class="cls-20" d="M602.44,100a.41.41,0,0,0-.05-.81Z"/><path class="cls-19" d="M610.76,97.19a.4.4,0,0,0,.5-.28.44.44,0,0,0-.33-.51.4.4,0,0,0-.51.3A.43.43,0,0,0,610.76,97.19Z"/><path class="cls-20" d="M616.12,100.11a.44.44,0,0,1-.23-.54.41.41,0,0,1,.55-.2Z"/><path class="cls-20" d="M615.21,102.21a.41.41,0,0,1-.2-.52.38.38,0,0,1,.52-.21Z"/><path class="cls-20" d="M610.76,97.19a.4.4,0,0,0,.5-.28.44.44,0,0,0-.33-.51.4.4,0,0,0-.51.3A.43.43,0,0,0,610.76,97.19Z"/><path class="cls-21" d="M613.13,97.8a.44.44,0,0,0,.53-.27.4.4,0,0,0-.3-.5.43.43,0,0,0-.54.28A.41.41,0,0,0,613.13,97.8Z"/><path class="cls-20" d="M615.44,98.61a.43.43,0,0,0,.55-.23.41.41,0,0,0-.26-.52.43.43,0,0,0-.56.22A.42.42,0,0,0,615.44,98.61Z"/><path class="cls-21" d="M611.08,100.83a.41.41,0,0,0,.48-.29.39.39,0,1,0-.75-.2A.4.4,0,0,0,611.08,100.83Z"/><path class="cls-21" d="M613.17,101.45a.4.4,0,0,0,.26-.76.37.37,0,0,0-.49.24A.42.42,0,0,0,613.17,101.45Z"/><path class="cls-21" d="M611.66,98.61a.41.41,0,0,0,.5-.29.42.42,0,0,0-.81-.21A.43.43,0,0,0,611.66,98.61Z"/><path class="cls-21" d="M613.91,99.27a.41.41,0,0,0,.53-.23.43.43,0,0,0-.27-.53.4.4,0,0,0-.52.24A.42.42,0,0,0,613.91,99.27Z"/><path class="cls-21" d="M610.27,99.44a.4.4,0,0,0,.48-.3.42.42,0,0,0-.31-.49.39.39,0,0,0-.48.3A.44.44,0,0,0,610.27,99.44Z"/><path class="cls-20" d="M612.47,100a.42.42,0,0,0,.5-.28.38.38,0,0,0-.27-.49.42.42,0,0,0-.51.28A.39.39,0,0,0,612.47,100Z"/><path class="cls-21" d="M614.61,100.75a.41.41,0,0,0,.52-.24.38.38,0,0,0-.23-.51.41.41,0,0,0-.53.24A.4.4,0,0,0,614.61,100.75Z"/><path class="cls-20" d="M609.79,101.68a.37.37,0,0,0,.44-.3.4.4,0,0,0-.27-.48.36.36,0,0,0-.45.3A.41.41,0,0,0,609.79,101.68Z"/><path class="cls-21" d="M611.81,102.2a.4.4,0,0,0,.47-.28.37.37,0,0,0-.24-.49.41.41,0,0,0-.48.3A.37.37,0,0,0,611.81,102.2Z"/><path class="cls-20" d="M613.78,102.9a.41.41,0,0,0,.49-.25.37.37,0,0,0-.2-.51.41.41,0,0,0-.29.76Z"/><path class="cls-20" d="M609.35,98.1a.43.43,0,0,0,.49-.33.4.4,0,0,0-.35-.46Z"/><path class="cls-20" d="M609,100.37a.41.41,0,0,0,.45-.34.39.39,0,0,0-.32-.46Z"/><path class="cls-19" d="M617.68,99.58a.4.4,0,1,0,.35-.72.42.42,0,0,0-.57.17A.43.43,0,0,0,617.68,99.58Z"/><path class="cls-20" d="M622.21,103.66a.41.41,0,1,1,.49-.65Z"/><path class="cls-20" d="M620.84,105.5a.39.39,0,0,1-.07-.55.39.39,0,0,1,.55-.09Z"/><path class="cls-20" d="M617.68,99.58a.4.4,0,1,0,.35-.72.42.42,0,0,0-.57.17A.43.43,0,0,0,617.68,99.58Z"/><path class="cls-21" d="M619.84,100.72a.41.41,0,1,0,.41-.7.41.41,0,0,0-.58.12A.45.45,0,0,0,619.84,100.72Z"/><path class="cls-20" d="M621.92,102a.41.41,0,0,0,.58-.07.44.44,0,0,0-.12-.59.42.42,0,0,0-.59.08A.45.45,0,0,0,621.92,102Z"/><path class="cls-21" d="M617.17,103.16a.43.43,0,0,0,.54-.18.37.37,0,0,0-.16-.53.4.4,0,0,0-.54.19A.38.38,0,0,0,617.17,103.16Z"/><path class="cls-21" d="M619.05,104.26a.42.42,0,0,0,.55-.13.39.39,0,0,0-.12-.55.41.41,0,0,0-.55.14A.39.39,0,0,0,619.05,104.26Z"/><path class="cls-21" d="M618.25,101.13a.43.43,0,0,0,.56-.17.39.39,0,0,0-.19-.54.42.42,0,0,0-.56.17A.4.4,0,0,0,618.25,101.13Z"/><path class="cls-21" d="M620.28,102.32a.42.42,0,0,0,.57-.12.4.4,0,0,0-.14-.56.43.43,0,0,0-.58.13A.4.4,0,0,0,620.28,102.32Z"/><path class="cls-21" d="M616.69,101.65a.4.4,0,1,0,.35-.72.39.39,0,0,0-.54.19A.4.4,0,0,0,616.69,101.65Z"/><path class="cls-20" d="M618.69,102.7a.39.39,0,0,0,.55-.13.42.42,0,0,0-.14-.56.39.39,0,0,0-.55.14A.41.41,0,0,0,618.69,102.7Z"/><path class="cls-21" d="M620.62,103.9a.39.39,0,0,0,.55-.09.41.41,0,0,0-.09-.57.39.39,0,0,0-.56.1A.42.42,0,0,0,620.62,103.9Z"/><path class="cls-20" d="M615.69,103.73a.4.4,0,0,0,.51-.21A.38.38,0,0,0,616,103a.39.39,0,0,0-.51.2A.41.41,0,0,0,615.69,103.73Z"/><path class="cls-21" d="M617.54,104.69a.37.37,0,0,0,.52-.15A.39.39,0,0,0,618,104a.37.37,0,0,0-.52.15A.4.4,0,0,0,617.54,104.69Z"/><path class="cls-20" d="M619.32,105.8a.38.38,0,0,0,.53-.11.43.43,0,0,0-.07-.56.39.39,0,0,0-.54.12A.41.41,0,0,0,619.32,105.8Z"/><path class="cls-20" d="M616.12,100.11a.41.41,0,0,0,.54-.19.43.43,0,0,0-.22-.55Z"/><path class="cls-20" d="M615.21,102.21a.37.37,0,0,0,.51-.2.42.42,0,0,0-.19-.54Z"/><path class="cls-19" d="M623.88,103.47a.44.44,0,0,0,.6,0,.41.41,0,0,0-.09-.58.43.43,0,0,0-.6.05A.4.4,0,0,0,623.88,103.47Z"/><path class="cls-20" d="M627.36,108.49a.4.4,0,0,1,0-.57.42.42,0,0,1,.59,0Z"/><path class="cls-20" d="M625.6,110a.37.37,0,0,1,0-.54.4.4,0,0,1,.57,0Z"/><path class="cls-20" d="M623.88,103.47a.44.44,0,0,0,.6,0,.41.41,0,0,0-.09-.58.43.43,0,0,0-.6.05A.4.4,0,0,0,623.88,103.47Z"/><path class="cls-21" d="M625.71,105.09a.43.43,0,0,0,.6,0,.43.43,0,1,0-.6,0Z"/><path class="cls-20" d="M627.42,106.84a.4.4,0,1,0,0-.59A.42.42,0,0,0,627.42,106.84Z"/><path class="cls-21" d="M622.54,106.87a.39.39,0,0,0,.55-.05.4.4,0,0,0,0-.56.38.38,0,0,0-.55,0A.43.43,0,0,0,622.54,106.87Z"/><path class="cls-21" d="M624.14,108.35a.38.38,0,0,0,.55,0,.41.41,0,0,0,0-.57.37.37,0,0,0-.55,0A.4.4,0,0,0,624.14,108.35Z"/><path class="cls-21" d="M624.05,105.14a.4.4,0,1,0,.53-.61.39.39,0,0,0-.57,0A.42.42,0,0,0,624.05,105.14Z"/><path class="cls-21" d="M625.78,106.74a.4.4,0,0,0,.57,0,.42.42,0,0,0,0-.59.39.39,0,0,0-.58,0A.43.43,0,0,0,625.78,106.74Z"/><path class="cls-21" d="M622.44,105.26a.43.43,0,0,0,.57-.06.39.39,0,0,0-.06-.57.42.42,0,0,0-.58.08A.38.38,0,0,0,622.44,105.26Z"/><path class="cls-20" d="M624.14,106.76a.41.41,0,0,0,.57,0,.38.38,0,0,0,0-.56.42.42,0,0,0-.58,0A.39.39,0,0,0,624.14,106.76Z"/><path class="cls-21" d="M625.72,108.39a.41.41,0,0,0,.57,0,.39.39,0,0,0,0-.56.4.4,0,0,0-.57,0A.41.41,0,0,0,625.72,108.39Z"/><path class="cls-20" d="M621,107.05a.4.4,0,0,0,.54-.09.36.36,0,0,0,0-.54.41.41,0,0,0-.55.09A.37.37,0,0,0,621,107.05Z"/><path class="cls-21" d="M622.56,108.44a.41.41,0,0,0,.55,0,.36.36,0,0,0,0-.54.4.4,0,0,0-.55.59Z"/><path class="cls-20" d="M624,109.93a.4.4,0,0,0,.55,0,.39.39,0,0,0,0-.55.4.4,0,0,0-.59.54Z"/><path class="cls-20" d="M622.21,103.66a.41.41,0,1,0,.49-.65Z"/><path class="cls-20" d="M620.84,105.5a.39.39,0,0,0,.55-.09.38.38,0,0,0-.07-.55Z"/><path class="cls-19" d="M629,108.71a.4.4,0,0,0,.57.1.41.41,0,0,0,.06-.59.4.4,0,0,0-.58-.1A.42.42,0,0,0,629,108.71Z"/><path class="cls-20" d="M631.23,114.39a.43.43,0,0,1,.17-.56.41.41,0,0,1,.55.2Z"/><path class="cls-20" d="M629.18,115.42a.4.4,0,0,1,.19-.53.39.39,0,0,1,.53.17Z"/><path class="cls-20" d="M629,108.71a.4.4,0,0,0,.57.1.41.41,0,0,0,.06-.59.4.4,0,0,0-.58-.1A.42.42,0,0,0,629,108.71Z"/><path class="cls-21" d="M630.43,110.69a.41.41,0,0,0,.56.15.42.42,0,0,0,.11-.59.39.39,0,0,0-.56-.15A.45.45,0,0,0,630.43,110.69Z"/><path class="cls-20" d="M631.7,112.78a.44.44,0,0,0,.56.19.41.41,0,0,0,.15-.58.45.45,0,0,0-.58-.17A.4.4,0,0,0,631.7,112.78Z"/><path class="cls-21" d="M626.93,111.7a.41.41,0,0,0,.56.07.38.38,0,0,0,.09-.54.4.4,0,0,0-.56-.08A.39.39,0,0,0,626.93,111.7Z"/><path class="cls-21" d="M628.12,113.52a.41.41,0,0,0,.55.12.39.39,0,0,0,.14-.54.4.4,0,0,0-.69.42Z"/><path class="cls-21" d="M628.79,110.36a.43.43,0,0,0,.58.1.39.39,0,0,0,.08-.57.42.42,0,0,0-.58-.1A.41.41,0,0,0,628.79,110.36Z"/><path class="cls-21" d="M630.08,112.33a.43.43,0,0,0,.57.15.4.4,0,0,0,.12-.57.41.41,0,0,0-.56-.15A.43.43,0,0,0,630.08,112.33Z"/><path class="cls-21" d="M627.18,110.12a.4.4,0,0,0,.56.08.41.41,0,0,0,.08-.57.39.39,0,0,0-.56-.08A.42.42,0,0,0,627.18,110.12Z"/><path class="cls-20" d="M628.51,112a.39.39,0,0,0,.55.13.43.43,0,0,0,.13-.57.39.39,0,0,0-.55-.12A.43.43,0,0,0,628.51,112Z"/><path class="cls-21" d="M629.69,113.89a.41.41,0,0,0,.55.16.4.4,0,0,0,.16-.55.43.43,0,0,0-.57-.15A.4.4,0,0,0,629.69,113.89Z"/><path class="cls-20" d="M625.37,111.53A.4.4,0,0,0,626,111a.37.37,0,0,0-.54-.06A.41.41,0,0,0,625.37,111.53Z"/><path class="cls-21" d="M626.59,113.22a.39.39,0,0,0,.53.1.41.41,0,0,0,.15-.54.37.37,0,0,0-.54-.1A.42.42,0,0,0,626.59,113.22Z"/><path class="cls-20" d="M627.68,115a.41.41,0,0,0,.53.13.38.38,0,0,0,.18-.52.41.41,0,0,0-.55-.13A.39.39,0,0,0,627.68,115Z"/><path class="cls-20" d="M627.36,108.49a.43.43,0,0,0,.58.06.4.4,0,0,0,0-.58Z"/><path class="cls-20" d="M625.6,110a.42.42,0,0,0,.56,0,.38.38,0,0,0,.06-.56Z"/><path class="cls-19" d="M632.79,115a.43.43,0,0,0,.55.22.42.42,0,0,0,.18-.56.43.43,0,0,0-.56-.22A.4.4,0,0,0,632.79,115Z"/><path class="cls-20" d="M633.64,121a.41.41,0,0,1,.29-.5.42.42,0,0,1,.49.31Z"/><path class="cls-20" d="M631.41,121.55a.38.38,0,0,1,.29-.47.4.4,0,0,1,.49.28Z"/><path class="cls-20" d="M632.79,115a.43.43,0,0,0,.55.22.42.42,0,0,0,.18-.56.43.43,0,0,0-.56-.22A.4.4,0,0,0,632.79,115Z"/><path class="cls-21" d="M633.7,117.24a.42.42,0,0,0,.53.27.41.41,0,0,0,.23-.54.4.4,0,1,0-.76.27Z"/><path class="cls-20" d="M634.45,119.57a.41.41,0,1,0,.28-.53A.44.44,0,0,0,634.45,119.57Z"/><path class="cls-21" d="M630.09,117.4a.39.39,0,0,0,.51.21.41.41,0,0,0,.24-.52.38.38,0,0,0-.51-.21A.43.43,0,0,0,630.09,117.4Z"/><path class="cls-21" d="M630.84,119.44a.41.41,0,0,0,.5.25.38.38,0,0,0,.27-.49.41.41,0,0,0-.52-.24A.38.38,0,0,0,630.84,119.44Z"/><path class="cls-21" d="M632.22,116.53a.4.4,0,0,0,.52.24.42.42,0,0,0,.22-.54.38.38,0,0,0-.52-.24A.43.43,0,0,0,632.22,116.53Z"/><path class="cls-21" d="M633,118.74a.42.42,0,0,0,.51.28.41.41,0,0,0,.26-.52.43.43,0,0,0-.53-.27A.39.39,0,0,0,633,118.74Z"/><path class="cls-21" d="M630.7,115.93a.42.42,0,0,0,.54.2.39.39,0,0,0,.19-.53.4.4,0,0,0-.54-.2A.39.39,0,0,0,630.7,115.93Z"/><path class="cls-20" d="M631.55,118a.41.41,0,0,0,.51.24.4.4,0,0,0,.24-.52.4.4,0,1,0-.75.28Z"/><path class="cls-21" d="M632.24,120.19a.41.41,0,0,0,.49.28.42.42,0,0,0,.29-.5.39.39,0,0,0-.49-.28A.42.42,0,0,0,632.24,120.19Z"/><path class="cls-20" d="M628.6,116.88a.41.41,0,0,0,.53.17.37.37,0,0,0,.21-.5.39.39,0,0,0-.53-.17A.39.39,0,0,0,628.6,116.88Z"/><path class="cls-21" d="M629.39,118.81a.4.4,0,0,0,.75-.27.38.38,0,0,0-.5-.21A.38.38,0,0,0,629.39,118.81Z"/><path class="cls-20" d="M630,120.8a.37.37,0,0,0,.48.25.38.38,0,0,0,.29-.46.37.37,0,0,0-.48-.26A.41.41,0,0,0,630,120.8Z"/><path class="cls-20" d="M631.23,114.39A.4.4,0,1,0,632,114Z"/><path class="cls-20" d="M629.18,115.42a.39.39,0,0,0,.52.17.4.4,0,0,0,.19-.53Z"/><path class="cls-19" d="M635,122a.41.41,0,0,0,.47.35.43.43,0,0,0,.32-.51.39.39,0,0,0-.47-.34A.43.43,0,0,0,635,122Z"/><path class="cls-20" d="M634.48,128a.39.39,0,0,1,.39-.42.42.42,0,0,1,.42.42Z"/><path class="cls-20" d="M632.19,128a.38.38,0,0,1,.38-.39.42.42,0,0,1,.42.39Z"/><path class="cls-20" d="M635,122a.41.41,0,0,0,.47.35.43.43,0,0,0,.32-.51.39.39,0,0,0-.47-.34A.43.43,0,0,0,635,122Z"/><path class="cls-21" d="M635.4,124.37a.45.45,0,0,0,.47.38.39.39,0,0,0,.33-.48.42.42,0,0,0-.46-.38A.42.42,0,0,0,635.4,124.37Z"/><path class="cls-20" d="M635.57,126.81a.42.42,0,0,0,.43.41.4.4,0,0,0,.38-.44.43.43,0,0,0-.43-.42A.42.42,0,0,0,635.57,126.81Z"/><path class="cls-21" d="M631.82,123.69a.4.4,0,0,0,.79-.13.38.38,0,0,0-.45-.32A.41.41,0,0,0,631.82,123.69Z"/><path class="cls-21" d="M632.08,125.85a.37.37,0,0,0,.42.35.4.4,0,0,0,.38-.41.38.38,0,0,0-.42-.36A.41.41,0,0,0,632.08,125.85Z"/><path class="cls-21" d="M634.09,123.33a.41.41,0,0,0,.46.36.41.41,0,0,0,.33-.48.4.4,0,0,0-.46-.35A.41.41,0,0,0,634.09,123.33Z"/><path class="cls-21" d="M634.37,125.67a.4.4,0,0,0,.42.39.42.42,0,0,0,.38-.45.4.4,0,0,0-.42-.39A.42.42,0,0,0,634.37,125.67Z"/><path class="cls-21" d="M632.78,122.39a.39.39,0,0,0,.46.32.42.42,0,0,0,.33-.48.38.38,0,0,0-.47-.31A.42.42,0,0,0,632.78,122.39Z"/><path class="cls-20" d="M633.12,124.63a.42.42,0,0,0,.46.35.38.38,0,0,0,.34-.44.41.41,0,0,0-.46-.35A.39.39,0,0,0,633.12,124.63Z"/><path class="cls-21" d="M633.28,126.89a.41.41,0,0,0,.42.39.39.39,0,0,0,.38-.42.4.4,0,0,0-.8,0Z"/><path class="cls-20" d="M630.52,122.83a.38.38,0,0,0,.45.29.4.4,0,0,0,.34-.44.36.36,0,0,0-.46-.29A.41.41,0,0,0,630.52,122.83Z"/><path class="cls-21" d="M630.84,124.89a.42.42,0,0,0,.46.33.37.37,0,0,0,.34-.42.41.41,0,0,0-.46-.32A.38.38,0,0,0,630.84,124.89Z"/><path class="cls-20" d="M631,127a.41.41,0,0,0,.42.36.39.39,0,0,0,.39-.39.4.4,0,0,0-.43-.36A.39.39,0,0,0,631,127Z"/><path class="cls-20" d="M633.64,121a.43.43,0,0,0,.5.31.4.4,0,0,0,.28-.5Z"/><path class="cls-20" d="M631.41,121.55a.4.4,0,0,0,.48.28.39.39,0,0,0,.3-.47Z"/><circle class="cls-12" cx="381.49" cy="129.69" r="5.93"/><circle class="cls-12" cx="299.38" cy="127.08" r="5.93"/><circle class="cls-17" cx="490.88" cy="128.26" r="5.93"/><circle class="cls-17" cx="496.81" cy="128.26" r="5.93"/><circle class="cls-22" cx="610.72" cy="128.74" r="5.93"/><text class="cls-23" transform="translate(261.41 219.86)">1</text><line class="cls-24" x1="275.29" y1="196.84" x2="275.29" y2="231.49"/><rect class="cls-4" x="374.69" y="196.84" width="36.14" height="7.83" rx="2"/><rect class="cls-6" x="374.69" y="210.25" width="36.14" height="17.46" rx="2"/><text class="cls-23" transform="translate(349.77 219.86)">2</text><line class="cls-24" x1="366.03" y1="196.84" x2="366.03" y2="231.49"/><rect class="cls-4" x="490.02" y="196.84" width="36.14" height="7.83" rx="2"/><rect class="cls-6" x="490.02" y="210.25" width="36.14" height="17.46" rx="2"/><text class="cls-23" transform="translate(465.1 219.86)">3</text><line class="cls-24" x1="481.35" y1="196.84" x2="481.35" y2="231.49"/><rect class="cls-4" x="596.57" y="196.84" width="36.14" height="7.83" rx="2"/><rect class="cls-6" x="596.57" y="210.25" width="36.14" height="17.46" rx="2"/><text class="cls-23" transform="translate(570.86 219.86)">4</text><line class="cls-24" x1="587.9" y1="196.84" x2="587.9" y2="231.49"/></g></svg>