<svg xmlns="http://www.w3.org/2000/svg" xmlns:xlink="http://www.w3.org/1999/xlink" viewBox="0 0 660.95 340.78"><defs><style>.cls-1,.cls-48{fill:#fff;}.cls-2{fill:#e6e6e6;}.cls-3{fill:#333;}.cls-4{fill:#666;}.cls-5{fill:#ccc;}.cls-50,.cls-6,.cls-9{fill:none;stroke-miterlimit:10;}.cls-6,.cls-9{stroke:#333;stroke-width:0.99px;}.cls-6,.cls-7{opacity:0.3;}.cls-8{isolation:isolate;}.cls-10{fill:#e6e6e5;}.cls-11{fill:#1e2e3f;}.cls-12{fill:#2a4156;}.cls-13{fill:url(#linear-gradient);}.cls-14{fill:url(#linear-gradient-2);}.cls-15{fill:url(#linear-gradient-3);}.cls-16{fill:url(#linear-gradient-4);}.cls-17{fill:url(#linear-gradient-5);}.cls-18{fill:url(#linear-gradient-6);}.cls-19{fill:url(#linear-gradient-7);}.cls-20{fill:url(#linear-gradient-8);}.cls-21{fill:url(#linear-gradient-9);}.cls-22{fill:url(#linear-gradient-10);}.cls-23{fill:url(#linear-gradient-11);}.cls-24{fill:url(#linear-gradient-12);}.cls-25{fill:url(#linear-gradient-13);}.cls-26{fill:url(#linear-gradient-14);}.cls-27{fill:url(#linear-gradient-15);}.cls-28{fill:#f05b42;}.cls-29{fill:url(#linear-gradient-16);}.cls-30{fill:url(#linear-gradient-17);}.cls-31{fill:url(#linear-gradient-18);}.cls-32{fill:url(#linear-gradient-19);}.cls-33{fill:url(#linear-gradient-20);}.cls-34{fill:url(#linear-gradient-21);}.cls-35{fill:url(#linear-gradient-22);}.cls-36{fill:url(#linear-gradient-23);}.cls-37{fill:url(#linear-gradient-24);}.cls-38{fill:url(#linear-gradient-25);}.cls-39{fill:url(#linear-gradient-26);}.cls-40{fill:url(#linear-gradient-27);}.cls-41{fill:url(#linear-gradient-28);}.cls-42{fill:url(#linear-gradient-29);}.cls-43{fill:url(#linear-gradient-30);}.cls-44{fill:url(#linear-gradient-31);}.cls-45{fill:url(#linear-gradient-32);}.cls-46{fill:url(#linear-gradient-33);}.cls-47{fill:url(#linear-gradient-34);}.cls-48{opacity:0.05;}.cls-49{fill:url(#linear-gradient-35);}.cls-50{stroke:#663694;stroke-width:2.36px;}.cls-51{fill:#663694;}</style><linearGradient id="linear-gradient" x1="544.86" y1="95.33" x2="646.92" y2="244.98" gradientUnits="userSpaceOnUse"><stop offset="0" stop-color="#f05b42"/><stop offset="1" stop-color="#ee3943"/></linearGradient><linearGradient id="linear-gradient-2" x1="585.82" y1="163.15" x2="644.95" y2="163.15" xlink:href="#linear-gradient"/><linearGradient id="linear-gradient-3" x1="1044.98" y1="1709.39" x2="917" y2="1594.3" gradientTransform="translate(5.34 -1661.17) rotate(13.01)" gradientUnits="userSpaceOnUse"><stop offset="0" stop-color="#f27446"/><stop offset="1" stop-color="#f16343"/></linearGradient><linearGradient id="linear-gradient-4" x1="979.26" y1="1674.94" x2="972.09" y2="1664.69" gradientTransform="translate(5.34 -1661.17) rotate(13.01)" gradientUnits="userSpaceOnUse"><stop offset="0" stop-color="#f79954"/><stop offset="1" stop-color="#f48049"/></linearGradient><linearGradient id="linear-gradient-5" x1="987.45" y1="1669.2" x2="980.28" y2="1658.96" xlink:href="#linear-gradient-4"/><linearGradient id="linear-gradient-6" x1="519.79" y1="112.43" x2="621.85" y2="262.07" xlink:href="#linear-gradient"/><linearGradient id="linear-gradient-7" x1="629.36" y1="219.18" x2="492.03" y2="133.05" gradientUnits="userSpaceOnUse"><stop offset="0" stop-color="#f05b42"/><stop offset="1" stop-color="#ee3b42"/></linearGradient><linearGradient id="linear-gradient-8" x1="1024.71" y1="1731.93" x2="896.73" y2="1616.84" xlink:href="#linear-gradient-3"/><linearGradient id="linear-gradient-9" x1="956.47" y1="1690.89" x2="949.29" y2="1680.65" xlink:href="#linear-gradient-4"/><linearGradient id="linear-gradient-10" x1="941.86" y1="1701.11" x2="934.69" y2="1690.87" xlink:href="#linear-gradient-4"/><linearGradient id="linear-gradient-11" x1="461.69" y1="152.05" x2="563.75" y2="301.7" xlink:href="#linear-gradient"/><linearGradient id="linear-gradient-12" x1="480.69" y1="139.1" x2="582.75" y2="288.74" xlink:href="#linear-gradient"/><linearGradient id="linear-gradient-13" x1="476.63" y1="141.86" x2="578.69" y2="291.51" xlink:href="#linear-gradient"/><linearGradient id="linear-gradient-14" x1="475.49" y1="142.64" x2="577.55" y2="292.29" xlink:href="#linear-gradient"/><linearGradient id="linear-gradient-15" x1="484.05" y1="136.81" x2="586.11" y2="286.45" xlink:href="#linear-gradient"/><linearGradient id="linear-gradient-16" x1="496.69" y1="128.18" x2="598.76" y2="277.83" xlink:href="#linear-gradient"/><linearGradient id="linear-gradient-17" x1="509.96" y1="119.13" x2="612.02" y2="268.78" xlink:href="#linear-gradient"/><linearGradient id="linear-gradient-18" x1="506.37" y1="121.58" x2="608.44" y2="271.22" xlink:href="#linear-gradient"/><linearGradient id="linear-gradient-19" x1="-9978.73" y1="-702.83" x2="-9803.72" y2="-702.83" gradientTransform="translate(-3802.5 -8708.19) rotate(-120)" xlink:href="#linear-gradient-3"/><linearGradient id="linear-gradient-20" x1="510.76" y1="118.58" x2="612.83" y2="268.23" xlink:href="#linear-gradient"/><linearGradient id="linear-gradient-21" x1="920.09" y1="1715.03" x2="912.92" y2="1704.79" xlink:href="#linear-gradient-4"/><linearGradient id="linear-gradient-22" x1="928.28" y1="1709.3" x2="921.11" y2="1699.06" xlink:href="#linear-gradient-4"/><linearGradient id="linear-gradient-23" x1="462.71" y1="151.36" x2="564.77" y2="301" xlink:href="#linear-gradient"/><linearGradient id="linear-gradient-24" x1="899.36" y1="1729.19" x2="919.09" y2="1729.19" xlink:href="#linear-gradient-3"/><linearGradient id="linear-gradient-25" x1="892.08" y1="1734.64" x2="884.91" y2="1724.4" xlink:href="#linear-gradient-4"/><linearGradient id="linear-gradient-26" x1="900.27" y1="1728.91" x2="893.1" y2="1718.66" xlink:href="#linear-gradient-4"/><linearGradient id="linear-gradient-27" x1="427.06" y1="175.68" x2="529.12" y2="325.32" xlink:href="#linear-gradient"/><linearGradient id="linear-gradient-28" x1="432.81" y1="171.76" x2="534.87" y2="321.4" xlink:href="#linear-gradient"/><linearGradient id="linear-gradient-29" x1="950.24" y1="1815.77" x2="822.25" y2="1700.67" xlink:href="#linear-gradient-3"/><linearGradient id="linear-gradient-30" x1="864.57" y1="1753.9" x2="857.4" y2="1743.66" xlink:href="#linear-gradient-4"/><linearGradient id="linear-gradient-31" x1="849.97" y1="1764.12" x2="842.8" y2="1753.88" xlink:href="#linear-gradient-4"/><linearGradient id="linear-gradient-32" x1="929.85" y1="1838.43" x2="801.87" y2="1723.34" xlink:href="#linear-gradient-3"/><linearGradient id="linear-gradient-33" x1="926.88" y1="1841.74" x2="798.89" y2="1726.65" xlink:href="#linear-gradient-3"/><linearGradient id="linear-gradient-34" x1="386.17" y1="203.57" x2="488.23" y2="353.21" xlink:href="#linear-gradient"/><linearGradient id="linear-gradient-35" x1="336.85" y1="99.8" x2="285.91" y2="37.91" gradientUnits="userSpaceOnUse"><stop offset="0" stop-color="#5050a1"/><stop offset="1" stop-color="#57308c"/></linearGradient></defs><title>project_presentation</title><g id="Layer_3" data-name="Layer 3"><rect class="cls-1" y="0.05" width="660.95" height="340.78" rx="10"/><path class="cls-2" d="M10,0H227a0,0,0,0,1,0,0V340.82a0,0,0,0,1,0,0H10a10,10,0,0,1-10-10V10A10,10,0,0,1,10,0Z"/><rect class="cls-3" x="35.11" y="62.56" width="160.08" height="18.2" rx="3.62"/><rect class="cls-4" x="35.11" y="89.13" width="160.08" height="18.2" rx="3.62"/><rect class="cls-5" x="35.11" y="115.69" width="160.08" height="75.19" rx="3.62"/><rect class="cls-5" x="71.82" y="260.77" width="86.68" height="19.97" rx="2.01"/><path class="cls-6" d="M371.2,292.7a5.29,5.29,0,0,1-2.88-.86l-.35-.19c-12.61-7.21-12.9-7.39-13-7.45a6.46,6.46,0,0,1-3.1-5.44c0-.31,0-30.82-.05-46.66a10.4,10.4,0,0,1-2.52.32h-.44c-5.46.22-28.92,1.14-30.14,1.15a5.69,5.69,0,0,1-5.47-3.17,6.7,6.7,0,0,1-1.05-5.3c.23-.94.23-.94,8.5-14.37,1.32-2.14,7.92-12.87,8.45-13.64l.08-.12a10.71,10.71,0,0,1,8.45-5l1.61-.9.12,0a10.78,10.78,0,0,1,4.64-1,12.92,12.92,0,0,1,3,.36l11.88-6.83v-9c-1.52-.86-3-1.7-3.35-1.93a6.5,6.5,0,0,1-3-5.16c0-.11,0-.17-.05-43.58,0-10.58,0-19,0-19.24a5.46,5.46,0,0,1,2.93-4.88l1-.59.54-.31a5.31,5.31,0,0,1,2.58-.67,5.53,5.53,0,0,1,2.76.75c.12.07,13,7.4,13.51,7.73a6.45,6.45,0,0,1,3.11,5.44c0,.31,0,34.84.05,51.28l7.78-4.49,2.7-1.56a12.34,12.34,0,0,1,6.16-1.56h.61c-5.32-11.93-13.38-34.29-13.38-60.16,0-43,22.52-54.32,26.11-55.86,2-1.12,15.07-8.46,20.51-11.76,4.55-2.77,13.3-5.73,24.16-5.73,12.41,0,24.65,3.75,36.4,11.15a168.66,168.66,0,0,1,41,36.29,6.51,6.51,0,0,1-.06-.88c0-1.08,0-25.13,0-25.71a6.34,6.34,0,0,1,3.17-5.48l50.79-29.2a5.52,5.52,0,0,1,2.8-.78,5.32,5.32,0,0,1,2.63.71l.12.06c1.41.79,1.74,1,2,1.19a5.4,5.4,0,0,1,2.29,4.48c0,.12,0,25.4,0,25.74a6.52,6.52,0,0,1-3.17,5.48l-.31.18a25.49,25.49,0,0,1,4.87,2.13c6.91,3.84,16.72,15.74,15.82,29.08-.54,7.51-4,10.54-5.45,11.49-.36.24-3.27,1.94-7.43,4.36a5.8,5.8,0,0,1,.88,3.14s0,25,0,25.43a6.36,6.36,0,0,1-3.27,5.73l-29.27,16.83a133.81,133.81,0,0,1,3.6,30.22c0,11.21-2.07,38.78-21.22,52.64a147.38,147.38,0,0,1-25.44,15.15c-2,1.21-10.3,5.7-23.25,5.7-12.15,0-24.77-3.85-37.53-11.44a149.78,149.78,0,0,1-45-41,12.65,12.65,0,0,1-4.37,4.73l-17.61,10.13a11.42,11.42,0,0,1-6.26,1.71,16.61,16.61,0,0,1-7.74-2.07L371.4,216c1.53.88,3.26,1.86,3.78,2.18a6,6,0,0,1,3.06,5.6c0,3.78.06,62.24.06,62.5a5.33,5.33,0,0,1-2.69,4.68l-.17.1-1.67,1A5.46,5.46,0,0,1,371.2,292.7Z"/><g class="cls-7"><g class="cls-8"><path class="cls-9" d="M560,120.61l0-16.75a.65.65,0,0,1,.39-.54,2.06,2.06,0,0,1,1.87,0,.65.65,0,0,1,.39.54l0,16.75a.65.65,0,0,0-.39-.54,2.06,2.06,0,0,0-1.87,0A.66.66,0,0,0,560,120.61Z"/><path class="cls-9" d="M560.43,121.15a.57.57,0,0,1,0-1.08,2.06,2.06,0,0,1,1.87,0,.57.57,0,0,1,0,1.08A2.06,2.06,0,0,1,560.43,121.15Z"/></g></g><g class="cls-7"><g class="cls-8"><path class="cls-9" d="M593.15,94.17l1.74,1a.49.49,0,0,0-.49,0l-1.74-1A.49.49,0,0,1,593.15,94.17Z"/><path class="cls-9" d="M543.12,151.84l-1.75-1a.48.48,0,0,1-.21-.45l1.75,1A.48.48,0,0,0,543.12,151.84Z"/><polygon class="cls-9" points="543.58 124.44 541.83 123.44 592.66 94.22 594.4 95.22 543.58 124.44"/><polygon class="cls-9" points="542.91 151.39 541.16 150.39 541.14 124.64 542.88 125.64 542.91 151.39"/><path class="cls-9" d="M542.88,125.64a1.55,1.55,0,0,1,.7-1.2L594.4,95.22c.39-.22.7,0,.7.41l0,25.74a1.54,1.54,0,0,1-.69,1.21L543.6,151.79c-.38.22-.69,0-.69-.4Z"/><path class="cls-9" d="M542.88,125.64l-1.74-1a1.54,1.54,0,0,1,.69-1.2l1.75,1A1.55,1.55,0,0,0,542.88,125.64Z"/></g><line class="cls-9" x1="595.11" y1="108.4" x2="542.93" y2="138.6"/><line class="cls-9" x1="595.19" y1="100.66" x2="543.01" y2="130.86"/><line class="cls-9" x1="595.25" y1="116.22" x2="543.07" y2="146.42"/><line class="cls-9" x1="569.02" y1="137.28" x2="568.99" y2="109.92"/><line class="cls-9" x1="555.6" y1="144.95" x2="555.57" y2="117.59"/><line class="cls-9" x1="584.84" y1="128.03" x2="584.82" y2="100.67"/></g><g class="cls-7"><path class="cls-9" d="M534,84.14l17.42-10c-2,1.14-3.22,3.6-3.21,7.11,0,7,4.88,15.38,10.89,18.82,3,1.71,5.69,1.87,7.65.74l-17.42,10c-2,1.13-4.67,1-7.65-.73-6-3.44-10.89-11.87-10.89-18.83C530.8,87.75,532,85.29,534,84.14Z"/></g><g class="cls-7"><path class="cls-9" d="M531.91,80.47,583.47,50.7c2.51-1.44,5.95-1.24,9.76.94,7.67,4.39,13.89,15.14,13.89,24,0,4.47-1.56,7.61-4.1,9.07l-51.56,29.77c2.54-1.46,4.11-4.6,4.11-9.07,0-8.87-6.23-19.63-13.9-24C537.86,79.23,534.42,79,531.91,80.47Z"/></g><g class="cls-7"><path class="cls-9" d="M527.81,89.53c0-8.87,6.2-12.51,13.86-8.12s13.89,15.14,13.9,24-6.2,12.52-13.87,8.13S527.82,98.41,527.81,89.53Zm24.76,14.17c0-7-4.89-15.38-10.89-18.82s-10.88-.59-10.87,6.37,4.88,15.39,10.89,18.83,10.87.58,10.87-6.38"/></g><g class="cls-7"><path class="cls-9" d="M514.87,103c0-5.53,3.86-7.8,8.65-5.07s8.66,9.45,8.66,15-3.86,7.81-8.65,5.07S514.88,108.57,514.87,103Z"/><path class="cls-9" d="M517.43,97.38l17.42-10c1.56-.89,3.71-.77,6.09.59,4.78,2.73,8.66,9.44,8.66,15,0,2.78-1,4.74-2.56,5.65l-17.42,10c1.59-.91,2.57-2.87,2.56-5.66,0-5.53-3.88-12.24-8.66-15C521.14,96.6,519,96.48,517.43,97.38Z"/></g><g class="cls-7"><path class="cls-9" d="M500.52,103.53l17.43-10c-2,1.14-3.22,3.61-3.22,7.11,0,7,4.88,15.39,10.89,18.83,3,1.7,5.69,1.86,7.65.73l-17.42,10c-2,1.12-4.66,1-7.65-.74-6-3.44-10.88-11.87-10.89-18.83C497.31,107.13,498.54,104.67,500.52,103.53Z"/></g><g class="cls-7"><path class="cls-9" d="M498.41,99.85l17.42-10c2.51-1.44,6-1.24,9.76.94,7.67,4.38,13.89,15.14,13.9,24,0,4.47-1.57,7.61-4.11,9.07l-17.42,10c2.54-1.46,4.11-4.6,4.11-9.07,0-8.87-6.23-19.62-13.9-24C504.37,98.61,500.92,98.41,498.41,99.85Z"/></g><g class="cls-7"><path class="cls-9" d="M494.31,108.92c0-8.88,6.2-12.52,13.86-8.13s13.89,15.14,13.9,24-6.2,12.52-13.87,8.13S494.32,117.79,494.31,108.92Zm24.76,14.17c0-7-4.88-15.39-10.89-18.83s-10.88-.58-10.87,6.37,4.88,15.39,10.89,18.83,10.88.59,10.87-6.37"/></g><g class="cls-7"><path class="cls-9" d="M466.66,126.72l34.84-20c1.56-.89,3.71-.77,6.09.59,4.78,2.73,8.66,9.44,8.66,15,0,2.78-1,4.74-2.56,5.65l-34.84,20c1.58-.91,2.56-2.87,2.56-5.66,0-5.53-3.88-12.24-8.66-15C470.37,126,468.22,125.82,466.66,126.72Z"/><path class="cls-9" d="M464.1,132.38c0-5.54,3.87-7.81,8.65-5.07s8.66,9.44,8.66,15-3.86,7.81-8.64,5.08S464.1,137.91,464.1,132.38Z"/></g><g class="cls-7"><path class="cls-9" d="M396.25,103.27l20.91-12c1.25,43.51,31,95,67.91,117.61l-20.92,12C427.21,198.26,397.49,146.78,396.25,103.27Z"/><polygon class="cls-9" points="396.25 97.7 417.16 85.7 479.16 121.27 458.25 133.26 396.25 97.7"/><polygon class="cls-9" points="468.96 151.82 489.88 139.83 489.88 211.65 468.96 223.65 468.96 151.82"/><path class="cls-9" d="M537,215.12l-20.91,12c-12.18,7-28.75,6.34-47.1-3.47l20.92-12C508.23,221.46,524.79,222.11,537,215.12Z"/><path class="cls-9" d="M417.06,54.51l20.91-12c-12.34,7.08-20.18,22-20.81,43.19l-20.91,12C396.87,76.52,404.71,61.59,417.06,54.51Z"/><path class="cls-9" d="M460.47,130.21l20.92-12a5,5,0,0,1,3.68-.4l-20.92,12A4.9,4.9,0,0,0,460.47,130.21Z"/><path class="cls-9" d="M493.56,139.43l-20.92,12a5,5,0,0,0,2.23-3.06l20.92-12A5,5,0,0,1,493.56,139.43Z"/><path class="cls-9" d="M469,132.57l20.92-12a20.36,20.36,0,0,1,5.91,10.23l-20.92,12A20.21,20.21,0,0,0,469,132.57Z"/><polygon class="cls-9" points="468.96 60.74 489.88 48.75 489.88 120.57 468.96 132.57 468.96 60.74"/><polygon class="cls-9" points="474.87 142.8 495.79 130.8 557.79 166.36 536.87 178.36 474.87 142.8"/><path class="cls-9" d="M387.85,95.67c0-50.36,35.24-71,78.71-46s78.7,86,78.7,136.32-35.23,71-78.7,46S387.85,146,387.85,95.67Zm149,88.26-62-35.56a4.62,4.62,0,0,1-5.91,3.45v71.83c37,19.75,66.67,2.36,67.91-39.72m-78.62-45.1-62-35.56c1.24,43.51,31,95,67.9,117.62V149.06a20.27,20.27,0,0,1-5.9-10.23m78.62,39.53c-1.24-43.51-31-95-67.91-117.62v71.83a20.21,20.21,0,0,1,5.91,10.23l62,35.56M396.25,97.7l62,35.56a4.61,4.61,0,0,1,5.9-3.45V58c-36.94-19.75-66.66-2.36-67.9,39.72"/><path class="cls-9" d="M411.18,44.26l20.92-12c14.22-8.15,33.78-7,55.38,5.38,43.46,24.93,78.7,86,78.7,136.32,0,25.34-8.92,43.15-23.33,51.41l-20.91,12c14.4-8.26,23.32-26.07,23.32-51.41,0-50.36-35.23-111.39-78.7-136.32C445,37.25,425.4,36.11,411.18,44.26Z"/></g><g class="cls-7"><g class="cls-8"><path class="cls-9" d="M363.67,232.36l.05-24.11a.67.67,0,0,1,.38-.54,2.09,2.09,0,0,1,1.87,0,.67.67,0,0,1,.39.55l0,24.11a.67.67,0,0,0-.39-.55,2.09,2.09,0,0,0-1.87,0A.65.65,0,0,0,363.67,232.36Z"/><path class="cls-9" d="M364.06,232.91a.57.57,0,0,1,0-1.08,2.09,2.09,0,0,1,1.87,0,.58.58,0,0,1,0,1.09A2.06,2.06,0,0,1,364.06,232.91Z"/></g></g><g class="cls-7"><g class="cls-8"><path class="cls-9" d="M373.16,286.7l-1.74,1a.51.51,0,0,0,.2-.46l1.75-1A.48.48,0,0,1,373.16,286.7Z"/><path class="cls-9" d="M356.93,215.67l1.74-1a.48.48,0,0,1,.5,0l-1.75,1A.45.45,0,0,0,356.93,215.67Z"/><polygon class="cls-9" points="357.42 215.72 359.17 214.71 372.61 222.41 370.87 223.41 357.42 215.72"/><polygon class="cls-9" points="371.56 224.61 373.31 223.61 373.37 286.25 371.62 287.25 371.56 224.61"/><path class="cls-9" d="M356.73,216.12c0-.45.31-.63.69-.4l13.45,7.69a1.54,1.54,0,0,1,.69,1.2l.06,62.64c0,.45-.31.63-.69.41L357.49,280a1.52,1.52,0,0,1-.7-1.2Z"/><path class="cls-9" d="M370.87,223.41l1.74-1a1.55,1.55,0,0,1,.7,1.2l-1.75,1A1.54,1.54,0,0,0,370.87,223.41Z"/></g><line class="cls-9" x1="359.82" y1="281.44" x2="359.76" y2="217.17"/><line class="cls-9" x1="364.21" y1="283.83" x2="364.14" y2="219.55"/><line class="cls-9" x1="368.84" y1="286.56" x2="368.78" y2="222.28"/><line class="cls-9" x1="371.18" y1="270.13" x2="356.34" y2="261.64"/><line class="cls-9" x1="371.62" y1="280.54" x2="356.78" y2="272.05"/><line class="cls-9" x1="371.6" y1="258.18" x2="356.76" y2="249.69"/><line class="cls-9" x1="371.58" y1="244.97" x2="356.75" y2="236.48"/><line class="cls-9" x1="371.34" y1="232.48" x2="356.5" y2="223.99"/></g><g class="cls-7"><path class="cls-9" d="M435.45,149.15c0-5.54,3.86-7.81,8.64-5.08s8.67,9.45,8.67,15-3.86,7.81-8.65,5.07S435.46,154.68,435.45,149.15Z"/><path class="cls-9" d="M438,143.49l17.42-10c1.56-.9,3.71-.78,6.09.58,4.78,2.74,8.66,9.44,8.66,15,0,2.79-1,4.74-2.56,5.65l-17.42,10c1.59-.91,2.57-2.87,2.56-5.66,0-5.53-3.88-12.24-8.67-15C441.72,142.72,439.57,142.59,438,143.49Z"/></g><g class="cls-7"><path class="cls-9" d="M417.39,151.49l17.42-10c2-1.15,4.74-1,7.78.74,6.11,3.5,11.07,12.07,11.07,19.15,0,3.56-1.24,6.06-3.27,7.22l-17.42,10c2-1.16,3.28-3.67,3.27-7.23,0-7.07-5-15.64-11.07-19.14C422.13,150.5,419.38,150.34,417.39,151.49Z"/></g><g class="cls-7"><path class="cls-9" d="M414.12,158.72c0-7.08,4.94-10,11.05-6.48s11.07,12.07,11.07,19.14-4.94,10-11.05,6.48S414.12,165.79,414.12,158.72Z"/></g><g class="cls-7"><path class="cls-9" d="M397.43,171.15c0-5.54,3.86-7.81,8.64-5.07s8.66,9.44,8.67,15-3.87,7.8-8.65,5.06S397.43,176.68,397.43,171.15Z"/><path class="cls-9" d="M400,165.49l17.42-10c1.56-.9,3.71-.78,6.08.58,4.78,2.74,8.67,9.45,8.67,15,0,2.79-1,4.74-2.56,5.65l-17.42,10c1.58-.91,2.56-2.87,2.56-5.65,0-5.54-3.89-12.25-8.67-15C403.7,164.72,401.55,164.59,400,165.49Z"/></g><g class="cls-7"><path class="cls-9" d="M376.68,175.34l17.42-10c-2,1.14-3.22,3.6-3.21,7.11,0,7,4.88,15.38,10.89,18.82,3,1.71,5.69,1.87,7.65.74L392,202c-2,1.13-4.67,1-7.65-.73-6-3.44-10.89-11.87-10.9-18.83C373.46,179,374.69,176.49,376.68,175.34Z"/></g><g class="cls-7"><path class="cls-9" d="M374.57,171.67l17.42-10c2.51-1.44,5.95-1.25,9.76.93,7.67,4.39,13.89,15.14,13.89,24,0,4.47-1.56,7.61-4.1,9.07l-17.42,10c2.54-1.46,4.11-4.6,4.1-9.07,0-8.87-6.22-19.62-13.89-24C380.52,170.43,377.07,170.23,374.57,171.67Z"/></g><g class="cls-7"><path class="cls-9" d="M370.47,180.73c0-8.87,6.19-12.51,13.86-8.12s13.89,15.14,13.89,24-6.19,12.52-13.86,8.13S370.48,189.61,370.47,180.73Zm24.76,14.17c0-7-4.89-15.38-10.9-18.82s-10.87-.59-10.87,6.37,4.89,15.39,10.9,18.83,10.87.58,10.87-6.38"/></g><g class="cls-7"><path class="cls-9" d="M342.81,198.54l34.85-20c1.56-.9,3.71-.77,6.08.59,4.79,2.73,8.66,9.44,8.67,15,0,2.79-1,4.75-2.56,5.66l-34.84,20c1.58-.91,2.56-2.87,2.56-5.66,0-5.53-3.89-12.24-8.67-15C346.53,197.77,344.38,197.64,342.81,198.54Z"/><path class="cls-9" d="M340.25,204.19c0-5.53,3.87-7.8,8.65-5.07s8.66,9.45,8.67,15-3.87,7.81-8.65,5.07S340.26,209.73,340.25,204.19Z"/></g><g class="cls-7"><path class="cls-9" d="M338,197.47l3.13-1.78c2-1.15,4.75-1,7.78.75,6.11,3.5,11.07,12.07,11.08,19.14,0,3.56-1.25,6.06-3.27,7.23l-3.13,1.78c2-1.16,3.27-3.66,3.27-7.22,0-7.08-5-15.65-11.07-19.15C342.7,196.49,340,196.33,338,197.47Z"/><path class="cls-9" d="M334.68,204.7c0-7.07,4.94-10,11.06-6.48s11.06,12.07,11.07,19.15-4.94,10-11.05,6.47S334.69,211.78,334.68,204.7Z"/></g><g class="cls-7"><ellipse class="cls-9" cx="343.84" cy="212.15" rx="9.72" ry="16.78" transform="translate(-60.05 201.87) rotate(-30.22)"/><path class="cls-9" d="M318.7,228.63a1.11,1.11,0,0,1-.58-.18,2.57,2.57,0,0,1-1.15-2l15-21.36c-.13,7.49,5.09,16.74,11.67,20.66a10.75,10.75,0,0,0,5.82,1.74Z"/><path class="cls-9" d="M333.28,199.74a10.33,10.33,0,0,0-1.35,5.31l-15,21.36a1,1,0,0,1,.13-.52Z"/><ellipse class="cls-9" cx="318.15" cy="227.11" rx="0.96" ry="1.66" transform="translate(-71.07 190.98) rotate(-30.22)"/><path class="cls-9" d="M349.42,227.45l-30.72,1.18c.36,0,.62-.31.62-.82a2.56,2.56,0,0,0-1.15-2c-.46-.27-.87-.21-1.07.12h0l16.18-26.15c2-3.28,6.12-3.93,10.79-1.15,6.58,3.92,11.8,13.17,11.67,20.66C355.66,224.35,353.11,227.31,349.42,227.45Z"/></g><g class="cls-7"><g class="cls-8"><path class="cls-9" d="M363.87,189.1l0-24.11a.67.67,0,0,1,.39-.54,2.06,2.06,0,0,1,1.87,0,.67.67,0,0,1,.39.55l-.05,24.11a.67.67,0,0,0-.39-.55,2.09,2.09,0,0,0-1.87,0A.66.66,0,0,0,363.87,189.1Z"/><path class="cls-9" d="M364.26,189.65a.57.57,0,0,1,0-1.08,2.09,2.09,0,0,1,1.87,0,.58.58,0,0,1,0,1.09A2.06,2.06,0,0,1,364.26,189.65Z"/></g></g><g class="cls-7"><g class="cls-8"><path class="cls-9" d="M373.93,175.25l-1.75,1a.5.5,0,0,0,.21-.46l1.74-1A.52.52,0,0,1,373.93,175.25Z"/><path class="cls-9" d="M357.7,104.21l1.74-1a.5.5,0,0,1,.49.05l-1.74,1A.5.5,0,0,0,357.7,104.21Z"/><polygon class="cls-9" points="358.19 104.26 359.93 103.26 373.37 110.95 371.63 111.95 358.19 104.26"/><polygon class="cls-9" points="372.33 113.16 374.07 112.16 374.13 174.79 372.39 175.79 372.33 113.16"/><path class="cls-9" d="M357.49,104.66c0-.44.31-.62.7-.4L371.63,112a1.52,1.52,0,0,1,.7,1.21l.06,62.63c0,.45-.31.63-.7.41l-13.44-7.69a1.52,1.52,0,0,1-.7-1.21Z"/><path class="cls-9" d="M371.63,112l1.74-1a1.52,1.52,0,0,1,.7,1.21l-1.74,1A1.52,1.52,0,0,0,371.63,112Z"/></g><line class="cls-9" x1="360.59" y1="169.99" x2="360.53" y2="105.71"/><line class="cls-9" x1="364.97" y1="172.37" x2="364.91" y2="108.09"/><line class="cls-9" x1="369.6" y1="175.11" x2="369.54" y2="110.83"/><line class="cls-9" x1="371.94" y1="158.68" x2="357.1" y2="150.18"/><line class="cls-9" x1="372.38" y1="169.08" x2="357.54" y2="160.59"/><line class="cls-9" x1="372.36" y1="146.73" x2="357.52" y2="138.23"/><line class="cls-9" x1="372.35" y1="133.51" x2="357.51" y2="125.02"/><line class="cls-9" x1="372.1" y1="121.03" x2="357.26" y2="112.53"/></g><g class="cls-7"><g class="cls-8"><path class="cls-9" d="M559.73,70.06l0-16.75a.65.65,0,0,1,.38-.53,2.06,2.06,0,0,1,1.87,0,.67.67,0,0,1,.39.55l0,16.75a.67.67,0,0,0-.39-.55,2.06,2.06,0,0,0-1.87,0A.64.64,0,0,0,559.73,70.06Z"/><path class="cls-9" d="M560.13,70.61c-.52-.3-.53-.78,0-1.08a2.06,2.06,0,0,1,1.87,0,.58.58,0,0,1,0,1.09A2.06,2.06,0,0,1,560.13,70.61Z"/></g></g><g class="cls-7"><g class="cls-8"><path class="cls-9" d="M587.91,12.7l1.75,1a.51.51,0,0,0-.5.05l-1.74-1A.47.47,0,0,1,587.91,12.7Z"/><path class="cls-9" d="M537.88,70.36l-1.74-1a.48.48,0,0,1-.21-.45l1.74,1A.48.48,0,0,0,537.88,70.36Z"/><polygon class="cls-9" points="538.34 42.96 536.6 41.96 587.42 12.74 589.16 13.74 538.34 42.96"/><polygon class="cls-9" points="537.67 69.91 535.93 68.91 535.9 43.17 537.65 44.16 537.67 69.91"/><path class="cls-9" d="M537.65,44.16a1.54,1.54,0,0,1,.69-1.2l50.82-29.22c.39-.22.7,0,.7.41l0,25.74a1.52,1.52,0,0,1-.7,1.21L538.37,70.31c-.38.22-.7,0-.7-.4Z"/><path class="cls-9" d="M537.65,44.16l-1.75-1a1.55,1.55,0,0,1,.7-1.21l1.74,1A1.54,1.54,0,0,0,537.65,44.16Z"/></g><line class="cls-9" x1="589.87" y1="26.92" x2="537.69" y2="57.12"/><line class="cls-9" x1="589.95" y1="19.18" x2="537.77" y2="49.38"/><line class="cls-9" x1="590.02" y1="34.75" x2="537.84" y2="64.94"/><line class="cls-9" x1="563.78" y1="55.8" x2="563.75" y2="28.45"/><line class="cls-9" x1="550.36" y1="63.47" x2="550.34" y2="36.11"/><line class="cls-9" x1="579.61" y1="46.55" x2="579.58" y2="19.19"/></g><path class="cls-10" d="M459.47,328.69a4.17,4.17,0,0,1-2.26-.68l-.27-.15c-9.92-5.67-10.15-5.81-10.23-5.86a5.07,5.07,0,0,1-2.44-4.27c0-.24,0-24.23,0-36.69a8,8,0,0,1-2,.26h-.34c-4.3.17-22.75.9-23.7.9a4.47,4.47,0,0,1-4.3-2.49,5.28,5.28,0,0,1-.83-4.16c.19-.74.19-.74,6.68-11.3,1-1.69,6.23-10.12,6.65-10.73l.06-.09a8.45,8.45,0,0,1,6.65-3.92l1.26-.71.09,0a8.55,8.55,0,0,1,3.65-.76,10.12,10.12,0,0,1,2.38.28l9.33-5.37v-7.06c-1.19-.68-2.35-1.34-2.63-1.53a5.12,5.12,0,0,1-2.33-4.05c0-.09,0-.13,0-34.26,0-8.32,0-14.93,0-15.12a4.3,4.3,0,0,1,2.31-3.84l.79-.46.42-.25a4.23,4.23,0,0,1,2-.52,4.38,4.38,0,0,1,2.17.58c.1.06,10.19,5.82,10.62,6.08a5.06,5.06,0,0,1,2.45,4.27c0,.25,0,27.39,0,40.32l6.11-3.53,2.13-1.22a9.62,9.62,0,0,1,4.84-1.23h.47c-4.17-9.38-10.51-27-10.51-47.3,0-33.8,17.7-42.71,20.53-43.91,1.57-.89,11.84-6.65,16.12-9.25,3.58-2.18,10.45-4.5,19-4.5,9.75,0,19.38,3,28.61,8.76a132.65,132.65,0,0,1,32.2,28.53,5.34,5.34,0,0,1,0-.69c0-.85,0-19.76,0-20.22a5,5,0,0,1,2.49-4.3l39.93-23a4.36,4.36,0,0,1,2.2-.61,4.1,4.1,0,0,1,2.07.56l.09,0a15.53,15.53,0,0,1,1.59.93,4.23,4.23,0,0,1,1.8,3.52c0,.1,0,20,0,20.24a5.12,5.12,0,0,1-2.49,4.31l-.24.14a19.84,19.84,0,0,1,3.83,1.67c5.43,3,13.14,12.37,12.43,22.87-.42,5.9-3.13,8.28-4.28,9-.28.19-2.57,1.52-5.84,3.42a4.53,4.53,0,0,1,.69,2.48s0,19.64,0,20a5,5,0,0,1-2.57,4.51l-23,13.23a105.78,105.78,0,0,1,2.83,23.76c0,8.81-1.63,30.48-16.69,41.38a115.62,115.62,0,0,1-20,11.91c-1.58.95-8.11,4.48-18.29,4.48-9.54,0-19.47-3-29.5-9a117.63,117.63,0,0,1-35.34-32.23,9.86,9.86,0,0,1-3.44,3.71l-13.85,8a9,9,0,0,1-4.91,1.34,12.91,12.91,0,0,1-6.09-1.63l-8.91,5.13c1.21.68,2.57,1.46,3,1.71a4.69,4.69,0,0,1,2.41,4.4c0,3,.05,48.94,0,49.14a4.19,4.19,0,0,1-2.11,3.68l-.13.08-1.32.75A4.22,4.22,0,0,1,459.47,328.69Z"/><g class="cls-8"><path class="cls-3" d="M607.93,193.39l0-13.16a.52.52,0,0,1,.3-.43,1.65,1.65,0,0,1,1.47,0,.51.51,0,0,1,.31.43l0,13.17a.51.51,0,0,0-.31-.43,1.62,1.62,0,0,0-1.47,0A.52.52,0,0,0,607.93,193.39Z"/><path class="cls-3" d="M608.24,193.82a.45.45,0,0,1,0-.85,1.62,1.62,0,0,1,1.47,0,.45.45,0,0,1,0,.85A1.59,1.59,0,0,1,608.24,193.82Z"/></g><g class="cls-8"><path class="cls-11" d="M634,172.61l1.37.79a.36.36,0,0,0-.38,0l-1.38-.79A.43.43,0,0,1,634,172.61Z"/><path class="cls-11" d="M594.63,218l-1.37-.79a.38.38,0,0,1-.17-.35l1.37.78A.39.39,0,0,0,594.63,218Z"/><polygon class="cls-11" points="594.99 196.4 593.62 195.62 633.57 172.65 634.95 173.44 594.99 196.4"/><polygon class="cls-11" points="594.46 217.59 593.09 216.81 593.07 196.57 594.45 197.35 594.46 217.59"/><path class="cls-12" d="M594.45,197.35a1.19,1.19,0,0,1,.54-.95l40-23c.3-.18.54,0,.54.32l0,20.24a1.2,1.2,0,0,1-.54.94l-40,23c-.3.17-.55,0-.55-.32Z"/><path class="cls-11" d="M594.45,197.35l-1.38-.78a1.21,1.21,0,0,1,.55-.95l1.37.78A1.19,1.19,0,0,0,594.45,197.35Z"/></g><polygon class="cls-1" points="635.5 183.8 615.01 195.71 594.48 207.54 614.97 195.63 635.5 183.8"/><polygon class="cls-1" points="635.57 177.72 615.08 189.63 594.54 201.45 615.03 189.54 635.57 177.72"/><polygon class="cls-1" points="635.62 189.95 615.13 201.86 594.59 213.69 615.08 201.78 635.62 189.95"/><polygon class="cls-1" points="614.99 206.5 614.93 195.75 614.97 185 615.03 195.75 614.99 206.5"/><polygon class="cls-1" points="604.44 212.53 604.38 201.78 604.42 191.03 604.48 201.78 604.44 212.53"/><polygon class="cls-1" points="627.43 199.23 627.38 188.47 627.41 177.72 627.47 188.47 627.43 199.23"/><path class="cls-13" d="M587.48,164.73l13.7-7.88c-1.57.9-2.54,2.84-2.53,5.59,0,5.47,3.83,12.1,8.56,14.8,2.35,1.35,4.47,1.47,6,.58l-13.7,7.87c-1.54.89-3.67.77-6-.57-4.72-2.71-8.55-9.33-8.56-14.81C585,167.56,585.92,165.63,587.48,164.73Z"/><path class="cls-14" d="M585.82,161.84l40.53-23.4c2-1.13,4.68-1,7.68.74,6,3.44,10.91,11.9,10.92,18.87,0,3.51-1.23,6-3.23,7.13l-40.53,23.4c2-1.14,3.23-3.61,3.23-7.13,0-7-4.9-15.42-10.93-18.87C590.5,160.86,587.79,160.71,585.82,161.84Z"/><path class="cls-15" d="M582.59,169c0-7,4.88-9.84,10.9-6.39s10.92,11.9,10.93,18.87-4.88,9.84-10.9,6.4S582.6,175.94,582.59,169Zm19.47,11.14c0-5.47-3.84-12.1-8.56-14.8s-8.55-.46-8.55,5,3.84,12.1,8.56,14.81,8.55.46,8.55-5"/><path class="cls-16" d="M572.42,179.58c0-4.35,3-6.14,6.8-4A15,15,0,0,1,586,187.37c0,4.35-3,6.13-6.8,4A15,15,0,0,1,572.42,179.58Z"/><path class="cls-17" d="M574.43,175.13l13.7-7.87c1.23-.71,2.92-.61,4.78.46a15,15,0,0,1,6.82,11.78c0,2.19-.77,3.72-2,4.44L584,191.81c1.25-.71,2-2.25,2-4.44a15,15,0,0,0-6.81-11.78C577.35,174.52,575.66,174.43,574.43,175.13Z"/><path class="cls-18" d="M561.14,180l13.7-7.88c-1.56.9-2.53,2.84-2.53,5.59,0,5.47,3.84,12.1,8.57,14.8,2.34,1.34,4.47,1.47,6,.58l-13.7,7.87c-1.54.89-3.66.77-6-.58-4.73-2.7-8.56-9.33-8.56-14.8C558.61,182.8,559.58,180.86,561.14,180Z"/><path class="cls-19" d="M559.49,177.08l13.69-7.87c2-1.14,4.68-1,7.67.73,6,3.45,10.92,11.9,10.93,18.88,0,3.51-1.23,6-3.23,7.13l-13.7,7.87c2-1.15,3.23-3.62,3.23-7.13,0-7-4.9-15.43-10.92-18.87C564.16,176.1,561.45,176,559.49,177.08Z"/><path class="cls-20" d="M556.26,184.2c0-7,4.87-9.83,10.9-6.38s10.91,11.9,10.92,18.87-4.87,9.84-10.9,6.39S556.27,191.18,556.26,184.2Zm19.46,11.14c0-5.47-3.84-12.09-8.56-14.8s-8.55-.46-8.54,5,3.83,12.1,8.56,14.8,8.55.47,8.54-5"/><path class="cls-21" d="M534.52,198.2l27.39-15.74c1.23-.71,2.92-.61,4.79.46a15,15,0,0,1,6.81,11.77c0,2.19-.77,3.73-2,4.45l-27.39,15.74c1.24-.71,2-2.25,2-4.44a15,15,0,0,0-6.81-11.78C537.44,197.59,535.75,197.5,534.52,198.2Z"/><path class="cls-22" d="M532.51,202.65c0-4.35,3-6.14,6.8-4a15,15,0,0,1,6.81,11.78c0,4.35-3,6.13-6.8,4A15,15,0,0,1,532.51,202.65Z"/><path class="cls-23" d="M479.17,179.77l16.44-9.43c1,34.2,24.34,74.67,53.38,92.46l-16.44,9.43C503.51,254.44,480.14,214,479.17,179.77Z"/><polygon class="cls-24" points="479.17 175.39 495.61 165.96 544.35 193.91 527.91 203.34 479.17 175.39"/><polygon class="cls-25" points="536.33 217.94 552.77 208.5 552.77 264.97 536.33 274.4 536.33 217.94"/><path class="cls-26" d="M589.8,267.7l-16.44,9.43c-9.58,5.49-22.6,5-37-2.73L552.78,265C567.2,272.68,580.22,273.19,589.8,267.7Z"/><path class="cls-27" d="M495.53,141.43,512,132c-9.7,5.57-15.87,17.3-16.36,33.95l-16.44,9.44C479.66,158.73,485.82,147,495.53,141.43Z"/><path class="cls-28" d="M529.66,200.94l16.44-9.43a3.85,3.85,0,0,1,2.89-.31l-16.44,9.43A3.83,3.83,0,0,0,529.66,200.94Z"/><path class="cls-28" d="M555.67,208.19l-16.44,9.43a3.92,3.92,0,0,0,1.75-2.4l16.44-9.43A3.92,3.92,0,0,1,555.67,208.19Z"/><path class="cls-29" d="M536.33,202.8l16.45-9.43a16,16,0,0,1,4.64,8L541,210.84A16,16,0,0,0,536.33,202.8Z"/><polygon class="cls-30" points="536.33 146.33 552.77 136.9 552.77 193.37 536.33 202.8 536.33 146.33"/><polygon class="cls-31" points="540.98 210.84 557.42 201.41 606.16 229.36 589.72 238.8 540.98 210.84"/><path class="cls-32" d="M472.57,173.79c0-39.59,27.7-55.79,61.87-36.19s61.88,67.58,61.88,107.17S568.61,300.56,534.44,281,472.57,213.38,472.57,173.79Zm117.15,69.39-48.74-28a3.64,3.64,0,0,1-4.65,2.72V274.4c29,15.53,52.41,1.86,53.39-31.22m-61.81-35.46-48.74-27.95c1,34.2,24.34,74.67,53.38,92.46V215.77a15.93,15.93,0,0,1-4.64-8.05m61.81,31.08c-1-34.21-24.35-74.68-53.39-92.47V202.8a16,16,0,0,1,4.65,8l48.74,28M479.17,175.39l48.74,28a3.63,3.63,0,0,1,4.64-2.71V144.16c-29-15.52-52.41-1.86-53.38,31.23"/><path class="cls-33" d="M490.9,133.38l16.45-9.44c11.18-6.41,26.56-5.51,43.54,4.23,34.17,19.6,61.87,67.58,61.87,107.17,0,19.92-7,33.92-18.34,40.41L578,285.19c11.32-6.5,18.34-20.5,18.34-40.42,0-39.59-27.71-87.57-61.88-107.17C517.46,127.86,502.08,127,490.9,133.38Z"/><g class="cls-8"><path class="cls-3" d="M453.56,281.25l0-18.95a.52.52,0,0,1,.3-.43,1.65,1.65,0,0,1,1.47,0,.53.53,0,0,1,.31.43l0,19a.5.5,0,0,0-.3-.43,1.62,1.62,0,0,0-1.47,0A.52.52,0,0,0,453.56,281.25Z"/><path class="cls-3" d="M453.86,281.68a.45.45,0,0,1,0-.85,1.62,1.62,0,0,1,1.47,0,.45.45,0,0,1,0,.85A1.59,1.59,0,0,1,453.86,281.68Z"/></g><g class="cls-8"><path class="cls-11" d="M461,324l-1.37.79a.39.39,0,0,0,.16-.36l1.37-.79A.38.38,0,0,1,461,324Z"/><path class="cls-11" d="M448.26,268.13l1.37-.79a.36.36,0,0,1,.38,0l-1.37.78A.38.38,0,0,0,448.26,268.13Z"/><polygon class="cls-11" points="448.64 268.17 450.01 267.38 460.58 273.43 459.21 274.21 448.64 268.17"/><polygon class="cls-11" points="459.76 275.16 461.13 274.37 461.18 323.62 459.81 324.4 459.76 275.16"/><path class="cls-12" d="M448.1,268.48c0-.35.24-.49.54-.32l10.57,6a1.2,1.2,0,0,1,.55,1l.05,49.24c0,.35-.25.5-.55.32l-10.57-6a1.23,1.23,0,0,1-.55-.95Z"/><path class="cls-11" d="M459.21,274.21l1.37-.78a1.17,1.17,0,0,1,.55.94l-1.37.79A1.2,1.2,0,0,0,459.21,274.21Z"/></g><polygon class="cls-1" points="450.53 319.84 450.46 294.57 450.48 269.31 450.55 294.57 450.53 319.84"/><polygon class="cls-1" points="453.98 321.71 453.9 296.44 453.93 271.18 454 296.44 453.98 321.71"/><polygon class="cls-1" points="457.62 323.86 457.55 298.6 457.57 273.33 457.64 298.6 457.62 323.86"/><path class="cls-1" d="M459.46,311q-5.88-3.27-11.67-6.68Q453.67,307.52,459.46,311Z"/><path class="cls-1" d="M459.8,319.13q-5.88-3.25-11.66-6.68Q454,315.71,459.8,319.13Z"/><path class="cls-1" d="M459.79,301.55q-5.88-3.26-11.67-6.67Q454,298.14,459.79,301.55Z"/><path class="cls-1" d="M459.78,291.17q-5.88-3.27-11.67-6.68Q454,287.75,459.78,291.17Z"/><path class="cls-1" d="M459.58,281.35q-5.88-3.27-11.66-6.68Q453.8,277.92,459.58,281.35Z"/><path class="cls-34" d="M510,215.83c0-4.35,3-6.14,6.79-4a15,15,0,0,1,6.82,11.78c0,4.35-3,6.14-6.8,4A15,15,0,0,1,510,215.83Z"/><path class="cls-35" d="M512,211.38l13.69-7.87c1.23-.7,2.92-.61,4.79.46a15,15,0,0,1,6.81,11.78c0,2.19-.77,3.73-2,4.44l-13.7,7.88c1.25-.72,2-2.26,2-4.45a15,15,0,0,0-6.82-11.78C514.92,210.78,513.23,210.68,512,211.38Z"/><path class="cls-36" d="M495.78,217.68l13.7-7.88c1.57-.9,3.73-.78,6.12.59,4.8,2.75,8.7,9.49,8.71,15.05,0,2.8-1,4.77-2.58,5.68L508,239c1.59-.91,2.57-2.88,2.57-5.68,0-5.56-3.9-12.3-8.71-15.05C499.51,216.9,497.35,216.77,495.78,217.68Z"/><path class="cls-37" d="M493.21,223.36c0-5.57,3.89-7.85,8.69-5.1s8.7,9.49,8.71,15.05-3.89,7.84-8.69,5.09S493.22,228.92,493.21,223.36Z"/><path class="cls-38" d="M480.09,233.13c0-4.35,3-6.14,6.8-4a15,15,0,0,1,6.81,11.78c0,4.35-3,6.13-6.8,4A15,15,0,0,1,480.09,233.13Z"/><path class="cls-39" d="M482.11,228.68l13.69-7.87c1.23-.71,2.92-.61,4.79.46A15,15,0,0,1,507.4,233c0,2.19-.77,3.73-2,4.45l-13.7,7.87c1.25-.71,2-2.25,2-4.44a15,15,0,0,0-6.81-11.78C485,228.07,483.33,228,482.11,228.68Z"/><path class="cls-40" d="M463.78,236.43l13.7-7.88c-1.56.9-2.53,2.84-2.53,5.59,0,5.47,3.84,12.1,8.56,14.8,2.35,1.34,4.48,1.47,6,.58l-13.7,7.87c-1.54.89-3.67.77-6-.58-4.73-2.7-8.56-9.33-8.56-14.8C461.25,239.26,462.22,237.32,463.78,236.43Z"/><path class="cls-41" d="M462.12,233.54l13.7-7.87c2-1.14,4.68-1,7.67.73,6,3.45,10.92,11.9,10.93,18.88,0,3.51-1.24,6-3.23,7.13l-13.7,7.87c2-1.15,3.23-3.62,3.23-7.13,0-7-4.9-15.43-10.92-18.87C466.8,232.56,464.09,232.41,462.12,233.54Z"/><path class="cls-42" d="M458.9,240.66c0-7,4.87-9.83,10.9-6.38s10.91,11.9,10.92,18.87-4.87,9.84-10.9,6.39S458.91,247.64,458.9,240.66Zm19.46,11.14c0-5.47-3.84-12.09-8.56-14.8s-8.55-.46-8.54,5,3.83,12.1,8.56,14.8,8.55.47,8.54-5"/><path class="cls-43" d="M437.16,254.66l27.39-15.74c1.23-.71,2.92-.61,4.79.46a15,15,0,0,1,6.81,11.77c0,2.19-.77,3.73-2,4.45l-27.4,15.74c1.25-.71,2-2.25,2-4.44A15,15,0,0,0,442,255.12C440.08,254.05,438.39,254,437.16,254.66Z"/><path class="cls-44" d="M435.15,259.11c0-4.35,3-6.14,6.8-4a15,15,0,0,1,6.81,11.78c0,4.35-3,6.13-6.8,4A15,15,0,0,1,435.15,259.11Z"/><path class="cls-45" d="M433.34,253.82l2.46-1.4c1.57-.9,3.73-.78,6.11.59,4.81,2.75,8.71,9.49,8.71,15.05,0,2.8-1,4.77-2.57,5.68l-2.46,1.4c1.59-.91,2.57-2.88,2.57-5.68,0-5.56-3.9-12.3-8.7-15C437.07,253.05,434.91,252.92,433.34,253.82Z"/><path class="cls-46" d="M430.77,259.51c0-5.57,3.88-7.85,8.69-5.1s8.7,9.49,8.7,15-3.88,7.84-8.69,5.09S430.77,265.07,430.77,259.51Z"/><ellipse class="cls-28" cx="437.96" cy="265.36" rx="7.64" ry="13.19" transform="translate(-74.04 256.47) rotate(-30.22)"/><path class="cls-28" d="M418.2,278.31a.76.76,0,0,1-.45-.13,2,2,0,0,1-.91-1.61l11.76-16.79c-.1,5.89,4,13.16,9.18,16.24a8.42,8.42,0,0,0,4.57,1.37Z"/><path class="cls-28" d="M429.67,255.61a8.07,8.07,0,0,0-1.07,4.17l-11.76,16.79a.71.71,0,0,1,.11-.41Z"/><ellipse class="cls-28" cx="417.77" cy="277.12" rx="0.76" ry="1.3" transform="translate(-82.71 247.91) rotate(-30.22)"/><path class="cls-47" d="M442.35,277.39l-24.15.92c.29,0,.49-.24.49-.63a2,2,0,0,0-.91-1.61c-.36-.22-.68-.17-.83.09h0l12.72-20.55c1.59-2.58,4.81-3.09,8.48-.91,5.17,3.09,9.28,10.36,9.17,16.24C447.26,275,445.25,277.28,442.35,277.39Z"/><g class="cls-8"><path class="cls-3" d="M453.71,247.24l0-19a.52.52,0,0,1,.3-.43,1.65,1.65,0,0,1,1.47,0,.53.53,0,0,1,.3.43l0,19a.51.51,0,0,0-.31-.43,1.62,1.62,0,0,0-1.47,0A.52.52,0,0,0,453.71,247.24Z"/><path class="cls-3" d="M454,247.67a.45.45,0,0,1,0-.85,1.62,1.62,0,0,1,1.47,0,.45.45,0,0,1,0,.85A1.59,1.59,0,0,1,454,247.67Z"/></g><g class="cls-8"><path class="cls-11" d="M461.62,236.35l-1.37.79a.39.39,0,0,0,.16-.36l1.37-.79A.39.39,0,0,1,461.62,236.35Z"/><path class="cls-11" d="M448.86,180.5l1.37-.78a.4.4,0,0,1,.39,0l-1.37.79A.4.4,0,0,0,448.86,180.5Z"/><polygon class="cls-11" points="449.25 180.54 450.62 179.75 461.18 185.8 459.81 186.59 449.25 180.54"/><polygon class="cls-11" points="460.36 187.54 461.73 186.75 461.78 235.99 460.41 236.78 460.36 187.54"/><path class="cls-12" d="M448.7,180.86c0-.35.24-.49.55-.32l10.56,6.05a1.19,1.19,0,0,1,.55.95l.05,49.24c0,.35-.24.49-.55.32l-10.57-6a1.21,1.21,0,0,1-.55-1Z"/><path class="cls-11" d="M459.81,186.59l1.37-.79a1.2,1.2,0,0,1,.55.95l-1.37.79A1.19,1.19,0,0,0,459.81,186.59Z"/></g><polygon class="cls-1" points="451.13 232.22 451.06 206.95 451.08 181.68 451.15 206.95 451.13 232.22"/><polygon class="cls-1" points="454.58 234.09 454.51 208.82 454.53 183.55 454.6 208.82 454.58 234.09"/><polygon class="cls-1" points="458.22 236.24 458.15 210.97 458.17 185.71 458.24 210.97 458.22 236.24"/><path class="cls-1" d="M460.06,223.32q-5.88-3.25-11.67-6.67Q454.27,219.9,460.06,223.32Z"/><path class="cls-1" d="M460.4,231.51q-5.86-3.27-11.66-6.68Q454.62,228.08,460.4,231.51Z"/><path class="cls-1" d="M460.39,213.93q-5.88-3.26-11.67-6.68Q454.6,210.52,460.39,213.93Z"/><path class="cls-1" d="M460.38,203.54q-5.88-3.25-11.67-6.67Q454.59,200.13,460.38,203.54Z"/><path class="cls-1" d="M460.18,193.72q-5.87-3.25-11.66-6.67Q454.4,190.31,460.18,193.72Z"/><g class="cls-8"><path class="cls-3" d="M607.69,153.66l0-13.17a.51.51,0,0,1,.31-.42,1.59,1.59,0,0,1,1.47,0,.51.51,0,0,1,.3.43l0,13.16a.51.51,0,0,0-.3-.42,1.59,1.59,0,0,0-1.47,0A.5.5,0,0,0,607.69,153.66Z"/><path class="cls-3" d="M608,154.09c-.41-.24-.41-.62,0-.85a1.59,1.59,0,0,1,1.47,0,.45.45,0,0,1,0,.85A1.65,1.65,0,0,1,608,154.09Z"/></g><g class="cls-8"><path class="cls-11" d="M629.84,108.56l1.38.78a.43.43,0,0,0-.39,0l-1.37-.78A.36.36,0,0,1,629.84,108.56Z"/><path class="cls-11" d="M590.51,153.89l-1.37-.78a.39.39,0,0,1-.16-.36l1.37.79A.37.37,0,0,0,590.51,153.89Z"/><polygon class="cls-11" points="590.88 132.35 589.5 131.56 629.46 108.6 630.83 109.38 590.88 132.35"/><polygon class="cls-11" points="590.35 153.54 588.98 152.75 588.96 132.51 590.33 133.3 590.35 153.54"/><path class="cls-12" d="M590.33,133.3a1.21,1.21,0,0,1,.55-1l40-23c.3-.17.55,0,.55.32l0,20.24a1.21,1.21,0,0,1-.55.95l-40,23c-.3.17-.55,0-.55-.32Z"/><path class="cls-11" d="M590.33,133.3l-1.37-.79a1.2,1.2,0,0,1,.55-.95l1.37.79A1.21,1.21,0,0,0,590.33,133.3Z"/></g><polygon class="cls-1" points="631.39 119.74 610.9 131.65 590.36 143.48 610.85 131.57 631.39 119.74"/><polygon class="cls-1" points="631.45 113.66 610.96 125.57 590.43 137.4 610.91 125.49 631.45 113.66"/><polygon class="cls-1" points="631.5 125.89 611.01 137.8 590.48 149.63 610.96 137.72 631.5 125.89"/><polygon class="cls-1" points="610.87 142.45 610.82 131.69 610.85 120.94 610.91 131.69 610.87 142.45"/><polygon class="cls-1" points="600.33 148.48 600.27 137.72 600.3 126.97 600.36 137.72 600.33 148.48"/><polygon class="cls-1" points="623.32 135.17 623.26 124.42 623.3 113.67 623.36 124.42 623.32 135.17"/><circle class="cls-48" cx="312.02" cy="69.64" r="52.07"/><circle class="cls-48" cx="312.02" cy="69.64" r="48.79"/><circle class="cls-48" cx="312.02" cy="69.64" r="45.28"/><circle class="cls-49" cx="312.02" cy="69.64" r="41.75"/><circle class="cls-50" cx="329.85" cy="51.69" r="9.77"/><circle class="cls-51" cx="295.27" cy="56.73" r="15.04"/><circle class="cls-51" cx="325.61" cy="90.74" r="9.77"/><circle class="cls-51" cx="291.34" cy="87.48" r="6.27"/></g></svg>