<svg xmlns="http://www.w3.org/2000/svg" xmlns:xlink="http://www.w3.org/1999/xlink" viewBox="0 0 660.95 340.78"><defs><style>.cls-1,.cls-11,.cls-16,.cls-17,.cls-18,.cls-2,.cls-22,.cls-3{fill:none;}.cls-1,.cls-10,.cls-11,.cls-12,.cls-13,.cls-14,.cls-16,.cls-17,.cls-18,.cls-2,.cls-22,.cls-3,.cls-9{stroke-miterlimit:10;}.cls-1{stroke:url(#linear-gradient);}.cls-2{stroke:url(#linear-gradient-2);}.cls-3{stroke:url(#linear-gradient-3);}.cls-4{fill:#fff;}.cls-5{fill:#e6e6e6;}.cls-6{fill:#333;}.cls-7{fill:#666;}.cls-8{fill:#ccc;}.cls-10,.cls-11,.cls-12,.cls-13,.cls-14,.cls-9{stroke:#fff;}.cls-10,.cls-11,.cls-12,.cls-13,.cls-9{stroke-width:0.25px;}.cls-9{fill:url(#linear-gradient-4);}.cls-10{fill:url(#linear-gradient-5);}.cls-12{fill:url(#linear-gradient-6);}.cls-13,.cls-14{fill:#9b3b42;}.cls-14{stroke-width:0.09px;}.cls-15{isolation:isolate;}.cls-16{stroke:url(#linear-gradient-7);}.cls-17{stroke:url(#linear-gradient-8);}.cls-18{stroke:url(#linear-gradient-9);}.cls-19{clip-path:url(#clip-path);}.cls-20{clip-path:url(#clip-path-2);}.cls-21{clip-path:url(#clip-path-3);}.cls-22{stroke:url(#linear-gradient-16);}</style><linearGradient id="linear-gradient" x1="335.41" y1="242.26" x2="364.56" y2="242.26" gradientUnits="userSpaceOnUse"><stop offset="0.45" stop-color="#ed1c24"/><stop offset="1" stop-color="#7d189e"/></linearGradient><linearGradient id="linear-gradient-2" x1="342.85" y1="235.63" x2="351.86" y2="235.63" xlink:href="#linear-gradient"/><linearGradient id="linear-gradient-3" x1="345.44" y1="234.35" x2="349.28" y2="234.35" xlink:href="#linear-gradient"/><linearGradient id="linear-gradient-4" x1="313.1" y1="73.11" x2="301.72" y2="175.56" xlink:href="#linear-gradient"/><linearGradient id="linear-gradient-5" x1="285.53" y1="189.25" x2="379.33" y2="71.77" xlink:href="#linear-gradient"/><linearGradient id="linear-gradient-6" x1="377.2" y1="61.58" x2="374.47" y2="194.54" xlink:href="#linear-gradient"/><linearGradient id="linear-gradient-7" x1="434.22" y1="237.14" x2="456.72" y2="237.14" xlink:href="#linear-gradient"/><linearGradient id="linear-gradient-8" x1="434.21" y1="250.84" x2="456.68" y2="250.84" xlink:href="#linear-gradient"/><linearGradient id="linear-gradient-9" x1="443.55" y1="256.91" x2="447.39" y2="256.91" xlink:href="#linear-gradient"/><clipPath id="clip-path"><path class="cls-1" d="M363.71,260.36c.48.83.47,1.74,0,2l-1.58.89a.85.85,0,0,1-.87-.08,2.55,2.55,0,0,1-.88-.93l-5.51-9.54a2.54,2.54,0,0,1-.36-1.22v-1.25l-.14.05c-2,.65-4.46.21-7.05-1.28-6.31-3.64-11.42-12.51-11.4-19.75s5.17-10.18,11.48-6.54,11.42,12.5,11.4,19.75c0,3-.85,5.28-2.44,6.69l-.12.1,1.09.62a2.55,2.55,0,0,1,.88.93Zm-16.39-15.22c4.45,2.57,8.08.5,8.1-4.61s-3.6-11.36-8.05-13.92-8.08-.51-8.09,4.6,3.59,11.37,8,13.93"/></clipPath><clipPath id="clip-path-2"><path class="cls-2" d="M347.37,229.86a8.86,8.86,0,0,1,4,6.91c0,2-2.59,4.27-3.7,5.13l-.05,0a.3.3,0,0,1-.29-.05h0a1,1,0,0,1-.28-.34c-.86-1.67-3.67-7.28-3.66-9.38C343.36,229.61,345.16,228.59,347.37,229.86Zm0,6.11c.78.46,1.42.1,1.43-.8a3.14,3.14,0,0,0-1.42-2.45c-.78-.45-1.42-.09-1.42.81a3.08,3.08,0,0,0,1.41,2.44"/></clipPath><clipPath id="clip-path-3"><path class="cls-3" d="M347.36,232.72a3.14,3.14,0,0,1,1.42,2.45c0,.9-.65,1.26-1.43.8a3.08,3.08,0,0,1-1.41-2.44C345.94,232.63,346.58,232.27,347.36,232.72Zm0,3.06c.69.39,1.25.07,1.25-.72a2.74,2.74,0,0,0-1.24-2.14c-.69-.39-1.24-.07-1.25.71a2.77,2.77,0,0,0,1.24,2.15"/></clipPath><linearGradient id="linear-gradient-16" x1="527.69" y1="242.26" x2="554.2" y2="242.26" xlink:href="#linear-gradient"/></defs><title>service</title><g id="Layer_3" data-name="Layer 3"><rect class="cls-4" width="660.95" height="340.78" rx="10"/><path class="cls-5" d="M10,0H227a0,0,0,0,1,0,0V340.78a0,0,0,0,1,0,0H10a10,10,0,0,1-10-10V10A10,10,0,0,1,10,0Z"/><rect class="cls-6" x="35.11" y="62.51" width="160.08" height="18.2" rx="3.62"/><rect class="cls-7" x="35.11" y="89.08" width="160.08" height="18.2" rx="3.62"/><rect class="cls-8" x="35.11" y="115.65" width="160.08" height="75.19" rx="3.62"/><rect class="cls-8" x="71.82" y="260.73" width="86.68" height="19.97" rx="2.01"/><path class="cls-9" d="M292.88,126.78A52.77,52.77,0,0,1,335.74,75a53.55,53.55,0,0,0-9.88-.92,52.74,52.74,0,0,0-52.74,52.74c0,.46,0,.91,0,1.36a52.74,52.74,0,0,0,52.72,51.37,53.55,53.55,0,0,0,9.88-.92A52.76,52.76,0,0,1,292.88,126.78Z"/><path class="cls-10" d="M345.28,179.51a53.53,53.53,0,0,1-9.87-.92,53.55,53.55,0,0,1-9.88.92,52.74,52.74,0,0,1-52.72-51.38,72.49,72.49,0,0,0,62.6,70.47A72.49,72.49,0,0,0,398,128.13,52.74,52.74,0,0,1,345.28,179.51ZM325.53,74a53.55,53.55,0,0,1,9.88.92,53.53,53.53,0,0,1,9.87-.92A52.74,52.74,0,0,1,398,125.41,72.5,72.5,0,0,0,335.41,55a72.5,72.5,0,0,0-62.6,70.46A52.74,52.74,0,0,1,325.53,74Z"/><path class="cls-11" d="M345.28,179.51a53.53,53.53,0,0,1-9.87-.92,53.55,53.55,0,0,1-9.88.92,52.74,52.74,0,0,1-52.72-51.38,72.49,72.49,0,0,0,62.6,70.47A72.49,72.49,0,0,0,398,128.13,52.74,52.74,0,0,1,345.28,179.51ZM335.41,55a72.5,72.5,0,0,0-62.6,70.46A52.74,52.74,0,0,1,325.53,74a53.55,53.55,0,0,1,9.88.92,53.53,53.53,0,0,1,9.87-.92A52.74,52.74,0,0,1,398,125.41,72.5,72.5,0,0,0,335.41,55Z"/><path class="cls-12" d="M345.28,54.28a73.19,73.19,0,0,0-9.88.67,72.5,72.5,0,0,1,0,143.65,72.5,72.5,0,1,0,9.88-144.32Z"/><rect class="cls-13" x="433.99" y="90.61" width="182.64" height="48.33" rx="3"/><rect class="cls-14" x="525.31" y="143.35" width="91.32" height="13.21" rx="3"/><g class="cls-15"><path class="cls-16" d="M454.36,233.41a4.12,4.12,0,0,1,1.86,3.22l0,14.37-21.46-12.39,0-14.37c0-1.18.84-1.66,1.87-1.06Z"/></g><g class="cls-15"><path class="cls-17" d="M434.71,242.58v-2.14l21.45,12.39V255c0,2.31-1.64,3.24-3.65,2.08l-3.46-2v4c0,2.3-1.64,3.23-3.65,2.07a8,8,0,0,1-3.62-6.27v-4l-3.46-2A8,8,0,0,1,434.71,242.58Z"/></g><g class="cls-15"><path class="cls-18" d="M445.46,258.54a3.14,3.14,0,0,1-1.41-2.45c0-.9.64-1.26,1.42-.81a3.11,3.11,0,0,1,1.42,2.45C446.89,258.62,446.25,259,445.46,258.54Z"/></g><g class="cls-15"><g class="cls-19"><path class="cls-1" d="M363.71,260.36c.48.83.47,1.74,0,2l-1.58.89a.85.85,0,0,1-.87-.08,2.55,2.55,0,0,1-.88-.93l-5.51-9.54a2.54,2.54,0,0,1-.36-1.22v-1.25l-.14.05c-2,.65-4.46.21-7.05-1.28-6.31-3.64-11.42-12.51-11.4-19.75s5.17-10.18,11.48-6.54,11.42,12.5,11.4,19.75c0,3-.85,5.28-2.44,6.69l-.12.1,1.09.62a2.55,2.55,0,0,1,.88.93Zm-16.39-15.22c4.45,2.57,8.08.5,8.1-4.61s-3.6-11.36-8.05-13.92-8.08-.51-8.09,4.6,3.59,11.37,8,13.93"/></g><path class="cls-1" d="M363.71,260.36c.48.83.47,1.74,0,2l-1.58.89a.85.85,0,0,1-.87-.08,2.55,2.55,0,0,1-.88-.93l-5.51-9.54a2.54,2.54,0,0,1-.36-1.22v-1.25l-.14.05c-2,.65-4.46.21-7.05-1.28-6.31-3.64-11.42-12.51-11.4-19.75s5.17-10.18,11.48-6.54,11.42,12.5,11.4,19.75c0,3-.85,5.28-2.44,6.69l-.12.1,1.09.62a2.55,2.55,0,0,1,.88.93Zm-16.39-15.22c4.45,2.57,8.08.5,8.1-4.61s-3.6-11.36-8.05-13.92-8.08-.51-8.09,4.6,3.59,11.37,8,13.93"/></g><g class="cls-15"><g class="cls-20"><path class="cls-2" d="M347.37,229.86a8.86,8.86,0,0,1,4,6.91c0,2-2.59,4.27-3.7,5.13l-.05,0a.3.3,0,0,1-.29-.05h0a1,1,0,0,1-.28-.34c-.86-1.67-3.67-7.28-3.66-9.38C343.36,229.61,345.16,228.59,347.37,229.86Zm0,6.11c.78.46,1.42.1,1.43-.8a3.14,3.14,0,0,0-1.42-2.45c-.78-.45-1.42-.09-1.42.81a3.08,3.08,0,0,0,1.41,2.44"/></g><path class="cls-2" d="M347.37,229.86a8.86,8.86,0,0,1,4,6.91c0,2-2.59,4.27-3.7,5.13l-.05,0a.3.3,0,0,1-.29-.05h0a1,1,0,0,1-.28-.34c-.86-1.67-3.67-7.28-3.66-9.38C343.36,229.61,345.16,228.59,347.37,229.86Zm0,6.11c.78.46,1.42.1,1.43-.8a3.14,3.14,0,0,0-1.42-2.45c-.78-.45-1.42-.09-1.42.81a3.08,3.08,0,0,0,1.41,2.44"/></g><g class="cls-15"><g class="cls-21"><path class="cls-3" d="M347.36,232.72a3.14,3.14,0,0,1,1.42,2.45c0,.9-.65,1.26-1.43.8a3.08,3.08,0,0,1-1.41-2.44C345.94,232.63,346.58,232.27,347.36,232.72Zm0,3.06c.69.39,1.25.07,1.25-.72a2.74,2.74,0,0,0-1.24-2.14c-.69-.39-1.24-.07-1.25.71a2.77,2.77,0,0,0,1.24,2.15"/></g><path class="cls-3" d="M347.36,232.72a3.14,3.14,0,0,1,1.42,2.45c0,.9-.65,1.26-1.43.8a3.08,3.08,0,0,1-1.41-2.44C345.94,232.63,346.58,232.27,347.36,232.72Zm0,3.06c.69.39,1.25.07,1.25-.72a2.74,2.74,0,0,0-1.24-2.14c-.69-.39-1.24-.07-1.25.71a2.77,2.77,0,0,0,1.24,2.15"/></g><g class="cls-15"><path class="cls-22" d="M553.59,258a.84.84,0,0,1-.06.95c-2.74,2.29-6.79,2.17-11.11-.33-7.87-4.54-14.26-15.6-14.23-24.65s6.45-12.7,14.32-8.16a22.06,22.06,0,0,1,2.61,1.79,1.74,1.74,0,0,1,.61,1.05c0,.4-.1.67-.38.68-3.44.27-5.6,3.25-5.61,7.8a23,23,0,0,0,4,12.07,21.76,21.76,0,0,0,7,7,12.58,12.58,0,0,0,2.09,1l.15.07A1.68,1.68,0,0,1,553.59,258Z"/></g></g></svg>