<svg id="Layer_1" data-name="Layer 1" xmlns="http://www.w3.org/2000/svg" xmlns:xlink="http://www.w3.org/1999/xlink" viewBox="0 0 266.39 266.39"><defs><style>.cls-1,.cls-5{fill:none;}.cls-2{clip-path:url(#clip-path);}.cls-3{fill:#fff;}.cls-4{fill:url(#linear-gradient);}.cls-5{stroke:#fff;stroke-miterlimit:10;stroke-width:7px;}.cls-6{clip-path:url(#clip-path-3);}.cls-7{fill:url(#linear-gradient-2);}</style><clipPath id="clip-path"><rect class="cls-1" x="13.19" y="13.19" width="240" height="240"/></clipPath><linearGradient id="linear-gradient" x1="-651.13" y1="-528.91" x2="-650.23" y2="-528.91" gradientTransform="matrix(252.46, 0, 0, -252.46, 164405.61, -133397.09)" gradientUnits="userSpaceOnUse"><stop offset="0" stop-color="#0c0"/><stop offset="1" stop-color="#00cce9"/></linearGradient><clipPath id="clip-path-3"><path class="cls-1" d="M78.87,182.26h4.24V178H78.87Zm8.49,0H91.6V178H87.36Zm8.48,0h4.24V178H95.84Zm72.1,0h17V178h-17ZM91.6,158.93a2.12,2.12,0,1,1,2.12,2.12,2.13,2.13,0,0,1-2.12-2.12m38.17,0a2.12,2.12,0,1,1,2.12,2.12,2.13,2.13,0,0,1-2.12-2.12m38.17-4.24a2.12,2.12,0,1,1,2.12,2.12,2.12,2.12,0,0,1-2.12-2.12m-57.26-8.48a2.12,2.12,0,1,1,2.12,2.12,2.13,2.13,0,0,1-2.12-2.12M151,142a2.12,2.12,0,1,1,2.12,2.12A2.12,2.12,0,0,1,151,142m-4.25,0a6.18,6.18,0,0,0,.38,2.07l-11.88,9.51a6.2,6.2,0,0,0-7.13.31l-9.15-6.1a6.11,6.11,0,0,0,.22-1.55,6.37,6.37,0,0,0-12.73,0,6.11,6.11,0,0,0,.22,1.55l-9.15,6.1a6.28,6.28,0,0,0-3.79-1.29,6.37,6.37,0,1,0,6.36,6.36,6.66,6.66,0,0,0-.21-1.55l9.14-6.09a6.27,6.27,0,0,0,7.59,0l9.14,6.09a6.16,6.16,0,0,0-.21,1.55,6.36,6.36,0,1,0,12.35-2.07l11.87-9.5a6.3,6.3,0,0,0,6.87-.1l7.4,5.55a6.18,6.18,0,0,0-.32,1.88,6.38,6.38,0,1,0,2.84-5.29l-7.4-5.55a6.18,6.18,0,0,0,.32-1.88,6.37,6.37,0,0,0-12.73,0m-21.2-10.61h4.24v-4.24h-4.24Zm8.48,0h42.41v-4.24H134Zm-38.17-4.24h17v-4.24h-17Zm0-8.48h17V114.4h-17Zm-4.24-8.48h25.45v21.2H91.6Zm-4.24,25.45h33.93V105.92H87.36Zm86.16-33.93h7.14v72.1h12.73v6.36A6.37,6.37,0,0,1,187,186.5H76.75a6.36,6.36,0,0,1-6.36-6.36v-6.36h43.69A16.48,16.48,0,0,0,125.16,178h13.46a16.48,16.48,0,0,0,11.08-4.24h26.72v-4.24H148l-.62.62a12.32,12.32,0,0,1-8.75,3.62H125.16a12.31,12.31,0,0,1-8.74-3.62l-.62-.62H83.11V101.68H120a29.63,29.63,0,0,0,53.57,0M74.63,99.56A6.38,6.38,0,0,1,81,93.19h36.39a28.68,28.68,0,0,0,.92,4.25H83.11a4.24,4.24,0,0,0-4.24,4.24v67.86H74.63Zm101.45-6.37h6.7a6.38,6.38,0,0,1,6.37,6.37v70h-4.24V101.68a4.25,4.25,0,0,0-4.25-4.24h-5.49a28.66,28.66,0,0,0,.91-4.25M121.29,89a25.11,25.11,0,0,1,1.23-7.79L145,90.54l7.7,23.12a25.74,25.74,0,0,1-6,.74A25.47,25.47,0,0,1,121.29,89m27.87.57,17-17a25.4,25.4,0,0,1-9.39,39.79Zm-25-12.27a25.38,25.38,0,0,1,39-7.71L146.24,86.45ZM117,89H81a10.62,10.62,0,0,0-10.6,10.61v70H66.15v10.6a10.61,10.61,0,0,0,10.6,10.6H187a10.61,10.61,0,0,0,10.6-10.6v-10.6h-4.24v-70A10.62,10.62,0,0,0,182.78,89h-6.36A29.69,29.69,0,0,0,117,89"/></clipPath><linearGradient id="linear-gradient-2" x1="-649.24" y1="-531.21" x2="-648.34" y2="-531.21" gradientTransform="matrix(145.94, 0, 0, -145.94, 94813.83, -77397.08)" xlink:href="#linear-gradient"/></defs><title>advertising</title><g id="Publicidad_y_medios" data-name="Publicidad y medios"><g class="cls-2"><g class="cls-2"><path class="cls-3" d="M244.52,132.58A111.48,111.48,0,1,1,133.05,21.11,111.47,111.47,0,0,1,244.52,132.58"/><path class="cls-4" d="M244.52,132.58h1.81A113.28,113.28,0,1,1,133.05,19.31,113.28,113.28,0,0,1,246.33,132.58h-3.61A109.67,109.67,0,1,0,133.05,242.26,109.81,109.81,0,0,0,242.72,132.58Z"/><circle class="cls-5" cx="133.19" cy="133.19" r="116.85"/></g><g class="cls-6"><rect class="cls-7" x="66.15" y="59.26" width="131.48" height="131.48"/></g></g></g></svg>