<svg id="Layer_1" data-name="Layer 1" xmlns="http://www.w3.org/2000/svg" xmlns:xlink="http://www.w3.org/1999/xlink" viewBox="0 0 266.39 266.39"><defs><style>.cls-1,.cls-3{fill:none;}.cls-2{clip-path:url(#clip-path);}.cls-3{stroke:#fff;stroke-miterlimit:10;stroke-width:7px;}.cls-4{fill:#fff;}.cls-5{fill:url(#linear-gradient);}.cls-6{clip-path:url(#clip-path-3);}.cls-7{fill:url(#linear-gradient-2);}</style><clipPath id="clip-path"><rect class="cls-1" x="13.19" y="13.19" width="240" height="240"/></clipPath><linearGradient id="linear-gradient" x1="-80.63" y1="46.13" x2="-79.73" y2="46.13" gradientTransform="matrix(252.46, 0, 0, -252.46, 20375.26, 11779.02)" gradientUnits="userSpaceOnUse"><stop offset="0" stop-color="#0cf"/><stop offset="1" stop-color="#f0f"/></linearGradient><clipPath id="clip-path-3"><path class="cls-1" d="M105.81,176.5h3.37v-3.36h-3.37Zm12.56,0h3.36v-3.36h-3.36Zm12.55,0h3.36v-3.36h-3.36Zm12.55,0h3.36v-3.36h-3.36Zm12.55,0h3.36v-3.36H156Zm-43.48-6.72h3.36v-3.37h-3.36Zm12.55,0h3.36v-3.37h-3.36Zm12.55,0H141v-3.37h-3.36Zm12.55,0h3.37v-3.37h-3.37ZM114,133.72a10.7,10.7,0,0,1,12.47,10.09l-3.09-3.09L121,143.1l3.09,3.09A10.68,10.68,0,0,1,114,133.72m37.67,0a10.68,10.68,0,0,1-10.08,12.47l3.09-3.09-2.38-2.38-3.09,3.09a10.68,10.68,0,0,1,12.46-10.09M132.81,117a10.68,10.68,0,0,1,1.68,16v-4.37h-3.36v4.37a10.68,10.68,0,0,1,1.68-16M132,113.5a14.05,14.05,0,0,0-.84,23.82V148.5l-1.57-1.57a14.05,14.05,0,0,0-17.43-16.24l-.94.25-.25.94a14,14,0,0,0,16.24,17.43l3.95,3.95v6.07H116v3.36h48.2v18H101v-18h11.69v-3.36H97.6V184h70V159.33H134.49v-6.07l3.94-3.95a14.06,14.06,0,0,0,16.25-17.43l-.25-.94-.94-.25a14,14,0,0,0-17.43,16.24l-1.57,1.57V137.32a14.05,14.05,0,0,0-.84-23.82l-.84-.49ZM120.65,87.68H124V84.32h-3.36Zm10.09,0h3.36V84.32h-3.36Zm10.08,0h3.37V84.32h-3.37ZM112.08,76.51V95.76h5.2v20.51l-26.9,25.41v49.59h84.4V141.68l-13-12.27-2.31,2.44,11.94,11.28v44.78H93.75V143.13l26.89-25.41v-22h10V92.4H115.45V79.87h34.27V92.4h-10v3.36h4.76v22L157,129.54l2.31-2.44-11.46-10.83V95.76h5.19V76.51Z"/></clipPath><linearGradient id="linear-gradient-2" x1="-80.09" y1="44.66" x2="-79.18" y2="44.66" gradientTransform="matrix(93.68, 0, 0, -93.68, 7592.54, 4317.42)" xlink:href="#linear-gradient"/></defs><title>agriculture</title><g id="Agricultura"><g class="cls-2"><g class="cls-2"><circle class="cls-3" cx="133.19" cy="133.19" r="116.85" transform="translate(-40.83 61.11) rotate(-22.5)"/><path class="cls-4" d="M244.56,132.74A111.48,111.48,0,1,1,133.09,21.27,111.48,111.48,0,0,1,244.56,132.74"/><path class="cls-5" d="M244.56,132.74h1.8A113.28,113.28,0,1,1,133.09,19.47,113.28,113.28,0,0,1,246.36,132.74h-3.6A109.68,109.68,0,1,0,133.09,242.42,109.81,109.81,0,0,0,242.76,132.74Z"/></g><g class="cls-6"><rect class="cls-7" x="90.38" y="76.51" width="84.4" height="114.76"/></g></g></g></svg>