<svg id="Layer_1" data-name="Layer 1" xmlns="http://www.w3.org/2000/svg" xmlns:xlink="http://www.w3.org/1999/xlink" viewBox="0 0 266.39 266.39"><defs><style>.cls-1,.cls-5{fill:none;}.cls-2{clip-path:url(#clip-path);}.cls-3{fill:#fff;}.cls-4{fill:url(#linear-gradient);}.cls-5{stroke:#fff;stroke-miterlimit:10;stroke-width:7px;}.cls-6{clip-path:url(#clip-path-3);}.cls-7{fill:url(#linear-gradient-2);}</style><clipPath id="clip-path"><rect class="cls-1" x="13.19" y="13.19" width="240" height="240"/></clipPath><linearGradient id="linear-gradient" x1="-365.88" y1="-816.43" x2="-364.98" y2="-816.43" gradientTransform="matrix(252.46, 0, 0, -252.46, 92390.42, -205985.05)" gradientUnits="userSpaceOnUse"><stop offset="0" stop-color="#0c0"/><stop offset="1" stop-color="#00cce9"/></linearGradient><clipPath id="clip-path-3"><path class="cls-1" d="M128,132.53h4.15v-4.15H128Zm8.3,0h4.15v-4.15h-4.15Zm8.3,0h4.15v-4.15h-4.15ZM84.41,115.94h4.14v-4.15H84.41Zm8.29,0h37.35v-4.15H92.7Zm-8.29-8.3h4.14v-4.15H84.41Zm8.29,0h37.35v-4.15H92.7Zm-8.29-8.3h4.14V95.19H84.41Zm8.29,0h37.35V95.19H92.7Zm4.15,91.28h46.86l-2.39,2.4,2.63,1.75H96.85Zm51,1.76,3.82-3.83-3.82-3.83,3.11-2.07,11.81,5.9-11.81,5.9ZM72,188.55a6.23,6.23,0,0,1,6.22-6.23h6.23v12.45H78.18A6.23,6.23,0,0,1,72,188.55m16.6-6.23H92.7v12.45H88.56Zm8.29,0H144l-2.63,1.76,2.39,2.39H96.85Zm39.42-18.67v-8.3a2.08,2.08,0,0,1,4.15,0v8.3a2.08,2.08,0,1,1-4.15,0M90.15,145.81a2.07,2.07,0,0,1-1.59-2V126.31a2.07,2.07,0,0,1,2.07-2.08h95.43a2.08,2.08,0,0,1,2.08,2.08v17.47a2.09,2.09,0,0,1-1.59,2l-42,10.07v-.53a6.23,6.23,0,0,0-12.45,0v.53ZM138.35,94,152,107.64H138.35ZM96.85,78.59h70.54v41.49h-8.3V108.85l-22-22H96.85ZM92.7,74.44V86.89H76.11v91.49a10.37,10.37,0,0,0,2.07,20.54h73.1L172,188.55l-20.75-10.38h-71V91H134.2v20.75h20.74v8.29H90.63a6.22,6.22,0,0,0-6.22,6.23v17.47a6.2,6.2,0,0,0,4.15,5.85V174H92.7V150.69l39.42,9.45v3.51a6.23,6.23,0,1,0,12.45,0v-3.51L184,150.69v44.08H163.17v4.15h25V149.63a6.21,6.21,0,0,0,4.15-5.85V126.31a6.23,6.23,0,0,0-6.23-6.23H171.54V74.44Z"/></clipPath><linearGradient id="linear-gradient-2" x1="-364.68" y1="-819.96" x2="-363.77" y2="-819.96" gradientTransform="matrix(138.17, 0, 0, -138.17, 50456.7, -113161.23)" xlink:href="#linear-gradient"/></defs><title>Artboard 16</title><g id="Profesional"><g class="cls-2"><g class="cls-2"><path class="cls-3" d="M244.52,132.58A111.48,111.48,0,1,1,133.05,21.11,111.47,111.47,0,0,1,244.52,132.58"/><path class="cls-4" d="M244.52,132.58h1.81A113.28,113.28,0,1,1,133.05,19.31,113.28,113.28,0,0,1,246.33,132.58h-3.61A109.67,109.67,0,1,0,133.05,242.26,109.81,109.81,0,0,0,242.72,132.58Z"/><circle class="cls-5" cx="133.19" cy="133.19" r="116.85" transform="translate(-40.83 61.11) rotate(-22.5)"/></g><g class="cls-6"><rect class="cls-7" x="67.32" y="74.44" width="124.97" height="124.48"/></g></g></g></svg>