<svg id="Layer_1" data-name="Layer 1" xmlns="http://www.w3.org/2000/svg" xmlns:xlink="http://www.w3.org/1999/xlink" viewBox="0 0 266.39 266.39"><defs><style>.cls-1,.cls-5{fill:none;}.cls-2{clip-path:url(#clip-path);}.cls-3{fill:#fff;}.cls-4{fill:url(#linear-gradient);}.cls-5{stroke:#fff;stroke-miterlimit:10;stroke-width:7px;}.cls-6{clip-path:url(#clip-path-3);}.cls-7{fill:url(#linear-gradient-2);}</style><clipPath id="clip-path"><rect class="cls-1" x="13.19" y="13.19" width="240" height="240"/></clipPath><linearGradient id="linear-gradient" x1="-651.13" y1="46.13" x2="-650.23" y2="46.13" gradientTransform="matrix(252.46, 0, 0, -252.46, 164405.93, 11779.02)" gradientUnits="userSpaceOnUse"><stop offset="0" stop-color="#f0f"/><stop offset="1" stop-color="#f60"/></linearGradient><clipPath id="clip-path-3"><path class="cls-1" d="M181.23,177.73a2.1,2.1,0,0,0,0,3,2.09,2.09,0,1,0,0-3m-52-11.9v16.11a2.09,2.09,0,0,0,4.18,0V165.83a2.09,2.09,0,1,0-4.18,0m.62-10a2.08,2.08,0,0,0,0,3,2.06,2.06,0,0,0,1.47.61,2.09,2.09,0,1,0,0-4.18,2.06,2.06,0,0,0-1.47.61m40-.91a2.09,2.09,0,1,1,2.09,2.09,2.1,2.1,0,0,1-2.09-2.09m-4.18,0a6.27,6.27,0,1,0,6.27-6.27,6.27,6.27,0,0,0-6.27,6.27m-82.8,2.39,3.94-3.94,3.93,3.94-3.93,3.94Zm2.46-8.37-6.89,6.89a2.09,2.09,0,0,0,0,3l6.89,6.89a2.09,2.09,0,0,0,1.48.61,2.12,2.12,0,0,0,1.48-.61l6.89-6.89a2.11,2.11,0,0,0,0-3l-6.89-6.89a2.12,2.12,0,0,0-1.48-.61,2.09,2.09,0,0,0-1.48.61m23.14-2.44-15,40.38a2.09,2.09,0,0,0,3.92,1.46l15-40.38a2.07,2.07,0,0,0-1.22-2.68,2.07,2.07,0,0,0-2.69,1.22m43-1.22a2.08,2.08,0,0,0-1.23,2.68l15,40.38a2.09,2.09,0,1,0,3.91-1.46l-15-40.38a2.07,2.07,0,0,0-2.69-1.22m-21.64-18.7a2.07,2.07,0,0,0-.62,1.47,2.12,2.12,0,0,0,.62,1.48,2.08,2.08,0,0,0,1.47.61,2.08,2.08,0,0,0,2.09-2.09,2.06,2.06,0,0,0-.61-1.47,2.12,2.12,0,0,0-1.48-.62,2.07,2.07,0,0,0-1.47.62m22.5-2.23a2.08,2.08,0,0,0,0,3,2.08,2.08,0,0,0,1.47.61,2.09,2.09,0,0,0,1.48-3.57,2.15,2.15,0,0,0-1.48-.61,2.13,2.13,0,0,0-1.47.61m-45,0a2.08,2.08,0,0,0,0,3,2.09,2.09,0,0,0,3,0,2.1,2.1,0,0,0,0-3,2.09,2.09,0,0,0-3,0m-15.5-9.07a2.09,2.09,0,0,0-.61,1.48,2.06,2.06,0,0,0,.61,1.47,2.06,2.06,0,0,0,3,0,2.07,2.07,0,0,0,.62-1.47,2.09,2.09,0,0,0-3.57-1.48m76,0a2.13,2.13,0,0,0-.61,1.48,2.09,2.09,0,0,0,3.57,1.47,2.06,2.06,0,0,0,.61-1.47,2.09,2.09,0,0,0-3.57-1.48m-51.07-9.63v0a2.09,2.09,0,1,0,4.17,0v0a2.09,2.09,0,1,0-4.17,0m2.73-8.46a2.09,2.09,0,0,0,.48,2.92,2,2,0,0,0,1.22.39,2.07,2.07,0,0,0,1.69-.86,10.41,10.41,0,0,1,8.43-4.33,2.09,2.09,0,0,0,0-4.18,14.63,14.63,0,0,0-11.82,6.06M89.7,89.77a2.06,2.06,0,0,0-.61,1.47,2.09,2.09,0,1,0,4.18,0,2.06,2.06,0,0,0-.61-1.47,2.08,2.08,0,0,0-3,0m62,47.11a27,27,0,0,1-40.85,0,145.87,145.87,0,0,0,20.42,1.38,146,146,0,0,0,20.43-1.38m-1.85-18.1a6,6,0,0,0,4.41-5.75v-7.19c18.07,3.06,26.33,8.91,26.33,13.2,0,3.5-5.09,7.29-13.63,10.13a82.94,82.94,0,0,1-10.83,2.75,1.55,1.55,0,0,0-.31.06,136.9,136.9,0,0,1-24.55,2.1,137.06,137.06,0,0,1-24.55-2.1,2.65,2.65,0,0,0-.3-.06,83.51,83.51,0,0,1-10.84-2.75C87.08,126.33,82,122.54,82,119c0-4.29,8.25-10.14,26.33-13.2V113a6,6,0,0,0,4.41,5.75,71.64,71.64,0,0,0,37.15,0m-36.06-4A1.79,1.79,0,0,1,112.5,113v-7.37a18.81,18.81,0,0,1,37.61,0V113a1.79,1.79,0,0,1-1.32,1.72,67.61,67.61,0,0,1-35,0m-5.13-13.21c-8.62,1.38-16,3.53-21.31,6.24-7.91,4-9.57,8.34-9.57,11.26,0,5.63,5.7,10.51,16.48,14.1a87.08,87.08,0,0,0,10.64,2.74,31.22,31.22,0,0,0,52.75,0,87.55,87.55,0,0,0,10.64-2.74c10.78-3.59,16.48-8.47,16.48-14.1,0-2.92-1.66-7.25-9.57-11.26-5.34-2.71-12.69-4.86-21.31-6.24a23,23,0,0,0-45.23,0m67.82-16.77v2.09h-2a2.09,2.09,0,1,0,0,4.17h2v2.1a2.09,2.09,0,0,0,4.18,0V91h2a2.09,2.09,0,1,0,0-4.17h-2V84.77a2.09,2.09,0,0,0-4.18,0"/></clipPath><linearGradient id="linear-gradient-2" x1="-648.22" y1="45.16" x2="-647.31" y2="45.16" gradientTransform="matrix(118.76, 0, 0, -118.76, 77059.89, 5498.83)" xlink:href="#linear-gradient"/></defs><title>automotive</title><g id="Autpmotriz"><g class="cls-2"><g class="cls-2"><path class="cls-3" d="M244.81,132.74A111.48,111.48,0,1,1,133.34,21.27,111.48,111.48,0,0,1,244.81,132.74"/><path class="cls-4" d="M244.81,132.74h1.8A113.28,113.28,0,1,1,133.34,19.47,113.28,113.28,0,0,1,246.61,132.74H243A109.68,109.68,0,1,0,133.34,242.42,109.81,109.81,0,0,0,243,132.74Z"/><path class="cls-5" d="M250,133.19A116.85,116.85,0,1,1,133.19,16.35,116.84,116.84,0,0,1,250,133.19Z"/></g><g class="cls-6"><rect class="cls-7" x="77.6" y="82.68" width="107.2" height="107"/></g></g></g></svg>