<svg id="Layer_1" data-name="Layer 1" xmlns="http://www.w3.org/2000/svg" xmlns:xlink="http://www.w3.org/1999/xlink" viewBox="0 0 266.39 266.39"><defs><style>.cls-1,.cls-5{fill:none;}.cls-2{clip-path:url(#clip-path);}.cls-3{fill:#fff;}.cls-4{fill:url(#linear-gradient);}.cls-5{stroke:#fff;stroke-miterlimit:10;stroke-width:7px;}.cls-6{clip-path:url(#clip-path-3);}.cls-7{fill:url(#linear-gradient-2);}</style><clipPath id="clip-path"><rect class="cls-1" x="13.19" y="13.19" width="240" height="240"/></clipPath><linearGradient id="linear-gradient" x1="-365.88" y1="-528.91" x2="-364.98" y2="-528.91" gradientTransform="matrix(252.46, 0, 0, -252.46, 92390.42, -133397.09)" gradientUnits="userSpaceOnUse"><stop offset="0" stop-color="#0c0"/><stop offset="1" stop-color="#00cce9"/></linearGradient><clipPath id="clip-path-3"><path class="cls-1" d="M103.73,189.23h3.9v-3.89h-3.9Zm7.79,0h3.89v-3.89h-3.89Zm56.42-1.94h3.89V183.4h-3.89Zm-60.31-1.95h3.89v-3.89h-3.89ZM78.44,183.4a1.95,1.95,0,1,1,2,1.94,2,2,0,0,1-2-1.94m-3.89,0a5.84,5.84,0,1,0,5.84-5.84,5.84,5.84,0,0,0-5.84,5.84m97.28-3.89h3.89v-3.89h-3.89Zm-77.82,0A1.95,1.95,0,1,1,96,181.45,1.94,1.94,0,0,1,94,179.51m-3.89,0A5.84,5.84,0,1,0,96,173.67a5.84,5.84,0,0,0-5.83,5.84m-2-7.79h3.89v-3.89H88.17Zm79.77,0h3.89v-3.89h-3.89Zm-60.31,0a1.95,1.95,0,1,1,1.94,1.95,1.94,1.94,0,0,1-1.94-1.95m-3.9,0a5.84,5.84,0,1,0,5.84-5.83,5.85,5.85,0,0,0-5.84,5.83m68.1-7.78h3.89v-3.89h-3.89Zm-3.89-7.78h3.89v-3.89h-3.89ZM70.66,123.09A3.89,3.89,0,1,1,74.55,127a3.9,3.9,0,0,1-3.89-3.89m-3.89,0a7.78,7.78,0,1,0,7.78-7.79,7.79,7.79,0,0,0-7.78,7.79m78.16,58.36a5.8,5.8,0,0,0,4.12-1.71l1.61-1.61a2,2,0,0,1,1.38-.57h.33a15.57,15.57,0,0,1-31.13,0h.34a2,2,0,0,1,1.37.57l1.62,1.61a5.79,5.79,0,0,0,4.12,1.71h.67a5.81,5.81,0,0,0,4.13-1.71l1.61-1.61a2,2,0,0,1,1.37-.57h.67a2,2,0,0,1,1.38.57l1.61,1.61a5.81,5.81,0,0,0,4.13,1.71Zm-35-19.45a5.8,5.8,0,0,0,4.12-1.71l1.61-1.62a2,2,0,0,1,1.38-.57h1.83l3.52,6.46a19.35,19.35,0,0,0,2.82,28.56H76.5a5.84,5.84,0,0,1-5.84-5.83v-1.91a5.9,5.9,0,0,1,.71-2.79L84.73,158.1h1.83a2,2,0,0,1,1.37.57l1.62,1.62A5.79,5.79,0,0,0,93.67,162h.67a5.81,5.81,0,0,0,4.13-1.71l1.61-1.62a2,2,0,0,1,1.37-.57h.67a2,2,0,0,1,1.38.57l1.61,1.62a5.81,5.81,0,0,0,4.13,1.71Zm17.41,15-1.61-1.61a5.83,5.83,0,0,0-3.93-1.69,15.57,15.57,0,0,1,9.84-10.79,1.94,1.94,0,0,0,1.3-1.83v-6.86h7.78v6.86a1.94,1.94,0,0,0,1.3,1.83,15.59,15.59,0,0,1,9.84,10.79,5.83,5.83,0,0,0-3.93,1.69L146.3,177a2,2,0,0,1-1.37.57h-.67a2,2,0,0,1-1.38-.57l-1.61-1.61a5.81,5.81,0,0,0-4.13-1.71h-.67a5.8,5.8,0,0,0-4.12,1.71L130.74,177a2,2,0,0,1-1.38.57h-.67a2,2,0,0,1-1.37-.57m5.6-30.56h7.78v3.89h-7.78ZM92.3,157.53l-1.61-1.61a5.83,5.83,0,0,0-3.86-1.68l6.94-12.71a1.93,1.93,0,0,0,.24-.94v-9.72h15.56v9.72a1.93,1.93,0,0,0,.24.94l6.93,12.71a5.83,5.83,0,0,0-3.85,1.68l-1.61,1.61a1.91,1.91,0,0,1-1.37.57h-.67a1.92,1.92,0,0,1-1.38-.57l-1.61-1.61a5.81,5.81,0,0,0-4.13-1.71h-.67a5.8,5.8,0,0,0-4.12,1.71l-1.61,1.61a2,2,0,0,1-1.38.57h-.67a1.91,1.91,0,0,1-1.37-.57M94,123.09h15.56V127H94Zm3.89-7.79h7.78v3.89H97.9Zm-2-3.89a1.94,1.94,0,0,0-1.94,2v5.83h-2a2,2,0,0,0-1.94,2V127h-3.9v3.89h3.9v9.23L68,180.72a9.76,9.76,0,0,0-1.19,4.66v1.91A9.74,9.74,0,0,0,76.5,197h50.58a9.73,9.73,0,0,0,4-.87,19.45,19.45,0,0,0,13.53-36.41V146.43h3.89v-3.89H125.13v3.89H129v13.31a19.48,19.48,0,0,0-3.67,2.17l-11.9-21.81v-9.23h3.89V127h-3.89v-5.84a2,2,0,0,0-1.94-2h-2v-5.83a1.94,1.94,0,0,0-1.94-2Zm68.1,73.93v-42.8h15.56v42.8a7.78,7.78,0,0,1-15.56,0m0-70h15.56v23.35H164.05Zm-3.89-7.78H183.5v3.89H160.16Zm-1.95-3.89a1.94,1.94,0,0,0-2,1.94v7.79a1.94,1.94,0,0,0,2,1.94h1.95v70a11.67,11.67,0,1,0,23.34,0v-70h1.95a1.94,1.94,0,0,0,1.94-1.94v-7.79a1.94,1.94,0,0,0-1.94-1.94Zm-75.88,1.94a1.95,1.95,0,1,1,2,2,2,2,0,0,1-2-2m-3.89,0a5.84,5.84,0,1,0,5.84-5.83,5.85,5.85,0,0,0-5.84,5.83M70.66,86.12A5.84,5.84,0,1,1,76.5,92a5.85,5.85,0,0,1-5.84-5.84m-3.89,0a9.73,9.73,0,1,0,9.73-9.73,9.74,9.74,0,0,0-9.73,9.73m44.75-9.73a5.85,5.85,0,0,0-5.84,5.84V92H99.84A5.84,5.84,0,0,0,94,97.79v9.73H97.9V97.79a1.94,1.94,0,0,1,1.94-1.94h5.84v11.67h3.89V95.85H129v42.8h3.89V95.85h5.83a1.94,1.94,0,0,1,1.95,1.94v40.86h3.89V97.79A5.84,5.84,0,0,0,138.75,92h-5.83V90a1.94,1.94,0,0,1,1.94-1.94h23.35A2,2,0,0,1,160.16,90v9.73h3.89V90a5.85,5.85,0,0,0-5.84-5.84H134.86A5.84,5.84,0,0,0,129,90V92H109.57V82.23a2,2,0,0,1,2-2h66.15a2,2,0,0,1,1.94,2V99.74h3.89V82.23a5.84,5.84,0,0,0-5.83-5.84Z"/></clipPath><linearGradient id="linear-gradient-2" x1="-364.59" y1="-531.69" x2="-363.69" y2="-531.69" gradientTransform="matrix(133.89, 0, 0, -133.89, 48879.71, -71048.28)" xlink:href="#linear-gradient"/></defs><title>chemistry</title><g id="Quimicos"><g class="cls-2"><g class="cls-2"><path class="cls-3" d="M244.52,132.58A111.48,111.48,0,1,1,133.05,21.11,111.47,111.47,0,0,1,244.52,132.58"/><path class="cls-4" d="M244.52,132.58h1.81A113.28,113.28,0,1,1,133.05,19.31,113.28,113.28,0,0,1,246.33,132.58h-3.61A109.68,109.68,0,1,0,133.05,242.26,109.81,109.81,0,0,0,242.72,132.58Z"/><circle class="cls-5" cx="133.19" cy="133.19" r="116.85" transform="translate(-15.28 17.27) rotate(-7.02)"/></g><g class="cls-6"><rect class="cls-7" x="66.77" y="76.39" width="120.62" height="120.62"/></g></g></g></svg>