<svg id="Layer_1" data-name="Layer 1" xmlns="http://www.w3.org/2000/svg" xmlns:xlink="http://www.w3.org/1999/xlink" viewBox="0 0 266.39 266.39"><defs><style>.cls-1,.cls-5{fill:none;}.cls-2{clip-path:url(#clip-path);}.cls-3{fill:#fff;}.cls-4{fill:url(#linear-gradient);}.cls-5{stroke:#fff;stroke-miterlimit:10;stroke-width:7px;}.cls-6{clip-path:url(#clip-path-3);}.cls-7{fill:url(#linear-gradient-2);}.cls-8{clip-path:url(#clip-path-4);}.cls-9{fill:url(#linear-gradient-3);}</style><clipPath id="clip-path"><rect class="cls-1" x="13.19" y="13.19" width="240" height="240"/></clipPath><linearGradient id="linear-gradient" x1="-80.63" y1="-241.39" x2="-79.73" y2="-241.39" gradientTransform="matrix(252.46, 0, 0, -252.46, 20375.22, -60809.12)" gradientUnits="userSpaceOnUse"><stop offset="0" stop-color="#60c"/><stop offset="1" stop-color="#0cf"/></linearGradient><clipPath id="clip-path-3"><path class="cls-1" d="M79.39,171.55l17.12-17.12c0,2.69,0,5.57,0,8.46A8.34,8.34,0,0,1,95,168a8,8,0,0,1-6.61,3.57l-3.64,0H79.39m56.88,8c0-1.54,0-3.08,0-4.62a1.1,1.1,0,0,1,.26-.67c.61-.73,1.24-1.44,1.9-2.12,2.5-2.59,5-5.16,7.51-7.75q4.72-4.92,9.42-9.86c2.71-2.84,5.37-5.71,8.1-8.53q8.4-8.66,16.83-17.29a8.58,8.58,0,0,0,.72-1l.32.18c0,1.66,0,3.34,0,5a1.58,1.58,0,0,1-.57.87c-2.33,2.36-4.69,4.68-7,7q-5.68,5.78-11.34,11.58c-3,3.07-5.92,6.2-8.88,9.3s-5.93,6.2-8.87,9.32c-2.72,2.87-5.41,5.76-8.11,8.64l-.26-.13m-47.32-4a11.77,11.77,0,0,0,10.59-7.59,16.66,16.66,0,0,0,.9-5.3c.11-5.37,0-10.75.06-16.13a12.31,12.31,0,0,0-9-12.07,10.13,10.13,0,0,0-2.43-.41c-4.27,0-8.55,0-12.82,0a1.57,1.57,0,0,1-.29-.09v-7.14h56.21V134h-1.14c-3.87,0-7.73-.06-11.6,0-4.34.08-7.55,2.22-9.86,5.8a12.51,12.51,0,0,0-1.84,7q0,8.07,0,16.13a12.27,12.27,0,0,0,9,12.16,9.38,9.38,0,0,0,2.34.38c4.34,0,8.69,0,13.12,0V183H76v-7.44h8.46l4.47,0M136.08,137q9.73-9.78,19.51-19.54c.29-.28.54-.6.95-1a11.8,11.8,0,0,0,6.35,7.11,14.9,14.9,0,0,0,5,1.17c3,.18,6.11,0,9.16,0h1.36c-.83.82-1.47,1.41-2.07,2q-7.46,7.67-14.88,15.33c-2.95,3.06-5.87,6.16-8.8,9.23s-6,6.26-8.95,9.4-5.9,5.93-8.57,9.13a4.77,4.77,0,0,1-4.33,1.75c-3.61-.08-7.22,0-10.82,0a8.3,8.3,0,0,1-8-6.89,16,16,0,0,1-.22-2.49c0-5.08,0-10.17,0-15.25-.07-4,2.67-8.13,6.84-8.83a6.67,6.67,0,0,1,1.18-.14c4.64,0,9.28,0,13.92,0h0a3.14,3.14,0,0,0,2.4-1m.21-11.15a1.27,1.27,0,0,1,.4-.73Q158.82,102.94,181,80.81a4.07,4.07,0,0,1,.4-.28c0,1.79,0,3.46,0,5.13a1.2,1.2,0,0,1-.43.71q-22.17,22.18-44.35,44.34a3.21,3.21,0,0,1-.27.2c0-1.82,0-3.46,0-5.1M79.61,122.5l-.4,0c0-.08-.08-.17-.13-.25.29-.24.59-.46.85-.72q21.55-21.56,43.13-43.09a2.51,2.51,0,0,1,1.57-.74q26.4-.06,52.79,0h.82a5.44,5.44,0,0,1-.51.64q-21.82,21.84-43.67,43.65a1.88,1.88,0,0,1-1.21.55q-18.4,0-36.81,0H79.61m42.53-48.83c-.42.39-.86.76-1.27,1.16L73.15,122.56c-.4.4-.78.84-1.16,1.26v12.82A2.92,2.92,0,0,0,74.73,138c2.53-.05,5.07,0,7.61,0,2,0,3.9,0,5.86,0a8.54,8.54,0,0,1,8.35,8.3,4.15,4.15,0,0,1-1.44,3.43q-11,10.92-22,21.92c-.4.41-.78.85-1.16,1.27V187h62.74l4.18-3.94c.18-.17.29-.41.46-.59,2.61-2.69,5.23-5.35,7.82-8,3-3.14,6-6.3,9-9.45s5.77-6.13,8.71-9.14q9.71-10,19.45-19.92a13.21,13.21,0,0,0,1-1.27v-12.6a2.94,2.94,0,0,0-2.74-1.35c-2.78,0-5.56,0-8.35,0h-5.46A8.52,8.52,0,0,1,160,113.6a1.69,1.69,0,0,1,.57-1.14q11.76-11.82,23.57-23.61c.41-.4.78-.84,1.17-1.26V73.67Z"/></clipPath><linearGradient id="linear-gradient-2" x1="-80.3" y1="-243.41" x2="-79.4" y2="-243.41" gradientTransform="matrix(125.8, 0, 0, -125.8, 10174.2, -30490.92)" xlink:href="#linear-gradient"/><clipPath id="clip-path-4"><path class="cls-1" d="M117.28,164c0,1.37.62,2,2,2a1.8,1.8,0,0,0,2-2,2,2,0,0,0-1.93-2h0a2,2,0,0,0-2,1.93m9.09-9.68a5.93,5.93,0,0,0-3.3,3.11,1.87,1.87,0,0,0,1.86,2.73,2.92,2.92,0,0,0,1.08-.35,25.84,25.84,0,0,0,2.34-2.34,1.84,1.84,0,0,0,.13-2.33,1.82,1.82,0,0,0-1.53-.9,2,2,0,0,0-.58.08m8-7.9a2.91,2.91,0,0,0-1.87.82c-.75.91-2,1.54-2,2.94,0,1.75,1.26,2.76,2.69,1.87a9.16,9.16,0,0,0,3-3.28,1.65,1.65,0,0,0-1.64-2.35h-.16m6-7.39a19.83,19.83,0,0,0-1.7,1.73,10.38,10.38,0,0,0-.86,1.53,2.05,2.05,0,0,0,1.24,1.94,2,2,0,0,0,2.22-.37c.69-.66,1.38-1.32,2-2a2.29,2.29,0,0,0-.06-2.9,1.83,1.83,0,0,0-1.31-.52,2.26,2.26,0,0,0-1.54.63m7.72-8.11a13.86,13.86,0,0,0-2.13,2.2,2.16,2.16,0,0,0,.25,3,2.56,2.56,0,0,0,3.14-.58c.41-.5.88-1,1.26-1.49a13.17,13.17,0,0,0,.81-1.41,2.18,2.18,0,0,0-2.14-2.18,1.88,1.88,0,0,0-1.19.45m4.93-4.32c0,1.23.68,1.88,2,1.88s2-.66,2-1.9a2.05,2.05,0,0,0-1.94-2.07H155a2.05,2.05,0,0,0-2,2.09"/></clipPath><linearGradient id="linear-gradient-3" x1="-79.13" y1="-250.82" x2="-78.22" y2="-250.82" gradientTransform="matrix(44.13, 0, 0, -44.13, 3609.03, -10923.19)" xlink:href="#linear-gradient"/></defs><title>construction</title><g id="Construccion"><g class="cls-2"><g class="cls-2"><path class="cls-3" d="M244.52,132.58A111.48,111.48,0,1,1,133.05,21.11,111.48,111.48,0,0,1,244.52,132.58"/><path class="cls-4" d="M244.52,132.58h1.81A113.28,113.28,0,1,1,133.05,19.31,113.28,113.28,0,0,1,246.33,132.58h-3.61A109.67,109.67,0,1,0,133.05,242.26,109.81,109.81,0,0,0,242.72,132.58Z"/><circle class="cls-5" cx="133.19" cy="133.19" r="116.85" transform="translate(-19.62 243.33) rotate(-80.78)"/></g><g class="cls-6"><rect class="cls-7" x="71.99" y="73.67" width="113.34" height="113.34"/></g><g class="cls-8"><rect class="cls-9" x="117.27" y="124.49" width="39.78" height="41.53"/></g></g></g></svg>