<svg id="Layer_1" data-name="Layer 1" xmlns="http://www.w3.org/2000/svg" xmlns:xlink="http://www.w3.org/1999/xlink" viewBox="0 0 266.39 266.39"><defs><style>.cls-1,.cls-5{fill:none;}.cls-2{clip-path:url(#clip-path);}.cls-3{fill:#fff;}.cls-4{fill:url(#linear-gradient);}.cls-5{stroke:#fff;stroke-miterlimit:10;stroke-width:7px;}.cls-6{clip-path:url(#clip-path-3);}.cls-7{fill:url(#linear-gradient-2);}</style><clipPath id="clip-path"><rect class="cls-1" x="13.19" y="13.19" width="240" height="240"/></clipPath><linearGradient id="linear-gradient" x1="-365.88" y1="-241.39" x2="-364.98" y2="-241.39" gradientTransform="matrix(252.46, 0, 0, -252.46, 92390.74, -60808.95)" gradientUnits="userSpaceOnUse"><stop offset="0" stop-color="#f0f"/><stop offset="1" stop-color="#f60"/></linearGradient><clipPath id="clip-path-3"><path class="cls-1" d="M74.51,102.19a13,13,0,0,0,3.61-3.62,13.1,13.1,0,0,0,3.61,3.62,12.93,12.93,0,0,0-3.61,3.61,12.93,12.93,0,0,0-3.61-3.61M76,91.48A8.58,8.58,0,0,1,67.41,100a2.15,2.15,0,0,0,0,4.29A8.58,8.58,0,0,1,76,112.89a2.14,2.14,0,1,0,4.28,0,8.57,8.57,0,0,1,8.57-8.56,2.15,2.15,0,0,0,0-4.29,8.57,8.57,0,0,1-8.57-8.56,2.14,2.14,0,1,0-4.28,0m42.83,0a8.52,8.52,0,0,0-2-5.41,4.27,4.27,0,0,1,8.39,1.12v60a4.27,4.27,0,0,1-8.39,1.12,8.5,8.5,0,0,0,2-5.4h-4.28a4.29,4.29,0,1,1-4.29-4.29v-4.28a8.51,8.51,0,0,0-5.46,2,6.42,6.42,0,1,1,7.6-6.3h4.29a10.66,10.66,0,0,0-17.14-8.51v-.06a4.29,4.29,0,0,1,0-8.57v0a10.66,10.66,0,0,0,17.14-8.51h-4.29a6.43,6.43,0,1,1-7.6-6.31,8.46,8.46,0,0,0,5.46,2V95.76a4.29,4.29,0,1,1,4.29-4.28Zm-5.55-8a8.41,8.41,0,0,0-3-.58,8.57,8.57,0,0,0-8.56,8.57,8.42,8.42,0,0,0,.52,2.85,10.71,10.71,0,0,0-7,10,10.56,10.56,0,0,0,1.23,4.87,8.53,8.53,0,0,0,0,16A10.57,10.57,0,0,0,95.25,130a10.69,10.69,0,0,0,7,10,8.48,8.48,0,0,0-.52,2.86,8.52,8.52,0,0,0,11.58,8,8.55,8.55,0,0,0,16.26-3.71v-60a8.55,8.55,0,0,0-16.26-3.7m24.82,63.67v-60a4.27,4.27,0,0,1,8.4-1.12,8.52,8.52,0,0,0-2,5.41h4.28a4.29,4.29,0,1,1,4.29,4.28V100a8.46,8.46,0,0,0,5.46-2,6.42,6.42,0,1,1-7.61,6.31h-4.28A10.73,10.73,0,0,0,157.36,115a10.57,10.57,0,0,0,6.42-2.2v0a4.29,4.29,0,1,1,0,8.57v.06a10.57,10.57,0,0,0-6.42-2.2A10.72,10.72,0,0,0,146.65,130h4.28a6.43,6.43,0,1,1,7.61,6.3,8.51,8.51,0,0,0-5.46-2v4.28a4.29,4.29,0,1,1-4.29,4.29h-4.28a8.5,8.5,0,0,0,2,5.4,4.27,4.27,0,0,1-8.4-1.12m-4.28-60v60a8.55,8.55,0,0,0,16.26,3.71,8.52,8.52,0,0,0,11.58-8,8.48,8.48,0,0,0-.52-2.86,10.69,10.69,0,0,0,6.95-10,10.57,10.57,0,0,0-1.23-4.88,8.53,8.53,0,0,0,0-16,10.56,10.56,0,0,0,1.23-4.87,10.71,10.71,0,0,0-6.95-10,8.42,8.42,0,0,0,.52-2.85,8.57,8.57,0,0,0-8.56-8.57,8.41,8.41,0,0,0-3,.58,8.55,8.55,0,0,0-16.26,3.7M87.35,80.77A12.83,12.83,0,0,0,91,77.16a12.93,12.93,0,0,0,3.61,3.61A12.93,12.93,0,0,0,91,84.38a12.83,12.83,0,0,0-3.62-3.61m1.48-10.71a8.58,8.58,0,0,1-8.57,8.57,2.14,2.14,0,0,0,0,4.28,8.58,8.58,0,0,1,8.57,8.57,2.14,2.14,0,1,0,4.28,0,8.57,8.57,0,0,1,8.57-8.57,2.14,2.14,0,0,0,0-4.28,8.57,8.57,0,0,1-8.57-8.57,2.14,2.14,0,0,0-4.28,0m34.26,117.79h17.14a8.57,8.57,0,0,1-17.14,0m-4.28-8.56h25.7v4.28h-25.7Zm-.9-8.57h27.42a28.9,28.9,0,0,0-.67,4.28h-26a30.12,30.12,0,0,0-.73-4.28M128.51,68l.27,4.27a45,45,0,0,1,27.7,82.38,26.54,26.54,0,0,0-9.68,11.77H116.43a27,27,0,0,0-9.73-11.86,44.77,44.77,0,0,1-20-38.84l-4.28-.13a49,49,0,0,0,21.89,42.53,22.57,22.57,0,0,1,7.41,8.3H106v4.28h7.48a24.5,24.5,0,0,1,.92,4.28h-4.12v4.29h4.29v6.42a2.14,2.14,0,0,0,2.14,2.14h2.14a12.85,12.85,0,0,0,25.7,0h2.14a2.14,2.14,0,0,0,2.14-2.14v-6.42h4.29V175h-4.14a25.15,25.15,0,0,1,.86-4.28h7.56v-4.28h-5.87a22.11,22.11,0,0,1,7.36-8.19,49.26,49.26,0,0,0-27.13-90.33c-1.06,0-2.13,0-3.21.1"/></clipPath><linearGradient id="linear-gradient-2" x1="-364.47" y1="-243.33" x2="-363.56" y2="-243.33" gradientTransform="matrix(128.36, 0, 0, -128.36, 46849.73, -31100)" xlink:href="#linear-gradient"/></defs><title>education</title><g id="Educación"><g class="cls-2"><g class="cls-2"><path class="cls-3" d="M244.81,132.74A111.48,111.48,0,1,1,133.34,21.27,111.48,111.48,0,0,1,244.81,132.74"/><path class="cls-4" d="M244.81,132.74h1.8A113.28,113.28,0,1,1,133.34,19.47,113.28,113.28,0,0,1,246.61,132.74H243A109.68,109.68,0,1,0,133.34,242.42,109.81,109.81,0,0,0,243,132.74Z"/><path class="cls-5" d="M250,133.19A116.85,116.85,0,1,1,133.19,16.35,116.84,116.84,0,0,1,250,133.19Z"/></g><g class="cls-6"><rect class="cls-7" x="65.27" y="67.92" width="115.65" height="132.79"/></g></g></g></svg>