<svg id="Layer_1" data-name="Layer 1" xmlns="http://www.w3.org/2000/svg" xmlns:xlink="http://www.w3.org/1999/xlink" viewBox="0 0 266.39 266.39"><defs><style>.cls-1,.cls-5{fill:none;}.cls-2{clip-path:url(#clip-path);}.cls-3{fill:#fff;}.cls-4{fill:url(#linear-gradient);}.cls-5{stroke:#fff;stroke-miterlimit:10;stroke-width:7px;}.cls-6{clip-path:url(#clip-path-3);}.cls-7{fill:url(#linear-gradient-2);}</style><clipPath id="clip-path"><rect class="cls-1" x="13.19" y="13.19" width="240" height="240"/></clipPath><linearGradient id="linear-gradient" x1="-651.13" y1="-241.39" x2="-650.23" y2="-241.39" gradientTransform="matrix(252.46, 0, 0, -252.46, 164405.93, -60808.95)" gradientUnits="userSpaceOnUse"><stop offset="0" stop-color="#0cf"/><stop offset="1" stop-color="#f0f"/></linearGradient><clipPath id="clip-path-3"><path class="cls-1" d="M67.79,181.35V148.93A1.94,1.94,0,0,1,69.72,147H82.2a1.93,1.93,0,0,1,1.93,1.93v32.42a1.92,1.92,0,0,1-1.93,1.93H69.72a1.93,1.93,0,0,1-1.93-1.93m1.93-38a5.56,5.56,0,0,0-5.55,5.55v32.42a5.56,5.56,0,0,0,5.55,5.55H82.2a5.56,5.56,0,0,0,5.55-5.55V148.93a5.56,5.56,0,0,0-5.55-5.55Zm64.72,38V138.76a1.92,1.92,0,0,1,1.93-1.92h12.48a1.93,1.93,0,0,1,1.93,1.92v42.59a1.93,1.93,0,0,1-1.93,1.93H136.37a1.92,1.92,0,0,1-1.93-1.93m1.93-48.13a5.55,5.55,0,0,0-5.55,5.54v42.59a5.56,5.56,0,0,0,5.55,5.55h12.48a5.56,5.56,0,0,0,5.55-5.55V138.76a5.55,5.55,0,0,0-5.55-5.54ZM103,118a5.55,5.55,0,0,0-5.55,5.54V133.8a1.81,1.81,0,0,0,3.62,0V123.51a1.93,1.93,0,0,1,1.93-1.92h12.49a1.92,1.92,0,0,1,1.92,1.92v57.84a1.92,1.92,0,0,1-1.92,1.93H103a1.93,1.93,0,0,1-1.93-1.93V141a1.81,1.81,0,0,0-3.62,0v40.31A5.56,5.56,0,0,0,103,186.9h12.49a5.55,5.55,0,0,0,5.54-5.55V123.51a5.55,5.55,0,0,0-5.54-5.54Zm66.65-12.71a5.56,5.56,0,0,0-5.55,5.55v51.71a1.81,1.81,0,1,0,3.62,0V110.81a1.93,1.93,0,0,1,1.93-1.93h12.48a1.92,1.92,0,0,1,1.93,1.93v70.54a1.92,1.92,0,0,1-1.93,1.93H169.69a1.93,1.93,0,0,1-1.93-1.93V169.76a1.81,1.81,0,0,0-3.62,0v11.59a5.56,5.56,0,0,0,5.55,5.55h12.48a5.56,5.56,0,0,0,5.55-5.55V110.81a5.56,5.56,0,0,0-5.55-5.55ZM68.3,121.05A7.67,7.67,0,0,1,76,113.39,7.56,7.56,0,0,1,80.52,115a7.64,7.64,0,1,1-12.22,6.09M135,110.88v-.11a7.66,7.66,0,0,1,15.31.11,7.66,7.66,0,1,1-15.31,0m-50,3.41a11.69,11.69,0,0,0-1.42-1.56l15.68-12,.06.12a11.23,11.23,0,0,0,2.37,3.06L86,115.91a11.26,11.26,0,0,0-1-1.62m33.55-12.22,0-.07a11.55,11.55,0,0,0,1.63-3.57l13.14,6a11.41,11.41,0,0,0-1.53,3.16c0,.16-.1.32-.14.48Zm33.09,2.05a11.23,11.23,0,0,0-1.81-1.9l16.32-13.7c0,.06.07.11.1.16a11.15,11.15,0,0,0,2.48,2.91L152.4,105.28s-.53-.84-.77-1.16m-50-8.49a7.66,7.66,0,0,1,15.31,0,7.66,7.66,0,1,1-15.31,0m66.64-12.7a7.66,7.66,0,1,1,7.66,7.65,7.75,7.75,0,0,1-7.66-7.65m-3.62,0a11.64,11.64,0,0,0,.18,2l-18.35,15.39a11.22,11.22,0,0,0-10.41,1.41l-15.56-7.11a11.27,11.27,0,0,0-22.5,1,11.68,11.68,0,0,0,.09,1.46L80.32,110.65a11.1,11.1,0,0,0-4.36-.88,11.28,11.28,0,1,0,11.28,11.28,11.67,11.67,0,0,0-.1-1.46L104.92,106a11.26,11.26,0,0,0,10.91-1.22l15.55,7.12a11.28,11.28,0,0,0,22.51-1.05,11.64,11.64,0,0,0-.18-2l18.34-15.39a11.28,11.28,0,1,0-7.4-10.59"/></clipPath><linearGradient id="linear-gradient-2" x1="-648.95" y1="-243.08" x2="-648.05" y2="-243.08" gradientTransform="matrix(137.13, 0, 0, -137.13, 89056.7, -33204.71)" xlink:href="#linear-gradient"/></defs><title>finance</title><g id="Financieros"><g class="cls-2"><g class="cls-2"><path class="cls-3" d="M244.81,132.74A111.48,111.48,0,1,1,133.34,21.27,111.48,111.48,0,0,1,244.81,132.74"/><path class="cls-4" d="M244.81,132.74h1.8A113.28,113.28,0,1,1,133.34,19.47,113.28,113.28,0,0,1,246.61,132.74H243A109.68,109.68,0,1,0,133.34,242.42,109.81,109.81,0,0,0,243,132.74Z"/><circle class="cls-5" cx="133.19" cy="133.19" r="116.85" transform="translate(-19.28 243.8) rotate(-80.96)"/></g><g class="cls-6"><rect class="cls-7" x="64.17" y="71.65" width="123.55" height="115.25"/></g></g></g></svg>