<svg id="Layer_1" data-name="Layer 1" xmlns="http://www.w3.org/2000/svg" xmlns:xlink="http://www.w3.org/1999/xlink" viewBox="0 0 266.39 266.39"><defs><style>.cls-1,.cls-5{fill:none;}.cls-2{clip-path:url(#clip-path);}.cls-3{fill:#fff;}.cls-4{fill:url(#linear-gradient);}.cls-5{stroke:#fff;stroke-miterlimit:10;stroke-width:7px;}.cls-6{clip-path:url(#clip-path-3);}.cls-7{fill:url(#linear-gradient-2);}</style><clipPath id="clip-path"><rect class="cls-1" x="13.19" y="13.19" width="240" height="240"/></clipPath><linearGradient id="linear-gradient" x1="-365.88" y1="46.13" x2="-364.98" y2="46.13" gradientTransform="matrix(252.46, 0, 0, -252.46, 92390.74, 11779.02)" gradientUnits="userSpaceOnUse"><stop offset="0" stop-color="#f0f"/><stop offset="1" stop-color="#f60"/></linearGradient><clipPath id="clip-path-3"><path class="cls-1" d="M124.39,181.56c1.79,1.08,9.38,4.6,32.05,4.6v-3.95c-22.68,0-29.33-3.61-30-4ZM92.83,163.71A43.59,43.59,0,0,0,110.32,177l1.51-3.64a39.69,39.69,0,0,1-15.9-12.06Zm-5.14-8.26a43.4,43.4,0,0,0,2.25,4.13l3.36-2.07a39.11,39.11,0,0,1-2-3.76Zm62.69-11.2.29,3.93c1.36-.1,2.7-.21,4-.34l-.39-3.93c-1.26.13-2.56.24-3.89.34m7.79-.77.49,3.91c9.52-1.19,18.1-3.25,24.18-5.79L181.32,138c-3.33,1.4-10.77,4-23.15,5.52M125.06,116l2,3.94,3.53-1.76-2-3.94Zm10.74-.67,1.76,3.53,3.94-2-1.76-3.52Zm26.55,62.91c0-4-1.72-8.24-3.63-11.79a87.5,87.5,0,0,1,13.56,1.33c2.5,4.63,3.88,8.33,3.88,10.46h4c0-2.3-1-5.44-2.84-9.37,10.32,2.69,16.64,7.16,16.64,11.34,0,6.17-14,9.86-37.47,9.86S119,186.41,119,180.24c0-4.54,7.45-9.43,19.4-12,2.71,4.22,4.26,7.83,4.26,10h4c0-2.77-1.37-6.4-4-10.79a90.86,90.86,0,0,1,11.61-1c2.74,4.54,4.25,8.7,4.25,11.79Zm30.88-33.52a47.36,47.36,0,0,1-9.92,21.89c-7.19-2.59-16.52-4.15-26.87-4.15-23.23,0-41.42,7.8-41.42,17.75a8,8,0,0,0,.44,2.54,47.56,47.56,0,0,1-35.24-38c9.82,7.72,33.7,11.81,56.5,11.81s46.7-4.09,56.51-11.82m-60.46,3.93a21.73,21.73,0,0,0,21.59-19.53c19.61,1.9,32.64,7.11,37.41,11.68-6.49,6.16-27.3,11.8-55.05,11.8S88.15,147,81.66,140.83c4.3-4.14,14.41-7.73,27.83-9.85a21.71,21.71,0,0,0,21.31,17.7ZM79.52,136.85c0-4.39,9.3-10.43,29.59-13.69v3.89c-13.8,2.16-24.25,5.84-29.53,10.36a3.55,3.55,0,0,1-.06-.56m72.71-15.14c26.12,2.15,41.68,9.3,41.68,15.14a3.41,3.41,0,0,1,0,.55c-6.94-6.08-22.49-10.83-41.2-12.37v0c-.06,0-.11,0-.17,0h-1.34a14.09,14.09,0,0,0,1.08-3.31m-31.29-2.61c0-6.53,6.19-11.83,13.8-11.83s13.81,5.3,13.81,11.83a10.5,10.5,0,0,1-1.89,5.92H126.85a5.92,5.92,0,0,1-5.91-5.92M79.52,79.66a4,4,0,0,1,4-4h5.91A27.64,27.64,0,0,1,117,103.32V119.1a9.87,9.87,0,0,0,9.86,9.86h23.56a17.78,17.78,0,0,1-17.64,15.78h-2A17.77,17.77,0,0,1,113.05,127V103.32A23.69,23.69,0,0,0,89.38,79.66H89A2,2,0,0,0,87.16,81a3.93,3.93,0,0,1-7.64-1.31m4-7.89a7.89,7.89,0,1,0,6.79,11.85,19.75,19.75,0,0,1,18.85,19.7v15.85c-21,3.28-33.53,9.84-33.53,17.68a51.45,51.45,0,0,0,43.55,50.68c6,4.33,18.45,6.52,37.31,6.52,27.48,0,41.42-4.65,41.42-13.81,0-4.69-4.08-8.88-10.77-12a51.26,51.26,0,0,0,10.77-31.36c0-10.67-22.54-17.21-45.44-19.09-.77-8.08-8.4-14.44-17.68-14.44a18.6,18.6,0,0,0-13.8,5.89v-5.89A31.59,31.59,0,0,0,89.38,71.77Zm45.36,0a4.45,4.45,0,0,1-1.5,3.31,8.31,8.31,0,0,0,0,11.78,4.41,4.41,0,0,1,0,6.63,8.23,8.23,0,0,0-2.45,5.89h4a4.46,4.46,0,0,1,1.49-3.32,8.29,8.29,0,0,0,0-11.77,4.44,4.44,0,0,1,0-6.64,8.16,8.16,0,0,0,2.45-5.88Zm7.89,0a4.45,4.45,0,0,1-1.5,3.31,8.29,8.29,0,0,0,0,11.77,4.42,4.42,0,0,1,0,6.64,8.23,8.23,0,0,0-2.45,5.89h3.95a4.46,4.46,0,0,1,1.49-3.32,8.29,8.29,0,0,0,0-11.77,4.44,4.44,0,0,1,0-6.64,8.2,8.2,0,0,0,2.45-5.88Zm7.89,0a4.45,4.45,0,0,1-1.5,3.31,8.29,8.29,0,0,0,0,11.77,4.42,4.42,0,0,1,0,6.64,8.23,8.23,0,0,0-2.45,5.89h4a4.46,4.46,0,0,1,1.49-3.32,8.29,8.29,0,0,0,0-11.77,4.44,4.44,0,0,1,0-6.64,8.2,8.2,0,0,0,2.45-5.88Z"/></clipPath><linearGradient id="linear-gradient-2" x1="-364.63" y1="45.38" x2="-363.73" y2="45.38" gradientTransform="matrix(135.72, 0, 0, -135.72, 49563.99, 6292.39)" xlink:href="#linear-gradient"/></defs><title>food</title><g id="Alimentos_y_Bebidas" data-name="Alimentos y Bebidas"><g class="cls-2"><g class="cls-2"><path class="cls-3" d="M244.81,132.74A111.48,111.48,0,1,1,133.34,21.27,111.48,111.48,0,0,1,244.81,132.74"/><path class="cls-4" d="M244.81,132.74h1.8A113.28,113.28,0,1,1,133.34,19.47,113.28,113.28,0,0,1,246.61,132.74H243A109.68,109.68,0,1,0,133.34,242.42,109.81,109.81,0,0,0,243,132.74Z"/><circle class="cls-5" cx="133.19" cy="133.19" r="116.85" transform="matrix(0.16, -0.99, 0.99, 0.16, -19.62, 243.33)"/></g><g class="cls-6"><rect class="cls-7" x="75.58" y="71.77" width="122.28" height="122.28"/></g></g></g></svg>