<svg id="Layer_1" data-name="Layer 1" xmlns="http://www.w3.org/2000/svg" xmlns:xlink="http://www.w3.org/1999/xlink" viewBox="0 0 266.39 266.39"><defs><style>.cls-1,.cls-5{fill:none;}.cls-2{clip-path:url(#clip-path);}.cls-3{fill:#fff;}.cls-4{fill:url(#linear-gradient);}.cls-5{stroke:#fff;stroke-miterlimit:10;stroke-width:7px;}.cls-6{clip-path:url(#clip-path-3);}.cls-7{fill:url(#linear-gradient-2);}</style><clipPath id="clip-path"><rect class="cls-1" x="13.19" y="13.19" width="240" height="240"/></clipPath><linearGradient id="linear-gradient" x1="-80.63" y1="-528.91" x2="-79.73" y2="-528.91" gradientTransform="matrix(252.46, 0, 0, -252.46, 20375.94, -133397.05)" gradientUnits="userSpaceOnUse"><stop offset="0" stop-color="#60c"/><stop offset="1" stop-color="#0cf"/></linearGradient><clipPath id="clip-path-3"><path class="cls-1" d="M61.46,171.62a2.81,2.81,0,1,0,2.81-2.81,2.81,2.81,0,0,0-2.81,2.81m79.74-5.53a2.82,2.82,0,0,0,.55,5.59,2.46,2.46,0,0,0,.53-.06h.09a2.82,2.82,0,0,0-.59-5.57,3.9,3.9,0,0,0-.58.05m7.49-2.39a2.81,2.81,0,1,0,2.25,5.16l.06,0a2.82,2.82,0,0,0-1.16-5.39,2.77,2.77,0,0,0-1.15.25m6.78-3.93a2.82,2.82,0,0,0,1.66,5.09,2.89,2.89,0,0,0,1.67-.54l0,0a2.82,2.82,0,0,0-3.36-4.52m8.25-3.16-.31-.28.34.3Zm-2.4-2.17-.06.07a2.82,2.82,0,0,0,2.13,4.66,2.84,2.84,0,0,0,1.91-4.93,2.81,2.81,0,0,0-4,.2m4.55-6.39,0,.07a2.82,2.82,0,0,0,2.47,4.17,2.79,2.79,0,0,0,2.47-1.46l-2.45-1.39,2.45,1.39a2.82,2.82,0,1,0-4.9-2.78m3.08-7.19a2.82,2.82,0,0,0,1.86,3.52,3,3,0,0,0,.83.12,2.82,2.82,0,0,0,2.7-2v0a2.81,2.81,0,0,0-1.88-3.51,2.91,2.91,0,0,0-.82-.12,2.83,2.83,0,0,0-2.7,2m-104.68-3a2.82,2.82,0,0,0-2.82,2.82v20.6a2.82,2.82,0,0,0,5.64,0V143.53H77.53a1.34,1.34,0,0,1,1.35,1.34v22.58a1.34,1.34,0,0,1-1.35,1.35H74.61a2.82,2.82,0,0,0,0,5.64h2.92A7,7,0,0,0,84,170.06a14.8,14.8,0,0,1,11.32,5.35l7,8.46a20.42,20.42,0,0,0,15.74,7.38h29.43a8.7,8.7,0,0,0,0-17.39H136.61a2.82,2.82,0,0,0,0,5.64h10.93a3.06,3.06,0,1,1,0,6.12H118.11a14.78,14.78,0,0,1-11.41-5.36l-7-8.45a20.44,20.44,0,0,0-15.16-7.37V147.8H94.89a19.58,19.58,0,0,1,13.64,5.51L123.71,168a2.77,2.77,0,0,1-3.79,4L108,161.07a2.82,2.82,0,1,0-3.81,4.15l11.92,10.93a8.4,8.4,0,0,0,11.51-12.23l-15.18-14.67a25.16,25.16,0,0,0-17.55-7.08H84a7,7,0,0,0-6.44-4.28Zm30-3.69A2.83,2.83,0,0,0,92,137.47v0a2.8,2.8,0,0,0,2.76,2.31,2.92,2.92,0,0,0,.5-.05,2.82,2.82,0,0,0-1-5.56m76.17-1.1s0,.08,0,.11a2.81,2.81,0,0,0,2.65,3h.16a2.84,2.84,0,0,0,.25-5.66h-.25a2.82,2.82,0,0,0-2.8,2.57m-79.06-4.73a.41.41,0,0,0,0,.11,2.81,2.81,0,0,0,2.73,2.89h.09a2.83,2.83,0,0,0,.16-5.65h-.16a2.81,2.81,0,0,0-2.81,2.65m81.34-6.22a2.83,2.83,0,0,0,.58,5.6,2.92,2.92,0,0,0,.5,0,2.81,2.81,0,0,0,2.27-3.27.52.52,0,0,0,0-.11,2.8,2.8,0,0,0-2.75-2.23,2.93,2.93,0,0,0-.58.06m-80-2.73s0,.08,0,.1a2.81,2.81,0,0,0,2.08,3.4,2.48,2.48,0,0,0,.66.08,2.83,2.83,0,0,0,.75-5.56,3.22,3.22,0,0,0-.75-.1,2.82,2.82,0,0,0-2.71,2.08m43.68,5.91a7.45,7.45,0,1,1,12.24,8l-14.85,11.82-14.27-11.29a7.45,7.45,0,1,1,11.67-8.55,2.82,2.82,0,0,0,5.21,0m-2.6-6.17a13.09,13.09,0,1,0-17.86,19.07l0,0L132,151a2.78,2.78,0,0,0,1.75.61,2.84,2.84,0,0,0,1.75-.61l16.73-13.33.24-.21a13.08,13.08,0,1,0-18.72-18.28m-37.88-8.23,0,.09a2.82,2.82,0,0,0,1.29,3.77,2.75,2.75,0,0,0,1.24.29,2.84,2.84,0,0,0,1.32-5.34,2.87,2.87,0,0,0-1.3-.32,2.81,2.81,0,0,0-2.5,1.51m4.92-7.6,0,.08a2.81,2.81,0,0,0,.46,4,2.81,2.81,0,0,0,3.94-.44,2.82,2.82,0,0,0-4.35-3.59m6.4-6.36L109,99.18,107.2,97a2.82,2.82,0,0,0-.45,4,2.83,2.83,0,0,0,4,.45l0,0a2.82,2.82,0,0,0-1.78-5,2.78,2.78,0,0,0-1.76.62m7.63-4.89h0a2.82,2.82,0,0,0,1.28,5.33,2.89,2.89,0,0,0,1.27-.3,2.82,2.82,0,0,0-1.27-5.34,2.68,2.68,0,0,0-1.25.3m8.52-3.17-.06,0a2.8,2.8,0,1,0,.73-.1,3.14,3.14,0,0,0-.67.08m76.72,0a2.81,2.81,0,1,0,2.8-2.81,2.8,2.8,0,0,0-2.8,2.81M119.62,69.3a8.69,8.69,0,1,0,0,17.38h12a2.82,2.82,0,1,0,0-5.63h-12a3.06,3.06,0,1,1,0-6.12H149a14.78,14.78,0,0,1,11.41,5.35l7,8.46a20.38,20.38,0,0,0,15.15,7.36v16.65H172.27a19.55,19.55,0,0,1-13.64-5.51L143.44,92.58a2.77,2.77,0,0,1,3.8-4l11.92,10.93A2.82,2.82,0,0,0,163,95.32L151,84.39a8.4,8.4,0,0,0-11.51,12.24l15.19,14.66a25.15,25.15,0,0,0,17.55,7.09h10.92a7,7,0,0,0,6.43,4.27h13.26a2.81,2.81,0,0,0,2.82-2.81V98.14a2.82,2.82,0,1,0-5.63,0V117H189.62a1.35,1.35,0,0,1-1.34-1.35V93.09a1.35,1.35,0,0,1,1.34-1.35h2.72a2.82,2.82,0,1,0,0-5.63h-2.72a7,7,0,0,0-6.47,4.37,14.81,14.81,0,0,1-11.33-5.34l-7-8.46A20.42,20.42,0,0,0,149,69.3Z"/></clipPath><linearGradient id="linear-gradient-2" x1="-80.44" y1="-530.72" x2="-79.54" y2="-530.72" gradientTransform="matrix(160.11, 0, 0, -160.11, 12941.3, -84842.39)" xlink:href="#linear-gradient"/></defs><title>health</title><g id="Salud_y_Belleza" data-name="Salud y Belleza"><g class="cls-2"><g class="cls-2"><path class="cls-3" d="M245.17,132.62A111.48,111.48,0,1,1,133.69,21.15,111.48,111.48,0,0,1,245.17,132.62"/><path class="cls-4" d="M245.17,132.62H247A113.28,113.28,0,1,1,133.69,19.34,113.28,113.28,0,0,1,247,132.62h-3.6A109.68,109.68,0,1,0,133.69,242.29,109.82,109.82,0,0,0,243.37,132.62Z"/><circle class="cls-5" cx="133.19" cy="133.19" r="116.85" transform="translate(-40.83 61.11) rotate(-22.5)"/></g><g class="cls-6"><rect class="cls-7" x="61.45" y="69.3" width="144.25" height="121.95"/></g></g></g></svg>