<svg id="Layer_1" data-name="Layer 1" xmlns="http://www.w3.org/2000/svg" xmlns:xlink="http://www.w3.org/1999/xlink" viewBox="0 0 400 400"><defs><style>.cls-1{fill:#fff;}.cls-2{fill:url(#linear-gradient);}.cls-3{fill:url(#linear-gradient-2);}</style><linearGradient id="linear-gradient" x1="6.1" y1="199.77" x2="394.84" y2="199.77" gradientUnits="userSpaceOnUse"><stop offset="0" stop-color="#4b004d"/><stop offset="1" stop-color="#af1c5a"/></linearGradient><linearGradient id="linear-gradient-2" x1="112.1" y1="242.56" x2="394.84" y2="242.56" gradientUnits="userSpaceOnUse"><stop offset="0" stop-color="#1d3768"/><stop offset="1" stop-color="#006095"/></linearGradient><symbol id="hex_star" data-name="hex_star" viewBox="0 0 11.92 10.33"><polygon class="cls-1" points="8.94 0 2.98 0 0 5.16 2.98 10.33 8.94 10.33 11.92 5.16 8.94 0"/></symbol><symbol id="hex_stars" data-name="hex_stars" viewBox="0 0 28.55 17.86"><use width="11.92" height="10.33" transform="translate(16.62 7)" xlink:href="#hex_star"/><use width="11.92" height="10.33" transform="translate(6.57) scale(0.68)" xlink:href="#hex_star"/><use width="11.92" height="10.33" transform="translate(2.53 13.48) scale(0.42)" xlink:href="#hex_star"/><use width="11.92" height="10.33" transform="translate(0 6.83) scale(0.26)" xlink:href="#hex_star"/></symbol></defs><title>industries</title><path class="cls-2" d="M394.84,154a111.65,111.65,0,0,0-175.7-91.45,132.09,132.09,0,1,0-99.93,235.1,101.59,101.59,0,0,0,197.11-34.54c0-.82,0-1.64,0-2.46A111.69,111.69,0,0,0,394.84,154Z"/><path class="cls-3" d="M325.14,148.15A132.1,132.1,0,0,0,130.64,320a101.57,101.57,0,0,0,185.68-56.92c0-.82,0-1.64,0-2.46A111.75,111.75,0,0,0,391.78,128c-.86,0-1.72,0-2.59,0A111.09,111.09,0,0,0,325.14,148.15Z"/><use width="28.55" height="17.86" transform="matrix(0.73, -0.45, 0.45, 0.73, 363.89, 140.7)" xlink:href="#hex_stars"/><use width="28.55" height="17.86" transform="matrix(0.73, -0.45, 0.45, 0.73, 328.41, 149.03)" xlink:href="#hex_stars"/><use width="28.55" height="17.86" transform="matrix(0.73, -0.45, 0.45, 0.73, 310.45, 139.03)" xlink:href="#hex_stars"/><use width="28.55" height="17.86" transform="matrix(0.73, -0.45, 0.45, 0.73, 293.44, 128.61)" xlink:href="#hex_stars"/><use width="28.55" height="17.86" transform="matrix(0.73, -0.45, 0.45, 0.73, 288.41, 111.34)" xlink:href="#hex_stars"/><use width="28.55" height="17.86" transform="matrix(0.73, -0.45, 0.45, 0.73, 284.13, 82.07)" xlink:href="#hex_stars"/><use width="28.55" height="17.86" transform="matrix(0.73, -0.45, 0.45, 0.73, 280.82, 66.27)" xlink:href="#hex_stars"/><use width="28.55" height="17.86" transform="matrix(0.73, -0.45, 0.45, 0.73, 305.18, 81.49)" xlink:href="#hex_stars"/><use width="28.55" height="17.86" transform="matrix(0.73, -0.45, 0.45, 0.73, 337.65, 116.96)" xlink:href="#hex_stars"/><use width="28.55" height="17.86" transform="matrix(0.73, -0.45, 0.45, 0.73, 344.59, 158.32)" xlink:href="#hex_stars"/><use width="28.55" height="17.86" transform="matrix(0.73, -0.45, 0.45, 0.73, 319.81, 200.2)" xlink:href="#hex_stars"/><use width="28.55" height="17.86" transform="matrix(0.73, -0.45, 0.45, 0.73, 270.07, 248.89)" xlink:href="#hex_stars"/><use width="28.55" height="17.86" transform="matrix(0.73, -0.45, 0.45, 0.73, 247.91, 272.88)" xlink:href="#hex_stars"/><use width="28.55" height="17.86" transform="matrix(0.73, -0.45, 0.45, 0.73, 252.69, 258.44)" xlink:href="#hex_stars"/><use width="28.55" height="17.86" transform="matrix(0.73, -0.45, 0.45, 0.73, 284.45, 215.51)" xlink:href="#hex_stars"/><use width="28.55" height="17.86" transform="matrix(0.73, -0.45, 0.45, 0.73, 296.18, 175.05)" xlink:href="#hex_stars"/><use width="28.55" height="17.86" transform="matrix(0.73, -0.45, 0.45, 0.73, 294.76, 154.14)" xlink:href="#hex_stars"/><use width="28.55" height="17.86" transform="matrix(0.73, -0.45, 0.45, 0.73, 284.82, 164.57)" xlink:href="#hex_stars"/><use width="28.55" height="17.86" transform="matrix(0.73, -0.45, 0.45, 0.73, 303.35, 199.55)" xlink:href="#hex_stars"/><use width="28.55" height="17.86" transform="matrix(0.73, -0.45, 0.45, 0.73, 304.73, 228.49)" xlink:href="#hex_stars"/><use width="28.55" height="17.86" transform="matrix(0.73, -0.45, 0.45, 0.73, 254.48, 224.15)" xlink:href="#hex_stars"/><use width="28.55" height="17.86" transform="matrix(0.73, -0.45, 0.45, 0.73, 187.24, 205.26)" xlink:href="#hex_stars"/><use width="28.55" height="17.86" transform="matrix(0.73, -0.45, 0.45, 0.73, 159.71, 185.37)" xlink:href="#hex_stars"/><use width="28.55" height="17.86" transform="matrix(0.73, -0.45, 0.45, 0.73, 142.54, 189.54)" xlink:href="#hex_stars"/><use width="28.55" height="17.86" transform="matrix(0.73, -0.45, 0.45, 0.73, 143.41, 174.82)" xlink:href="#hex_stars"/><use width="28.55" height="17.86" transform="matrix(0.73, -0.45, 0.45, 0.73, 170.76, 96.31)" xlink:href="#hex_stars"/><use width="28.55" height="17.86" transform="matrix(0.73, -0.45, 0.45, 0.73, 185.41, 51)" xlink:href="#hex_stars"/><use width="28.55" height="17.86" transform="matrix(0.73, -0.45, 0.45, 0.73, 189.97, 35.9)" xlink:href="#hex_stars"/><use width="28.55" height="17.86" transform="matrix(0.73, -0.45, 0.45, 0.73, 210.94, 104.85)" xlink:href="#hex_stars"/><use width="28.55" height="17.86" transform="matrix(0.73, -0.45, 0.45, 0.73, 227.64, 184.06)" xlink:href="#hex_stars"/><use width="28.55" height="17.86" transform="matrix(0.73, -0.45, 0.45, 0.73, 206.13, 133.61)" xlink:href="#hex_stars"/><use width="28.55" height="17.86" transform="matrix(0.73, -0.45, 0.45, 0.73, 195.2, 98.66)" xlink:href="#hex_stars"/><use width="28.55" height="17.86" transform="matrix(0.73, -0.45, 0.45, 0.73, 160.5, 158.31)" xlink:href="#hex_stars"/><use width="28.55" height="17.86" transform="matrix(0.73, -0.45, 0.45, 0.73, 230.02, 150.84)" xlink:href="#hex_stars"/><use width="28.55" height="17.86" transform="matrix(0.73, -0.45, 0.45, 0.73, 273, 129.52)" xlink:href="#hex_stars"/><use width="28.55" height="17.86" transform="matrix(0.73, -0.45, 0.45, 0.73, 264.74, 95.91)" xlink:href="#hex_stars"/><use width="28.55" height="17.86" transform="matrix(0.73, -0.45, 0.45, 0.73, 271.56, 195.68)" xlink:href="#hex_stars"/><use width="28.55" height="17.86" transform="matrix(0.73, -0.45, 0.45, 0.73, 338.07, 134.62)" xlink:href="#hex_stars"/><use width="28.55" height="17.86" transform="matrix(0.73, -0.45, 0.45, 0.73, 351.81, 178.51)" xlink:href="#hex_stars"/><use width="28.55" height="17.86" transform="matrix(0.73, -0.45, 0.45, 0.73, 313.02, 255.05)" xlink:href="#hex_stars"/><use width="28.55" height="17.86" transform="matrix(0.73, -0.45, 0.45, 0.73, 319.62, 119.07)" xlink:href="#hex_stars"/><use width="28.55" height="17.86" transform="matrix(0.73, -0.45, 0.45, 0.73, 336.31, 194.63)" xlink:href="#hex_stars"/><use width="28.55" height="17.86" transform="matrix(0.73, -0.45, 0.45, 0.73, 324.76, 176.52)" xlink:href="#hex_stars"/><use width="28.55" height="17.86" transform="matrix(0.73, -0.45, 0.45, 0.73, 171.94, 221.41)" xlink:href="#hex_stars"/><use width="28.55" height="17.86" transform="matrix(0.73, -0.45, 0.45, 0.73, 159.25, 215.01)" xlink:href="#hex_stars"/><use width="28.55" height="17.86" transform="matrix(0.73, -0.45, 0.45, 0.73, 55.33, 284.75)" xlink:href="#hex_stars"/><use width="28.55" height="17.86" transform="matrix(0.73, -0.45, 0.45, 0.73, 34.53, 286.29)" xlink:href="#hex_stars"/><use width="28.55" height="17.86" transform="matrix(0.73, -0.45, 0.45, 0.73, 10.02, 238.48)" xlink:href="#hex_stars"/><use width="28.55" height="17.86" transform="matrix(0.73, -0.45, 0.45, 0.73, 18.82, 248.8)" xlink:href="#hex_stars"/><use width="28.55" height="17.86" transform="matrix(0.73, -0.45, 0.45, 0.73, 27.38, 218.1)" xlink:href="#hex_stars"/><use width="28.55" height="17.86" transform="matrix(0.73, -0.45, 0.45, 0.73, 51.74, 192.65)" xlink:href="#hex_stars"/><use width="28.55" height="17.86" transform="matrix(0.73, -0.45, 0.45, 0.73, 59.32, 225.06)" xlink:href="#hex_stars"/><use width="28.55" height="17.86" transform="matrix(0.73, -0.45, 0.45, 0.73, 77.7, 281.61)" xlink:href="#hex_stars"/><use width="28.55" height="17.86" transform="matrix(0.73, -0.45, 0.45, 0.73, 141.04, 288.38)" xlink:href="#hex_stars"/><use width="28.55" height="17.86" transform="matrix(0.73, -0.45, 0.45, 0.73, 132.24, 274.32)" xlink:href="#hex_stars"/><use width="28.55" height="17.86" transform="matrix(0.73, -0.45, 0.45, 0.73, 161.2, 315.28)" xlink:href="#hex_stars"/><use width="28.55" height="17.86" transform="matrix(0.73, -0.45, 0.45, 0.73, 178.34, 321.2)" xlink:href="#hex_stars"/><use width="28.55" height="17.86" transform="matrix(0.73, -0.45, 0.45, 0.73, 199.15, 304.32)" xlink:href="#hex_stars"/><use width="28.55" height="17.86" transform="matrix(0.73, -0.45, 0.45, 0.73, 231.59, 260.43)" xlink:href="#hex_stars"/><use width="28.55" height="17.86" transform="matrix(0.73, -0.45, 0.45, 0.73, 157.44, 283.99)" xlink:href="#hex_stars"/><use width="28.55" height="17.86" transform="matrix(0.73, -0.45, 0.45, 0.73, 144.13, 265.83)" xlink:href="#hex_stars"/><use width="28.55" height="17.86" transform="matrix(0.73, -0.45, 0.45, 0.73, 158.38, 269.09)" xlink:href="#hex_stars"/><use width="28.55" height="17.86" transform="matrix(0.73, -0.45, 0.45, 0.73, 287.36, 4.55)" xlink:href="#hex_stars"/><use width="28.55" height="17.86" transform="matrix(0.73, -0.45, 0.45, 0.73, 330.94, 39.29)" xlink:href="#hex_stars"/><use width="28.55" height="17.86" transform="matrix(0.73, -0.45, 0.45, 0.73, 305.68, 30.7)" xlink:href="#hex_stars"/><use width="28.55" height="17.86" transform="matrix(0.73, -0.45, 0.45, 0.73, 322.76, 18.43)" xlink:href="#hex_stars"/><use width="28.55" height="17.86" transform="matrix(0.73, -0.45, 0.45, 0.73, 320.1, 29.82)" xlink:href="#hex_stars"/><path class="cls-1" d="M259.91,174.78l-38,24.21V180.32a6.57,6.57,0,0,0-10.09-5.54l-38,24.21V145.31a6.56,6.56,0,0,0-6.56-6.56H136.56a6.56,6.56,0,0,0-6.56,6.56V254.69a6.56,6.56,0,0,0,6.56,6.56H263.44a6.56,6.56,0,0,0,6.56-6.56V180.32A6.57,6.57,0,0,0,259.91,174.78Z"/></svg>