<svg id="Layer_1" data-name="Layer 1" xmlns="http://www.w3.org/2000/svg" xmlns:xlink="http://www.w3.org/1999/xlink" viewBox="0 0 266.39 266.39"><defs><style>.cls-1,.cls-5{fill:none;}.cls-2{clip-path:url(#clip-path);}.cls-3{fill:#fff;}.cls-4{fill:url(#linear-gradient);}.cls-5{stroke:#fff;stroke-miterlimit:10;stroke-width:7px;}.cls-6{clip-path:url(#clip-path-3);}.cls-7{fill:url(#linear-gradient-2);}</style><clipPath id="clip-path"><rect class="cls-1" x="13.19" y="13.19" width="240" height="240"/></clipPath><linearGradient id="linear-gradient" x1="-936.38" y1="-241.39" x2="-935.48" y2="-241.39" gradientTransform="matrix(252.46, 0, 0, -252.46, 236420.81, -60809.12)" gradientUnits="userSpaceOnUse"><stop offset="0" stop-color="#0c0"/><stop offset="1" stop-color="#00cce9"/></linearGradient><clipPath id="clip-path-3"><path class="cls-1" d="M121.46,173.4A11.55,11.55,0,1,1,133,184.94a11.56,11.56,0,0,1-11.54-11.54m-4.62,0A16.17,16.17,0,1,0,133,157.23a16.18,16.18,0,0,0-16.16,16.17m18.59-63.08,4.38,1.46a12.39,12.39,0,0,1,7.78-7.78l-1.46-4.38a17,17,0,0,0-10.7,10.7m-10.32,43.85a9,9,0,0,0,5.59-8.36v-.12h4.61v.12a9.14,9.14,0,0,0,15.56,6.45l.1-.1,3.27,3.27-.1.1a9.14,9.14,0,0,0,6.45,15.56h.13v4.62h-.13a9.14,9.14,0,0,0-6.45,15.56l.1.09L151,194.63l-.1-.09A9.14,9.14,0,0,0,135.31,201v.13H130.7V201a9.14,9.14,0,0,0-15.56-6.44l-.1.09-3.27-3.27.1-.09a9.14,9.14,0,0,0-6.45-15.56h-.13v-4.62h.13a9.15,9.15,0,0,0,6.45-15.56l-.1-.1,3.27-3.27.1.1a9,9,0,0,0,6.36,2.64,9.39,9.39,0,0,0,3.61-.73M66,136.45H103a18.48,18.48,0,0,1-36.95,0m97,0H200a18.47,18.47,0,0,1-36.94,0M118.4,149l-1.56-1.56V122.59h32.33v24.84L147.61,149a4.53,4.53,0,0,1-7.68-3.18v-4.74H126.08v4.74a4.44,4.44,0,0,1-2.83,4.12,4.43,4.43,0,0,1-4.85-.94M85.31,97.11l16.34,34.72H67.37L83.71,97.11c.27,0,.53.08.8.08s.54-.06.8-.08m97,0,16.34,34.72H164.36L180.7,97.11c.26,0,.52.08.8.08s.54-.06.8-.08M66,85.64H75.6A9.34,9.34,0,0,0,75.27,88a9.2,9.2,0,0,0,.33,2.31H66ZM93.75,88a9.34,9.34,0,0,0-.33-2.31H107.6v4.62H93.42A9.2,9.2,0,0,0,93.75,88m49.77-2.31h29.07a9.34,9.34,0,0,0-.33,2.31,9.2,9.2,0,0,0,.33,2.31H139.65a11.14,11.14,0,0,0,3.87-4.62M190.74,88a9.34,9.34,0,0,0-.33-2.31H200v4.62h-9.56a9.2,9.2,0,0,0,.33-2.31M79.89,88a4.62,4.62,0,1,1,4.62,4.62A4.62,4.62,0,0,1,79.89,88m97,0a4.62,4.62,0,1,1,4.62,4.62A4.62,4.62,0,0,1,176.88,88M112.22,99.5V85.64A4.62,4.62,0,0,1,116.84,81h23.09a6.56,6.56,0,0,1-5,6.37L120,91.13l1.82,2.72a25.21,25.21,0,0,1,4.23,14v.92h4.62v-.92a29.74,29.74,0,0,0-3-12.94h26.09V99.5A32.52,32.52,0,0,1,148,118H118.05a32.52,32.52,0,0,1-5.83-18.47m36.95-20.78V74.1a2.31,2.31,0,0,1,4.62,0v4.62a2.31,2.31,0,0,1-4.62,0m-27.71-9.24a2.31,2.31,0,0,1,4.62,0v6.93h-4.62Zm9.24,0a2.31,2.31,0,1,1,4.61,0v6.93H130.7Zm9.23,6.93V69.48a2.31,2.31,0,0,1,4.62,0v9.24a2.41,2.41,0,0,1-.22,1,4.61,4.61,0,0,0-4.4-3.27m-2.31-12.06a6.82,6.82,0,0,0-9.23,0,6.9,6.9,0,0,0-11.55,5.13v6.93a9.2,9.2,0,0,0-8,4.62H90.56a9.08,9.08,0,0,0-12.1,0H66a4.62,4.62,0,0,0-4.62,4.61v4.62A4.62,4.62,0,0,0,66,94.88H78.46a9.82,9.82,0,0,0,.86.71l-17.9,38v2.83a23.09,23.09,0,1,0,46.18,0v-2.83l-17.9-38a8.21,8.21,0,0,0,.86-.7h17V99.5a37.22,37.22,0,0,0,5.87,20,4.61,4.61,0,0,0-1.25,3.14v25.86l-7,7,3.36,3.36a4.47,4.47,0,0,1,.91,5,4.43,4.43,0,0,1-4.09,2.73h-4.74v13.85h4.74A4.53,4.53,0,0,1,108.6,188l-3.36,3.36,9.8,9.81,3.36-3.37a4.53,4.53,0,0,1,7.68,3.18v4.75h13.85V201a4.53,4.53,0,0,1,7.68-3.18l3.36,3.36,9.8-9.8L157.41,188a4.48,4.48,0,0,1-.91-4.94,4.42,4.42,0,0,1,4.09-2.74h4.75V166.47h-4.75a4.52,4.52,0,0,1-3.18-7.68l3.36-3.36-7-7V122.59a4.61,4.61,0,0,0-1.25-3.14,37.22,37.22,0,0,0,5.87-20V94.88h17a9.82,9.82,0,0,0,.86.71l-17.9,38v2.83a23.09,23.09,0,0,0,46.18,0v-2.83l-17.9-38a8.21,8.21,0,0,0,.86-.7H200a4.62,4.62,0,0,0,4.62-4.62V85.64A4.62,4.62,0,0,0,200,81H187.55a9.08,9.08,0,0,0-12.1,0H158a6.86,6.86,0,0,0,.43-2.31V74.1a6.91,6.91,0,0,0-9.51-6.42,6.87,6.87,0,0,0-11.28-3.33"/></clipPath><linearGradient id="linear-gradient-2" x1="-934.19" y1="-242.57" x2="-933.29" y2="-242.57" gradientTransform="matrix(158.91, 0, 0, -158.91, 148518.54, -38413.54)" xlink:href="#linear-gradient"/></defs><title>legal</title><g id="Legal"><g class="cls-2"><g class="cls-2"><path class="cls-3" d="M244.52,132.58A111.48,111.48,0,1,1,133.05,21.11,111.47,111.47,0,0,1,244.52,132.58"/><path class="cls-4" d="M244.52,132.58h1.81A113.28,113.28,0,1,1,133.05,19.31,113.28,113.28,0,0,1,246.33,132.58h-3.61A109.68,109.68,0,1,0,133.05,242.26,109.81,109.81,0,0,0,242.72,132.58Z"/><path class="cls-5" d="M250,133.19A116.85,116.85,0,1,1,133.19,16.35,116.84,116.84,0,0,1,250,133.19Z"/></g><g class="cls-6"><rect class="cls-7" x="61.42" y="62.55" width="143.17" height="143.17"/></g></g></g></svg>