<svg id="Layer_1" data-name="Layer 1" xmlns="http://www.w3.org/2000/svg" xmlns:xlink="http://www.w3.org/1999/xlink" viewBox="0 0 263.38 263.38"><defs><style>.cls-1{fill:none;}.cls-2{clip-path:url(#clip-path);}.cls-3{fill:#fff;}.cls-4{fill:url(#linear-gradient);}.cls-5{clip-path:url(#clip-path-3);}.cls-6{fill:url(#linear-gradient-2);}</style><clipPath id="clip-path"><rect class="cls-1" x="11.69" y="11.69" width="240" height="240"/></clipPath><linearGradient id="linear-gradient" x1="-651.14" y1="-816.4" x2="-650.19" y2="-816.4" gradientTransform="matrix(252.46, 0, 0, -252.46, 164398.81, -205977.42)" gradientUnits="userSpaceOnUse"><stop offset="0" stop-color="#f0f"/><stop offset="1" stop-color="#f60"/></linearGradient><clipPath id="clip-path-3"><path class="cls-1" d="M77.73,151.4a2.34,2.34,0,0,1,2.34-2.34h35.09a2.34,2.34,0,0,0,2.34-2.34v-4.53a16,16,0,0,1,10.43,5.74,9.49,9.49,0,0,0,7.27,3.47h8v23.39h-7A23.7,23.7,0,0,0,124,178.05a26.4,26.4,0,0,1-13.55,3.76H84.75a2.34,2.34,0,1,1,0-4.68h16.38a2.34,2.34,0,1,0,0-4.68H75.4a2.34,2.34,0,0,1,0-4.68h25.73a2.34,2.34,0,0,0,0-4.68H68.38a2.34,2.34,0,1,1,0-4.68h32.75a2.34,2.34,0,1,0,0-4.67H80.07a2.34,2.34,0,0,1-2.34-2.34m69.06-15.11a9.45,9.45,0,0,0,3.46-7.27v-8h23.4v7a23.61,23.61,0,0,0,3.26,12.21,26.39,26.39,0,0,1,3.75,13.55v25.74a2.34,2.34,0,1,1-4.67,0V163.09a2.34,2.34,0,0,0-4.68,0v25.73a2.34,2.34,0,1,1-4.68,0V163.09a2.34,2.34,0,0,0-4.68,0v32.75a2.34,2.34,0,0,1-4.68,0V163.09a2.34,2.34,0,0,0-4.68,0v21.06a2.34,2.34,0,0,1-4.67,0V149.06a2.34,2.34,0,0,0-2.34-2.34H141a16.06,16.06,0,0,1,5.75-10.43m-15.27,8.64a21,21,0,0,0-14-7.41v-1.18a4.83,4.83,0,0,1,1.79-3.68,21,21,0,0,0,7.41-14h1.18a4.85,4.85,0,0,1,3.68,1.79,21,21,0,0,0,14,7.41V129a4.87,4.87,0,0,1-1.79,3.68,21,21,0,0,0-7.41,14H135.2a4.83,4.83,0,0,1-3.68-1.79M139,87.31a26.46,26.46,0,0,1,13.56-3.76h25.74a2.34,2.34,0,0,1,0,4.68H162a2.34,2.34,0,1,0,0,4.68h25.73a2.34,2.34,0,0,1,0,4.68H162a2.34,2.34,0,1,0,0,4.68H194.7a2.34,2.34,0,0,1,0,4.68H162a2.34,2.34,0,1,0,0,4.68H183a2.34,2.34,0,1,1,0,4.67H147.91a2.33,2.33,0,0,0-2.33,2.34v4.54a16.06,16.06,0,0,1-10.43-5.75,9.5,9.5,0,0,0-7.27-3.47h-8V90.57H127a23.6,23.6,0,0,0,12-3.26m-37.9,15V69.52a2.34,2.34,0,0,1,4.68,0v32.75a2.34,2.34,0,1,0,4.67,0V81.21a2.34,2.34,0,0,1,4.68,0V116.3a2.34,2.34,0,0,0,2.34,2.34H122a16,16,0,0,1-5.74,10.43,9.49,9.49,0,0,0-3.47,7.27v8H89.43v-7a23.7,23.7,0,0,0-3.26-12.21,26.3,26.3,0,0,1-3.76-13.55V85.89a2.34,2.34,0,1,1,4.68,0v16.38a2.34,2.34,0,1,0,4.68,0V76.54a2.34,2.34,0,0,1,4.68,0v25.73a2.34,2.34,0,0,0,4.68,0M96.45,69.52v.4a7,7,0,0,0-9.36,6.62v2.74a7,7,0,0,0-9.36,6.61v25.74a31.16,31.16,0,0,0,4.43,16,19,19,0,0,1,2.59,9.8v7H80.07a7,7,0,0,0-6.61,9.35H68.38a7,7,0,1,0,0,14h.4a7,7,0,0,0,6.62,9.36h2.74a7,7,0,0,0,6.61,9.35h25.74a31,31,0,0,0,16-4.42,19,19,0,0,1,9.8-2.59h7v4.68a7,7,0,0,0,9.35,6.61v5.08a7,7,0,0,0,14,0v-.4a7,7,0,0,0,9.36-6.62v-2.74a7,7,0,0,0,9.35-6.61V153.73a31,31,0,0,0-4.42-16,19,19,0,0,1-2.59-9.8v-7H183a7,7,0,0,0,6.62-9.35h5.08a7,7,0,1,0,0-14h-.4a7,7,0,0,0-6.62-9.36h-2.74a7,7,0,0,0-6.61-9.36H152.59a31.16,31.16,0,0,0-16,4.43,19,19,0,0,1-9.8,2.59h-7V81.21a7,7,0,0,0-9.35-6.61V69.52a7,7,0,1,0-14,0"/></clipPath><linearGradient id="linear-gradient-2" x1="-649.28" y1="-819.41" x2="-648.33" y2="-819.41" gradientTransform="matrix(147.65, 0, 0, -147.65, 95926.91, -120851.23)" xlink:href="#linear-gradient"/></defs><title>ngo</title><g id="ONG"><g class="cls-2"><g class="cls-2"><path class="cls-3" d="M249.31,131.69A117.62,117.62,0,1,1,131.69,14.07,117.62,117.62,0,0,1,249.31,131.69"/><path class="cls-4" d="M249.31,131.69h1.91A119.55,119.55,0,0,1,131.69,251.22h0A119.53,119.53,0,0,1,12.17,131.69h0a119.53,119.53,0,0,1,239.05,0h-3.81A115.72,115.72,0,1,0,131.69,247.41,115.86,115.86,0,0,0,247.41,131.69Z"/></g><g class="cls-5"><rect class="cls-6" x="61.36" y="62.5" width="140.36" height="140.36"/></g></g></g></svg>