<svg id="Layer_1" data-name="Layer 1" xmlns="http://www.w3.org/2000/svg" xmlns:xlink="http://www.w3.org/1999/xlink" viewBox="0 0 263.86 263.86"><defs><style>.cls-1{fill:none;}.cls-2{clip-path:url(#clip-path);}.cls-3{fill:#fff;}.cls-4{fill:url(#linear-gradient);}.cls-5{clip-path:url(#clip-path-3);}.cls-6{fill:url(#linear-gradient-2);}</style><clipPath id="clip-path"><rect class="cls-1" x="11.93" y="11.93" width="240" height="240"/></clipPath><linearGradient id="linear-gradient" x1="-936.39" y1="-528.88" x2="-935.44" y2="-528.88" gradientTransform="matrix(252.46, 0, 0, -252.46, 236414.01, -133389.45)" gradientUnits="userSpaceOnUse"><stop offset="0" stop-color="#60c"/><stop offset="1" stop-color="#0cf"/></linearGradient><clipPath id="clip-path-3"><path class="cls-1" d="M121.34,186.23h4.17v-4.18h-4.17Zm8.35,0h4.18v-4.18h-4.18Zm8.36,0h4.17v-4.18h-4.17Zm36.76-39.69a14.71,14.71,0,0,0,5-5,14.71,14.71,0,0,0,5,5,14.73,14.73,0,0,0-5,5,14.65,14.65,0,0,0-5-5M177.73,134a10.45,10.45,0,0,1-10.44,10.44,2.09,2.09,0,0,0,0,4.18,10.45,10.45,0,0,1,10.44,10.44,2.09,2.09,0,0,0,4.18,0,10.45,10.45,0,0,1,10.44-10.44,2.09,2.09,0,0,0,0-4.18A10.45,10.45,0,0,1,181.91,134a2.09,2.09,0,0,0-4.18,0m-92.14-5.93a10.45,10.45,0,0,1,19,5.93H73.29a6.27,6.27,0,0,1,6.27-6.27,6.2,6.2,0,0,1,3.23.93,2,2,0,0,0,1.08.31,2.09,2.09,0,0,0,1.72-.9m-2.31-3.81A10.41,10.41,0,0,0,69.12,134a10.61,10.61,0,0,0,.36,2.62,2.1,2.1,0,0,0,2,1.56h35a2.09,2.09,0,0,0,2.06-1.75,15.06,15.06,0,0,0,.21-2.43,14.62,14.62,0,0,0-25.52-9.74M78.73,83.88a14.73,14.73,0,0,0,5-5,14.71,14.71,0,0,0,5,5,14.71,14.71,0,0,0-5,5,14.73,14.73,0,0,0-5-5m2.92-12.53A10.45,10.45,0,0,1,71.21,81.79a2.09,2.09,0,1,0,0,4.18A10.45,10.45,0,0,1,81.65,96.41a2.09,2.09,0,0,0,4.18,0A10.45,10.45,0,0,1,96.27,86a2.09,2.09,0,1,0,0-4.18A10.45,10.45,0,0,1,85.83,71.35a2.09,2.09,0,0,0-4.18,0M133.26,171l9-9,9,9a2.08,2.08,0,0,0,1.48.62,2.06,2.06,0,0,0,1.47-.62l8.52-8.51,22.89,27.93H78l22.89-27.93,8.51,8.51a2.09,2.09,0,0,0,3,0l9-9,9,9a2.08,2.08,0,0,0,3,0m-29.7-11.76L114,146.54h35.62L160,159.23l-7.33,7.33-9-9a2.08,2.08,0,0,0-2.95,0l-9,9-9-9a2.08,2.08,0,0,0-3,0l-9,9ZM131.78,128l3.59,14.36h-7.18ZM148,132.16,144.31,115V102.68h2.09a14.45,14.45,0,0,0,4.89-.86,22.43,22.43,0,0,1,4.83,6.25l.8,1.42a33.38,33.38,0,0,0,5.58,8A14.77,14.77,0,0,0,168,120.8c-1.14,1.31-2.21,2.8-3.27,4.27a33.16,33.16,0,0,1-3.3,4.17,11.34,11.34,0,0,1-8.52,3.39,31,31,0,0,1-4.87-.47M123.42,81.79a8.36,8.36,0,1,1,8.36,8.36,8.36,8.36,0,0,1-8.36-8.36m23,12.53a6.28,6.28,0,0,0,6.27-6.26V73.44h4.17V88.06A10.45,10.45,0,0,1,146.4,98.5h-4.18a2.1,2.1,0,0,0-2.09,2.09v14.62a2.12,2.12,0,0,0,.05.44l5.73,26.71h-6.23l-5.88-23.48a2.09,2.09,0,0,0-4.05,0l-5.87,23.48h-6.23l5.73-26.71a2.12,2.12,0,0,0,0-.44V100.59a2.09,2.09,0,0,0-2.08-2.09h-4.18a10.46,10.46,0,0,1-10.45-10.44V73.44h4.18V88.06a6.27,6.27,0,0,0,6.27,6.26Zm4.18-25.06a2.09,2.09,0,0,0-2.09,2.09V88.06a2.1,2.1,0,0,1-2.09,2.09h-5.31a12.53,12.53,0,1,0-18.63,0h-5.3a2.1,2.1,0,0,1-2.09-2.09V71.35A2.09,2.09,0,0,0,113,69.26h-8.35a2.08,2.08,0,0,0-2.09,2.09V88.06a14.63,14.63,0,0,0,14.62,14.62h2.09V115l-5.87,27.37H113a2.08,2.08,0,0,0-1.61.77L72.6,190.41H69.12v4.17H194.44v-4.17H191l-38.76-47.28a2.08,2.08,0,0,0-1.61-.77h-.4l-1.25-5.83a27.75,27.75,0,0,0,3.94.31,15.5,15.5,0,0,0,11.4-4.59,35.89,35.89,0,0,0,3.81-4.74c2-2.77,4.25-5.92,6.38-6.65h0a2.09,2.09,0,1,0-1.34-4h0c-2.82,1-5.92-.72-7.71-2.46a29.26,29.26,0,0,1-4.84-7l-.83-1.46a29.65,29.65,0,0,0-4.56-6.26A14.59,14.59,0,0,0,161,88.06V71.35a2.08,2.08,0,0,0-2.09-2.09Z"/></clipPath><linearGradient id="linear-gradient-2" x1="-932.96" y1="-531.72" x2="-932.01" y2="-531.72" gradientTransform="matrix(131.83, 0, 0, -131.83, 123063.03, -69965.66)" xlink:href="#linear-gradient"/></defs><title>personal</title><g id="Uso_Personal" data-name="Uso Personal"><g class="cls-2"><g class="cls-2"><path class="cls-3" d="M249.55,131.93A117.62,117.62,0,1,1,131.93,14.31,117.62,117.62,0,0,1,249.55,131.93"/><path class="cls-4" d="M249.55,131.93h1.91A119.53,119.53,0,0,1,131.93,251.45h0A119.52,119.52,0,1,1,251.46,131.93h-3.81A115.72,115.72,0,1,0,131.93,247.65,115.86,115.86,0,0,0,247.65,131.93Z"/></g><g class="cls-5"><rect class="cls-6" x="69.12" y="69.26" width="125.32" height="125.32"/></g></g></g></svg>