<svg id="Layer_1" data-name="Layer 1" xmlns="http://www.w3.org/2000/svg" xmlns:xlink="http://www.w3.org/1999/xlink" viewBox="0 0 266.39 266.39"><defs><style>.cls-1,.cls-5{fill:none;}.cls-2{clip-path:url(#clip-path);}.cls-3{fill:#fff;}.cls-4{fill:url(#linear-gradient);}.cls-5{stroke:#fff;stroke-miterlimit:10;stroke-width:7px;}.cls-6{clip-path:url(#clip-path-3);}.cls-7{fill:url(#linear-gradient-2);}</style><clipPath id="clip-path"><rect class="cls-1" width="266.39" height="266.39"/></clipPath><linearGradient id="linear-gradient" x1="-2349.66" y1="-1250.99" x2="-2348.66" y2="-1250.99" gradientTransform="matrix(252.46, 0, 0, -252.46, 593205.67, -315694.07)" gradientUnits="userSpaceOnUse"><stop offset="0" stop-color="#0c0"/><stop offset="1" stop-color="#00cce9"/></linearGradient><clipPath id="clip-path-3"><path class="cls-1" d="M127.4,132.46H132v-4.61H127.4Zm9.21,0h4.61v-4.61h-4.61Zm9.21,0h4.61v-4.61h-4.61ZM79,114h4.61v-4.61H79Zm9.21,0H129.7v-4.61H88.25ZM79,104.83h4.61v-4.61H79Zm9.21,0H129.7v-4.61H88.25ZM79,95.62h4.61V91H79Zm9.21,0H129.7V91H88.25Zm4.61,101.31h52l-2.66,2.67,2.92,1.94H92.86Zm56.58,1.95,4.24-4.25-4.25-4.25,3.46-2.3L166,194.63l-13.1,6.56Zm-84.21-4.25a6.91,6.91,0,0,1,6.91-6.91H79v13.82h-6.9a6.91,6.91,0,0,1-6.91-6.91m18.42-6.91h4.6v13.82h-4.6Zm9.21,0h52.27l-2.92,1.95,2.66,2.66h-52ZM136.61,167v-9.21a2.31,2.31,0,0,1,4.61,0V167a2.31,2.31,0,0,1-4.61,0M85.42,147.2a2.3,2.3,0,0,1-1.77-2.26V125.55a2.3,2.3,0,0,1,2.3-2.3H191.88a2.3,2.3,0,0,1,2.3,2.3v19.39a2.29,2.29,0,0,1-1.76,2.25l-46.6,11.18v-.58a6.91,6.91,0,1,0-13.81,0v.58Zm53.49-57.54,15.17,15.17H138.91Zm-46-17.07h78.29v46.05h-9.21V106.18L137.56,81.8H92.86ZM88.25,68V81.8H69.83V183.35a11.52,11.52,0,0,0,2.31,22.8h81.13l23-11.52-23-11.51H74.44V86.4h59.87v23h23v9.21H86A6.92,6.92,0,0,0,79,125.55v19.39a6.89,6.89,0,0,0,4.61,6.5v27.07h4.6v-25.9L132,163.11V167a6.91,6.91,0,1,0,13.81,0v-3.89l43.75-10.5v48.93H166.46v4.61h27.72V151.44a6.89,6.89,0,0,0,4.61-6.5V125.55a6.92,6.92,0,0,0-6.91-6.91H175.76V68Z"/></clipPath><linearGradient id="linear-gradient-2" x1="-2341.93" y1="-1255.94" x2="-2340.93" y2="-1255.94" gradientTransform="matrix(138.17, 0, 0, -138.17, 323655.94, -173401.93)" xlink:href="#linear-gradient"/></defs><title>Artboard 16</title><g id="Profesional"><g class="cls-2"><g class="cls-2"><path class="cls-3" d="M256.76,132.52A123.73,123.73,0,1,1,133,8.79,123.73,123.73,0,0,1,256.76,132.52"/><path class="cls-4" d="M256.76,132.52h2A125.73,125.73,0,1,1,133,6.79,125.73,125.73,0,0,1,258.76,132.52h-4A121.73,121.73,0,1,0,133,254.25,121.88,121.88,0,0,0,254.76,132.52Z"/><circle class="cls-5" cx="133.19" cy="133.19" r="129.69" transform="translate(-55.17 133.19) rotate(-45)"/></g><g class="cls-6"><rect class="cls-7" x="60.07" y="67.98" width="138.71" height="138.17"/></g></g></g></svg>