<svg id="Layer_1" data-name="Layer 1" xmlns="http://www.w3.org/2000/svg" xmlns:xlink="http://www.w3.org/1999/xlink" viewBox="0 0 266.39 266.39"><defs><style>.cls-1,.cls-5{fill:none;}.cls-2{clip-path:url(#clip-path);}.cls-3{fill:#fff;}.cls-4{fill:url(#linear-gradient);}.cls-5{stroke:#fff;stroke-miterlimit:10;stroke-width:7px;}.cls-6{clip-path:url(#clip-path-3);}.cls-7{fill:url(#linear-gradient-2);}</style><clipPath id="clip-path"><rect class="cls-1" x="13.19" y="13.19" width="240" height="240"/></clipPath><linearGradient id="linear-gradient" x1="-936.38" y1="46.13" x2="-935.48" y2="46.13" gradientTransform="matrix(252.46, 0, 0, -252.46, 236421.13, 11779.02)" gradientUnits="userSpaceOnUse"><stop offset="0" stop-color="#60c"/><stop offset="1" stop-color="#0cf"/></linearGradient><clipPath id="clip-path-3"><path class="cls-1" d="M177.44,187.37a1.7,1.7,0,0,0,0-3.4,1.7,1.7,0,0,0,0,3.4M85.1,184a1.71,1.71,0,0,0,0,3.41h20.81a1.71,1.71,0,0,0,0-3.41Zm64.81-2.58v4.74a1.7,1.7,0,1,0,3.4,0v-4.74a1.7,1.7,0,0,0-3.4,0m8.47,0v4.74a1.7,1.7,0,1,0,3.4,0v-4.74a1.7,1.7,0,0,0-3.4,0M85.1,176.74a1.7,1.7,0,0,0,0,3.4h20.81a1.7,1.7,0,0,0,0-3.4Zm92.34,2.42a1.7,1.7,0,0,0,0-3.4,1.7,1.7,0,0,0,0,3.4M85.1,169.53a1.7,1.7,0,0,0,0,3.4h20.81a1.7,1.7,0,0,0,0-3.4Zm64.81.74V175a1.7,1.7,0,1,0,3.4,0v-4.73a1.7,1.7,0,0,0-3.4,0m27.53.69a1.7,1.7,0,0,0,0-3.4,1.7,1.7,0,0,0,0,3.4m0-8.21a1.7,1.7,0,0,0,0-3.4,1.7,1.7,0,0,0,0,3.4m-19.06-3.59v15.51a1.7,1.7,0,1,0,3.4,0V159.16a1.7,1.7,0,0,0-3.4,0M88.67,156a1.7,1.7,0,0,0,0-3.4,1.7,1.7,0,0,0,0,3.4m6.84,0a1.7,1.7,0,0,0,0-3.4,1.7,1.7,0,0,0,0,3.4m6.83,0a1.7,1.7,0,0,0,0-3.4,1.7,1.7,0,0,0,0,3.4m75.1-1.45a1.7,1.7,0,0,0,0-3.4,1.7,1.7,0,0,0,0,3.4m-27.53-6.39v15.74a1.7,1.7,0,1,0,3.4,0V148.15a1.7,1.7,0,1,0-3.4,0m8.47-.1v4.73a1.7,1.7,0,1,0,3.4,0v-4.73a1.7,1.7,0,0,0-3.4,0m-69.71.37a1.7,1.7,0,0,0,0-3.4,1.7,1.7,0,0,0,0,3.4m6.84,0a1.7,1.7,0,0,0,0-3.4,1.7,1.7,0,0,0,0,3.4m6.83,0a1.7,1.7,0,0,0,0-3.4,1.7,1.7,0,0,0,0,3.4m75.1-2.08a1.71,1.71,0,0,0,0-3.41,1.71,1.71,0,0,0,0,3.41m-88.77-5.49a1.7,1.7,0,0,0,0-3.4,1.7,1.7,0,0,0,0,3.4m6.84,0a1.7,1.7,0,0,0,0-3.4,1.7,1.7,0,0,0,0,3.4m6.83,0a1.7,1.7,0,0,0,0-3.4,1.7,1.7,0,0,0,0,3.4m-13.67-7.57a1.71,1.71,0,0,0,0-3.41,1.71,1.71,0,0,0,0,3.41m6.84,0a1.71,1.71,0,0,0,0-3.41,1.71,1.71,0,0,0,0,3.41m6.83,0a1.71,1.71,0,0,0,0-3.41,1.71,1.71,0,0,0,0,3.41m-13.67-7.57a1.7,1.7,0,0,0,0-3.4,1.7,1.7,0,0,0,0,3.4m6.84,0a1.7,1.7,0,0,0,0-3.4,1.7,1.7,0,0,0,0,3.4m6.83,0a1.7,1.7,0,0,0,0-3.4,1.7,1.7,0,0,0,0,3.4M169,118.45v17.12a1.7,1.7,0,0,0,3.4,0V118.45a1.7,1.7,0,0,0-3.4,0m6.66,0v17.12a1.7,1.7,0,0,0,3.4,0V118.45a1.7,1.7,0,0,0-3.4,0m-87-.31a1.7,1.7,0,0,0,0-3.4,1.7,1.7,0,0,0,0,3.4m6.84,0a1.7,1.7,0,0,0,0-3.4,1.7,1.7,0,0,0,0,3.4m6.83,0a1.7,1.7,0,0,0,0-3.4,1.7,1.7,0,0,0,0,3.4m14-16V155a1.7,1.7,0,0,0,3.4,0V102.13a1.7,1.7,0,0,0-3.4,0m8.59,0V155a1.7,1.7,0,0,0,3.4,0V102.13a1.7,1.7,0,1,0-3.4,0m8.1,0V155a1.7,1.7,0,0,0,3.4,0V102.13a1.7,1.7,0,1,0-3.4,0m-30,7.28.25,0h4.7v51.4H83.08v-51.4h4.71l.24,0Zm52.69-5.13h30.11l1.29,3.63H154.38Zm-44.19-9.52h29.75V131a1.7,1.7,0,1,0,3.4,0v-7.91L167.06,142v50.95H144.63V139.65a1.7,1.7,0,1,0-3.4,0v53.27H115.68V162.49a1.7,1.7,0,0,0-1.7-1.7h-2.5Zm-21.75,3L101.28,92v14H89.73ZM167,90.34h6.6l6.26,10.54H161.45Zm-49.32-6.69h17.41v7.71H117.65Zm-1.7-3.4a1.7,1.7,0,0,0-1.7,1.7v9.41h-4.47a1.7,1.7,0,0,0-1.7,1.7V106h-3.4V89.22a1.73,1.73,0,0,0-2.46-1.53l-15,7.49a1.68,1.68,0,0,0-.94,1.52V106h-5a1.7,1.7,0,0,0-1.7,1.7v53.1H77a1.7,1.7,0,0,0-1.7,1.7v15.7a1.7,1.7,0,0,0,3.4,0v-14h33.55v28.73H78.73v-6.57a1.7,1.7,0,0,0-3.4,0v8.28a1.7,1.7,0,0,0,1.7,1.7H172.7a1.71,1.71,0,0,0,0-3.41h-2.24V141.18a1.7,1.7,0,0,0-.61-1.3l-4.26-3.58a1.63,1.63,0,0,0,.17-.73V118.45a1.7,1.7,0,0,0-3.4,0v15.13L158,129.89V111.42h25.51v81.5h-2.17a1.71,1.71,0,0,0,0,3.41h3.87a1.7,1.7,0,0,0,1.7-1.7V111.31h2.59a1.74,1.74,0,0,0,1.61-2.27l-2.5-7a1.69,1.69,0,0,0-1.6-1.13h-3.19L176,87.77a1.68,1.68,0,0,0-1.46-.83h-2.11V82a1.7,1.7,0,0,0-3.4,0v5h-3.08a1.69,1.69,0,0,0-1.5.91l-6.83,13h-3.15a1.7,1.7,0,0,0-1.6,1.13l-2.49,7a1.73,1.73,0,0,0,1.6,2.27h2.6V127l-9.94-8.35V93.06a1.7,1.7,0,0,0-1.7-1.7h-4.47V82a1.7,1.7,0,0,0-1.7-1.7Z"/></clipPath><linearGradient id="linear-gradient-2" x1="-932.8" y1="45.3" x2="-931.9" y2="45.3" gradientTransform="matrix(128.58, 0, 0, -128.58, 120013.06, 5962.66)" xlink:href="#linear-gradient"/></defs><title>realstate</title><g id="Bienes_Raíces" data-name="Bienes Raíces"><g class="cls-2"><g class="cls-2"><path class="cls-3" d="M244.81,132.74A111.48,111.48,0,1,1,133.34,21.27,111.48,111.48,0,0,1,244.81,132.74"/><path class="cls-4" d="M244.81,132.74h1.8A113.28,113.28,0,1,1,133.34,19.47,113.28,113.28,0,0,1,246.61,132.74H243A109.68,109.68,0,1,0,133.34,242.42,109.81,109.81,0,0,0,243,132.74Z"/><circle class="cls-5" cx="133.19" cy="133.19" r="116.85" transform="translate(-19.28 243.8) rotate(-80.96)"/></g><g class="cls-6"><rect class="cls-7" x="75.33" y="79.76" width="116.13" height="116.57"/></g></g></g></svg>