<svg id="Layer_1" data-name="Layer 1" xmlns="http://www.w3.org/2000/svg" xmlns:xlink="http://www.w3.org/1999/xlink" viewBox="0 0 266.39 266.39"><defs><style>.cls-1,.cls-5{fill:none;}.cls-2{clip-path:url(#clip-path);}.cls-3{fill:#fff;}.cls-4{fill:url(#linear-gradient);}.cls-5{stroke:#fff;stroke-miterlimit:10;stroke-width:7px;}.cls-6{clip-path:url(#clip-path-3);}.cls-7{fill:url(#linear-gradient-2);}</style><clipPath id="clip-path"><rect class="cls-1" x="13.19" y="13.19" width="240" height="240"/></clipPath><linearGradient id="linear-gradient" x1="-80.63" y1="-816.43" x2="-79.73" y2="-816.43" gradientTransform="matrix(252.46, 0, 0, -252.46, 20375.54, -205984.88)" gradientUnits="userSpaceOnUse"><stop offset="0" stop-color="#0cf"/><stop offset="1" stop-color="#f0f"/></linearGradient><clipPath id="clip-path-3"><path class="cls-1" d="M110,129.27a2,2,0,0,1,2-2h39.92a2,2,0,0,1,0,4H112a2,2,0,0,1-2-2m2-6a6,6,0,1,0,0,12h39.92a6,6,0,1,0,0-12Zm1.73-32.67a4.92,4.92,0,1,1,4.92,4.92,4.93,4.93,0,0,1-4.92-4.92m-4,0a8.92,8.92,0,1,0,8.91-8.92,8.91,8.91,0,0,0-8.91,8.92m30.07,0a4.93,4.93,0,1,1,4.92,4.92,4.93,4.93,0,0,1-4.92-4.92m-4,0a8.92,8.92,0,1,0,8.91-8.92,8.92,8.92,0,0,0-8.91,8.92m1.59,107.45V177h12v21a6,6,0,0,1-12,0M85.48,166.53v-5.46h12v5.46a6,6,0,0,1-12,0m36.27-5.46h19.81a6,6,0,0,1-5.65,4h-8.52a6,6,0,0,1-5.64-4m14.16,8a10,10,0,0,0,9.78-8h7.79a.67.67,0,0,1,.66.67v10.64a.67.67,0,0,1-.66.67H109.83a.67.67,0,0,1-.67-.67V161.74a.67.67,0,0,1,.67-.67h7.78a10,10,0,0,0,9.78,8Zm29.94-2.52v-5.46h12v5.46a6,6,0,0,1-12,0M115,153.09h33.26v4H115Zm-29.54-2.67h12v6.66h-12Zm80.37,0h12v6.66h-12ZM85.48,129.27a6,6,0,1,1,12,0v17.16h-12Zm40.36-18.9h12v4.13h-12ZM105.7,95.07v-8A11.33,11.33,0,0,1,117,75.77h29.28A11.32,11.32,0,0,1,157.6,87.08v8a11.32,11.32,0,0,1-11.31,11.31H117A11.33,11.33,0,0,1,105.7,95.07M117,71.78a15.33,15.33,0,0,0-15.3,15.3v8a15.33,15.33,0,0,0,15.3,15.3h4.84v4.13h-7.28a2,2,0,0,0,0,4h45a2.26,2.26,0,0,1,2.26,2.26v26.08a2.26,2.26,0,0,1-2.26,2.26H103.71a2.27,2.27,0,0,1-2.27-2.26V120.75a2.27,2.27,0,0,1,2.27-2.26h2.39a2,2,0,1,0,0-4h-2.39a6.26,6.26,0,0,0-6.26,6.25v.54a10,10,0,0,0-16,8v37.26a10,10,0,0,0,20,0V152.66a6.15,6.15,0,0,0,2.27.43H111v4h-1.2a4.66,4.66,0,0,0-4.66,4.66v10.64a4.66,4.66,0,0,0,4.66,4.66H110v5.39a2,2,0,0,0,4,0V177h12v21a6,6,0,0,1-12,0V191a2,2,0,1,0-4,0v7.05a10,10,0,1,0,20,0V177h3.46v21a10,10,0,1,0,20,0V177h.14a4.66,4.66,0,0,0,4.65-4.66V161.74a4.66,4.66,0,0,0-4.65-4.66h-1.2v-4h7.32a6.1,6.1,0,0,0,2.26-.43v13.87a10,10,0,0,0,20,0V139.91a2,2,0,0,0-4,0v6.52h-12V129.27a6,6,0,0,1,12,0v2.06a2,2,0,1,0,4,0v-2.06a10,10,0,0,0-16-8v-.54a6.26,6.26,0,0,0-6.25-6.25H141.81v-4.13h4.48a15.32,15.32,0,0,0,15.3-15.3v-8a15.32,15.32,0,0,0-15.3-15.3Z"/></clipPath><linearGradient id="linear-gradient-2" x1="-80.22" y1="-821.84" x2="-79.32" y2="-821.84" gradientTransform="matrix(111.37, 0, 0, -111.37, 9015.44, -91384.61)" xlink:href="#linear-gradient"/></defs><title>tech</title><g id="Tecnología"><g class="cls-2"><g class="cls-2"><path class="cls-3" d="M244.81,132.74A111.48,111.48,0,1,1,133.34,21.27,111.48,111.48,0,0,1,244.81,132.74"/><path class="cls-4" d="M244.81,132.74h1.8A113.28,113.28,0,1,1,133.34,19.47,113.28,113.28,0,0,1,246.61,132.74H243A109.68,109.68,0,1,0,133.34,242.42,109.81,109.81,0,0,0,243,132.74Z"/><path class="cls-5" d="M250,133.19A116.85,116.85,0,1,1,133.19,16.35,116.84,116.84,0,0,1,250,133.19Z"/></g><g class="cls-6"><rect class="cls-7" x="81.48" y="71.78" width="100.34" height="136.26"/></g></g></g></svg>