<svg xmlns="http://www.w3.org/2000/svg" xmlns:xlink="http://www.w3.org/1999/xlink" viewBox="0 0 379.88 221.58"><defs><style>.cls-1,.cls-2,.cls-3,.cls-4,.cls-5,.cls-6{opacity:0.15;}.cls-1{fill:url(#linear-gradient);}.cls-2{fill:url(#linear-gradient-2);}.cls-3{fill:url(#linear-gradient-3);}.cls-4{fill:url(#linear-gradient-4);}.cls-5{fill:url(#linear-gradient-5);}.cls-6{fill:url(#linear-gradient-6);}.cls-7{fill:#fff;}.cls-8{fill:url(#linear-gradient-7);}.cls-9{fill:url(#linear-gradient-8);}.cls-10{fill:url(#linear-gradient-9);}.cls-11{fill:url(#linear-gradient-10);}.cls-12{fill:url(#linear-gradient-11);}.cls-13{fill:url(#linear-gradient-12);}.cls-14{fill:url(#linear-gradient-13);}.cls-15{fill:url(#linear-gradient-14);}.cls-16{fill:url(#linear-gradient-15);}.cls-17{fill:url(#linear-gradient-16);}.cls-18{fill:url(#linear-gradient-17);}.cls-19{fill:url(#linear-gradient-18);}.cls-20{fill:none;}</style><linearGradient id="linear-gradient" x1="65.87" y1="110.79" x2="370.46" y2="110.79" gradientUnits="userSpaceOnUse"><stop offset="0" stop-color="#b7d435"/><stop offset="1" stop-color="#25aa4a"/></linearGradient><linearGradient id="linear-gradient-2" x1="162.53" y1="113.51" x2="379.88" y2="113.51" xlink:href="#linear-gradient"/><linearGradient id="linear-gradient-3" x1="162.53" y1="98.29" x2="379.88" y2="98.29" xlink:href="#linear-gradient"/><linearGradient id="linear-gradient-4" x1="28.99" y1="89.21" x2="333.58" y2="89.21" xlink:href="#linear-gradient"/><linearGradient id="linear-gradient-5" x1="0" y1="135.31" x2="288.3" y2="135.31" xlink:href="#linear-gradient"/><linearGradient id="linear-gradient-6" x1="0" y1="110.79" x2="379.88" y2="110.79" xlink:href="#linear-gradient"/><linearGradient id="linear-gradient-7" x1="181.62" y1="80.03" x2="234.44" y2="110" gradientUnits="userSpaceOnUse"><stop offset="0" stop-color="#d53183"/><stop offset="1" stop-color="#761f83"/></linearGradient><linearGradient id="linear-gradient-8" x1="-1613.28" y1="548.43" x2="-1688.24" y2="548.43" gradientTransform="translate(573.21 -1570.61) rotate(-60)" xlink:href="#linear-gradient-7"/><linearGradient id="linear-gradient-9" x1="-333.05" y1="-3246.25" x2="-373.05" y2="-3246.25" gradientTransform="matrix(-0.5, 0.87, -0.87, -0.5, -2811.14, -1213.86)" gradientUnits="userSpaceOnUse"><stop offset="0" stop-color="#761f83"/><stop offset="0.03" stop-color="#802183"/><stop offset="0.18" stop-color="#a52883"/><stop offset="0.31" stop-color="#bf2d83"/><stop offset="0.43" stop-color="#cf3083"/><stop offset="0.52" stop-color="#d53183"/><stop offset="0.61" stop-color="#cf3083"/><stop offset="0.72" stop-color="#be2d83"/><stop offset="0.85" stop-color="#a22783"/><stop offset="0.99" stop-color="#7b2083"/><stop offset="1" stop-color="#761f83"/></linearGradient><linearGradient id="linear-gradient-10" x1="-296.14" y1="-3252.1" x2="-316.92" y2="-3252.1" gradientTransform="matrix(-0.5, 0.87, -0.87, -0.5, -2811.14, -1213.86)" xlink:href="#linear-gradient-7"/><linearGradient id="linear-gradient-11" x1="-2832.3" y1="-1639.29" x2="-2782.33" y2="-1639.86" gradientTransform="translate(-1420.16 -2660.62) rotate(-150)" xlink:href="#linear-gradient-7"/><linearGradient id="linear-gradient-12" x1="-2849.61" y1="-1644.51" x2="-2774.23" y2="-1645.38" gradientTransform="translate(-1420.16 -2660.62) rotate(-150)" xlink:href="#linear-gradient-7"/><linearGradient id="linear-gradient-13" x1="-1670.5" y1="527.57" x2="-1670.07" y2="474.86" gradientTransform="translate(573.21 -1570.61) rotate(-60)" xlink:href="#linear-gradient-7"/><linearGradient id="linear-gradient-14" x1="166.09" y1="46.03" x2="218.91" y2="76.01" xlink:href="#linear-gradient-7"/><linearGradient id="linear-gradient-15" x1="-1627.57" y1="523.88" x2="-1667.57" y2="523.88" gradientTransform="translate(573.21 -1570.61) rotate(-60)" xlink:href="#linear-gradient-9"/><linearGradient id="linear-gradient-16" x1="-1590.63" y1="517.99" x2="-1611.41" y2="517.99" gradientTransform="translate(573.21 -1570.61) rotate(-60)" xlink:href="#linear-gradient-7"/><linearGradient id="linear-gradient-17" x1="-1682.29" y1="469.16" x2="-1606.9" y2="468.29" gradientTransform="translate(573.21 -1570.61) rotate(-60)" xlink:href="#linear-gradient-7"/><linearGradient id="linear-gradient-18" x1="-1682.35" y1="463.96" x2="-1606.96" y2="463.09" gradientTransform="translate(573.21 -1570.61) rotate(-60)" xlink:href="#linear-gradient-7"/></defs><title>beslides_card</title><g id="Layer_2" data-name="Layer 2"><g id="Layer_3" data-name="Layer 3"><path class="cls-1" d="M370.46,114.65A152,152,0,0,1,326.6,221.58H109.72A151.78,151.78,0,0,1,66.28,126c-.27-3.74-.41-7.53-.41-11.34A151.88,151.88,0,0,1,117.91,0h200.5c2.12,1.85,4.19,3.77,6.2,5.74q4.47,4.35,8.56,9.07A151.68,151.68,0,0,1,370.46,114.65Z"/><path class="cls-2" d="M379.88,20V221.58H176.53a151.19,151.19,0,0,1-12.74-44.14,154.39,154.39,0,0,1-1.26-19.71A152.3,152.3,0,0,1,314.83,5.43q4.94,0,9.78.31,3.88.24,7.71.68A151.14,151.14,0,0,1,379.88,20Z"/><path class="cls-3" d="M379.88,0V182a150.66,150.66,0,0,1-30.95,10.73,152.65,152.65,0,0,1-34.1,3.83,153.33,153.33,0,0,1-26.69-2.33,151.49,151.49,0,0,1-58.46-23.68A152.72,152.72,0,0,1,173.45,101a151.58,151.58,0,0,1-10.76-49.65q-.16-3.51-.16-7.07A152.34,152.34,0,0,1,169.07,0Z"/><path class="cls-4" d="M333.58,26.13a152,152,0,0,1-56.29,118.23,151.78,151.78,0,0,1-96,34.07,155.45,155.45,0,0,1-17.49-1A152.08,152.08,0,0,1,66.28,126,152.42,152.42,0,0,1,40,83.1a151.94,151.94,0,0,1-11-57A153.06,153.06,0,0,1,31.22,0H331.34c.37,2.12.7,4.27,1,6.42.35,2.77.64,5.57.85,8.39Q333.58,20.42,333.58,26.13Z"/><path class="cls-5" d="M288.3,201.32A152.19,152.19,0,0,1,287,221.58H0V132.73A152.55,152.55,0,0,1,162.69,51.36a150.54,150.54,0,0,1,34,10.24,152.15,152.15,0,0,1,91.44,132.65C288.25,196.6,288.3,199,288.3,201.32Z"/><rect class="cls-6" width="379.88" height="221.58"/><path class="cls-7" d="M202.74,185.79a14.69,14.69,0,0,1-7.31-2l-45.15-26.07a14.66,14.66,0,0,1-5.36-20l3.62-6.26-13.67-7.89a14.63,14.63,0,0,1-5.35-20l34.93-60.51a14.64,14.64,0,0,1,20-5.36L229.6,63.82a14.66,14.66,0,0,1,5.36,20l-3.62,6.26L245,98a14.63,14.63,0,0,1,5.35,20l-34.93,60.51a14.69,14.69,0,0,1-12.69,7.32Z"/><path class="cls-7" d="M243.54,100.5l-16.2-9.35,5.08-8.8a11.7,11.7,0,0,0-4.28-16L183,40.29a11.7,11.7,0,0,0-16,4.28l-34.94,60.52a11.71,11.71,0,0,0,4.29,16l16.2,9.35-5.08,8.8a11.7,11.7,0,0,0,4.28,16l45.16,26.07a11.7,11.7,0,0,0,16-4.28l34.94-60.52A11.71,11.71,0,0,0,243.54,100.5Z"/><path class="cls-8" d="M230.62,116.51a6.08,6.08,0,0,0-2.3-7.78L191.09,87.25a11.71,11.71,0,0,0-16,4.28l7.44-12.84a11.71,11.71,0,0,1,16-4.28L229.07,92l1.66,1A11.7,11.7,0,0,1,235,109l-1.56,2.71h0Z"/><path class="cls-9" d="M230.66,93l12.84,7.44a11.72,11.72,0,0,1,4.29,16l-26.55,46-1,1.66a11.7,11.7,0,0,1-16,4.28l-2.71-1.56,8.74-15.15,24.46-42.36A11.79,11.79,0,0,0,230.66,93Z"/><path class="cls-10" d="M172.8,125.13,185,104l8.74-15.14L191,87.31a11.7,11.7,0,0,0-16,4.28l-1,1.66L160,117.71Z"/><path class="cls-11" d="M165.38,138l-4.84,8.39a11.78,11.78,0,0,0,4.11,16.29l-12.84-7.44a11.72,11.72,0,0,1-4.29-16l5-8.67Z"/><path class="cls-12" d="M184.44,157l19.93,11.49a11.7,11.7,0,0,0,16-4.28L212.92,177a11.71,11.71,0,0,1-16,4.29l-6.84-3.93h0A15.1,15.1,0,0,1,184.44,157Z"/><path class="cls-13" d="M181.75,172.55a15.1,15.1,0,0,1-1.05-16.7q.23-.39.48-.78h0l-3.81-2.2L161.93,144l-1.57,2.72a11.71,11.71,0,0,0,4.29,16l1.66,1,15.44,8.91Z"/><path class="cls-14" d="M204.8,130.09l-7.44,12.84a11.71,11.71,0,0,1-16,4.28l-30.54-17.63-1.66-1a11.7,11.7,0,0,1-4.28-16l1.57-2.72h0l42.36,24.46A11.7,11.7,0,0,0,204.8,130.09Z"/><path class="cls-15" d="M215.09,82.52a6.07,6.07,0,0,0-2.31-7.78L175.55,53.25a11.71,11.71,0,0,0-16,4.29L167,44.7a11.72,11.72,0,0,1,16-4.29L213.54,58l1.66,1a11.7,11.7,0,0,1,4.28,16l-1.56,2.72h0Z"/><path class="cls-16" d="M219.88,104l-14.12,24.46-1,1.66a11.7,11.7,0,0,1-16,4.28l-2.72-1.57,8.74-15.14L207,96.55Z"/><path class="cls-17" d="M227.29,91.08l5-8.67a11.71,11.71,0,0,0-4.28-16L215.17,59a11.78,11.78,0,0,1,4.11,16.29l-4.85,8.4Z"/><path class="cls-18" d="M165.24,77.36l-20.37,35.27a11.72,11.72,0,0,0,4.29,16l-12.85-7.44a11.72,11.72,0,0,1-4.28-16L144.84,83h0a15.1,15.1,0,0,1,20.4-5.66Z"/><path class="cls-19" d="M149.66,74.66a15.11,15.11,0,0,1,16.69-1.06q.41.23.78.48h0l2.2-3.81,8.91-15.44-2.71-1.56a11.71,11.71,0,0,0-16,4.28l-1,1.66-8.91,15.45Z"/><rect class="cls-20" width="379.88" height="221.58"/></g></g></svg>