<svg xmlns="http://www.w3.org/2000/svg" viewBox="0 0 610.64 580.06"><defs><style>.cls-1,.cls-4{fill:none;stroke:#fff;stroke-miterlimit:10;stroke-width:2px;}.cls-1,.cls-2{opacity:0.1;}.cls-3{isolation:isolate;}</style></defs><title>station_pattern</title><g id="Layer_2" data-name="Layer 2"><g id="Layer_1-2" data-name="Layer 1"><path class="cls-1" d="M121,579.06a10.7,10.7,0,0,1-5.84-1.74l-.7-.39c-25.59-14.63-26.18-15-26.4-15.12a13.1,13.1,0,0,1-6.3-11c0-.62-.05-62.52-.09-94.66a21,21,0,0,1-5.11.66l-.89,0c-11.08.44-58.67,2.32-61.14,2.32-6.71,0-9.77-3.76-11.09-6.42a13.63,13.63,0,0,1-2.13-10.74c.47-1.91.47-1.91,17.23-29.16,2.68-4.34,16.08-26.11,17.16-27.67l.16-.24c1.58-2.35,6.17-9.14,17.14-10.11l3.27-1.83.23-.11a22.08,22.08,0,0,1,9.41-2,26.07,26.07,0,0,1,6.13.73l24.09-13.85V339.5c-3.09-1.76-6.06-3.46-6.79-3.93a13.19,13.19,0,0,1-6-10.47c0-.22,0-.33-.1-88.39,0-21.46,0-38.51,0-39a11.1,11.1,0,0,1,6-9.91l2-1.19,1.09-.63a10.77,10.77,0,0,1,5.24-1.36,11.26,11.26,0,0,1,5.6,1.51c.25.14,26.28,15,27.4,15.68a13.11,13.11,0,0,1,6.31,11c0,.63.07,70.67.1,104l15.77-9.09,5.49-3.17a25,25,0,0,1,12.5-3.16c.4,0,.81,0,1.22,0-10.78-24.2-27.13-69.55-27.13-122,0-87.21,45.68-110.2,53-113.3,4.06-2.29,30.56-17.17,41.59-23.87,9.24-5.61,27-11.61,49-11.61,25.16,0,50,7.6,73.83,22.6a342.9,342.9,0,0,1,83.08,73.61,11.66,11.66,0,0,1-.13-1.78c0-2.18-.05-51-.05-52.16a12.86,12.86,0,0,1,6.42-11.11c.9-.52,101.29-58.21,103-59.23A11.23,11.23,0,0,1,560.23,1a10.71,10.71,0,0,1,5.34,1.43l.25.14A46,46,0,0,1,569.91,5a11,11,0,0,1,4.65,9.09c0,.25.05,51.53.05,52.21a13.2,13.2,0,0,1-6.43,11.12l-.62.36a51.65,51.65,0,0,1,9.87,4.32c14,7.78,33.92,31.92,32.09,59-1.09,15.23-8.08,21.37-11,23.3-.74.49-6.64,3.93-15.08,8.84a11.7,11.7,0,0,1,1.78,6.38s.05,50.68.05,51.57a12.93,12.93,0,0,1-6.63,11.63l-59.38,34.13a272.11,272.11,0,0,1,7.3,61.31c0,22.73-4.19,78.65-43,106.77-26.77,19.39-47.33,28.84-51.6,30.72-4.06,2.46-20.9,11.56-47.16,11.56-24.64,0-50.25-7.8-76.13-23.19-47.07-28-76.42-62.48-91.18-83.17a25.73,25.73,0,0,1-8.88,9.59l-35.71,20.56a23.38,23.38,0,0,1-12.7,3.45,33.49,33.49,0,0,1-15.69-4.2l-23,13.22c3.11,1.77,6.61,3.78,7.66,4.42a12.11,12.11,0,0,1,6.21,11.36c0,7.65.12,126.25.12,126.77a10.81,10.81,0,0,1-5.44,9.49l-.36.21c-.91.53-2.89,1.67-3.39,1.94A11,11,0,0,1,121,579.06Z"/><g class="cls-2"><g class="cls-3"><path class="cls-4" d="M504.07,230l.05-34a1.34,1.34,0,0,1,.78-1.09,4.18,4.18,0,0,1,3.79,0,1.33,1.33,0,0,1,.79,1.1l-.05,34a1.35,1.35,0,0,0-.79-1.11,4.18,4.18,0,0,0-3.79,0A1.32,1.32,0,0,0,504.07,230Z"/><path class="cls-4" d="M504.86,231.09a1.16,1.16,0,0,1,0-2.19,4.18,4.18,0,0,1,3.79,0c1.05.61,1.06,1.6,0,2.2A4.17,4.17,0,0,1,504.86,231.09Z"/></g></g><g class="cls-2"><g class="cls-3"><path class="cls-4" d="M571.22,176.38l3.54,2a1,1,0,0,0-1,.1l-3.53-2A1,1,0,0,1,571.22,176.38Z"/><path class="cls-4" d="M469.74,293.34l-3.54-2a1,1,0,0,1-.42-.92l3.54,2A1,1,0,0,0,469.74,293.34Z"/><polygon class="cls-4" points="470.68 237.76 467.14 235.73 570.23 176.47 573.76 178.5 470.68 237.76"/><polygon class="cls-4" points="469.32 292.43 465.78 290.4 465.73 238.18 469.27 240.21 469.32 292.43"/><path class="cls-4" d="M469.27,240.21a3.1,3.1,0,0,1,1.41-2.45L573.76,178.5c.79-.45,1.42-.08,1.42.82l.05,52.22a3.13,3.13,0,0,1-1.41,2.45L470.73,293.25c-.77.45-1.41.07-1.41-.83Z"/><path class="cls-4" d="M469.27,240.21l-3.54-2a3.14,3.14,0,0,1,1.41-2.45l3.54,2A3.1,3.1,0,0,0,469.27,240.21Z"/></g><line class="cls-4" x1="575.2" y1="205.23" x2="469.36" y2="266.48"/><line class="cls-4" x1="575.36" y1="189.54" x2="469.52" y2="250.78"/><line class="cls-4" x1="575.49" y1="221.1" x2="469.65" y2="282.35"/><line class="cls-4" x1="522.28" y1="263.81" x2="522.22" y2="208.32"/><line class="cls-4" x1="495.06" y1="279.37" x2="495.01" y2="223.88"/><line class="cls-4" x1="554.38" y1="245.04" x2="554.33" y2="189.55"/></g><g class="cls-2"><path class="cls-4" d="M451.3,156l35.33-20.31c-4,2.32-6.53,7.31-6.52,14.41,0,14.12,9.9,31.21,22.1,38.19,6.05,3.47,11.53,3.78,15.51,1.49l-35.33,20.32c-4,2.29-9.47,2-15.52-1.5-12.19-7-22.08-24.07-22.09-38.19C444.77,163.34,447.26,158.35,451.3,156Z"/></g><g class="cls-2"><path class="cls-4" d="M447,148.58,551.6,88.2c5.08-2.92,12.07-2.52,19.79,1.9,15.55,8.9,28.17,30.71,28.18,48.71,0,9.06-3.17,15.43-8.32,18.39L486.67,217.58c5.15-3,8.33-9.33,8.33-18.39,0-18-12.64-39.81-28.19-48.71C459.09,146.06,452.1,145.66,447,148.58Z"/></g><g class="cls-2"><path class="cls-4" d="M438.69,167c0-18,12.57-25.38,28.12-16.48S495,181.19,495,199.19s-12.57,25.38-28.12,16.49S438.71,185,438.69,167Zm50.22,28.75c0-14.12-9.9-31.21-22.09-38.19s-22.06-1.19-22,12.92,9.9,31.22,22.09,38.19,22.06,1.19,22-12.92"/></g><g class="cls-2"><path class="cls-4" d="M412.45,194.35c0-11.23,7.84-15.84,17.54-10.29s17.57,19.16,17.58,30.38-7.85,15.84-17.55,10.29S412.46,205.57,412.45,194.35Z"/><path class="cls-4" d="M417.64,182.87,453,162.56c3.16-1.82,7.52-1.57,12.34,1.19,9.7,5.55,17.57,19.15,17.58,30.38,0,5.65-2,9.62-5.19,11.47l-35.34,20.31c3.21-1.84,5.2-5.82,5.2-11.47,0-11.22-7.89-24.83-17.58-30.38C425.17,181.3,420.81,181.05,417.64,182.87Z"/></g><g class="cls-2"><path class="cls-4" d="M383.35,195.34,418.69,175c-4,2.32-6.53,7.32-6.53,14.42,0,14.12,9.9,31.21,22.1,38.19,6.05,3.46,11.53,3.78,15.52,1.49l-35.34,20.31c-4,2.29-9.46,2-15.52-1.49-12.19-7-22.08-24.07-22.09-38.19C376.82,202.66,379.32,197.66,383.35,195.34Z"/></g><g class="cls-2"><path class="cls-4" d="M379.07,187.89l35.34-20.31c5.08-2.92,12.07-2.52,19.79,1.9,15.55,8.9,28.17,30.71,28.18,48.71,0,9.06-3.17,15.43-8.32,18.39l-35.34,20.31c5.15-3,8.34-9.33,8.33-18.39,0-18-12.63-39.8-28.18-48.7C391.14,185.38,384.15,185,379.07,187.89Z"/></g><g class="cls-2"><path class="cls-4" d="M370.75,206.28c0-18,12.57-25.38,28.12-16.48s28.16,30.71,28.18,48.7S414.48,263.89,398.93,255,370.76,224.28,370.75,206.28ZM421,235c0-14.11-9.91-31.21-22.1-38.18s-22.06-1.19-22,12.92S386.73,241,398.92,248,421,249.14,421,235"/></g><g class="cls-2"><path class="cls-4" d="M314.66,242.4l70.67-40.63c3.17-1.82,7.53-1.57,12.35,1.19,9.7,5.55,17.56,19.15,17.57,30.38,0,5.65-2,9.62-5.19,11.47l-70.67,40.62c3.21-1.84,5.2-5.82,5.19-11.47,0-11.23-7.88-24.83-17.57-30.38C322.19,240.83,317.83,240.57,314.66,242.4Z"/><path class="cls-4" d="M309.47,253.86c0-11.22,7.84-15.83,17.54-10.28s17.56,19.15,17.57,30.38-7.84,15.84-17.53,10.29S309.48,265.09,309.47,253.86Z"/></g><g class="cls-2"><path class="cls-4" d="M171.84,194.83l42.43-24.33c2.52,88.25,62.8,192.66,137.73,238.57L309.57,433.4C234.64,387.5,174.36,283.09,171.84,194.83Z"/><polygon class="cls-4" points="171.84 183.53 214.27 159.19 340.02 231.33 297.6 255.66 171.84 183.53"/><polygon class="cls-4" points="319.33 293.31 361.76 268.98 361.76 414.66 319.33 439 319.33 293.31"/><path class="cls-4" d="M457.28,421.7,414.86,446c-24.71,14.17-58.31,12.85-95.53-7l42.43-24.34C399,434.56,432.58,435.88,457.28,421.7Z"/><path class="cls-4" d="M214.05,95.93l42.43-24.34c-25,14.36-41,44.64-42.21,87.6l-42.43,24.34C173.11,140.56,189,110.29,214.05,95.93Z"/><path class="cls-4" d="M302.11,249.46l42.43-24.33a10,10,0,0,1,7.46-.81l-42.43,24.34A10,10,0,0,0,302.11,249.46Z"/><path class="cls-4" d="M369.23,268.17,326.8,292.51a10.07,10.07,0,0,0,4.51-6.21L373.74,262A10.11,10.11,0,0,1,369.23,268.17Z"/><path class="cls-4" d="M319.33,254.25l42.43-24.33a41.18,41.18,0,0,1,12,20.74L331.31,275A41.1,41.1,0,0,0,319.33,254.25Z"/><polygon class="cls-4" points="319.33 108.57 361.76 84.23 361.76 229.92 319.33 254.25 319.33 108.57"/><polygon class="cls-4" points="331.31 275 373.74 250.66 499.5 322.8 457.07 347.13 331.31 275"/><path class="cls-4" d="M154.81,179.42c0-102.15,71.47-143.95,159.65-93.38S474.1,260.41,474.1,362.55s-71.48,143.94-159.64,93.37S154.81,281.55,154.81,179.42Zm302.26,179L331.31,286.3c-1.66,5.73-6.21,8.39-12,7V439c74.94,40.06,135.22,4.8,137.74-80.57M297.6,267,171.84,194.83c2.52,88.26,62.8,192.67,137.73,238.57V287.71a41.14,41.14,0,0,1-12-20.75m159.47,80.17c-2.52-88.25-62.8-192.66-137.74-238.56V254.25a41.1,41.1,0,0,1,12,20.75l125.76,72.13M171.84,183.53,297.6,255.66c1.67-5.72,6.21-8.38,12-7V103c-74.93-40.06-135.21-4.8-137.73,80.56"/><path class="cls-4" d="M202.13,75.14,244.55,50.8c28.85-16.54,68.53-14.22,112.33,10.91,88.17,50.57,159.64,174.36,159.64,276.51,0,51.39-18.1,87.51-47.31,104.27l-42.43,24.33C456,450.07,474.1,414,474.1,362.55c0-102.14-71.48-225.94-159.64-276.51C270.65,60.92,231,58.59,202.13,75.14Z"/></g><g class="cls-2"><g class="cls-3"><path class="cls-4" d="M105.76,456.68l.09-48.91a1.35,1.35,0,0,1,.79-1.09,4.18,4.18,0,0,1,3.79,0,1.35,1.35,0,0,1,.79,1.11l-.09,48.91a1.37,1.37,0,0,0-.79-1.11,4.2,4.2,0,0,0-3.8,0A1.32,1.32,0,0,0,105.76,456.68Z"/><path class="cls-4" d="M106.56,457.78a1.16,1.16,0,0,1,0-2.19,4.2,4.2,0,0,1,3.8,0,1.17,1.17,0,0,1,0,2.2A4.15,4.15,0,0,1,106.56,457.78Z"/></g></g><g class="cls-2"><g class="cls-3"><path class="cls-4" d="M125,566.9l-3.53,2a1,1,0,0,0,.41-.93l3.54-2A1,1,0,0,1,125,566.9Z"/><path class="cls-4" d="M92.09,422.81l3.53-2a1,1,0,0,1,1,.1l-3.54,2A1,1,0,0,0,92.09,422.81Z"/><polygon class="cls-4" points="93.09 422.91 96.63 420.88 123.89 436.48 120.36 438.51 93.09 422.91"/><polygon class="cls-4" points="121.77 440.96 125.31 438.93 125.43 565.97 121.89 568 121.77 440.96"/><path class="cls-4" d="M91.67,423.73c0-.91.64-1.27,1.42-.82l27.27,15.6a3.11,3.11,0,0,1,1.41,2.45l.12,127c0,.91-.63,1.28-1.41.83l-27.26-15.6a3.13,3.13,0,0,1-1.43-2.45Z"/><path class="cls-4" d="M120.36,438.51l3.53-2a3.15,3.15,0,0,1,1.42,2.44l-3.54,2A3.11,3.11,0,0,0,120.36,438.51Z"/></g><line class="cls-4" x1="97.96" y1="556.23" x2="97.83" y2="425.85"/><line class="cls-4" x1="106.85" y1="561.06" x2="106.72" y2="430.68"/><line class="cls-4" x1="116.25" y1="566.61" x2="116.12" y2="436.23"/><line class="cls-4" x1="120.98" y1="533.29" x2="90.89" y2="516.06"/><line class="cls-4" x1="121.88" y1="554.4" x2="91.78" y2="537.17"/><line class="cls-4" x1="121.84" y1="509.05" x2="91.74" y2="491.82"/><line class="cls-4" x1="121.81" y1="482.25" x2="91.71" y2="465.02"/><line class="cls-4" x1="121.31" y1="456.92" x2="91.21" y2="439.69"/></g><g class="cls-2"><path class="cls-4" d="M251.36,287.88c0-11.23,7.83-15.84,17.53-10.29s17.57,19.16,17.58,30.39-7.84,15.83-17.54,10.28S251.37,299.11,251.36,287.88Z"/><path class="cls-4" d="M256.55,276.41l35.33-20.32c3.17-1.82,7.53-1.57,12.35,1.19,9.69,5.55,17.57,19.16,17.58,30.38,0,5.65-2,9.63-5.19,11.47l-35.34,20.32c3.21-1.85,5.2-5.82,5.19-11.47,0-11.23-7.88-24.84-17.58-30.39C264.07,274.84,259.71,274.59,256.55,276.41Z"/></g><g class="cls-2"><path class="cls-4" d="M214.72,292.64l35.33-20.31c4-2.33,9.63-2,15.78,1.51,12.4,7.1,22.46,24.48,22.47,38.83,0,7.22-2.53,12.3-6.63,14.66l-35.34,20.31c4.11-2.36,6.64-7.43,6.64-14.65,0-14.36-10.08-31.74-22.47-38.84C224.34,290.63,218.77,290.31,214.72,292.64Z"/></g><g class="cls-2"><path class="cls-4" d="M208.08,307.3c0-14.35,10-20.24,22.42-13.15S253,318.63,253,333s-10,20.23-22.42,13.13S208.1,321.65,208.08,307.3Z"/></g><g class="cls-2"><path class="cls-4" d="M174.23,332.51c0-11.23,7.84-15.84,17.54-10.29s17.57,19.15,17.58,30.38-7.85,15.84-17.54,10.29S174.24,343.73,174.23,332.51Z"/><path class="cls-4" d="M179.42,321l35.34-20.31c3.17-1.82,7.53-1.57,12.34,1.19,9.7,5.55,17.57,19.15,17.58,30.38,0,5.65-2,9.62-5.19,11.47l-35.33,20.31c3.21-1.84,5.19-5.82,5.19-11.47,0-11.23-7.89-24.83-17.58-30.38C187,319.46,182.59,319.21,179.42,321Z"/></g><g class="cls-2"><path class="cls-4" d="M132.15,341l35.34-20.32c-4,2.32-6.53,7.32-6.53,14.42,0,14.12,9.9,31.21,22.1,38.19,6.05,3.46,11.53,3.78,15.52,1.49l-35.34,20.31c-4,2.29-9.46,2-15.52-1.49-12.19-7-22.08-24.07-22.09-38.19C125.62,348.33,128.12,343.34,132.15,341Z"/></g><g class="cls-2"><path class="cls-4" d="M127.87,333.57l35.33-20.32c5.08-2.92,12.08-2.51,19.8,1.91,15.55,8.9,28.17,30.7,28.18,48.7,0,9.06-3.17,15.43-8.32,18.39l-35.34,20.32c5.15-3,8.34-9.34,8.33-18.4,0-18-12.64-39.8-28.18-48.7C139.94,331.05,133,330.65,127.87,333.57Z"/></g><g class="cls-2"><path class="cls-4" d="M119.55,352c0-18,12.57-25.38,28.12-16.48s28.16,30.71,28.18,48.7-12.57,25.39-28.12,16.49S119.56,370,119.55,352Zm50.22,28.74c0-14.11-9.91-31.21-22.1-38.18s-22.06-1.19-22,12.92,9.9,31.21,22.09,38.19,22.06,1.19,22.05-12.93"/></g><g class="cls-2"><path class="cls-4" d="M63.46,388.07l70.67-40.63c3.17-1.82,7.53-1.57,12.35,1.19,9.7,5.55,17.56,19.15,17.57,30.38,0,5.65-2,9.63-5.19,11.47L88.19,431.11c3.21-1.85,5.2-5.82,5.19-11.48,0-11.22-7.88-24.83-17.57-30.38C71,386.5,66.63,386.25,63.46,388.07Z"/><path class="cls-4" d="M58.26,399.54c0-11.23,7.85-15.84,17.55-10.29s17.56,19.16,17.57,30.38-7.84,15.84-17.54,10.29S58.27,410.76,58.26,399.54Z"/></g><g class="cls-2"><path class="cls-4" d="M53.59,385.91l6.35-3.62c4.05-2.33,9.63-2,15.79,1.52,12.39,7.09,22.45,24.47,22.46,38.83,0,7.22-2.53,12.29-6.63,14.65l-6.35,3.62c4.1-2.36,6.64-7.44,6.63-14.65,0-14.36-10.07-31.74-22.46-38.83C63.22,383.9,57.65,383.58,53.59,385.91Z"/><path class="cls-4" d="M47,400.57c0-14.36,10-20.24,22.42-13.14s22.45,24.47,22.46,38.83-10,20.22-22.41,13.13S47,414.91,47,400.57Z"/></g><g class="cls-2"><ellipse class="cls-4" cx="65.53" cy="415.68" rx="19.72" ry="34.04" transform="translate(-200.3 89.46) rotate(-30.22)"/><path class="cls-4" d="M14.54,449.09a2.1,2.1,0,0,1-1.16-.35A5.25,5.25,0,0,1,11,444.6l30.34-43.32c-.26,15.18,10.34,33.94,23.68,41.9,4.27,2.54,8.3,3.67,11.81,3.53Z"/><path class="cls-4" d="M44.12,390.5a21.19,21.19,0,0,0-2.75,10.78L11,444.6a2.08,2.08,0,0,1,.28-1.07Q27.72,417,44.12,390.5Z"/><ellipse class="cls-4" cx="13.42" cy="446.02" rx="1.95" ry="3.37" transform="translate(-222.65 67.36) rotate(-30.22)"/><path class="cls-4" d="M76.86,446.71l-62.32,2.38c.74,0,1.25-.62,1.27-1.64a5.25,5.25,0,0,0-2.34-4.15c-.94-.55-1.76-.42-2.16.23h0q16.41-26.5,32.81-53c4.12-6.65,12.42-8,21.88-2.32,13.34,7.95,24,26.71,23.68,41.9C89.51,440.41,84.34,446.43,76.86,446.71Z"/></g><g class="cls-2"><g class="cls-3"><path class="cls-4" d="M106.16,368.93l.09-48.91a1.33,1.33,0,0,1,.78-1.09,4.17,4.17,0,0,1,3.8,0,1.35,1.35,0,0,1,.79,1.1l-.1,48.91a1.35,1.35,0,0,0-.79-1.11,4.18,4.18,0,0,0-3.79,0A1.33,1.33,0,0,0,106.16,368.93Z"/><path class="cls-4" d="M107,370c-1.06-.61-1.07-1.59,0-2.2a4.18,4.18,0,0,1,3.79,0c1,.61,1.06,1.6,0,2.2A4.18,4.18,0,0,1,107,370Z"/></g></g><g class="cls-2"><g class="cls-3"><path class="cls-4" d="M126.56,340.82l-3.53,2a1,1,0,0,0,.41-.92l3.54-2A1,1,0,0,1,126.56,340.82Z"/><path class="cls-4" d="M93.64,196.73l3.54-2a1,1,0,0,1,1,.1l-3.54,2A1,1,0,0,0,93.64,196.73Z"/><polygon class="cls-4" points="94.64 196.83 98.18 194.8 125.44 210.4 121.91 212.43 94.64 196.83"/><polygon class="cls-4" points="123.32 214.88 126.86 212.85 126.98 339.9 123.44 341.93 123.32 214.88"/><path class="cls-4" d="M93.22,197.65c0-.9.64-1.27,1.42-.82l27.27,15.6a3.11,3.11,0,0,1,1.41,2.45l.12,127.05c0,.9-.62,1.27-1.41.83L94.77,327.15a3.1,3.1,0,0,1-1.42-2.45Z"/><path class="cls-4" d="M121.91,212.43l3.53-2a3.1,3.1,0,0,1,1.42,2.45l-3.54,2A3.11,3.11,0,0,0,121.91,212.43Z"/></g><line class="cls-4" x1="99.51" y1="330.15" x2="99.38" y2="199.77"/><line class="cls-4" x1="108.4" y1="334.98" x2="108.27" y2="204.6"/><line class="cls-4" x1="117.8" y1="340.54" x2="117.67" y2="210.15"/><line class="cls-4" x1="122.54" y1="307.21" x2="92.44" y2="289.98"/><line class="cls-4" x1="123.43" y1="328.32" x2="93.33" y2="311.1"/><line class="cls-4" x1="123.39" y1="282.97" x2="93.29" y2="265.75"/><line class="cls-4" x1="123.36" y1="256.17" x2="93.27" y2="238.95"/><line class="cls-4" x1="122.86" y1="230.84" x2="92.76" y2="213.62"/></g><g class="cls-2"><g class="cls-3"><path class="cls-4" d="M503.45,127.47l.05-34a1.32,1.32,0,0,1,.78-1.09,4.17,4.17,0,0,1,3.8,0,1.37,1.37,0,0,1,.79,1.11l-.06,34a1.33,1.33,0,0,0-.79-1.1,4.15,4.15,0,0,0-3.79,0A1.33,1.33,0,0,0,503.45,127.47Z"/><path class="cls-4" d="M504.25,128.58c-1.06-.61-1.07-1.59,0-2.2a4.15,4.15,0,0,1,3.79,0,1.16,1.16,0,0,1,0,2.19A4.18,4.18,0,0,1,504.25,128.58Z"/></g></g><g class="cls-2"><g class="cls-3"><path class="cls-4" d="M560.6,11.11l3.54,2a1,1,0,0,0-1,.1l-3.54-2A1,1,0,0,1,560.6,11.11Z"/><path class="cls-4" d="M459.12,128.08l-3.53-2a1,1,0,0,1-.43-.92l3.54,2A1,1,0,0,0,459.12,128.08Z"/><polygon class="cls-4" points="460.06 72.49 456.52 70.46 559.61 11.21 563.15 13.23 460.06 72.49"/><polygon class="cls-4" points="458.7 127.16 455.16 125.13 455.11 72.91 458.65 74.94 458.7 127.16"/><path class="cls-4" d="M458.65,74.94a3.12,3.12,0,0,1,1.41-2.45L563.15,13.23c.78-.45,1.41-.08,1.41.83l.05,52.21a3.13,3.13,0,0,1-1.41,2.45L460.12,128c-.78.45-1.42.07-1.42-.82Z"/><path class="cls-4" d="M458.65,74.94l-3.54-2a3.15,3.15,0,0,1,1.41-2.45l3.54,2A3.12,3.12,0,0,0,458.65,74.94Z"/></g><line class="cls-4" x1="564.58" y1="39.97" x2="458.74" y2="101.21"/><line class="cls-4" x1="564.74" y1="24.27" x2="458.9" y2="85.51"/><line class="cls-4" x1="564.87" y1="55.83" x2="459.03" y2="117.08"/><line class="cls-4" x1="511.66" y1="98.55" x2="511.61" y2="43.05"/><line class="cls-4" x1="484.44" y1="114.1" x2="484.39" y2="58.61"/><line class="cls-4" x1="543.77" y1="79.77" x2="543.71" y2="24.28"/></g></g></g></svg>