<svg id="Layer_1" data-name="Layer 1" xmlns="http://www.w3.org/2000/svg" viewBox="0 0 540 300"><defs><style>.cls-1{fill:#6bd1c7;}.cls-2{fill:none;stroke:#333;stroke-linecap:round;stroke-miterlimit:10;stroke-width:5px;}.cls-3{fill:#71b836;}.cls-4{fill:#68a032;}</style></defs><title>black</title><rect class="cls-1" x="369.43" y="117.42" width="36.07" height="14.33"/><rect class="cls-1" x="333.53" y="116.5" width="35.9" height="15.49"/><line class="cls-2" x1="135.5" y1="284.49" x2="458.3" y2="284.49"/><line class="cls-2" x1="148.12" y1="295.9" x2="416.21" y2="295.9"/><rect class="cls-2" x="236.72" y="92.24" width="183.28" height="191.76"/><polygon class="cls-2" points="420 92.24 211.5 92.24 211.79 43 420 43 420 92.24"/><rect class="cls-2" x="261" y="243" width="145" height="40.9"/><rect class="cls-2" x="332.5" y="116.57" width="73.83" height="24.61"/><line class="cls-2" x1="369.41" y1="116.57" x2="369.41" y2="141.18"/><rect class="cls-1" x="295.43" y="117.42" width="36.07" height="14.33"/><rect class="cls-1" x="259.53" y="116.5" width="35.9" height="15.49"/><rect class="cls-2" x="258.5" y="116.57" width="73.83" height="24.61"/><line class="cls-2" x1="295.41" y1="116.57" x2="295.41" y2="141.18"/><rect class="cls-1" x="369.43" y="160.42" width="36.07" height="14.33"/><rect class="cls-1" x="333.53" y="159.5" width="35.9" height="15.49"/><rect class="cls-2" x="332.5" y="159.57" width="73.83" height="24.61"/><line class="cls-2" x1="369.41" y1="159.57" x2="369.41" y2="184.18"/><rect class="cls-1" x="295.43" y="160.42" width="36.07" height="14.33"/><rect class="cls-1" x="259.53" y="159.5" width="35.9" height="15.49"/><rect class="cls-2" x="258.5" y="159.57" width="73.83" height="24.61"/><line class="cls-2" x1="295.41" y1="159.57" x2="295.41" y2="184.18"/><rect class="cls-1" x="369.43" y="202.42" width="36.07" height="14.33"/><rect class="cls-1" x="333.53" y="201.5" width="35.9" height="15.49"/><rect class="cls-2" x="332.5" y="201.57" width="73.83" height="24.61"/><line class="cls-2" x1="369.41" y1="201.57" x2="369.41" y2="226.18"/><rect class="cls-1" x="295.43" y="202.42" width="36.07" height="14.33"/><rect class="cls-1" x="259.53" y="201.5" width="35.9" height="15.49"/><rect class="cls-2" x="258.5" y="201.57" width="73.83" height="24.61"/><line class="cls-2" x1="295.41" y1="201.57" x2="295.41" y2="226.18"/><rect class="cls-2" x="249.75" y="100.91" width="156.57" height="15.01"/><path class="cls-3" d="M160.23,236a21.06,21.06,0,0,1-21,21,20.81,20.81,0,0,1-7.14-1.25,21,21,0,0,1-28.39-6,21.5,21.5,0,0,1-4,.36A21,21,0,0,1,95.3,208.5a21,21,0,0,1,34.43-6.72h.68A21.06,21.06,0,0,1,151,218.58,21,21,0,0,1,160.23,236Z"/><line class="cls-2" x1="120.75" y1="238.92" x2="120.75" y2="284.04"/><line class="cls-2" x1="131.72" y1="229.58" x2="121.06" y2="239.61"/><line class="cls-2" x1="105.4" y1="232.72" x2="121.06" y2="239.61"/><line class="cls-2" x1="425" y1="296" x2="449" y2="296"/><path class="cls-4" d="M131.21,232.34a12.71,12.71,0,0,0,6.62,11.15,12.68,12.68,0,0,0,22.45-.33,12.93,12.93,0,0,0,3.2.42A12.7,12.7,0,0,0,176,233a12.68,12.68,0,1,0-16.67-18.61A12.66,12.66,0,0,0,141,220,12.69,12.69,0,0,0,131.21,232.34Z"/><line class="cls-2" x1="156.69" y1="282.17" x2="156.69" y2="239"/><line class="cls-2" x1="164.86" y1="226.37" x2="156.79" y2="238.35"/><line class="cls-2" x1="145.86" y1="227.42" x2="156.79" y2="238.35"/><path class="cls-3" d="M229.5,225a15.48,15.48,0,0,0-15-15.47A15.43,15.43,0,0,0,197,214.15a15.45,15.45,0,0,0-25.88,13.41,16.25,16.25,0,0,0-.58,3,15.48,15.48,0,0,0,14.74,26.32,15.48,15.48,0,0,0,26.26-1.4l.43,0a15.49,15.49,0,0,0,14.4-21.22A15.43,15.43,0,0,0,229.5,225Z"/><line class="cls-2" x1="200.5" y1="252" x2="200.5" y2="281.5"/></svg>