<svg xmlns="http://www.w3.org/2000/svg" xmlns:xlink="http://www.w3.org/1999/xlink" viewBox="0 0 800 800"><defs><style>.cls-1,.cls-7{fill:#fff;}.cls-1{opacity:0.25;}.cls-2{fill:url(#linear-gradient);}.cls-3,.cls-6{fill:none;stroke-miterlimit:10;}.cls-3{stroke:#663694;stroke-width:11px;}.cls-4{fill:#663694;}.cls-5{fill:url(#linear-gradient-2);}.cls-6{stroke:#fff;stroke-width:2px;}</style><linearGradient id="linear-gradient" x1="582.51" y1="558.69" x2="344.74" y2="269.83" gradientUnits="userSpaceOnUse"><stop offset="0" stop-color="#5050a1"/><stop offset="1" stop-color="#57308c"/></linearGradient><linearGradient id="linear-gradient-2" x1="674.67" y1="212.33" x2="744.68" y2="212.33" gradientUnits="userSpaceOnUse"><stop offset="0" stop-color="#f79954"/><stop offset="1" stop-color="#f48049"/></linearGradient></defs><title>content</title><g id="Layer_6" data-name="Layer 6"><circle class="cls-1" cx="466.63" cy="417.91" r="243.05"/><circle class="cls-1" cx="466.63" cy="417.91" r="227.73"/><circle class="cls-1" cx="466.63" cy="417.91" r="211.37"/><circle class="cls-2" cx="466.63" cy="417.91" r="194.86"/><circle class="cls-3" cx="549.86" cy="334.15" r="45.61" transform="translate(-75.23 486.68) rotate(-45)"/><path class="cls-3" d="M573.25,254.8c21.73-19,42.61-36.38,62-51.7,118.64-93.45,139.06-73,45.61,45.61s-265.38,290.56-384,384-139.06,73-45.61-45.6c15.45-19.62,33-40.69,52.2-62.63"/><circle class="cls-4" cx="388.44" cy="357.68" r="70.21" transform="translate(-139.14 379.43) rotate(-45)"/><circle class="cls-4" cx="530.05" cy="516.43" r="45.61" transform="translate(-209.92 526.06) rotate(-45)"/><circle class="cls-4" cx="370.08" cy="501.19" r="29.25" transform="translate(-246 408.48) rotate(-45)"/><circle class="cls-5" cx="709.68" cy="212.33" r="35"/><line class="cls-6" x1="694.36" y1="180.85" x2="642.1" y2="128.59"/><line class="cls-6" x1="642.1" y1="128.59" x2="572.4" y2="128.59"/><line class="cls-6" x1="340.2" y1="334.15" x2="287.94" y2="281.9"/><line class="cls-6" x1="287.94" y1="281.9" x2="218.24" y2="281.9"/><line class="cls-6" x1="229.35" y1="608.88" x2="177.09" y2="556.63"/><line class="cls-6" x1="177.09" y1="556.63" x2="107.39" y2="556.63"/><rect class="cls-7" x="512.94" y="108.63" width="117.77" height="12.54"/><rect class="cls-7" x="164.69" y="262.33" width="117.77" height="12.54"/><rect class="cls-7" x="55.32" y="537.39" width="117.77" height="12.54"/></g></svg>