<svg xmlns="http://www.w3.org/2000/svg" xmlns:xlink="http://www.w3.org/1999/xlink" viewBox="0 0 800 800"><defs><style>.cls-1{fill:#fff;opacity:0.25;}.cls-2{fill:url(#linear-gradient);}.cls-3{fill:url(#linear-gradient-3);}.cls-4{isolation:isolate;}.cls-5{fill:#f05b42;}.cls-6{fill:url(#linear-gradient-4);}.cls-7{fill:url(#linear-gradient-5);}.cls-8{fill:url(#linear-gradient-6);}.cls-9{fill:url(#linear-gradient-7);}.cls-10{fill:url(#linear-gradient-8);}.cls-11{fill:url(#linear-gradient-9);}.cls-12{fill:url(#linear-gradient-10);}.cls-13{fill:url(#linear-gradient-12);}.cls-14{fill:url(#linear-gradient-13);}.cls-15{fill:url(#linear-gradient-14);}</style><linearGradient id="linear-gradient" x1="113.87" y1="651.98" x2="339.87" y2="452.91" gradientUnits="userSpaceOnUse"><stop offset="0.09" stop-color="#3effff" stop-opacity="0"/><stop offset="1" stop-color="#3effff"/></linearGradient><linearGradient id="linear-gradient-3" x1="185.93" y1="611.45" x2="343.74" y2="449.53" gradientUnits="userSpaceOnUse"><stop offset="0" stop-color="#fff" stop-opacity="0"/><stop offset="0.97" stop-color="#fff" stop-opacity="0.97"/><stop offset="1" stop-color="#fff"/></linearGradient><linearGradient id="linear-gradient-4" x1="325.62" y1="321.41" x2="377.11" y2="321.41" gradientTransform="translate(385.31 -194.96) rotate(45)" gradientUnits="userSpaceOnUse"><stop offset="0" stop-color="#f79954"/><stop offset="1" stop-color="#f48049"/></linearGradient><linearGradient id="linear-gradient-5" x1="358.53" y1="358.67" x2="377.11" y2="358.67" xlink:href="#linear-gradient-4"/><linearGradient id="linear-gradient-6" x1="-9280.6" y1="-3170.61" x2="-9003.92" y2="-2764.94" gradientTransform="translate(-9275.76 -75.27) rotate(165.05)" gradientUnits="userSpaceOnUse"><stop offset="0" stop-color="#f05b42"/><stop offset="1" stop-color="#ee3943"/></linearGradient><linearGradient id="linear-gradient-7" x1="-9334.64" y1="-3193.48" x2="-9057.96" y2="-2787.81" xlink:href="#linear-gradient-6"/><linearGradient id="linear-gradient-8" x1="-9286.16" y1="-3108.16" x2="-9009.49" y2="-2702.49" xlink:href="#linear-gradient-6"/><linearGradient id="linear-gradient-9" x1="353.75" y1="237.85" x2="506.8" y2="237.85" gradientTransform="translate(385.31 -194.96) rotate(45)" gradientUnits="userSpaceOnUse"><stop offset="0" stop-color="#f27446"/><stop offset="1" stop-color="#f16343"/></linearGradient><linearGradient id="linear-gradient-10" x1="354.94" y1="238.47" x2="505.43" y2="238.47" xlink:href="#linear-gradient-4"/><linearGradient id="linear-gradient-12" x1="-9657.64" y1="-3182.64" x2="-9124.92" y2="-2401.57" xlink:href="#linear-gradient-6"/><linearGradient id="linear-gradient-13" x1="475.2" y1="404.75" x2="526.52" y2="404.75" xlink:href="#linear-gradient-4"/><linearGradient id="linear-gradient-14" x1="508.19" y1="469.93" x2="537.4" y2="469.93" xlink:href="#linear-gradient-4"/></defs><title>focus</title><g id="Layer_6" data-name="Layer 6"><circle class="cls-1" cx="400" cy="400" r="243.05"/><circle class="cls-1" cx="400" cy="400" r="227.73"/><circle class="cls-1" cx="400" cy="400" r="211.37"/><polygon class="cls-2" points="408.1 505.6 357.43 455.16 339.25 475.03 317.6 453.47 342.51 432.86 291.83 382.43 135.34 604.25 248.74 510.43 117.54 665.84 256.88 565.07 193.84 633.98 408.1 505.6"/><polygon class="cls-2" points="408.1 505.6 357.43 455.16 339.25 475.03 317.6 453.47 342.51 432.86 291.83 382.43 135.34 604.25 248.74 510.43 117.54 665.84 256.88 565.07 193.84 633.98 408.1 505.6"/><polygon class="cls-3" points="266.98 492.91 186.72 548.76 293.18 397.87 327.65 432.18 302.74 452.79 339.59 489.47 357.77 469.6 391.94 503.62 247.44 590.21 270.51 551.86 177.9 609.85 266.98 492.91"/><g class="cls-4"><polygon class="cls-5" points="412.07 285.67 380.4 270.44 324.52 310.34 323.63 329.65 349.08 339.32 350.98 346.41 412.07 285.67"/><polygon class="cls-6" points="412.07 285.67 432.57 291.1 400.9 275.87 380.4 270.44 412.07 285.67"/><polygon class="cls-7" points="350.98 346.41 371.48 351.84 432.57 291.1 412.07 285.67 350.98 346.41"/></g><ellipse class="cls-5" cx="329.72" cy="469.03" rx="20.72" ry="35.76" transform="translate(-235.36 372.13) rotate(-45.16)"/><path class="cls-5" d="M372.43,421.29a2.26,2.26,0,0,1,1.28,0,5.51,5.51,0,0,1,3.5,3.57l-19.06,52.2c-3.85-15.49-19.7-31.66-35.4-36.12-5-1.42-9.41-1.48-12.94-.39Z"/><path class="cls-5" d="M358.27,488.78a22,22,0,0,0-.12-11.68l19.06-52.2a2.17,2.17,0,0,1,0,1.16Z"/><ellipse class="cls-5" cx="374.4" cy="424.1" rx="2.05" ry="3.54" transform="translate(-190.32 390.56) rotate(-45.16)"/><path class="cls-8" d="M309.81,440.59l62.62-19.3c-.75.23-1.1,1-.84,2a5.5,5.5,0,0,0,3.5,3.58c1.1.31,1.89-.05,2.13-.82h0l-19,62.72c-2.37,7.88-10.44,11.45-21.58,8.29C321,492.61,305.15,476.44,301.3,461,298.68,450.42,302.29,442.91,309.81,440.59Z"/><ellipse class="cls-5" cx="387.84" cy="477.18" rx="20.72" ry="35.76" transform="translate(-224 415.74) rotate(-45.16)"/><path class="cls-5" d="M430.54,429.44a2.35,2.35,0,0,1,1.28,0,5.5,5.5,0,0,1,3.5,3.58l-19.06,52.2c-3.85-15.49-19.7-31.66-35.39-36.12-5-1.43-9.42-1.48-12.95-.39Z"/><path class="cls-5" d="M416.39,496.94a22.15,22.15,0,0,0-.13-11.68l19.06-52.2a2.14,2.14,0,0,1,0,1.15Q425.87,465.58,416.39,496.94Z"/><ellipse class="cls-5" cx="432.51" cy="432.26" rx="2.05" ry="3.54" transform="translate(-178.97 434.17) rotate(-45.16)"/><path class="cls-9" d="M367.92,448.75l62.62-19.31c-.75.23-1.1,1-.84,2a5.49,5.49,0,0,0,3.5,3.57c1.1.31,1.9,0,2.13-.82h0q-9.46,31.37-18.94,62.73c-2.38,7.87-10.45,11.45-21.58,8.29-15.7-4.46-31.55-20.63-35.4-36.12C356.79,458.57,360.4,451.06,367.92,448.75Z"/><ellipse class="cls-5" cx="318.99" cy="407.25" rx="20.72" ry="35.76" transform="translate(-194.72 346.3) rotate(-45.16)"/><path class="cls-5" d="M361.7,359.51a2.35,2.35,0,0,1,1.28,0,5.5,5.5,0,0,1,3.5,3.58l-19.06,52.2c-3.85-15.49-19.7-31.66-35.4-36.12-5-1.43-9.41-1.48-12.94-.39Z"/><path class="cls-5" d="M347.54,427a22,22,0,0,0-.12-11.68l19.06-52.2a2.24,2.24,0,0,1,0,1.15Q357,395.65,347.54,427Z"/><ellipse class="cls-5" cx="363.67" cy="362.33" rx="2.05" ry="3.54" transform="translate(-149.68 364.73) rotate(-45.16)"/><path class="cls-10" d="M299.08,378.82l62.62-19.31c-.75.23-1.1,1-.85,2a5.51,5.51,0,0,0,3.5,3.57c1.11.31,1.9,0,2.14-.82h0Q357,395.65,347.54,427c-2.37,7.87-10.44,11.45-21.58,8.29-15.69-4.46-31.54-20.63-35.39-36.12C288,388.64,291.56,381.13,299.08,378.82Z"/><g class="cls-4"><path class="cls-5" d="M575.33,331.74,438.39,468.43c-8,7.95-21.19,10.67-37.73,6.29-33.31-8.83-67.57-43.08-76.53-76.53-4.51-16.82-1.76-30.23,6.34-38.28L467.41,223.22c-8.1,8.05-10.85,21.46-6.35,38.28,9,33.45,43.23,67.7,76.53,76.52C554.14,342.41,567.33,339.69,575.33,331.74Z"/><path class="cls-11" d="M581.67,293.45c9,33.45-10.78,53.4-44.08,44.57S470,295,461.06,261.5s10.78-53.39,44.09-44.57S572.71,260,581.67,293.45Z"/></g><g class="cls-4"><path class="cls-12" d="M535.35,265.5a3.38,3.38,0,0,0-2.13-2.18c-1-.27-1.52.27-1.29,1.21a3.34,3.34,0,0,0,2.13,2.17c.94.27,1.52-.27,1.29-1.2l45.33,29.34c8.1,32.59-12.11,51.4-45.14,42s-66.37-43.41-74.47-76,12.11-51.41,45.14-42,66.37,43.41,74.47,76Z"/><path class="cls-12" d="M580.68,294.84c-8.55-12.83-23.83-23.24-45.33-29.34a3.38,3.38,0,0,0-2.13-2.18c-1-.27-1.52.27-1.29,1.21a3.34,3.34,0,0,0,2.13,2.17c.94.27,1.52-.27,1.29-1.2,21.5,6.1,36.78,16.51,45.33,29.34,8.1,32.59-12.11,51.4-45.14,42s-66.37-43.41-74.47-76,12.11-51.41,45.14-42S572.58,262.25,580.68,294.84Z"/></g><ellipse class="cls-5" cx="531.58" cy="267.14" rx="39.88" ry="68.86" transform="translate(-32.67 455.73) rotate(-45.16)"/><path class="cls-5" d="M613.8,175.22a4.47,4.47,0,0,1,2.47.08,10.63,10.63,0,0,1,6.74,6.88l-36.7,100.5c-7.41-29.82-37.92-61-68.15-69.54-9.66-2.74-18.12-2.85-24.92-.75Z"/><path class="cls-5" d="M586.55,305.18c1.88-6.22,1.92-13.83-.24-22.5L623,182.18a4.18,4.18,0,0,1,0,2.22Z"/><ellipse class="cls-5" cx="617.6" cy="180.64" rx="3.94" ry="6.81" transform="translate(54.04 491.21) rotate(-45.16)"/><path class="cls-13" d="M493.24,212.39,613.8,175.22c-1.43.45-2.12,1.88-1.62,3.88a10.63,10.63,0,0,0,6.74,6.88c2.12.6,3.66-.08,4.11-1.58h0L586.55,305.18c-4.57,15.16-20.11,22-41.54,16-30.23-8.59-60.74-39.72-68.15-69.54C471.81,231.3,478.76,216.85,493.24,212.39Z"/><g class="cls-4"><polygon class="cls-5" points="448.96 413.42 437.07 471.96 387.81 536.61 379.14 526.81 389.79 481.24 387.89 474.15 448.96 413.42"/><polygon class="cls-14" points="448.96 413.42 469.46 418.85 457.57 477.39 437.07 471.96 448.96 413.42"/><polygon class="cls-15" points="437.07 471.96 457.57 477.39 408.31 542.04 387.81 536.61 437.07 471.96"/></g></g></svg>