<svg xmlns="http://www.w3.org/2000/svg" xmlns:xlink="http://www.w3.org/1999/xlink" viewBox="0 0 800 800"><defs><style>.cls-1{fill:#fff;opacity:0.25;}.cls-2{fill:url(#linear-gradient);}.cls-3{fill:none;stroke:#663694;stroke-miterlimit:10;stroke-width:11px;}.cls-4{fill:#663694;}.cls-5{isolation:isolate;}.cls-6{fill:#f05b42;}.cls-7{fill:url(#linear-gradient-2);}.cls-8{fill:url(#linear-gradient-3);}.cls-9{fill:url(#linear-gradient-4);}.cls-10{fill:url(#linear-gradient-5);}.cls-11{fill:url(#linear-gradient-6);}.cls-12{fill:url(#linear-gradient-7);}.cls-13{fill:url(#linear-gradient-8);}.cls-14{fill:url(#linear-gradient-10);}.cls-15{fill:url(#linear-gradient-11);}.cls-16{fill:url(#linear-gradient-12);}</style><linearGradient id="linear-gradient" x1="515.88" y1="582.25" x2="278.11" y2="293.38" gradientUnits="userSpaceOnUse"><stop offset="0" stop-color="#5050a1"/><stop offset="1" stop-color="#57308c"/></linearGradient><linearGradient id="linear-gradient-2" x1="343.13" y1="234.53" x2="370.5" y2="234.53" gradientUnits="userSpaceOnUse"><stop offset="0" stop-color="#f79954"/><stop offset="1" stop-color="#f48049"/></linearGradient><linearGradient id="linear-gradient-3" x1="360.63" y1="254.33" x2="370.5" y2="254.33" xlink:href="#linear-gradient-2"/><linearGradient id="linear-gradient-4" x1="-6888.88" y1="-1557.86" x2="-6741.86" y2="-1342.29" gradientTransform="matrix(-0.5, 0.87, -0.87, -0.5, -4285.41, 5496.54)" gradientUnits="userSpaceOnUse"><stop offset="0" stop-color="#f05b42"/><stop offset="1" stop-color="#ee3943"/></linearGradient><linearGradient id="linear-gradient-5" x1="-6917.6" y1="-1570.01" x2="-6770.58" y2="-1354.44" xlink:href="#linear-gradient-4"/><linearGradient id="linear-gradient-6" x1="-6891.84" y1="-1524.67" x2="-6744.82" y2="-1309.1" xlink:href="#linear-gradient-4"/><linearGradient id="linear-gradient-7" x1="358.08" y1="190.12" x2="439.41" y2="190.12" gradientUnits="userSpaceOnUse"><stop offset="0" stop-color="#f27446"/><stop offset="1" stop-color="#f16343"/></linearGradient><linearGradient id="linear-gradient-8" x1="358.71" y1="190.45" x2="438.68" y2="190.45" xlink:href="#linear-gradient-2"/><linearGradient id="linear-gradient-10" x1="-7089.23" y1="-1564.25" x2="-6806.16" y2="-1149.2" xlink:href="#linear-gradient-4"/><linearGradient id="linear-gradient-11" x1="422.62" y1="278.81" x2="449.89" y2="278.81" xlink:href="#linear-gradient-2"/><linearGradient id="linear-gradient-12" x1="440.15" y1="313.44" x2="455.67" y2="313.44" xlink:href="#linear-gradient-2"/></defs><title>landing</title><g id="Layer_6" data-name="Layer 6"><circle class="cls-1" cx="400" cy="441.47" r="243.05"/><circle class="cls-1" cx="400" cy="441.47" r="227.73"/><circle class="cls-1" cx="400" cy="441.47" r="211.37"/><circle class="cls-2" cx="400" cy="441.47" r="194.86"/><circle class="cls-3" cx="483.23" cy="357.71" r="45.61" transform="translate(-111.4 446.47) rotate(-45)"/><circle class="cls-4" cx="321.81" cy="381.23" r="70.21" transform="translate(-175.31 339.22) rotate(-45)"/><circle class="cls-4" cx="463.42" cy="539.99" r="45.61" transform="translate(-246.09 485.85) rotate(-45)"/><circle class="cls-4" cx="303.45" cy="524.74" r="29.25" transform="translate(-282.17 368.27) rotate(-45)"/><g class="cls-5"><polygon class="cls-6" points="360.75 234.27 343.13 240.45 337.13 276.44 344.05 284.02 357.25 278.1 360.63 280.05 360.75 234.27"/><polygon class="cls-7" points="360.75 234.27 370.5 228.6 352.88 234.79 343.13 240.45 360.75 234.27"/><polygon class="cls-8" points="360.63 280.05 370.37 274.38 370.5 228.6 360.75 234.27 360.63 280.05"/></g><ellipse class="cls-6" cx="398.71" cy="334.11" rx="19" ry="11.01" transform="translate(-0.95 1.13) rotate(-0.16)"/><path class="cls-6" d="M396.82,300.12a1.16,1.16,0,0,1,.49-.46,2.9,2.9,0,0,1,2.66,0l12.45,26.77c-7.26-4.37-19.29-4.49-26.87-.27a12.23,12.23,0,0,0-5,4.71Z"/><path class="cls-6" d="M416.86,330.8a11.71,11.71,0,0,0-4.44-4.34L400,299.69a1.12,1.12,0,0,1,.44.42Z"/><ellipse class="cls-6" cx="398.61" cy="300.44" rx="1.88" ry="1.09" transform="translate(-0.85 1.13) rotate(-0.16)"/><path class="cls-9" d="M380.54,330.9l16.28-30.78c-.19.37-.05.78.44,1.08a2.93,2.93,0,0,0,2.66,0c.53-.29.69-.72.49-1.11h0l16.45,30.69c2.07,3.85.38,8.23-5,11.23-7.58,4.22-19.61,4.1-26.87-.28C380.05,338.78,378.59,334.6,380.54,330.9Z"/><ellipse class="cls-6" cx="423.61" cy="315.34" rx="19" ry="11.01" transform="matrix(1, 0, 0, 1, -0.89, 1.2)"/><path class="cls-6" d="M421.72,281.35a1.16,1.16,0,0,1,.49-.46,2.93,2.93,0,0,1,2.66,0l12.45,26.78c-7.26-4.37-19.29-4.5-26.87-.27a12.23,12.23,0,0,0-5,4.71Z"/><path class="cls-6" d="M441.76,312a11.71,11.71,0,0,0-4.44-4.34l-12.45-26.78a1.21,1.21,0,0,1,.44.43Z"/><ellipse class="cls-6" cx="423.51" cy="281.67" rx="1.88" ry="1.09" transform="translate(-0.8 1.2) rotate(-0.16)"/><path class="cls-10" d="M405.44,312.13l16.28-30.78c-.2.37-.05.78.44,1.08a2.93,2.93,0,0,0,2.66,0c.53-.29.69-.73.49-1.11h0L441.76,312c2.06,3.85.38,8.23-5,11.22-7.58,4.23-19.61,4.11-26.87-.27C405,320,403.49,315.83,405.44,312.13Z"/><ellipse class="cls-6" cx="371.47" cy="314.93" rx="19" ry="11.01" transform="translate(-0.89 1.05) rotate(-0.16)"/><path class="cls-6" d="M369.57,281a1.2,1.2,0,0,1,.5-.47,2.9,2.9,0,0,1,2.66,0l12.45,26.77c-7.27-4.37-19.3-4.49-26.87-.27a12.19,12.19,0,0,0-5,4.72Q361.43,296.32,369.57,281Z"/><path class="cls-6" d="M389.62,311.62a11.79,11.79,0,0,0-4.44-4.34l-12.45-26.77a1.14,1.14,0,0,1,.44.43Z"/><ellipse class="cls-6" cx="371.37" cy="281.26" rx="1.88" ry="1.09" transform="translate(-0.8 1.05) rotate(-0.16)"/><path class="cls-11" d="M353.3,311.73q8.13-15.41,16.27-30.78c-.19.36,0,.77.44,1.07a2.93,2.93,0,0,0,2.66,0c.53-.29.7-.72.5-1.1h0l16.45,30.68c2.06,3.86.37,8.23-5,11.23-7.57,4.22-19.6,4.1-26.87-.28C352.81,319.6,351.34,315.42,353.3,311.73Z"/><g class="cls-5"><path class="cls-6" d="M439.41,190.24l-.09,102.81c0,6-4,12-11.82,16.54-15.83,9.2-41.57,9.21-57.51,0-8-4.63-12-10.71-12-16.77L358.08,190c0,6.07,4,12.14,12,16.77,15.94,9.2,41.68,9.2,57.51,0C435.46,202.21,439.39,196.23,439.41,190.24Z"/><path class="cls-12" d="M427.4,173.47c15.94,9.2,16,24.11.19,33.31s-41.57,9.2-57.51,0-16-24.11-.18-33.31S411.47,164.27,427.4,173.47Z"/></g><g class="cls-5"><path class="cls-13" d="M399.5,180.37a1.81,1.81,0,0,0-1.62,0c-.46.26-.47.68,0,.94a1.79,1.79,0,0,0,1.61,0c.46-.26.48-.68,0-.94l28.05-6c15.29,9.2,14.77,23.87-1.17,32.75s-41.25,8.63-56.53-.57-14.77-23.86,1.17-32.75,41.24-8.63,56.53.57Z"/><path class="cls-13" d="M427.55,174.36c-8-1.61-17.68.22-28.05,6a1.81,1.81,0,0,0-1.62,0c-.46.26-.47.68,0,.94a1.79,1.79,0,0,0,1.61,0c.46-.26.48-.68,0-.94,10.37-5.79,20-7.62,28.05-6,15.29,9.2,14.77,23.87-1.17,32.75s-41.25,8.63-56.53-.57-14.77-23.86,1.17-32.75S412.26,165.16,427.55,174.36Z"/></g><ellipse class="cls-6" cx="398.7" cy="182.4" rx="36.59" ry="21.19" transform="translate(-0.52 1.13) rotate(-0.16)"/><path class="cls-6" d="M395.06,117a2.31,2.31,0,0,1,.95-.9,5.67,5.67,0,0,1,5.12.05l24,51.56c-14-8.42-37.15-8.66-51.73-.53-4.66,2.6-7.88,5.74-9.65,9.08Z"/><path class="cls-6" d="M433.65,176a22.65,22.65,0,0,0-8.55-8.36l-24-51.56a2.3,2.3,0,0,1,.84.83Z"/><ellipse class="cls-6" cx="398.52" cy="117.58" rx="3.62" ry="2.1" transform="translate(-0.33 1.13) rotate(-0.16)"/><path class="cls-14" d="M363.72,176.23,395.06,117c-.38.7-.1,1.5.84,2.07a5.67,5.67,0,0,0,5.12,0c1-.57,1.34-1.41,1-2.14h0L433.65,176c4,7.41.72,15.84-9.62,21.61-14.58,8.13-37.74,7.89-51.73-.53C362.78,191.39,360,183.35,363.72,176.23Z"/><g class="cls-5"><polygon class="cls-6" points="422.62 268.41 440.15 294.87 445.93 337.68 438.99 337.25 425.87 316.13 422.49 314.18 422.62 268.41"/><polygon class="cls-15" points="422.62 268.41 432.36 262.75 449.89 289.21 440.15 294.87 422.62 268.41"/><polygon class="cls-16" points="440.15 294.87 449.89 289.21 455.67 332.01 445.93 337.68 440.15 294.87"/></g></g></svg>