<svg id="Layer_1" data-name="Layer 1" xmlns="http://www.w3.org/2000/svg" viewBox="0 0 540 300"><defs><style>.cls-1{fill:#6bd1c7;}.cls-2{fill:#68a032;}.cls-3{fill:none;stroke:#333;stroke-linecap:round;stroke-miterlimit:10;stroke-width:5px;}.cls-4{fill:#71b836;}</style></defs><title>lite</title><rect class="cls-1" x="274.14" y="186.85" width="70.54" height="28.68"/><rect class="cls-1" x="200.66" y="186.85" width="69.74" height="17.95"/><path class="cls-2" d="M48.5,186.39a25.56,25.56,0,0,0,13.33,22.44,25.53,25.53,0,0,0,45.19-.66,25.41,25.41,0,0,0,31.61-20.56,25.53,25.53,0,1,0-33.54-37.46,25.5,25.5,0,0,0-36.92,11.4A25.54,25.54,0,0,0,48.5,186.39Z"/><line class="cls-3" x1="75.5" y1="282.99" x2="398.3" y2="282.99"/><line class="cls-3" x1="88.12" y1="294.4" x2="342" y2="294.5"/><rect class="cls-3" x="176.72" y="156.5" width="183.28" height="126.49"/><polygon class="cls-3" points="360 155.74 135.69 155.74 163.08 106.5 360 106.5 360 155.74"/><rect class="cls-3" x="135.28" y="225.5" width="41.44" height="56.9"/><rect class="cls-3" x="198.6" y="185.14" width="147.72" height="49.24"/><line class="cls-3" x1="272.46" y1="185.14" x2="272.46" y2="234.38"/><rect class="cls-3" x="189.75" y="169.41" width="156.57" height="15.01"/><path class="cls-4" d="M491.5,187a41.82,41.82,0,0,1-56,39.35,41.8,41.8,0,0,1-56.42-12,42.29,42.29,0,0,1-7.85.73,41.83,41.83,0,0,1-8.77-82.73,41.82,41.82,0,0,1,68.44-13.35l1.35,0a41.83,41.83,0,0,1,41,33.41A41.77,41.77,0,0,1,491.5,187Z"/><line class="cls-3" x1="413.04" y1="192.87" x2="413.04" y2="282.54"/><line class="cls-3" x1="434.83" y1="174.32" x2="413.66" y2="194.24"/><line class="cls-3" x1="382.53" y1="180.55" x2="413.66" y2="194.24"/><line class="cls-3" x1="99.79" y1="282.67" x2="99.79" y2="200.47"/><line class="cls-3" x1="116.23" y1="176.38" x2="100" y2="200.5"/><line class="cls-3" x1="78" y1="178.5" x2="100" y2="200.5"/><line class="cls-3" x1="365" y1="294.5" x2="389" y2="294.5"/></svg>