<svg id="Layer_1" data-name="Layer 1" xmlns="http://www.w3.org/2000/svg" viewBox="0 0 540 300"><defs><style>.cls-1{fill:#71b836;}.cls-2{fill:#68a032;}.cls-3{fill:#6bd1c7;}.cls-4{fill:none;stroke:#333;stroke-linecap:round;stroke-miterlimit:10;stroke-width:5px;}</style></defs><title>platinum</title><path class="cls-1" d="M228.27,214.88a29.85,29.85,0,0,1-29.83,29.85A29.45,29.45,0,0,1,188.32,243a29.85,29.85,0,0,1-40.26-8.53,29.85,29.85,0,0,1-11.86-58.5A29.84,29.84,0,0,1,185,166.4h1a29.84,29.84,0,0,1,29.23,23.83A29.82,29.82,0,0,1,228.27,214.88Z"/><path class="cls-2" d="M95.25,199.5a21.65,21.65,0,0,0,11.31,19,21.64,21.64,0,0,0,38.33-.56,21.4,21.4,0,0,0,5.46.72,21.65,21.65,0,0,0,21.36-18.15,21.66,21.66,0,1,0-28.46-31.78,21.61,21.61,0,0,0-31.31,9.67A21.67,21.67,0,0,0,95.25,199.5Z"/><rect class="cls-3" x="357.06" y="202.02" width="57.09" height="23.21"/><rect class="cls-3" x="297.58" y="202.02" width="56.45" height="14.53"/><rect class="cls-3" x="257.06" y="83.02" width="57.09" height="23.21"/><rect class="cls-3" x="197.58" y="83.02" width="56.45" height="14.53"/><line class="cls-4" x1="114.5" y1="281.49" x2="437.3" y2="281.49"/><line class="cls-4" x1="127.12" y1="292.9" x2="395.21" y2="292.9"/><rect class="cls-4" x="215.72" y="161" width="212.28" height="120.49"/><polygon class="cls-4" points="428.5 160.5 174.69 160.5 175 57.5 428.5 57.5 428.5 160.5"/><rect class="cls-4" x="233.28" y="200" width="41.44" height="80.9"/><rect class="cls-4" x="295.92" y="200.64" width="119.57" height="39.86"/><line class="cls-4" x1="355.7" y1="200.64" x2="355.7" y2="240.5"/><rect class="cls-4" x="288.75" y="187.91" width="126.73" height="12.15"/><rect class="cls-4" x="195.92" y="81.64" width="119.57" height="39.86"/><line class="cls-4" x1="255.7" y1="81.64" x2="255.7" y2="121.5"/><line class="cls-4" x1="172.3" y1="219.06" x2="172.3" y2="283.04"/><line class="cls-4" x1="187.85" y1="205.83" x2="172.74" y2="220.04"/><line class="cls-4" x1="150.53" y1="210.27" x2="172.74" y2="220.04"/><line class="cls-4" x1="138.76" y1="281.17" x2="138.76" y2="211.45"/><line class="cls-4" x1="152.71" y1="191.01" x2="138.94" y2="211.47"/><line class="cls-4" x1="120.28" y1="192.81" x2="138.94" y2="211.47"/><line class="cls-4" x1="404" y1="293" x2="428" y2="293"/><line class="cls-4" x1="264" y1="214" x2="264" y2="266"/></svg>