<svg id="Layer_1" data-name="Layer 1" xmlns="http://www.w3.org/2000/svg" xmlns:xlink="http://www.w3.org/1999/xlink" viewBox="0 0 800 800"><defs><style>.cls-1{fill:none;}.cls-2{fill:#fff;}.cls-3{fill:url(#linear-gradient);}.cls-4{clip-path:url(#clip-path);}.cls-5{fill:url(#linear-gradient-2);}.cls-6{fill:#e6e6e6;}.cls-7{isolation:isolate;}.cls-8{fill:#333;}.cls-9{fill:#1e2e3f;}.cls-10{fill:#2a4156;}.cls-11{fill:url(#linear-gradient-3);}.cls-12{fill:url(#linear-gradient-4);}.cls-13{fill:url(#linear-gradient-5);}.cls-14{fill:url(#linear-gradient-6);}.cls-15{fill:url(#linear-gradient-7);}.cls-16{fill:url(#linear-gradient-8);}.cls-17{fill:url(#linear-gradient-9);}.cls-18{fill:url(#linear-gradient-10);}.cls-19{fill:url(#linear-gradient-11);}.cls-20{fill:url(#linear-gradient-12);}.cls-21{fill:url(#linear-gradient-13);}.cls-22{fill:url(#linear-gradient-14);}.cls-23{fill:url(#linear-gradient-15);}.cls-24{fill:url(#linear-gradient-16);}.cls-25{fill:url(#linear-gradient-17);}.cls-26{fill:#f15b42;}.cls-27{fill:url(#linear-gradient-18);}.cls-28{fill:url(#linear-gradient-19);}.cls-29{fill:url(#linear-gradient-20);}.cls-30{fill:url(#linear-gradient-21);}.cls-31{fill:url(#linear-gradient-22);}.cls-32{fill:url(#linear-gradient-23);}.cls-33{fill:url(#linear-gradient-24);}.cls-34{fill:url(#linear-gradient-25);}.cls-35{fill:url(#linear-gradient-26);}.cls-36{fill:url(#linear-gradient-27);}.cls-37{fill:url(#linear-gradient-28);}.cls-38{fill:url(#linear-gradient-29);}.cls-39{fill:url(#linear-gradient-30);}.cls-40{fill:url(#linear-gradient-31);}.cls-41{fill:url(#linear-gradient-32);}.cls-42{fill:url(#linear-gradient-33);}.cls-43{fill:url(#linear-gradient-34);}.cls-44{fill:url(#linear-gradient-35);}.cls-45{fill:url(#linear-gradient-36);}</style><linearGradient id="linear-gradient" x1="22.37" y1="366.01" x2="716.05" y2="366.01" gradientUnits="userSpaceOnUse"><stop offset="0" stop-color="#4b445e"/><stop offset="1" stop-color="#231c2b"/></linearGradient><clipPath id="clip-path"><path class="cls-1" d="M623.15,272.65a7,7,0,0,1-2.83-5.22c-7-117.57-104.49-210.78-223.8-210.78A224,224,0,0,0,208.43,158.81,7,7,0,0,1,202.9,162c-101,5.18-181.35,88.37-182,190.49-.67,105.78,86.21,193.24,192,193.24a191.85,191.85,0,0,0,61.68-10.14,7,7,0,0,1,8.77,3.95c33.52,80.4,112.5,137.11,204.84,138,123.59,1.18,226.39-100.61,226.39-224.2A223.86,223.86,0,0,0,623.15,272.65Z"/></clipPath><linearGradient id="linear-gradient-2" x1="404.24" y1="416.24" x2="996.16" y2="416.24" gradientTransform="translate(776 -116.14) rotate(73.75)" gradientUnits="userSpaceOnUse"><stop offset="0" stop-color="#1d3768"/><stop offset="1" stop-color="#006095"/></linearGradient><linearGradient id="linear-gradient-3" x1="380.56" y1="75.28" x2="643.89" y2="461.37" gradientUnits="userSpaceOnUse"><stop offset="0" stop-color="#f15b42"/><stop offset="1" stop-color="#ef3943"/></linearGradient><linearGradient id="linear-gradient-4" x1="486.25" y1="250.25" x2="638.81" y2="250.25" xlink:href="#linear-gradient-3"/><linearGradient id="linear-gradient-5" x1="1045.64" y1="3021.54" x2="715.44" y2="2724.59" gradientTransform="translate(284 -2731.87) rotate(13.01)" gradientUnits="userSpaceOnUse"><stop offset="0" stop-color="#f37446"/><stop offset="1" stop-color="#f26343"/></linearGradient><linearGradient id="linear-gradient-6" x1="876.08" y1="2932.63" x2="857.58" y2="2906.2" gradientTransform="translate(284 -2731.87) rotate(13.01)" gradientUnits="userSpaceOnUse"><stop offset="0" stop-color="#f89a54"/><stop offset="1" stop-color="#f58049"/></linearGradient><linearGradient id="linear-gradient-7" x1="897.21" y1="2917.84" x2="878.71" y2="2891.41" xlink:href="#linear-gradient-6"/><linearGradient id="linear-gradient-8" x1="315.88" y1="119.39" x2="579.21" y2="505.48" xlink:href="#linear-gradient-3"/><linearGradient id="linear-gradient-9" x1="598.59" y1="394.81" x2="244.26" y2="172.58" gradientUnits="userSpaceOnUse"><stop offset="0" stop-color="#f15b42"/><stop offset="1" stop-color="#ef3c43"/></linearGradient><linearGradient id="linear-gradient-10" x1="993.35" y1="3079.69" x2="663.14" y2="2782.74" xlink:href="#linear-gradient-5"/><linearGradient id="linear-gradient-11" x1="817.27" y1="2973.8" x2="798.77" y2="2947.37" xlink:href="#linear-gradient-6"/><linearGradient id="linear-gradient-12" x1="779.59" y1="3000.17" x2="761.09" y2="2973.74" xlink:href="#linear-gradient-6"/><linearGradient id="linear-gradient-13" x1="165.98" y1="221.62" x2="429.31" y2="607.72" xlink:href="#linear-gradient-3"/><linearGradient id="linear-gradient-14" x1="215" y1="188.19" x2="478.33" y2="574.29" xlink:href="#linear-gradient-3"/><linearGradient id="linear-gradient-15" x1="204.53" y1="195.33" x2="467.86" y2="581.43" xlink:href="#linear-gradient-3"/><linearGradient id="linear-gradient-16" x1="201.58" y1="197.34" x2="464.91" y2="583.44" xlink:href="#linear-gradient-3"/><linearGradient id="linear-gradient-17" x1="223.67" y1="182.28" x2="487" y2="568.38" xlink:href="#linear-gradient-3"/><linearGradient id="linear-gradient-18" x1="256.29" y1="160.03" x2="519.62" y2="546.12" xlink:href="#linear-gradient-3"/><linearGradient id="linear-gradient-19" x1="290.53" y1="136.68" x2="553.86" y2="522.78" xlink:href="#linear-gradient-3"/><linearGradient id="linear-gradient-20" x1="281.27" y1="142.99" x2="544.6" y2="529.09" xlink:href="#linear-gradient-3"/><linearGradient id="linear-gradient-21" x1="-2319.81" y1="-4095.99" x2="-1868.27" y2="-4095.99" gradientTransform="translate(2853.9 -3492.22) rotate(-120)" xlink:href="#linear-gradient-5"/><linearGradient id="linear-gradient-22" x1="292.6" y1="135.27" x2="555.93" y2="521.37" xlink:href="#linear-gradient-3"/><linearGradient id="linear-gradient-23" x1="723.42" y1="3036.09" x2="704.92" y2="3009.66" xlink:href="#linear-gradient-6"/><linearGradient id="linear-gradient-24" x1="744.55" y1="3021.29" x2="726.05" y2="2994.87" xlink:href="#linear-gradient-6"/><linearGradient id="linear-gradient-25" x1="168.61" y1="219.83" x2="431.94" y2="605.93" xlink:href="#linear-gradient-3"/><linearGradient id="linear-gradient-26" x1="669.94" y1="3072.62" x2="720.84" y2="3072.62" xlink:href="#linear-gradient-5"/><linearGradient id="linear-gradient-27" x1="651.14" y1="3086.68" x2="632.64" y2="3060.25" xlink:href="#linear-gradient-6"/><linearGradient id="linear-gradient-28" x1="672.28" y1="3071.89" x2="653.78" y2="3045.46" xlink:href="#linear-gradient-6"/><linearGradient id="linear-gradient-29" x1="76.62" y1="282.57" x2="339.95" y2="668.67" xlink:href="#linear-gradient-3"/><linearGradient id="linear-gradient-30" x1="91.45" y1="272.45" x2="354.78" y2="658.55" xlink:href="#linear-gradient-3"/><linearGradient id="linear-gradient-31" x1="801.19" y1="3295.99" x2="470.99" y2="2999.04" xlink:href="#linear-gradient-5"/><linearGradient id="linear-gradient-32" x1="580.16" y1="3136.37" x2="561.66" y2="3109.94" xlink:href="#linear-gradient-6"/><linearGradient id="linear-gradient-33" x1="542.49" y1="3162.74" x2="523.99" y2="3136.31" xlink:href="#linear-gradient-6"/><linearGradient id="linear-gradient-34" x1="748.6" y1="3354.48" x2="418.39" y2="3057.53" xlink:href="#linear-gradient-5"/><linearGradient id="linear-gradient-35" x1="740.92" y1="3363.01" x2="410.72" y2="3066.06" xlink:href="#linear-gradient-5"/><linearGradient id="linear-gradient-36" x1="-28.88" y1="354.52" x2="234.45" y2="740.62" xlink:href="#linear-gradient-3"/><symbol id="hex_star" data-name="hex_star" viewBox="0 0 11.92 10.33"><polygon class="cls-2" points="8.94 0 2.98 0 0 5.16 2.98 10.33 8.94 10.33 11.92 5.16 8.94 0"/></symbol><symbol id="hex_stars" data-name="hex_stars" viewBox="0 0 28.55 17.86"><use width="11.92" height="10.33" transform="translate(16.62 7)" xlink:href="#hex_star"/><use width="11.92" height="10.33" transform="translate(6.57) scale(0.68)" xlink:href="#hex_star"/><use width="11.92" height="10.33" transform="translate(2.53 13.48) scale(0.42)" xlink:href="#hex_star"/><use width="11.92" height="10.33" transform="translate(0 6.83) scale(0.26)" xlink:href="#hex_star"/></symbol></defs><title>premium</title><path class="cls-3" d="M624.62,271.57a7,7,0,0,1-2.83-5.22C614.84,148.78,517.31,55.58,398,55.58A224,224,0,0,0,209.9,157.73a7,7,0,0,1-5.52,3.19C103.4,166.1,23,249.28,22.38,351.4c-.67,105.79,86.2,193.24,192,193.24a191.63,191.63,0,0,0,61.69-10.14,7.06,7.06,0,0,1,8.77,4c33.52,80.41,112.49,137.11,204.83,138,123.59,1.18,226.39-100.6,226.39-224.19A223.88,223.88,0,0,0,624.62,271.57Z"/><g class="cls-4"><path class="cls-5" d="M708.72,941.1C816.48,909.68,878.37,796.86,847,689.1a203.28,203.28,0,0,0-27.09-57.53,202.27,202.27,0,0,0,5.2-129.25c-31.41-107.76-144.23-169.65-252-138.24A202.6,202.6,0,0,0,450.25,464.29a174.07,174.07,0,1,0,9.13,347C494.08,913.8,603.79,971.68,708.72,941.1Z"/></g><use width="28.55" height="17.86" transform="translate(348.87 585.46)" xlink:href="#hex_stars"/><use width="28.55" height="17.86" transform="translate(356.47 600.11)" xlink:href="#hex_stars"/><use width="28.55" height="17.86" transform="translate(393.46 653.99)" xlink:href="#hex_stars"/><use width="28.55" height="17.86" transform="translate(434.99 698.57)" xlink:href="#hex_stars"/><use width="28.55" height="17.86" transform="translate(473.75 696.02)" xlink:href="#hex_stars"/><use width="28.55" height="17.86" transform="translate(529.06 675.99)" xlink:href="#hex_stars"/><use width="28.55" height="17.86" transform="translate(599.47 657.48)" xlink:href="#hex_stars"/><use width="28.55" height="17.86" transform="translate(669.59 622.6)" xlink:href="#hex_stars"/><use width="28.55" height="17.86" transform="translate(726.71 545.27)" xlink:href="#hex_stars"/><use width="28.55" height="17.86" transform="translate(750.56 486.85)" xlink:href="#hex_stars"/><use width="28.55" height="17.86" transform="translate(744.53 369.87)" xlink:href="#hex_stars"/><use width="28.55" height="17.86" transform="translate(726 336.89)" xlink:href="#hex_stars"/><use width="28.55" height="17.86" transform="translate(673.01 377.76)" xlink:href="#hex_stars"/><use width="28.55" height="17.86" transform="translate(641.98 428.04)" xlink:href="#hex_stars"/><use width="28.55" height="17.86" transform="translate(613.43 518.15)" xlink:href="#hex_stars"/><use width="28.55" height="17.86" transform="translate(547.55 602.07)" xlink:href="#hex_stars"/><use width="28.55" height="17.86" transform="translate(525.82 633.73)" xlink:href="#hex_stars"/><use width="28.55" height="17.86" transform="translate(499.64 620.45)" xlink:href="#hex_stars"/><use width="28.55" height="17.86" transform="translate(508.51 635.63)" xlink:href="#hex_stars"/><use width="28.55" height="17.86" transform="translate(478.32 594.56)" xlink:href="#hex_stars"/><use width="28.55" height="17.86" transform="translate(463.47 583.22)" xlink:href="#hex_stars"/><use width="28.55" height="17.86" transform="translate(523.51 545.75)" xlink:href="#hex_stars"/><use width="28.55" height="17.86" transform="translate(655.36 442.59)" xlink:href="#hex_stars"/><use width="28.55" height="17.86" transform="translate(679.41 397.44)" xlink:href="#hex_stars"/><use width="28.55" height="17.86" transform="translate(579.22 704.59)" xlink:href="#hex_stars"/><use width="28.55" height="17.86" transform="translate(547.85 726.57)" xlink:href="#hex_stars"/><use width="28.55" height="17.86" transform="translate(618.03 646.43)" xlink:href="#hex_stars"/><use width="28.55" height="17.86" transform="translate(666.33 559.19)" xlink:href="#hex_stars"/><use width="28.55" height="17.86" transform="translate(688.65 504.28)" xlink:href="#hex_stars"/><use width="28.55" height="17.86" transform="translate(678.38 484.83)" xlink:href="#hex_stars"/><use width="28.55" height="17.86" transform="translate(659.79 481.26)" xlink:href="#hex_stars"/><use width="28.55" height="17.86" transform="translate(639.76 506.3)" xlink:href="#hex_stars"/><use width="28.55" height="17.86" transform="translate(601.08 552.27)" xlink:href="#hex_stars"/><use width="28.55" height="17.86" transform="translate(572.91 576.76)" xlink:href="#hex_stars"/><use width="28.55" height="17.86" transform="translate(544.33 582.13)" xlink:href="#hex_stars"/><use width="28.55" height="17.86" transform="translate(505.57 586.53)" xlink:href="#hex_stars"/><use width="28.55" height="17.86" transform="translate(471.71 617.55)" xlink:href="#hex_stars"/><use width="28.55" height="17.86" transform="translate(444.71 622.2)" xlink:href="#hex_stars"/><use width="28.55" height="17.86" transform="translate(395.28 625.81)" xlink:href="#hex_stars"/><use width="28.55" height="17.86" transform="translate(348.67 631.15)" xlink:href="#hex_stars"/><use width="28.55" height="17.86" transform="translate(306.85 620.99)" xlink:href="#hex_stars"/><use width="28.55" height="17.86" transform="translate(296.41 637.94)" xlink:href="#hex_stars"/><use width="28.55" height="17.86" transform="translate(329.56 628.47)" xlink:href="#hex_stars"/><use width="28.55" height="17.86" transform="translate(431.55 642.69)" xlink:href="#hex_stars"/><use width="28.55" height="17.86" transform="translate(492.77 652.94)" xlink:href="#hex_stars"/><use width="28.55" height="17.86" transform="translate(559.41 623.7)" xlink:href="#hex_stars"/><use width="28.55" height="17.86" transform="translate(605.33 594.19)" xlink:href="#hex_stars"/><use width="28.55" height="17.86" transform="translate(636.03 584.52)" xlink:href="#hex_stars"/><use width="28.55" height="17.86" transform="translate(686.46 544.59)" xlink:href="#hex_stars"/><use width="28.55" height="17.86" transform="translate(709.77 473.55)" xlink:href="#hex_stars"/><use width="28.55" height="17.86" transform="translate(720.72 403.78)" xlink:href="#hex_stars"/><use width="28.55" height="17.86" transform="translate(708.06 353.73)" xlink:href="#hex_stars"/><use width="28.55" height="17.86" transform="translate(697.83 338.11)" xlink:href="#hex_stars"/><use width="28.55" height="17.86" transform="translate(700.19 376.88)" xlink:href="#hex_stars"/><use width="28.55" height="17.86" transform="translate(698.25 411.35)" xlink:href="#hex_stars"/><use width="28.55" height="17.86" transform="translate(706.87 433.8)" xlink:href="#hex_stars"/><use width="28.55" height="17.86" transform="translate(684.93 428.6)" xlink:href="#hex_stars"/><use width="28.55" height="17.86" transform="translate(688.09 461.41)" xlink:href="#hex_stars"/><use width="28.55" height="17.86" transform="translate(670.22 510.48)" xlink:href="#hex_stars"/><use width="28.55" height="17.86" transform="translate(663.61 535.75)" xlink:href="#hex_stars"/><use width="28.55" height="17.86" transform="translate(663.16 581.93)" xlink:href="#hex_stars"/><use width="28.55" height="17.86" transform="translate(640.17 610.14)" xlink:href="#hex_stars"/><use width="28.55" height="17.86" transform="translate(611.05 623.52)" xlink:href="#hex_stars"/><use width="28.55" height="17.86" transform="translate(568.32 648.05)" xlink:href="#hex_stars"/><use width="28.55" height="17.86" transform="translate(507.39 672.09)" xlink:href="#hex_stars"/><use width="28.55" height="17.86" transform="translate(445.47 672.7)" xlink:href="#hex_stars"/><use width="28.55" height="17.86" transform="translate(390.26 688.39)" xlink:href="#hex_stars"/><use width="28.55" height="17.86" transform="translate(362.92 688.19)" xlink:href="#hex_stars"/><use width="28.55" height="17.86" transform="translate(366.77 662.15)" xlink:href="#hex_stars"/><use width="28.55" height="17.86" transform="translate(515.77 608.93)" xlink:href="#hex_stars"/><use width="28.55" height="17.86" transform="translate(582.12 606.69)" xlink:href="#hex_stars"/><use width="28.55" height="17.86" transform="translate(632.43 551.75)" xlink:href="#hex_stars"/><use width="28.55" height="17.86" transform="translate(637.06 455.35)" xlink:href="#hex_stars"/><use width="28.55" height="17.86" transform="translate(645.18 382.59)" xlink:href="#hex_stars"/><use width="28.55" height="17.86" transform="translate(660.98 333.65)" xlink:href="#hex_stars"/><use width="28.55" height="17.86" transform="translate(682.52 294.41)" xlink:href="#hex_stars"/><use width="28.55" height="17.86" transform="translate(670.06 282.5)" xlink:href="#hex_stars"/><use width="28.55" height="17.86" transform="translate(596.22 347.92)" xlink:href="#hex_stars"/><use width="28.55" height="17.86" transform="translate(534.41 450.56)" xlink:href="#hex_stars"/><use width="28.55" height="17.86" transform="translate(517.5 484.34)" xlink:href="#hex_stars"/><use width="28.55" height="17.86" transform="translate(482.67 509.97)" xlink:href="#hex_stars"/><use width="28.55" height="17.86" transform="translate(429.28 548.88)" xlink:href="#hex_stars"/><use width="28.55" height="17.86" transform="translate(385.25 577.61)" xlink:href="#hex_stars"/><use width="28.55" height="17.86" transform="translate(405.02 542.08)" xlink:href="#hex_stars"/><use width="28.55" height="17.86" transform="translate(513.93 460.27)" xlink:href="#hex_stars"/><use width="28.55" height="17.86" transform="translate(550.76 418.22)" xlink:href="#hex_stars"/><use width="28.55" height="17.86" transform="translate(574.03 371.13)" xlink:href="#hex_stars"/><use width="28.55" height="17.86" transform="translate(603.59 310.34)" xlink:href="#hex_stars"/><use width="28.55" height="17.86" transform="translate(619.44 282.53)" xlink:href="#hex_stars"/><use width="28.55" height="17.86" transform="translate(599.12 290.24)" xlink:href="#hex_stars"/><use width="28.55" height="17.86" transform="translate(591.91 391.91)" xlink:href="#hex_stars"/><use width="28.55" height="17.86" transform="translate(595.12 442.05)" xlink:href="#hex_stars"/><use width="28.55" height="17.86" transform="translate(598.76 481.01)" xlink:href="#hex_stars"/><use width="28.55" height="17.86" transform="translate(590.78 521.61)" xlink:href="#hex_stars"/><use width="28.55" height="17.86" transform="translate(565.91 549.71)" xlink:href="#hex_stars"/><use width="28.55" height="17.86" transform="translate(523.42 568.18)" xlink:href="#hex_stars"/><use width="28.55" height="17.86" transform="translate(466.6 564.63)" xlink:href="#hex_stars"/><use width="28.55" height="17.86" transform="translate(426.32 603.65)" xlink:href="#hex_stars"/><use width="28.55" height="17.86" transform="translate(417.2 588.15)" xlink:href="#hex_stars"/><use width="28.55" height="17.86" transform="translate(505.57 524.2)" xlink:href="#hex_stars"/><use width="28.55" height="17.86" transform="translate(560.16 454.11)" xlink:href="#hex_stars"/><use width="28.55" height="17.86" transform="translate(603.45 370.71)" xlink:href="#hex_stars"/><use width="28.55" height="17.86" transform="translate(634.05 311.51)" xlink:href="#hex_stars"/><use width="28.55" height="17.86" transform="translate(655.18 254.96)" xlink:href="#hex_stars"/><use width="28.55" height="17.86" transform="translate(631.77 264.61)" xlink:href="#hex_stars"/><use width="28.55" height="17.86" transform="translate(499.39 415.25)" xlink:href="#hex_stars"/><use width="28.55" height="17.86" transform="translate(456.28 476.42)" xlink:href="#hex_stars"/><use width="28.55" height="17.86" transform="translate(394.94 508.15)" xlink:href="#hex_stars"/><use width="28.55" height="17.86" transform="translate(294.86 458.08)" xlink:href="#hex_stars"/><use width="28.55" height="17.86" transform="translate(278.69 431.5)" xlink:href="#hex_stars"/><use width="28.55" height="17.86" transform="translate(400.93 364.35)" xlink:href="#hex_stars"/><use width="28.55" height="17.86" transform="translate(494.74 296.98)" xlink:href="#hex_stars"/><use width="28.55" height="17.86" transform="translate(523.38 264.39)" xlink:href="#hex_stars"/><use width="28.55" height="17.86" transform="translate(543.32 229.47)" xlink:href="#hex_stars"/><use width="28.55" height="17.86" transform="translate(470.15 364.31)" xlink:href="#hex_stars"/><use width="28.55" height="17.86" transform="translate(391.42 476.31)" xlink:href="#hex_stars"/><use width="28.55" height="17.86" transform="translate(309.7 516.37)" xlink:href="#hex_stars"/><use width="28.55" height="17.86" transform="translate(224.72 528.63)" xlink:href="#hex_stars"/><use width="28.55" height="17.86" transform="translate(253.01 498.81)" xlink:href="#hex_stars"/><use width="28.55" height="17.86" transform="translate(368.31 417.47)" xlink:href="#hex_stars"/><use width="28.55" height="17.86" transform="translate(455.42 332.95)" xlink:href="#hex_stars"/><use width="28.55" height="17.86" transform="translate(518.77 248)" xlink:href="#hex_stars"/><use width="28.55" height="17.86" transform="translate(557.88 197.07)" xlink:href="#hex_stars"/><use width="28.55" height="17.86" transform="translate(454.74 291.55)" xlink:href="#hex_stars"/><use width="28.55" height="17.86" transform="translate(310.61 467.6)" xlink:href="#hex_stars"/><use width="28.55" height="17.86" transform="translate(223.91 485.88)" xlink:href="#hex_stars"/><use width="28.55" height="17.86" transform="translate(214.97 503.53)" xlink:href="#hex_stars"/><use width="28.55" height="17.86" transform="translate(198.95 494.49)" xlink:href="#hex_stars"/><use width="28.55" height="17.86" transform="translate(143.66 477.19)" xlink:href="#hex_stars"/><use width="28.55" height="17.86" transform="translate(103.1 463.92)" xlink:href="#hex_stars"/><use width="28.55" height="17.86" transform="translate(49.32 420.42)" xlink:href="#hex_stars"/><use width="28.55" height="17.86" transform="translate(62.45 398.9)" xlink:href="#hex_stars"/><use width="28.55" height="17.86" transform="translate(226.53 371.12)" xlink:href="#hex_stars"/><use width="28.55" height="17.86" transform="translate(356.8 325.56)" xlink:href="#hex_stars"/><use width="28.55" height="17.86" transform="translate(457.52 148.28)" xlink:href="#hex_stars"/><use width="28.55" height="17.86" transform="translate(470.35 85.31)" xlink:href="#hex_stars"/><use width="28.55" height="17.86" transform="translate(442.97 123.59)" xlink:href="#hex_stars"/><use width="28.55" height="17.86" transform="translate(299.33 268.18)" xlink:href="#hex_stars"/><use width="28.55" height="17.86" transform="translate(159.9 321.76)" xlink:href="#hex_stars"/><use width="28.55" height="17.86" transform="translate(57.96 323.63)" xlink:href="#hex_stars"/><use width="28.55" height="17.86" transform="translate(135.53 283.37)" xlink:href="#hex_stars"/><use width="28.55" height="17.86" transform="translate(340.4 199.45)" xlink:href="#hex_stars"/><use width="28.55" height="17.86" transform="translate(442.58 102.03)" xlink:href="#hex_stars"/><use width="28.55" height="17.86" transform="translate(464.07 108.75)" xlink:href="#hex_stars"/><use width="28.55" height="17.86" transform="translate(314.19 323.14)" xlink:href="#hex_stars"/><use width="28.55" height="17.86" transform="translate(179.49 335.12)" xlink:href="#hex_stars"/><use width="28.55" height="17.86" transform="translate(91.16 321.36)" xlink:href="#hex_stars"/><use width="28.55" height="17.86" transform="translate(225.93 193.99)" xlink:href="#hex_stars"/><use width="28.55" height="17.86" transform="translate(347.61 144.73)" xlink:href="#hex_stars"/><use width="28.55" height="17.86" transform="translate(415.01 135.76)" xlink:href="#hex_stars"/><use width="28.55" height="17.86" transform="translate(431.47 144.35)" xlink:href="#hex_stars"/><use width="28.55" height="17.86" transform="translate(402.5 255.9)" xlink:href="#hex_stars"/><use width="28.55" height="17.86" transform="translate(336.54 313.13)" xlink:href="#hex_stars"/><use width="28.55" height="17.86" transform="translate(226.16 282.02)" xlink:href="#hex_stars"/><use width="28.55" height="17.86" transform="translate(180.68 264.95)" xlink:href="#hex_stars"/><use width="28.55" height="17.86" transform="translate(210.82 271.02)" xlink:href="#hex_stars"/><use width="28.55" height="17.86" transform="translate(418.1 230.85)" xlink:href="#hex_stars"/><use width="28.55" height="17.86" transform="translate(487.36 195.38)" xlink:href="#hex_stars"/><use width="28.55" height="17.86" transform="translate(444.77 196.09)" xlink:href="#hex_stars"/><use width="28.55" height="17.86" transform="translate(209.17 184.78)" xlink:href="#hex_stars"/><use width="28.55" height="17.86" transform="translate(98.3 210.64)" xlink:href="#hex_stars"/><use width="28.55" height="17.86" transform="translate(83.34 226.73)" xlink:href="#hex_stars"/><path class="cls-6" d="M160.26,677.35a10.7,10.7,0,0,1-5.84-1.73l-.7-.4c-25.59-14.63-26.18-15-26.4-15.11a13.1,13.1,0,0,1-6.29-11c0-.62-.06-62.52-.1-94.66a20.49,20.49,0,0,1-5.11.66l-.88,0c-11.09.44-58.68,2.32-61.14,2.33-6.72,0-9.77-3.77-11.1-6.43a13.62,13.62,0,0,1-2.13-10.74c.47-1.9.47-1.9,17.24-29.15C60.48,506.72,73.88,485,75,483.39l.16-.24A21.75,21.75,0,0,1,92.26,473l3.27-1.82.23-.12a22.08,22.08,0,0,1,9.41-2,26.07,26.07,0,0,1,6.13.73L135.39,456V437.79c-3.09-1.76-6.06-3.46-6.79-3.93a13.22,13.22,0,0,1-6-10.47c0-.22,0-.33-.1-88.38,0-21.46,0-38.52,0-39a11.08,11.08,0,0,1,6-9.91l2-1.19,1.09-.63a10.8,10.8,0,0,1,5.24-1.36,11.36,11.36,0,0,1,5.6,1.51c.25.15,26.28,15,27.4,15.69a13.09,13.09,0,0,1,6.31,11c0,.63.07,70.66.1,104L192,406l5.49-3.16a24.89,24.89,0,0,1,12.5-3.17l1.22,0c-10.78-24.2-27.13-69.55-27.13-122,0-87.21,45.68-110.2,53-113.3,4.07-2.28,30.56-17.16,41.59-23.86,9.25-5.62,27-11.62,49-11.62,25.16,0,50,7.61,73.83,22.61a342.69,342.69,0,0,1,83.08,73.6,11.66,11.66,0,0,1-.13-1.78c0-2.18,0-51,0-52.16a12.85,12.85,0,0,1,6.41-11.11c.9-.52,101.29-58.21,103-59.23a11.23,11.23,0,0,1,5.67-1.57,10.81,10.81,0,0,1,5.34,1.43l.25.14c2.85,1.59,3.52,2,4.1,2.4a11,11,0,0,1,4.64,9.09c0,.25.05,51.53.05,52.22a13.18,13.18,0,0,1-6.43,11.11l-.62.36a52,52,0,0,1,9.88,4.32c14,7.79,33.91,31.92,32.08,59-1.09,15.24-8.08,21.37-11,23.3-.74.49-6.64,3.94-15.08,8.84a11.62,11.62,0,0,1,1.78,6.38s.05,50.68.05,51.57a12.9,12.9,0,0,1-6.63,11.63L558.45,375.2a272.11,272.11,0,0,1,7.3,61.31c0,22.73-4.19,78.65-43,106.77-26.77,19.39-47.33,28.84-51.59,30.72-4.07,2.46-20.91,11.56-47.17,11.57-24.63,0-50.25-7.81-76.13-23.2-47.07-28-76.42-62.48-91.18-83.17a25.65,25.65,0,0,1-8.88,9.59l-35.71,20.56a23.36,23.36,0,0,1-12.7,3.46,33.39,33.39,0,0,1-15.69-4.21l-23,13.22c3.11,1.77,6.62,3.78,7.66,4.42a12.1,12.1,0,0,1,6.21,11.36c0,7.66.12,126.25.12,126.77a10.79,10.79,0,0,1-5.44,9.49l-.36.21c-.91.53-2.89,1.67-3.39,1.94A10.89,10.89,0,0,1,160.26,677.35Z"/><g class="cls-7"><path class="cls-8" d="M543.3,328.28l.05-34a1.34,1.34,0,0,1,.78-1.1,4.18,4.18,0,0,1,3.79,0,1.34,1.34,0,0,1,.79,1.11l-.05,34a1.33,1.33,0,0,0-.79-1.1,4.15,4.15,0,0,0-3.79,0A1.33,1.33,0,0,0,543.3,328.28Z"/><path class="cls-8" d="M544.09,329.39a1.16,1.16,0,0,1,0-2.2,4.15,4.15,0,0,1,3.79,0,1.16,1.16,0,0,1,0,2.19A4.2,4.2,0,0,1,544.09,329.39Z"/></g><g class="cls-7"><path class="cls-9" d="M610.45,274.67l3.54,2a1,1,0,0,0-1,.1l-3.54-2A1,1,0,0,1,610.45,274.67Z"/><path class="cls-9" d="M509,391.64l-3.54-2a1,1,0,0,1-.42-.92l3.54,2A1,1,0,0,0,509,391.64Z"/><polygon class="cls-9" points="509.91 336.05 506.37 334.02 609.46 274.77 613 276.79 509.91 336.05"/><polygon class="cls-9" points="508.55 390.72 505.01 388.69 504.96 336.47 508.5 338.5 508.55 390.72"/><path class="cls-10" d="M508.5,338.5a3.14,3.14,0,0,1,1.41-2.45L613,276.79c.78-.45,1.41-.08,1.41.83l.05,52.22a3.12,3.12,0,0,1-1.41,2.44L510,391.54c-.77.45-1.41.08-1.41-.82Z"/><path class="cls-9" d="M508.5,338.5l-3.54-2a3.15,3.15,0,0,1,1.41-2.45l3.54,2A3.14,3.14,0,0,0,508.5,338.5Z"/></g><polygon class="cls-2" points="614.43 303.53 561.57 334.26 508.59 364.77 561.45 334.04 614.43 303.53"/><polygon class="cls-2" points="614.59 287.83 561.73 318.56 508.75 349.07 561.61 318.35 614.59 287.83"/><polygon class="cls-2" points="614.72 319.39 561.86 350.12 508.88 380.64 561.74 349.91 614.72 319.39"/><path class="cls-2" d="M561.51,362.11c-.12-9.25-.1-18.5-.15-27.75s0-18.5.09-27.75c.12,9.25.1,18.5.16,27.75S561.61,352.86,561.51,362.11Z"/><path class="cls-2" d="M534.29,377.66c-.12-9.25-.1-18.5-.15-27.75s0-18.49.1-27.74c.11,9.25.09,18.5.15,27.74S534.39,368.41,534.29,377.66Z"/><path class="cls-2" d="M593.61,343.33c-.11-9.24-.09-18.49-.15-27.74s0-18.5.1-27.75c.12,9.25.1,18.5.15,27.75S593.71,334.09,593.61,343.33Z"/><path class="cls-11" d="M490.53,254.32,525.87,234c-4,2.32-6.53,7.31-6.53,14.41,0,14.12,9.9,31.22,22.1,38.19,6,3.47,11.53,3.78,15.52,1.49l-35.34,20.32c-4,2.29-9.47,2-15.52-1.49C493.91,300,484,282.85,484,268.74,484,261.63,486.49,256.64,490.53,254.32Z"/><path class="cls-12" d="M486.25,246.87l104.58-60.38c5.08-2.92,12.07-2.52,19.79,1.9,15.55,8.9,28.17,30.71,28.19,48.71,0,9.06-3.18,15.43-8.33,18.39L525.9,315.87c5.15-3,8.33-9.33,8.33-18.39,0-18-12.64-39.81-28.19-48.71C498.32,244.35,491.33,244,486.25,246.87Z"/><path class="cls-13" d="M477.93,265.26c0-18,12.57-25.39,28.11-16.49s28.17,30.71,28.19,48.71S521.66,322.87,506.11,314,477.94,283.26,477.93,265.26ZM528.15,294c0-14.11-9.91-31.21-22.1-38.19s-22.06-1.18-22,12.93,9.9,31.21,22.09,38.19,22.06,1.19,22-12.93"/><path class="cls-14" d="M451.68,292.64c0-11.23,7.84-15.84,17.54-10.29s17.57,19.16,17.58,30.38S479,328.57,469.25,323,451.69,303.87,451.68,292.64Z"/><path class="cls-15" d="M456.87,281.17l35.34-20.32c3.17-1.82,7.53-1.57,12.34,1.19,9.7,5.55,17.57,19.15,17.58,30.38,0,5.65-2,9.63-5.19,11.47L481.61,324.2c3.21-1.84,5.19-5.81,5.19-11.47,0-11.22-7.89-24.83-17.58-30.38C464.4,279.6,460,279.34,456.87,281.17Z"/><path class="cls-16" d="M422.58,293.64l35.34-20.32c-4,2.32-6.53,7.32-6.52,14.42,0,14.12,9.9,31.21,22.09,38.19,6.05,3.46,11.54,3.78,15.52,1.49l-35.34,20.31c-4,2.29-9.46,2-15.52-1.49-12.19-7-22.08-24.07-22.09-38.19C416.05,301,418.55,296,422.58,293.64Z"/><path class="cls-17" d="M418.3,286.19l35.34-20.32c5.08-2.92,12.07-2.51,19.79,1.91,15.55,8.89,28.17,30.7,28.19,48.7,0,9.06-3.18,15.43-8.33,18.39L458,355.19c5.14-3,8.33-9.34,8.32-18.4,0-18-12.63-39.8-28.18-48.7C430.37,283.67,423.38,283.27,418.3,286.19Z"/><path class="cls-18" d="M410,304.57c0-18,12.57-25.38,28.12-16.48s28.16,30.71,28.18,48.7-12.57,25.39-28.12,16.49S410,322.57,410,304.57Zm50.22,28.74c0-14.11-9.91-31.21-22.1-38.18s-22.05-1.19-22,12.92,9.9,31.21,22.09,38.19,22.06,1.19,22.05-12.93"/><path class="cls-19" d="M353.89,340.69l70.67-40.63c3.17-1.82,7.53-1.57,12.35,1.19,9.7,5.55,17.56,19.15,17.57,30.38,0,5.65-2,9.62-5.19,11.47l-70.67,40.63c3.21-1.85,5.2-5.82,5.19-11.48,0-11.22-7.87-24.83-17.57-30.38C361.42,339.12,357.06,338.87,353.89,340.69Z"/><path class="cls-20" d="M348.7,352.16c0-11.23,7.84-15.84,17.54-10.29S383.8,361,383.81,372.25s-7.84,15.84-17.53,10.29S348.71,363.38,348.7,352.16Z"/><path class="cls-21" d="M211.07,293.12l42.43-24.33C256,357,316.3,461.46,391.23,507.36l-42.42,24.33C273.87,485.79,213.59,381.38,211.07,293.12Z"/><polygon class="cls-22" points="211.07 281.82 253.5 257.49 379.26 329.62 336.83 353.95 211.07 281.82"/><polygon class="cls-23" points="358.56 391.6 400.99 367.27 400.99 512.95 358.56 537.29 358.56 391.6"/><path class="cls-24" d="M496.51,520l-42.42,24.34c-24.71,14.17-58.31,12.85-95.53-7L401,513C438.2,532.85,471.81,534.17,496.51,520Z"/><path class="cls-25" d="M253.28,194.22l42.43-24.34c-25,14.37-40.94,44.64-42.21,87.61l-42.43,24.33C212.34,238.85,228.24,208.58,253.28,194.22Z"/><path class="cls-26" d="M341.34,347.75l42.43-24.33a10,10,0,0,1,7.46-.81L348.81,347A10.06,10.06,0,0,0,341.34,347.75Z"/><path class="cls-26" d="M408.46,366.46,366,390.8a10.07,10.07,0,0,0,4.51-6.21L413,360.26A10.11,10.11,0,0,1,408.46,366.46Z"/><path class="cls-27" d="M358.56,352.54,401,328.21A41.17,41.17,0,0,1,413,349l-42.42,24.33A41.27,41.27,0,0,0,358.56,352.54Z"/><polygon class="cls-28" points="358.56 206.86 400.99 182.52 400.99 328.21 358.56 352.54 358.56 206.86"/><polygon class="cls-29" points="370.55 373.29 412.97 348.96 538.73 421.09 496.3 445.42 370.55 373.29"/><path class="cls-30" d="M194,277.71c0-102.15,71.47-143.95,159.65-93.38S513.33,358.7,513.33,460.84s-71.48,143.94-159.64,93.37S194,379.84,194,277.71Zm302.26,179L370.54,384.59c-1.66,5.73-6.21,8.39-12,7V537.29c74.94,40.06,135.22,4.8,137.74-80.57M336.83,365.25,211.07,293.12c2.52,88.26,62.8,192.67,137.74,238.57V386a41.16,41.16,0,0,1-12-20.76M496.3,445.42c-2.52-88.25-62.8-192.66-137.74-238.56V352.54a41.18,41.18,0,0,1,12,20.75L496.3,445.42M211.07,281.82,336.83,354c1.67-5.72,6.21-8.38,12-7V201.26c-74.94-40.06-135.22-4.8-137.74,80.56"/><path class="cls-31" d="M241.36,173.43l42.42-24.34c28.85-16.54,68.53-14.22,112.33,10.91,88.17,50.57,159.64,174.36,159.64,276.51,0,51.39-18.1,87.51-47.31,104.27L466,565.12c29.22-16.76,47.32-52.88,47.32-104.28,0-102.14-71.48-225.94-159.64-276.51C309.88,159.21,270.2,156.88,241.36,173.43Z"/><g class="cls-7"><path class="cls-8" d="M145,555l.1-48.91a1.32,1.32,0,0,1,.78-1.09,4.18,4.18,0,0,1,3.79,0,1.35,1.35,0,0,1,.79,1.11L150.36,555a1.37,1.37,0,0,0-.79-1.11,4.2,4.2,0,0,0-3.8,0A1.32,1.32,0,0,0,145,555Z"/><path class="cls-8" d="M145.79,556.07a1.16,1.16,0,0,1,0-2.19,4.2,4.2,0,0,1,3.8,0,1.17,1.17,0,0,1,0,2.2A4.15,4.15,0,0,1,145.79,556.07Z"/></g><g class="cls-7"><path class="cls-9" d="M164.24,665.19l-3.53,2a1,1,0,0,0,.41-.92l3.54-2A1,1,0,0,1,164.24,665.19Z"/><path class="cls-9" d="M131.32,521.1l3.53-2a1,1,0,0,1,1,.1l-3.54,2A1,1,0,0,0,131.32,521.1Z"/><polygon class="cls-9" points="132.32 521.2 135.86 519.17 163.12 534.77 159.59 536.8 132.32 521.2"/><polygon class="cls-9" points="161 539.25 164.54 537.22 164.66 664.26 161.13 666.3 161 539.25"/><path class="cls-10" d="M130.9,522c0-.9.64-1.27,1.42-.82l27.27,15.6a3.11,3.11,0,0,1,1.41,2.45l.12,127c0,.9-.62,1.27-1.41.82l-27.26-15.6a3.1,3.1,0,0,1-1.42-2.45Z"/><path class="cls-9" d="M159.59,536.8l3.53-2a3.12,3.12,0,0,1,1.42,2.45l-3.54,2A3.11,3.11,0,0,0,159.59,536.8Z"/></g><polygon class="cls-2" points="137.19 654.52 137 589.33 137.06 524.14 137.25 589.33 137.19 654.52"/><polygon class="cls-2" points="146.08 659.35 145.89 594.16 145.95 528.97 146.14 594.16 146.08 659.35"/><polygon class="cls-2" points="155.48 664.9 155.29 599.71 155.35 534.52 155.54 599.71 155.48 664.9"/><path class="cls-2" d="M160.21,631.58c-5.06-2.78-10.07-5.68-15.11-8.51s-10-5.75-15-8.72c5.07,2.78,10.07,5.67,15.11,8.51S155.25,628.61,160.21,631.58Z"/><path class="cls-2" d="M161.11,652.69C156,649.91,151,647,146,644.18s-10-5.75-15-8.72c5.07,2.78,10.08,5.68,15.12,8.51S156.15,649.73,161.11,652.69Z"/><path class="cls-2" d="M161.07,607.34c-5.07-2.78-10.07-5.67-15.11-8.5s-10-5.76-15-8.72c5.07,2.77,10.07,5.67,15.11,8.5S156.11,604.38,161.07,607.34Z"/><path class="cls-2" d="M161,580.54c-5.07-2.78-10.07-5.67-15.11-8.5s-10-5.76-15-8.72c5.07,2.77,10.07,5.67,15.11,8.5S156.08,577.58,161,580.54Z"/><path class="cls-2" d="M160.54,555.21c-5.07-2.78-10.07-5.67-15.11-8.51s-10-5.75-15-8.72c5.07,2.78,10.08,5.68,15.12,8.51S155.58,552.25,160.54,555.21Z"/><path class="cls-32" d="M290.59,386.17c0-11.23,7.83-15.84,17.53-10.29S325.69,395,325.7,406.27s-7.84,15.83-17.54,10.28S290.6,397.4,290.59,386.17Z"/><path class="cls-33" d="M295.78,374.7l35.33-20.31c3.17-1.83,7.53-1.57,12.35,1.18C353.16,361.12,361,374.73,361,386c0,5.65-2,9.62-5.19,11.46l-35.34,20.32c3.21-1.85,5.2-5.82,5.19-11.47,0-11.23-7.88-24.84-17.58-30.39C303.31,373.13,299,372.88,295.78,374.7Z"/><path class="cls-34" d="M254,390.93l35.33-20.31c4.05-2.33,9.63-2,15.78,1.51,12.4,7.1,22.46,24.48,22.47,38.84,0,7.21-2.53,12.29-6.63,14.65l-35.34,20.31c4.11-2.36,6.64-7.43,6.64-14.65,0-14.36-10.08-31.74-22.47-38.83C263.57,388.92,258,388.6,254,390.93Z"/><path class="cls-35" d="M247.31,405.59c0-14.35,10-20.24,22.42-13.14s22.45,24.47,22.47,38.83-10,20.23-22.42,13.13S247.33,419.94,247.31,405.59Z"/><path class="cls-36" d="M213.46,430.8c0-11.23,7.84-15.84,17.54-10.29s17.57,19.16,17.58,30.38-7.85,15.84-17.54,10.29S213.47,442,213.46,430.8Z"/><path class="cls-37" d="M218.65,419.32,254,399c3.17-1.82,7.53-1.57,12.34,1.19,9.7,5.55,17.57,19.15,17.58,30.38,0,5.65-2,9.62-5.19,11.47l-35.33,20.31c3.21-1.84,5.19-5.82,5.19-11.47,0-11.22-7.88-24.83-17.58-30.38C226.18,417.75,221.82,417.5,218.65,419.32Z"/><path class="cls-38" d="M171.38,439.31,206.72,419c-4,2.32-6.53,7.31-6.53,14.41,0,14.12,9.9,31.21,22.1,38.19,6.05,3.47,11.53,3.78,15.52,1.49L202.47,493.4c-4,2.29-9.46,2-15.52-1.49-12.19-7-22.08-24.07-22.09-38.19C164.85,446.62,167.35,441.63,171.38,439.31Z"/><path class="cls-39" d="M167.1,431.86l35.34-20.31c5.08-2.92,12.07-2.52,19.79,1.9,15.55,8.9,28.17,30.71,28.18,48.7,0,9.06-3.17,15.43-8.32,18.39l-35.34,20.32c5.15-3,8.34-9.33,8.33-18.4,0-18-12.63-39.8-28.18-48.7C179.17,429.34,172.18,428.94,167.1,431.86Z"/><path class="cls-40" d="M158.78,450.24c0-18,12.57-25.38,28.12-16.48s28.16,30.71,28.18,48.7S202.51,507.85,187,499,158.79,468.25,158.78,450.24ZM209,479c0-14.11-9.91-31.2-22.1-38.18s-22.06-1.19-22,12.92,9.9,31.22,22.09,38.19S209,493.1,209,479"/><path class="cls-41" d="M102.69,486.36l70.67-40.63c3.17-1.82,7.53-1.57,12.35,1.19,9.7,5.55,17.56,19.15,17.57,30.38,0,5.65-2,9.63-5.19,11.47L127.42,529.4c3.21-1.85,5.2-5.82,5.19-11.47,0-11.23-7.88-24.83-17.57-30.38C110.22,484.79,105.86,484.54,102.69,486.36Z"/><path class="cls-42" d="M97.5,497.83c0-11.23,7.84-15.83,17.54-10.28s17.56,19.15,17.57,30.38-7.84,15.83-17.53,10.28S97.51,509.06,97.5,497.83Z"/><path class="cls-43" d="M92.83,484.2l6.34-3.62c4-2.33,9.63-2,15.79,1.52,12.39,7.09,22.45,24.48,22.46,38.83,0,7.22-2.53,12.29-6.63,14.65l-6.35,3.62c4.1-2.36,6.64-7.43,6.64-14.65,0-14.36-10.08-31.74-22.47-38.83C102.45,482.19,96.88,481.87,92.83,484.2Z"/><path class="cls-44" d="M86.19,498.86c0-14.35,10-20.24,22.42-13.14s22.45,24.47,22.47,38.83-10,20.23-22.42,13.14S86.21,513.21,86.19,498.86Z"/><ellipse class="cls-26" cx="104.76" cy="513.97" rx="19.72" ry="34.04" transform="translate(-244.44 122.56) rotate(-30.22)"/><path class="cls-26" d="M53.77,547.39a2.19,2.19,0,0,1-1.16-.35,5.25,5.25,0,0,1-2.34-4.15L80.6,499.57c-.26,15.19,10.34,33.95,23.69,41.9,4.26,2.54,8.29,3.67,11.8,3.54Z"/><path class="cls-26" d="M83.36,488.79a21.09,21.09,0,0,0-2.76,10.78L50.27,542.89a2,2,0,0,1,.27-1.06Z"/><ellipse class="cls-26" cx="52.65" cy="544.32" rx="1.95" ry="3.37" transform="translate(-266.79 100.46) rotate(-30.22)"/><path class="cls-45" d="M116.09,545l-62.32,2.38c.74,0,1.26-.63,1.27-1.65a5.22,5.22,0,0,0-2.34-4.14c-.93-.56-1.76-.43-2.16.23h0l32.82-53c4.11-6.65,12.41-8,21.87-2.32,13.34,7.95,24,26.71,23.68,41.9C128.74,538.7,123.57,544.72,116.09,545Z"/><g class="cls-7"><path class="cls-8" d="M145.39,467.22l.09-48.91a1.33,1.33,0,0,1,.78-1.09,4.17,4.17,0,0,1,3.8,0,1.35,1.35,0,0,1,.79,1.1l-.1,48.91a1.31,1.31,0,0,0-.79-1.1,4.15,4.15,0,0,0-3.79,0A1.33,1.33,0,0,0,145.39,467.22Z"/><path class="cls-8" d="M146.19,468.33a1.16,1.16,0,0,1,0-2.2,4.15,4.15,0,0,1,3.79,0,1.16,1.16,0,0,1,0,2.19A4.18,4.18,0,0,1,146.19,468.33Z"/></g><g class="cls-7"><path class="cls-9" d="M165.79,439.11l-3.53,2a1,1,0,0,0,.42-.92l3.53-2A1,1,0,0,1,165.79,439.11Z"/><path class="cls-9" d="M132.87,295l3.54-2a1,1,0,0,1,1,.1l-3.54,2A1,1,0,0,0,132.87,295Z"/><polygon class="cls-9" points="133.87 295.12 137.41 293.09 164.67 308.69 161.14 310.73 133.87 295.12"/><polygon class="cls-9" points="162.55 313.17 166.09 311.14 166.21 438.19 162.68 440.22 162.55 313.17"/><path class="cls-10" d="M132.46,296c0-.91.63-1.28,1.41-.83l27.27,15.61a3.08,3.08,0,0,1,1.41,2.44l.13,127.05c0,.91-.63,1.28-1.42.83L134,425.44a3.12,3.12,0,0,1-1.42-2.45Z"/><path class="cls-9" d="M161.14,310.73l3.53-2a3.1,3.1,0,0,1,1.42,2.45l-3.54,2A3.08,3.08,0,0,0,161.14,310.73Z"/></g><polygon class="cls-2" points="138.74 428.44 138.55 363.25 138.61 298.06 138.8 363.25 138.74 428.44"/><polygon class="cls-2" points="147.63 433.27 147.44 368.08 147.5 302.89 147.69 368.08 147.63 433.27"/><polygon class="cls-2" points="157.03 438.83 156.84 373.64 156.9 308.45 157.09 373.64 157.03 438.83"/><path class="cls-2" d="M161.77,405.5c-5.07-2.78-10.08-5.67-15.11-8.5s-10-5.76-15-8.73c5.07,2.78,10.07,5.68,15.11,8.51S156.8,402.54,161.77,405.5Z"/><path class="cls-2" d="M162.66,426.61c-5.07-2.77-10.07-5.67-15.11-8.5s-10-5.76-15-8.72c5.07,2.77,10.07,5.67,15.11,8.5S157.7,423.65,162.66,426.61Z"/><path class="cls-2" d="M162.62,381.26c-5.07-2.77-10.07-5.67-15.11-8.5s-10-5.76-15-8.72c5.07,2.78,10.08,5.67,15.11,8.5S157.66,378.3,162.62,381.26Z"/><path class="cls-2" d="M162.6,354.46c-5.07-2.77-10.08-5.67-15.12-8.5s-10-5.76-15-8.72c5.07,2.78,10.07,5.67,15.11,8.5S157.63,351.5,162.6,354.46Z"/><path class="cls-2" d="M162.09,329.13c-5.06-2.78-10.07-5.67-15.11-8.5s-10-5.76-15-8.72c5.07,2.77,10.07,5.67,15.11,8.5S157.13,326.17,162.09,329.13Z"/><g class="cls-7"><path class="cls-8" d="M542.68,225.76l.05-34a1.32,1.32,0,0,1,.78-1.09,4.2,4.2,0,0,1,3.8,0,1.37,1.37,0,0,1,.79,1.11l-.06,34a1.31,1.31,0,0,0-.79-1.1,4.18,4.18,0,0,0-3.79,0A1.33,1.33,0,0,0,542.68,225.76Z"/><path class="cls-8" d="M543.48,226.87a1.16,1.16,0,0,1,0-2.2,4.18,4.18,0,0,1,3.79,0,1.16,1.16,0,0,1,0,2.2A4.22,4.22,0,0,1,543.48,226.87Z"/></g><g class="cls-7"><path class="cls-9" d="M599.83,109.4l3.54,2a1,1,0,0,0-1,.1l-3.54-2A1,1,0,0,1,599.83,109.4Z"/><path class="cls-9" d="M498.35,226.37l-3.53-2a1,1,0,0,1-.42-.92l3.53,2A1,1,0,0,0,498.35,226.37Z"/><polygon class="cls-9" points="499.29 170.78 495.76 168.76 598.84 109.5 602.38 111.52 499.29 170.78"/><polygon class="cls-9" points="497.93 225.45 494.39 223.42 494.35 171.2 497.88 173.23 497.93 225.45"/><path class="cls-10" d="M497.88,173.23a3.14,3.14,0,0,1,1.41-2.45l103.09-59.26c.78-.45,1.41-.08,1.41.83l.05,52.22a3.11,3.11,0,0,1-1.41,2.44L499.35,226.27c-.78.45-1.42.08-1.42-.82Z"/><path class="cls-9" d="M497.88,173.23l-3.53-2a3.07,3.07,0,0,1,1.41-2.44l3.53,2A3.14,3.14,0,0,0,497.88,173.23Z"/></g><polygon class="cls-2" points="603.82 138.26 550.96 168.99 497.97 199.5 550.83 168.77 603.82 138.26"/><polygon class="cls-2" points="603.98 122.56 551.12 153.29 498.13 183.81 550.99 153.08 603.98 122.56"/><polygon class="cls-2" points="604.11 154.13 551.25 184.85 498.26 215.37 551.12 184.64 604.11 154.13"/><path class="cls-2" d="M550.89,196.84c-.12-9.25-.1-18.5-.15-27.75s0-18.5.1-27.74c.11,9.24.09,18.49.15,27.74S551,187.59,550.89,196.84Z"/><path class="cls-2" d="M523.67,212.39c-.11-9.25-.1-18.5-.15-27.74s0-18.5.1-27.75c.11,9.25.1,18.5.15,27.75S523.77,203.14,523.67,212.39Z"/><path class="cls-2" d="M583,178.06c-.12-9.24-.1-18.49-.15-27.74s0-18.5.09-27.75c.12,9.25.1,18.5.15,27.75S583.09,168.82,583,178.06Z"/></svg>