<svg id="Layer_1" data-name="Layer 1" xmlns="http://www.w3.org/2000/svg" xmlns:xlink="http://www.w3.org/1999/xlink" viewBox="0 0 800 800"><defs><style>.cls-1{fill:none;}.cls-2{fill:#fff;}.cls-3{fill:url(#linear-gradient);}.cls-4{clip-path:url(#clip-path);}.cls-5{fill:url(#linear-gradient-2);}.cls-6{fill:#e6e6e5;}.cls-7{isolation:isolate;}.cls-8{fill:#333;}.cls-9{fill:#1e2e3f;}.cls-10{fill:#2a4156;}.cls-11{fill:url(#linear-gradient-3);}.cls-12{fill:url(#linear-gradient-4);}.cls-13{fill:url(#linear-gradient-5);}.cls-14{fill:url(#linear-gradient-6);}.cls-15{fill:url(#linear-gradient-7);}.cls-16{fill:url(#linear-gradient-8);}.cls-17{fill:url(#linear-gradient-9);}.cls-18{fill:url(#linear-gradient-10);}.cls-19{fill:url(#linear-gradient-11);}.cls-20{fill:url(#linear-gradient-12);}.cls-21{fill:url(#linear-gradient-13);}.cls-22{fill:url(#linear-gradient-14);}.cls-23{fill:url(#linear-gradient-15);}.cls-24{fill:url(#linear-gradient-16);}.cls-25{fill:url(#linear-gradient-17);}.cls-26{fill:#f05b42;}.cls-27{fill:url(#linear-gradient-18);}.cls-28{fill:url(#linear-gradient-19);}.cls-29{fill:url(#linear-gradient-20);}.cls-30{fill:url(#linear-gradient-21);}.cls-31{fill:url(#linear-gradient-22);}.cls-32{fill:url(#linear-gradient-23);}.cls-33{fill:url(#linear-gradient-24);}.cls-34{fill:url(#linear-gradient-25);}.cls-35{fill:url(#linear-gradient-26);}.cls-36{fill:url(#linear-gradient-27);}.cls-37{fill:url(#linear-gradient-28);}.cls-38{fill:url(#linear-gradient-29);}.cls-39{fill:url(#linear-gradient-30);}.cls-40{fill:url(#linear-gradient-31);}.cls-41{fill:url(#linear-gradient-32);}.cls-42{fill:url(#linear-gradient-33);}.cls-43{fill:url(#linear-gradient-34);}.cls-44{fill:url(#linear-gradient-35);}.cls-45{fill:url(#linear-gradient-36);}</style><linearGradient id="linear-gradient" x1="42.37" y1="366.01" x2="736.05" y2="366.01" gradientUnits="userSpaceOnUse"><stop offset="0" stop-color="#4b445e"/><stop offset="1" stop-color="#231c2b"/></linearGradient><clipPath id="clip-path"><path class="cls-1" d="M643.15,272.65a7,7,0,0,1-2.83-5.22c-7-117.57-104.49-210.78-223.8-210.78A224,224,0,0,0,228.43,158.81,7,7,0,0,1,222.9,162c-101,5.18-181.35,88.37-182,190.49-.67,105.78,86.21,193.24,192,193.24a191.85,191.85,0,0,0,61.68-10.14,7,7,0,0,1,8.77,3.95c33.52,80.4,112.5,137.11,204.84,138,123.59,1.18,226.39-100.61,226.39-224.2A223.86,223.86,0,0,0,643.15,272.65Z"/></clipPath><linearGradient id="linear-gradient-2" x1="409.84" y1="397.03" x2="1001.76" y2="397.03" gradientTransform="translate(776 -116.14) rotate(73.75)" gradientUnits="userSpaceOnUse"><stop offset="0" stop-color="#1d3768"/><stop offset="1" stop-color="#006095"/></linearGradient><linearGradient id="linear-gradient-3" x1="400.56" y1="75.28" x2="663.89" y2="461.37" gradientUnits="userSpaceOnUse"><stop offset="0" stop-color="#f05b42"/><stop offset="1" stop-color="#ee3943"/></linearGradient><linearGradient id="linear-gradient-4" x1="506.25" y1="250.25" x2="658.81" y2="250.25" xlink:href="#linear-gradient-3"/><linearGradient id="linear-gradient-5" x1="1065.13" y1="3017.04" x2="734.92" y2="2720.09" gradientTransform="translate(284 -2731.87) rotate(13.01)" gradientUnits="userSpaceOnUse"><stop offset="0" stop-color="#f27446"/><stop offset="1" stop-color="#f16343"/></linearGradient><linearGradient id="linear-gradient-6" x1="895.56" y1="2928.13" x2="877.06" y2="2901.7" gradientTransform="translate(284 -2731.87) rotate(13.01)" gradientUnits="userSpaceOnUse"><stop offset="0" stop-color="#f79954"/><stop offset="1" stop-color="#f48049"/></linearGradient><linearGradient id="linear-gradient-7" x1="916.7" y1="2913.33" x2="898.2" y2="2886.91" xlink:href="#linear-gradient-6"/><linearGradient id="linear-gradient-8" x1="335.88" y1="119.39" x2="599.21" y2="505.48" xlink:href="#linear-gradient-3"/><linearGradient id="linear-gradient-9" x1="618.59" y1="394.81" x2="264.26" y2="172.58" gradientUnits="userSpaceOnUse"><stop offset="0" stop-color="#f05b42"/><stop offset="1" stop-color="#ee3b42"/></linearGradient><linearGradient id="linear-gradient-10" x1="1012.84" y1="3075.19" x2="682.63" y2="2778.24" xlink:href="#linear-gradient-5"/><linearGradient id="linear-gradient-11" x1="836.75" y1="2969.3" x2="818.25" y2="2942.87" xlink:href="#linear-gradient-6"/><linearGradient id="linear-gradient-12" x1="799.08" y1="2995.67" x2="780.58" y2="2969.24" xlink:href="#linear-gradient-6"/><linearGradient id="linear-gradient-13" x1="185.98" y1="221.62" x2="449.31" y2="607.72" xlink:href="#linear-gradient-3"/><linearGradient id="linear-gradient-14" x1="235" y1="188.19" x2="498.33" y2="574.29" xlink:href="#linear-gradient-3"/><linearGradient id="linear-gradient-15" x1="224.53" y1="195.33" x2="487.86" y2="581.43" xlink:href="#linear-gradient-3"/><linearGradient id="linear-gradient-16" x1="221.58" y1="197.34" x2="484.91" y2="583.44" xlink:href="#linear-gradient-3"/><linearGradient id="linear-gradient-17" x1="243.67" y1="182.28" x2="507" y2="568.38" xlink:href="#linear-gradient-3"/><linearGradient id="linear-gradient-18" x1="276.29" y1="160.03" x2="539.62" y2="546.12" xlink:href="#linear-gradient-3"/><linearGradient id="linear-gradient-19" x1="310.53" y1="136.68" x2="573.86" y2="522.78" xlink:href="#linear-gradient-3"/><linearGradient id="linear-gradient-20" x1="301.27" y1="142.99" x2="564.6" y2="529.09" xlink:href="#linear-gradient-3"/><linearGradient id="linear-gradient-21" x1="-2329.81" y1="-4078.67" x2="-1878.27" y2="-4078.67" gradientTransform="translate(2853.9 -3492.22) rotate(-120)" xlink:href="#linear-gradient-5"/><linearGradient id="linear-gradient-22" x1="312.6" y1="135.27" x2="575.93" y2="521.37" xlink:href="#linear-gradient-3"/><linearGradient id="linear-gradient-23" x1="742.9" y1="3031.59" x2="724.4" y2="3005.16" xlink:href="#linear-gradient-6"/><linearGradient id="linear-gradient-24" x1="764.04" y1="3016.79" x2="745.54" y2="2990.36" xlink:href="#linear-gradient-6"/><linearGradient id="linear-gradient-25" x1="188.61" y1="219.83" x2="451.94" y2="605.93" xlink:href="#linear-gradient-3"/><linearGradient id="linear-gradient-26" x1="689.43" y1="3068.12" x2="740.33" y2="3068.12" xlink:href="#linear-gradient-5"/><linearGradient id="linear-gradient-27" x1="670.63" y1="3082.18" x2="652.13" y2="3055.75" xlink:href="#linear-gradient-6"/><linearGradient id="linear-gradient-28" x1="691.77" y1="3067.38" x2="673.27" y2="3040.95" xlink:href="#linear-gradient-6"/><linearGradient id="linear-gradient-29" x1="96.62" y1="282.57" x2="359.95" y2="668.67" xlink:href="#linear-gradient-3"/><linearGradient id="linear-gradient-30" x1="111.45" y1="272.45" x2="374.78" y2="658.55" xlink:href="#linear-gradient-3"/><linearGradient id="linear-gradient-31" x1="820.68" y1="3291.48" x2="490.48" y2="2994.54" xlink:href="#linear-gradient-5"/><linearGradient id="linear-gradient-32" x1="599.65" y1="3131.86" x2="581.15" y2="3105.44" xlink:href="#linear-gradient-6"/><linearGradient id="linear-gradient-33" x1="561.98" y1="3158.23" x2="543.48" y2="3131.81" xlink:href="#linear-gradient-6"/><linearGradient id="linear-gradient-34" x1="768.08" y1="3349.97" x2="437.88" y2="3053.03" xlink:href="#linear-gradient-5"/><linearGradient id="linear-gradient-35" x1="760.41" y1="3358.51" x2="430.2" y2="3061.56" xlink:href="#linear-gradient-5"/><linearGradient id="linear-gradient-36" x1="-8.88" y1="354.52" x2="254.45" y2="740.62" xlink:href="#linear-gradient-3"/><symbol id="hex_star" data-name="hex_star" viewBox="0 0 11.92 10.33"><polygon class="cls-2" points="8.94 0 2.98 0 0 5.16 2.98 10.33 8.94 10.33 11.92 5.16 8.94 0"/></symbol><symbol id="hex_stars" data-name="hex_stars" viewBox="0 0 28.55 17.86"><use width="11.92" height="10.33" transform="translate(16.62 7)" xlink:href="#hex_star"/><use width="11.92" height="10.33" transform="translate(6.57) scale(0.68)" xlink:href="#hex_star"/><use width="11.92" height="10.33" transform="translate(2.53 13.48) scale(0.42)" xlink:href="#hex_star"/><use width="11.92" height="10.33" transform="translate(0 6.83) scale(0.26)" xlink:href="#hex_star"/></symbol></defs><title>premium</title><path class="cls-3" d="M644.62,271.57a7,7,0,0,1-2.83-5.22C634.84,148.78,537.31,55.58,418,55.58A224,224,0,0,0,229.9,157.73a7,7,0,0,1-5.52,3.19C123.4,166.1,43,249.28,42.38,351.4c-.67,105.79,86.2,193.24,192,193.24a191.63,191.63,0,0,0,61.69-10.14,7.06,7.06,0,0,1,8.77,4c33.52,80.41,112.49,137.11,204.83,138,123.59,1.18,226.39-100.6,226.39-224.19A223.88,223.88,0,0,0,644.62,271.57Z"/><g class="cls-4"><path class="cls-5" d="M728.72,941.1C836.48,909.68,898.37,796.86,867,689.1a203.28,203.28,0,0,0-27.09-57.53,202.27,202.27,0,0,0,5.2-129.25c-31.41-107.76-144.23-169.65-252-138.24A202.6,202.6,0,0,0,470.25,464.29a174.07,174.07,0,1,0,9.13,347C514.08,913.8,623.79,971.68,728.72,941.1Z"/></g><use width="28.55" height="17.86" transform="translate(368.87 585.46)" xlink:href="#hex_stars"/><use width="28.55" height="17.86" transform="translate(376.47 600.11)" xlink:href="#hex_stars"/><use width="28.55" height="17.86" transform="translate(413.46 653.99)" xlink:href="#hex_stars"/><use width="28.55" height="17.86" transform="translate(454.99 698.57)" xlink:href="#hex_stars"/><use width="28.55" height="17.86" transform="translate(493.75 696.02)" xlink:href="#hex_stars"/><use width="28.55" height="17.86" transform="translate(549.06 675.99)" xlink:href="#hex_stars"/><use width="28.55" height="17.86" transform="translate(619.47 657.48)" xlink:href="#hex_stars"/><use width="28.55" height="17.86" transform="translate(689.59 622.6)" xlink:href="#hex_stars"/><use width="28.55" height="17.86" transform="translate(746.71 545.27)" xlink:href="#hex_stars"/><use width="28.55" height="17.86" transform="translate(770.56 486.85)" xlink:href="#hex_stars"/><use width="28.55" height="17.86" transform="translate(764.53 369.87)" xlink:href="#hex_stars"/><use width="28.55" height="17.86" transform="translate(746 336.89)" xlink:href="#hex_stars"/><use width="28.55" height="17.86" transform="translate(693.01 377.76)" xlink:href="#hex_stars"/><use width="28.55" height="17.86" transform="translate(661.98 428.04)" xlink:href="#hex_stars"/><use width="28.55" height="17.86" transform="translate(633.43 518.15)" xlink:href="#hex_stars"/><use width="28.55" height="17.86" transform="translate(567.55 602.07)" xlink:href="#hex_stars"/><use width="28.55" height="17.86" transform="translate(545.82 633.73)" xlink:href="#hex_stars"/><use width="28.55" height="17.86" transform="translate(519.64 620.45)" xlink:href="#hex_stars"/><use width="28.55" height="17.86" transform="translate(528.51 635.63)" xlink:href="#hex_stars"/><use width="28.55" height="17.86" transform="translate(498.32 594.56)" xlink:href="#hex_stars"/><use width="28.55" height="17.86" transform="translate(483.47 583.22)" xlink:href="#hex_stars"/><use width="28.55" height="17.86" transform="translate(543.51 545.75)" xlink:href="#hex_stars"/><use width="28.55" height="17.86" transform="translate(675.36 442.59)" xlink:href="#hex_stars"/><use width="28.55" height="17.86" transform="translate(699.41 397.44)" xlink:href="#hex_stars"/><use width="28.55" height="17.86" transform="translate(599.22 704.59)" xlink:href="#hex_stars"/><use width="28.55" height="17.86" transform="translate(567.85 726.57)" xlink:href="#hex_stars"/><use width="28.55" height="17.86" transform="translate(638.03 646.43)" xlink:href="#hex_stars"/><use width="28.55" height="17.86" transform="translate(686.33 559.19)" xlink:href="#hex_stars"/><use width="28.55" height="17.86" transform="translate(708.65 504.28)" xlink:href="#hex_stars"/><use width="28.55" height="17.86" transform="translate(698.38 484.83)" xlink:href="#hex_stars"/><use width="28.55" height="17.86" transform="translate(679.79 481.26)" xlink:href="#hex_stars"/><use width="28.55" height="17.86" transform="translate(659.76 506.3)" xlink:href="#hex_stars"/><use width="28.55" height="17.86" transform="translate(621.08 552.27)" xlink:href="#hex_stars"/><use width="28.55" height="17.86" transform="translate(592.91 576.76)" xlink:href="#hex_stars"/><use width="28.55" height="17.86" transform="translate(564.33 582.13)" xlink:href="#hex_stars"/><use width="28.55" height="17.86" transform="translate(525.57 586.53)" xlink:href="#hex_stars"/><use width="28.55" height="17.86" transform="translate(491.71 617.55)" xlink:href="#hex_stars"/><use width="28.55" height="17.86" transform="translate(464.71 622.2)" xlink:href="#hex_stars"/><use width="28.55" height="17.86" transform="translate(415.28 625.81)" xlink:href="#hex_stars"/><use width="28.55" height="17.86" transform="translate(368.67 631.15)" xlink:href="#hex_stars"/><use width="28.55" height="17.86" transform="translate(326.85 620.99)" xlink:href="#hex_stars"/><use width="28.55" height="17.86" transform="translate(316.41 637.94)" xlink:href="#hex_stars"/><use width="28.55" height="17.86" transform="translate(349.56 628.47)" xlink:href="#hex_stars"/><use width="28.55" height="17.86" transform="translate(451.55 642.69)" xlink:href="#hex_stars"/><use width="28.55" height="17.86" transform="translate(512.77 652.94)" xlink:href="#hex_stars"/><use width="28.55" height="17.86" transform="translate(579.41 623.7)" xlink:href="#hex_stars"/><use width="28.55" height="17.86" transform="translate(625.33 594.19)" xlink:href="#hex_stars"/><use width="28.55" height="17.86" transform="translate(656.03 584.52)" xlink:href="#hex_stars"/><use width="28.55" height="17.86" transform="translate(706.46 544.59)" xlink:href="#hex_stars"/><use width="28.55" height="17.86" transform="translate(729.77 473.55)" xlink:href="#hex_stars"/><use width="28.55" height="17.86" transform="translate(740.72 403.78)" xlink:href="#hex_stars"/><use width="28.55" height="17.86" transform="translate(728.06 353.73)" xlink:href="#hex_stars"/><use width="28.55" height="17.86" transform="translate(717.83 338.11)" xlink:href="#hex_stars"/><use width="28.55" height="17.86" transform="translate(720.19 376.88)" xlink:href="#hex_stars"/><use width="28.55" height="17.86" transform="translate(718.25 411.35)" xlink:href="#hex_stars"/><use width="28.55" height="17.86" transform="translate(726.87 433.8)" xlink:href="#hex_stars"/><use width="28.55" height="17.86" transform="translate(704.93 428.6)" xlink:href="#hex_stars"/><use width="28.55" height="17.86" transform="translate(708.09 461.41)" xlink:href="#hex_stars"/><use width="28.55" height="17.86" transform="translate(690.22 510.48)" xlink:href="#hex_stars"/><use width="28.55" height="17.86" transform="translate(683.61 535.75)" xlink:href="#hex_stars"/><use width="28.55" height="17.86" transform="translate(683.16 581.93)" xlink:href="#hex_stars"/><use width="28.55" height="17.86" transform="translate(660.17 610.14)" xlink:href="#hex_stars"/><use width="28.55" height="17.86" transform="translate(631.05 623.52)" xlink:href="#hex_stars"/><use width="28.55" height="17.86" transform="translate(588.32 648.05)" xlink:href="#hex_stars"/><use width="28.55" height="17.86" transform="translate(527.39 672.09)" xlink:href="#hex_stars"/><use width="28.55" height="17.86" transform="translate(465.47 672.7)" xlink:href="#hex_stars"/><use width="28.55" height="17.86" transform="translate(410.26 688.39)" xlink:href="#hex_stars"/><use width="28.55" height="17.86" transform="translate(382.92 688.19)" xlink:href="#hex_stars"/><use width="28.55" height="17.86" transform="translate(386.77 662.15)" xlink:href="#hex_stars"/><use width="28.55" height="17.86" transform="translate(535.77 608.93)" xlink:href="#hex_stars"/><use width="28.55" height="17.86" transform="translate(602.12 606.69)" xlink:href="#hex_stars"/><use width="28.55" height="17.86" transform="translate(652.43 551.75)" xlink:href="#hex_stars"/><use width="28.55" height="17.86" transform="translate(657.06 455.35)" xlink:href="#hex_stars"/><use width="28.55" height="17.86" transform="translate(665.18 382.59)" xlink:href="#hex_stars"/><use width="28.55" height="17.86" transform="translate(680.98 333.65)" xlink:href="#hex_stars"/><use width="28.55" height="17.86" transform="translate(702.52 294.41)" xlink:href="#hex_stars"/><use width="28.55" height="17.86" transform="translate(690.06 282.5)" xlink:href="#hex_stars"/><use width="28.55" height="17.86" transform="translate(616.22 347.92)" xlink:href="#hex_stars"/><use width="28.55" height="17.86" transform="translate(554.41 450.56)" xlink:href="#hex_stars"/><use width="28.55" height="17.86" transform="translate(537.5 484.34)" xlink:href="#hex_stars"/><use width="28.55" height="17.86" transform="translate(502.67 509.97)" xlink:href="#hex_stars"/><use width="28.55" height="17.86" transform="translate(449.28 548.88)" xlink:href="#hex_stars"/><use width="28.55" height="17.86" transform="translate(405.25 577.61)" xlink:href="#hex_stars"/><use width="28.55" height="17.86" transform="translate(425.02 542.08)" xlink:href="#hex_stars"/><use width="28.55" height="17.86" transform="translate(533.93 460.27)" xlink:href="#hex_stars"/><use width="28.55" height="17.86" transform="translate(570.76 418.22)" xlink:href="#hex_stars"/><use width="28.55" height="17.86" transform="translate(594.03 371.13)" xlink:href="#hex_stars"/><use width="28.55" height="17.86" transform="translate(623.59 310.34)" xlink:href="#hex_stars"/><use width="28.55" height="17.86" transform="translate(639.44 282.53)" xlink:href="#hex_stars"/><use width="28.55" height="17.86" transform="translate(619.12 290.24)" xlink:href="#hex_stars"/><use width="28.55" height="17.86" transform="translate(611.91 391.91)" xlink:href="#hex_stars"/><use width="28.55" height="17.86" transform="translate(615.12 442.05)" xlink:href="#hex_stars"/><use width="28.55" height="17.86" transform="translate(618.76 481.01)" xlink:href="#hex_stars"/><use width="28.55" height="17.86" transform="translate(610.78 521.61)" xlink:href="#hex_stars"/><use width="28.55" height="17.86" transform="translate(585.91 549.71)" xlink:href="#hex_stars"/><use width="28.55" height="17.86" transform="translate(543.42 568.18)" xlink:href="#hex_stars"/><use width="28.55" height="17.86" transform="translate(486.6 564.63)" xlink:href="#hex_stars"/><use width="28.55" height="17.86" transform="translate(446.32 603.65)" xlink:href="#hex_stars"/><use width="28.55" height="17.86" transform="translate(437.2 588.15)" xlink:href="#hex_stars"/><use width="28.55" height="17.86" transform="translate(525.57 524.2)" xlink:href="#hex_stars"/><use width="28.55" height="17.86" transform="translate(580.16 454.11)" xlink:href="#hex_stars"/><use width="28.55" height="17.86" transform="translate(623.45 370.71)" xlink:href="#hex_stars"/><use width="28.55" height="17.86" transform="translate(654.05 311.51)" xlink:href="#hex_stars"/><use width="28.55" height="17.86" transform="translate(675.18 254.96)" xlink:href="#hex_stars"/><use width="28.55" height="17.86" transform="translate(651.77 264.61)" xlink:href="#hex_stars"/><use width="28.55" height="17.86" transform="translate(519.39 415.25)" xlink:href="#hex_stars"/><use width="28.55" height="17.86" transform="translate(476.28 476.42)" xlink:href="#hex_stars"/><use width="28.55" height="17.86" transform="translate(414.94 508.15)" xlink:href="#hex_stars"/><use width="28.55" height="17.86" transform="translate(314.86 458.08)" xlink:href="#hex_stars"/><use width="28.55" height="17.86" transform="translate(298.69 431.5)" xlink:href="#hex_stars"/><use width="28.55" height="17.86" transform="translate(420.93 364.35)" xlink:href="#hex_stars"/><use width="28.55" height="17.86" transform="translate(514.74 296.98)" xlink:href="#hex_stars"/><use width="28.55" height="17.86" transform="translate(543.38 264.39)" xlink:href="#hex_stars"/><use width="28.55" height="17.86" transform="translate(563.32 229.47)" xlink:href="#hex_stars"/><use width="28.55" height="17.86" transform="translate(490.15 364.31)" xlink:href="#hex_stars"/><use width="28.55" height="17.86" transform="translate(411.42 476.31)" xlink:href="#hex_stars"/><use width="28.55" height="17.86" transform="translate(329.7 516.37)" xlink:href="#hex_stars"/><use width="28.55" height="17.86" transform="translate(244.72 528.63)" xlink:href="#hex_stars"/><use width="28.55" height="17.86" transform="translate(273.01 498.81)" xlink:href="#hex_stars"/><use width="28.55" height="17.86" transform="translate(388.31 417.47)" xlink:href="#hex_stars"/><use width="28.55" height="17.86" transform="translate(475.42 332.95)" xlink:href="#hex_stars"/><use width="28.55" height="17.86" transform="translate(538.77 248)" xlink:href="#hex_stars"/><use width="28.55" height="17.86" transform="translate(577.88 197.07)" xlink:href="#hex_stars"/><use width="28.55" height="17.86" transform="translate(474.74 291.55)" xlink:href="#hex_stars"/><use width="28.55" height="17.86" transform="translate(330.61 467.6)" xlink:href="#hex_stars"/><use width="28.55" height="17.86" transform="translate(243.91 485.88)" xlink:href="#hex_stars"/><use width="28.55" height="17.86" transform="translate(234.97 503.53)" xlink:href="#hex_stars"/><use width="28.55" height="17.86" transform="translate(218.95 494.49)" xlink:href="#hex_stars"/><use width="28.55" height="17.86" transform="translate(163.66 477.19)" xlink:href="#hex_stars"/><use width="28.55" height="17.86" transform="translate(123.1 463.92)" xlink:href="#hex_stars"/><use width="28.55" height="17.86" transform="translate(69.32 420.42)" xlink:href="#hex_stars"/><use width="28.55" height="17.86" transform="translate(82.45 398.9)" xlink:href="#hex_stars"/><use width="28.55" height="17.86" transform="translate(246.53 371.12)" xlink:href="#hex_stars"/><use width="28.55" height="17.86" transform="translate(376.8 325.56)" xlink:href="#hex_stars"/><use width="28.55" height="17.86" transform="translate(477.52 148.28)" xlink:href="#hex_stars"/><use width="28.55" height="17.86" transform="translate(490.35 85.31)" xlink:href="#hex_stars"/><use width="28.55" height="17.86" transform="translate(462.97 123.59)" xlink:href="#hex_stars"/><use width="28.55" height="17.86" transform="translate(319.33 268.18)" xlink:href="#hex_stars"/><use width="28.55" height="17.86" transform="translate(179.9 321.76)" xlink:href="#hex_stars"/><use width="28.55" height="17.86" transform="translate(77.96 323.63)" xlink:href="#hex_stars"/><use width="28.55" height="17.86" transform="translate(155.53 283.37)" xlink:href="#hex_stars"/><use width="28.55" height="17.86" transform="translate(360.4 199.45)" xlink:href="#hex_stars"/><use width="28.55" height="17.86" transform="translate(462.58 102.03)" xlink:href="#hex_stars"/><use width="28.55" height="17.86" transform="translate(484.07 108.75)" xlink:href="#hex_stars"/><use width="28.55" height="17.86" transform="translate(334.19 323.14)" xlink:href="#hex_stars"/><use width="28.55" height="17.86" transform="translate(199.49 335.12)" xlink:href="#hex_stars"/><use width="28.55" height="17.86" transform="translate(111.16 321.36)" xlink:href="#hex_stars"/><use width="28.55" height="17.86" transform="translate(245.93 193.99)" xlink:href="#hex_stars"/><use width="28.55" height="17.86" transform="translate(367.61 144.73)" xlink:href="#hex_stars"/><use width="28.55" height="17.86" transform="translate(435.01 135.76)" xlink:href="#hex_stars"/><use width="28.55" height="17.86" transform="translate(451.47 144.35)" xlink:href="#hex_stars"/><use width="28.55" height="17.86" transform="translate(422.5 255.9)" xlink:href="#hex_stars"/><use width="28.55" height="17.86" transform="translate(356.54 313.13)" xlink:href="#hex_stars"/><use width="28.55" height="17.86" transform="translate(246.16 282.02)" xlink:href="#hex_stars"/><use width="28.55" height="17.86" transform="translate(200.68 264.95)" xlink:href="#hex_stars"/><use width="28.55" height="17.86" transform="translate(230.82 271.02)" xlink:href="#hex_stars"/><use width="28.55" height="17.86" transform="translate(438.1 230.85)" xlink:href="#hex_stars"/><use width="28.55" height="17.86" transform="translate(507.36 195.38)" xlink:href="#hex_stars"/><use width="28.55" height="17.86" transform="translate(464.77 196.09)" xlink:href="#hex_stars"/><use width="28.55" height="17.86" transform="translate(229.17 184.78)" xlink:href="#hex_stars"/><use width="28.55" height="17.86" transform="translate(118.3 210.64)" xlink:href="#hex_stars"/><use width="28.55" height="17.86" transform="translate(103.34 226.73)" xlink:href="#hex_stars"/><path class="cls-6" d="M180.26,677.35a10.7,10.7,0,0,1-5.84-1.73l-.7-.4c-25.59-14.63-26.18-15-26.4-15.11a13.1,13.1,0,0,1-6.29-11c0-.62-.06-62.52-.1-94.66a20.49,20.49,0,0,1-5.11.66l-.88,0c-11.09.44-58.68,2.32-61.14,2.33-6.72,0-9.77-3.77-11.1-6.43a13.62,13.62,0,0,1-2.13-10.74c.47-1.9.47-1.9,17.24-29.15C80.48,506.72,93.88,485,95,483.39l.16-.24A21.75,21.75,0,0,1,112.26,473l3.27-1.82.23-.12a22.08,22.08,0,0,1,9.41-2,26.07,26.07,0,0,1,6.13.73L155.39,456V437.79c-3.09-1.76-6.06-3.46-6.79-3.93a13.22,13.22,0,0,1-6-10.47c0-.22,0-.33-.1-88.38,0-21.46,0-38.52,0-39a11.08,11.08,0,0,1,5.95-9.91l2-1.19,1.09-.63a10.8,10.8,0,0,1,5.24-1.36,11.36,11.36,0,0,1,5.6,1.51c.25.15,26.28,15,27.4,15.69a13.09,13.09,0,0,1,6.31,11c0,.63.07,70.66.1,104L212,406l5.49-3.16a24.89,24.89,0,0,1,12.5-3.17l1.22,0c-10.78-24.2-27.13-69.55-27.13-122,0-87.21,45.68-110.2,53-113.3,4.07-2.28,30.56-17.16,41.59-23.86,9.25-5.62,27-11.62,49-11.62,25.16,0,50,7.61,73.83,22.61a342.69,342.69,0,0,1,83.08,73.6,11.66,11.66,0,0,1-.13-1.78c0-2.18,0-51,0-52.16a12.85,12.85,0,0,1,6.41-11.11c.9-.52,101.29-58.21,103-59.23a11.23,11.23,0,0,1,5.67-1.57,10.81,10.81,0,0,1,5.34,1.43l.25.14c2.85,1.59,3.52,2,4.1,2.4a11,11,0,0,1,4.64,9.09c0,.25.05,51.53.05,52.22a13.18,13.18,0,0,1-6.43,11.11l-.62.36a52,52,0,0,1,9.88,4.32c14,7.79,33.91,31.92,32.08,59-1.09,15.24-8.08,21.37-11,23.3-.74.49-6.64,3.94-15.08,8.84a11.62,11.62,0,0,1,1.78,6.38s.05,50.68.05,51.57a12.9,12.9,0,0,1-6.63,11.63L578.45,375.2a272.11,272.11,0,0,1,7.3,61.31c0,22.73-4.19,78.65-43,106.77-26.77,19.39-47.33,28.84-51.59,30.72-4.07,2.46-20.91,11.56-47.17,11.57-24.63,0-50.25-7.81-76.13-23.2-47.07-28-76.42-62.48-91.18-83.17a25.65,25.65,0,0,1-8.88,9.59l-35.71,20.56a23.36,23.36,0,0,1-12.7,3.46,33.39,33.39,0,0,1-15.69-4.21l-23,13.22c3.11,1.77,6.62,3.78,7.66,4.42a12.1,12.1,0,0,1,6.21,11.36c0,7.66.12,126.25.12,126.77a10.79,10.79,0,0,1-5.44,9.49l-.36.21c-.91.53-2.89,1.67-3.39,1.94A10.89,10.89,0,0,1,180.26,677.35Z"/><g class="cls-7"><path class="cls-8" d="M563.3,328.28l.05-34a1.34,1.34,0,0,1,.78-1.1,4.18,4.18,0,0,1,3.79,0,1.34,1.34,0,0,1,.79,1.11l-.05,34a1.33,1.33,0,0,0-.79-1.1,4.15,4.15,0,0,0-3.79,0A1.33,1.33,0,0,0,563.3,328.28Z"/><path class="cls-8" d="M564.09,329.39a1.16,1.16,0,0,1,0-2.2,4.15,4.15,0,0,1,3.79,0,1.16,1.16,0,0,1,0,2.19A4.2,4.2,0,0,1,564.09,329.39Z"/></g><g class="cls-7"><path class="cls-9" d="M630.45,274.67l3.54,2a1,1,0,0,0-1,.1l-3.54-2A1,1,0,0,1,630.45,274.67Z"/><path class="cls-9" d="M529,391.64l-3.54-2a1,1,0,0,1-.42-.92l3.54,2A1,1,0,0,0,529,391.64Z"/><polygon class="cls-9" points="529.91 336.05 526.37 334.02 629.46 274.77 633 276.79 529.91 336.05"/><polygon class="cls-9" points="528.55 390.72 525.01 388.69 524.96 336.47 528.5 338.5 528.55 390.72"/><path class="cls-10" d="M528.5,338.5a3.14,3.14,0,0,1,1.41-2.45L633,276.79c.78-.45,1.41-.08,1.41.83l.05,52.22a3.12,3.12,0,0,1-1.41,2.44L530,391.54c-.77.45-1.41.08-1.41-.82Z"/><path class="cls-9" d="M528.5,338.5l-3.54-2a3.15,3.15,0,0,1,1.41-2.45l3.54,2A3.14,3.14,0,0,0,528.5,338.5Z"/></g><polygon class="cls-2" points="634.43 303.53 581.57 334.26 528.59 364.77 581.45 334.04 634.43 303.53"/><polygon class="cls-2" points="634.59 287.83 581.73 318.56 528.75 349.07 581.61 318.35 634.59 287.83"/><polygon class="cls-2" points="634.72 319.39 581.86 350.12 528.88 380.64 581.74 349.91 634.72 319.39"/><path class="cls-2" d="M581.51,362.11c-.12-9.25-.1-18.5-.15-27.75s0-18.5.09-27.75c.12,9.25.1,18.5.16,27.75S581.61,352.86,581.51,362.11Z"/><path class="cls-2" d="M554.29,377.66c-.12-9.25-.1-18.5-.15-27.75s0-18.49.1-27.74c.11,9.25.09,18.5.15,27.74S554.39,368.41,554.29,377.66Z"/><path class="cls-2" d="M613.61,343.33c-.11-9.24-.09-18.49-.15-27.74s0-18.5.1-27.75c.12,9.25.1,18.5.15,27.75S613.71,334.09,613.61,343.33Z"/><path class="cls-11" d="M510.53,254.32,545.87,234c-4,2.32-6.53,7.31-6.53,14.41,0,14.12,9.9,31.22,22.1,38.19,6,3.47,11.53,3.78,15.52,1.49l-35.34,20.32c-4,2.29-9.47,2-15.52-1.49C513.91,300,504,282.85,504,268.74,504,261.63,506.49,256.64,510.53,254.32Z"/><path class="cls-12" d="M506.25,246.87l104.58-60.38c5.08-2.92,12.07-2.52,19.79,1.9,15.55,8.9,28.17,30.71,28.19,48.71,0,9.06-3.18,15.43-8.33,18.39L545.9,315.87c5.15-3,8.33-9.33,8.33-18.39,0-18-12.64-39.81-28.19-48.71C518.32,244.35,511.33,244,506.25,246.87Z"/><path class="cls-13" d="M497.93,265.26c0-18,12.57-25.39,28.11-16.49s28.17,30.71,28.19,48.71S541.66,322.87,526.11,314,497.94,283.26,497.93,265.26ZM548.15,294c0-14.11-9.91-31.21-22.1-38.19s-22.06-1.18-22,12.93,9.9,31.21,22.09,38.19,22.06,1.19,22-12.93"/><path class="cls-14" d="M471.68,292.64c0-11.23,7.84-15.84,17.54-10.29s17.57,19.16,17.58,30.38S499,328.57,489.25,323,471.69,303.87,471.68,292.64Z"/><path class="cls-15" d="M476.87,281.17l35.34-20.32c3.17-1.82,7.53-1.57,12.34,1.19,9.7,5.55,17.57,19.15,17.58,30.38,0,5.65-2,9.63-5.19,11.47L501.61,324.2c3.21-1.84,5.19-5.81,5.19-11.47,0-11.22-7.89-24.83-17.58-30.38C484.4,279.6,480,279.34,476.87,281.17Z"/><path class="cls-16" d="M442.58,293.64l35.34-20.32c-4,2.32-6.53,7.32-6.52,14.42,0,14.12,9.9,31.21,22.09,38.19,6.05,3.46,11.54,3.78,15.52,1.49l-35.34,20.31c-4,2.29-9.46,2-15.52-1.49-12.19-7-22.08-24.07-22.09-38.19C436.05,301,438.55,296,442.58,293.64Z"/><path class="cls-17" d="M438.3,286.19l35.34-20.32c5.08-2.92,12.07-2.51,19.79,1.91,15.55,8.89,28.17,30.7,28.19,48.7,0,9.06-3.18,15.43-8.33,18.39L478,355.19c5.14-3,8.33-9.34,8.32-18.4,0-18-12.63-39.8-28.18-48.7C450.37,283.67,443.38,283.27,438.3,286.19Z"/><path class="cls-18" d="M430,304.57c0-18,12.57-25.38,28.12-16.48s28.16,30.71,28.18,48.7-12.57,25.39-28.12,16.49S430,322.57,430,304.57Zm50.22,28.74c0-14.11-9.91-31.21-22.1-38.18s-22.05-1.19-22,12.92,9.9,31.21,22.09,38.19,22.06,1.19,22.05-12.93"/><path class="cls-19" d="M373.89,340.69l70.67-40.63c3.17-1.82,7.53-1.57,12.35,1.19,9.7,5.55,17.56,19.15,17.57,30.38,0,5.65-2,9.62-5.19,11.47l-70.67,40.63c3.21-1.85,5.2-5.82,5.19-11.48,0-11.22-7.87-24.83-17.57-30.38C381.42,339.12,377.06,338.87,373.89,340.69Z"/><path class="cls-20" d="M368.7,352.16c0-11.23,7.84-15.84,17.54-10.29S403.8,361,403.81,372.25s-7.84,15.84-17.53,10.29S368.71,363.38,368.7,352.16Z"/><path class="cls-21" d="M231.07,293.12l42.43-24.33C276,357,336.3,461.46,411.23,507.36l-42.42,24.33C293.87,485.79,233.59,381.38,231.07,293.12Z"/><polygon class="cls-22" points="231.07 281.82 273.5 257.49 399.26 329.62 356.83 353.95 231.07 281.82"/><polygon class="cls-23" points="378.56 391.6 420.99 367.27 420.99 512.95 378.56 537.29 378.56 391.6"/><path class="cls-24" d="M516.51,520l-42.42,24.34c-24.71,14.17-58.31,12.85-95.53-7L421,513C458.2,532.85,491.81,534.17,516.51,520Z"/><path class="cls-25" d="M273.28,194.22l42.43-24.34c-25,14.37-40.94,44.64-42.21,87.61l-42.43,24.33C232.34,238.85,248.24,208.58,273.28,194.22Z"/><path class="cls-26" d="M361.34,347.75l42.43-24.33a10,10,0,0,1,7.46-.81L368.81,347A10.06,10.06,0,0,0,361.34,347.75Z"/><path class="cls-26" d="M428.46,366.46,386,390.8a10.07,10.07,0,0,0,4.51-6.21L433,360.26A10.11,10.11,0,0,1,428.46,366.46Z"/><path class="cls-27" d="M378.56,352.54,421,328.21A41.17,41.17,0,0,1,433,349l-42.42,24.33A41.27,41.27,0,0,0,378.56,352.54Z"/><polygon class="cls-28" points="378.56 206.86 420.99 182.52 420.99 328.21 378.56 352.54 378.56 206.86"/><polygon class="cls-29" points="390.55 373.29 432.97 348.96 558.73 421.09 516.3 445.42 390.55 373.29"/><path class="cls-30" d="M214,277.71c0-102.15,71.47-143.95,159.65-93.38S533.33,358.7,533.33,460.84s-71.48,143.94-159.64,93.37S214,379.84,214,277.71Zm302.26,179L390.54,384.59c-1.66,5.73-6.21,8.39-12,7V537.29c74.94,40.06,135.22,4.8,137.74-80.57M356.83,365.25,231.07,293.12c2.52,88.26,62.8,192.67,137.74,238.57V386a41.16,41.16,0,0,1-12-20.76M516.3,445.42c-2.52-88.25-62.8-192.66-137.74-238.56V352.54a41.18,41.18,0,0,1,12,20.75L516.3,445.42M231.07,281.82,356.83,354c1.67-5.72,6.21-8.38,12-7V201.26c-74.94-40.06-135.22-4.8-137.74,80.56"/><path class="cls-31" d="M261.36,173.43l42.42-24.34c28.85-16.54,68.53-14.22,112.33,10.91,88.17,50.57,159.64,174.36,159.64,276.51,0,51.39-18.1,87.51-47.31,104.27L486,565.12c29.22-16.76,47.32-52.88,47.32-104.28,0-102.14-71.48-225.94-159.64-276.51C329.88,159.21,290.2,156.88,261.36,173.43Z"/><g class="cls-7"><path class="cls-8" d="M165,555l.1-48.91a1.32,1.32,0,0,1,.78-1.09,4.18,4.18,0,0,1,3.79,0,1.35,1.35,0,0,1,.79,1.11L170.36,555a1.37,1.37,0,0,0-.79-1.11,4.2,4.2,0,0,0-3.8,0A1.32,1.32,0,0,0,165,555Z"/><path class="cls-8" d="M165.79,556.07a1.16,1.16,0,0,1,0-2.19,4.2,4.2,0,0,1,3.8,0,1.17,1.17,0,0,1,0,2.2A4.15,4.15,0,0,1,165.79,556.07Z"/></g><g class="cls-7"><path class="cls-9" d="M184.24,665.19l-3.53,2a1,1,0,0,0,.41-.92l3.54-2A1,1,0,0,1,184.24,665.19Z"/><path class="cls-9" d="M151.32,521.1l3.53-2a1,1,0,0,1,1,.1l-3.54,2A1,1,0,0,0,151.32,521.1Z"/><polygon class="cls-9" points="152.32 521.2 155.86 519.17 183.12 534.77 179.59 536.8 152.32 521.2"/><polygon class="cls-9" points="181 539.25 184.54 537.22 184.66 664.26 181.13 666.3 181 539.25"/><path class="cls-10" d="M150.9,522c0-.9.64-1.27,1.42-.82l27.27,15.6a3.11,3.11,0,0,1,1.41,2.45l.12,127c0,.9-.62,1.27-1.41.82l-27.26-15.6a3.1,3.1,0,0,1-1.42-2.45Z"/><path class="cls-9" d="M179.59,536.8l3.53-2a3.12,3.12,0,0,1,1.42,2.45l-3.54,2A3.11,3.11,0,0,0,179.59,536.8Z"/></g><polygon class="cls-2" points="157.19 654.52 157 589.33 157.06 524.14 157.25 589.33 157.19 654.52"/><polygon class="cls-2" points="166.08 659.35 165.89 594.16 165.95 528.97 166.14 594.16 166.08 659.35"/><polygon class="cls-2" points="175.48 664.9 175.29 599.71 175.35 534.52 175.54 599.71 175.48 664.9"/><path class="cls-2" d="M180.21,631.58c-5.06-2.78-10.07-5.68-15.11-8.51s-10-5.75-15-8.72c5.07,2.78,10.07,5.67,15.11,8.51S175.25,628.61,180.21,631.58Z"/><path class="cls-2" d="M181.11,652.69C176,649.91,171,647,166,644.18s-10-5.75-15-8.72c5.07,2.78,10.08,5.68,15.12,8.51S176.15,649.73,181.11,652.69Z"/><path class="cls-2" d="M181.07,607.34c-5.07-2.78-10.07-5.67-15.11-8.5s-10-5.76-15-8.72c5.07,2.77,10.07,5.67,15.11,8.5S176.11,604.38,181.07,607.34Z"/><path class="cls-2" d="M181,580.54c-5.07-2.78-10.07-5.67-15.11-8.5s-10-5.76-15-8.72c5.07,2.77,10.07,5.67,15.11,8.5S176.08,577.58,181,580.54Z"/><path class="cls-2" d="M180.54,555.21c-5.07-2.78-10.07-5.67-15.11-8.51s-10-5.75-15-8.72c5.07,2.78,10.08,5.68,15.12,8.51S175.58,552.25,180.54,555.21Z"/><path class="cls-32" d="M310.59,386.17c0-11.23,7.83-15.84,17.53-10.29S345.69,395,345.7,406.27s-7.84,15.83-17.54,10.28S310.6,397.4,310.59,386.17Z"/><path class="cls-33" d="M315.78,374.7l35.33-20.31c3.17-1.83,7.53-1.57,12.35,1.18C373.16,361.12,381,374.73,381,386c0,5.65-2,9.62-5.19,11.46l-35.34,20.32c3.21-1.85,5.2-5.82,5.19-11.47,0-11.23-7.88-24.84-17.58-30.39C323.31,373.13,319,372.88,315.78,374.7Z"/><path class="cls-34" d="M274,390.93l35.33-20.31c4.05-2.33,9.63-2,15.78,1.51,12.4,7.1,22.46,24.48,22.47,38.84,0,7.21-2.53,12.29-6.63,14.65l-35.34,20.31c4.11-2.36,6.64-7.43,6.64-14.65,0-14.36-10.08-31.74-22.47-38.83C283.57,388.92,278,388.6,274,390.93Z"/><path class="cls-35" d="M267.31,405.59c0-14.35,10-20.24,22.42-13.14s22.45,24.47,22.47,38.83-10,20.23-22.42,13.13S267.33,419.94,267.31,405.59Z"/><path class="cls-36" d="M233.46,430.8c0-11.23,7.84-15.84,17.54-10.29s17.57,19.16,17.58,30.38-7.85,15.84-17.54,10.29S233.47,442,233.46,430.8Z"/><path class="cls-37" d="M238.65,419.32,274,399c3.17-1.82,7.53-1.57,12.34,1.19,9.7,5.55,17.57,19.15,17.58,30.38,0,5.65-2,9.62-5.19,11.47l-35.33,20.31c3.21-1.84,5.19-5.82,5.19-11.47,0-11.22-7.88-24.83-17.58-30.38C246.18,417.75,241.82,417.5,238.65,419.32Z"/><path class="cls-38" d="M191.38,439.31,226.72,419c-4,2.32-6.53,7.31-6.53,14.41,0,14.12,9.9,31.21,22.1,38.19,6.05,3.47,11.53,3.78,15.52,1.49L222.47,493.4c-4,2.29-9.46,2-15.52-1.49-12.19-7-22.08-24.07-22.09-38.19C184.85,446.62,187.35,441.63,191.38,439.31Z"/><path class="cls-39" d="M187.1,431.86l35.34-20.31c5.08-2.92,12.07-2.52,19.79,1.9,15.55,8.9,28.17,30.71,28.18,48.7,0,9.06-3.17,15.43-8.32,18.39l-35.34,20.32c5.15-3,8.34-9.33,8.33-18.4,0-18-12.63-39.8-28.18-48.7C199.17,429.34,192.18,428.94,187.1,431.86Z"/><path class="cls-40" d="M178.78,450.24c0-18,12.57-25.38,28.12-16.48s28.16,30.71,28.18,48.7S222.51,507.85,207,499,178.79,468.25,178.78,450.24ZM229,479c0-14.11-9.91-31.2-22.1-38.18s-22.06-1.19-22,12.92,9.9,31.22,22.09,38.19S229,493.1,229,479"/><path class="cls-41" d="M122.69,486.36l70.67-40.63c3.17-1.82,7.53-1.57,12.35,1.19,9.7,5.55,17.56,19.15,17.57,30.38,0,5.65-2,9.63-5.19,11.47L147.42,529.4c3.21-1.85,5.2-5.82,5.19-11.47,0-11.23-7.88-24.83-17.57-30.38C130.22,484.79,125.86,484.54,122.69,486.36Z"/><path class="cls-42" d="M117.5,497.83c0-11.23,7.84-15.83,17.54-10.28s17.56,19.15,17.57,30.38-7.84,15.83-17.53,10.28S117.51,509.06,117.5,497.83Z"/><path class="cls-43" d="M112.83,484.2l6.34-3.62c4-2.33,9.63-2,15.79,1.52,12.39,7.09,22.45,24.48,22.46,38.83,0,7.22-2.53,12.29-6.63,14.65l-6.35,3.62c4.1-2.36,6.64-7.43,6.64-14.65,0-14.36-10.08-31.74-22.47-38.83C122.45,482.19,116.88,481.87,112.83,484.2Z"/><path class="cls-44" d="M106.19,498.86c0-14.35,10-20.24,22.42-13.14s22.45,24.47,22.47,38.83-10,20.23-22.42,13.14S106.21,513.21,106.19,498.86Z"/><ellipse class="cls-26" cx="124.76" cy="513.97" rx="19.72" ry="34.04" transform="translate(-241.72 132.63) rotate(-30.22)"/><path class="cls-26" d="M73.77,547.39a2.19,2.19,0,0,1-1.16-.35,5.25,5.25,0,0,1-2.34-4.15l30.33-43.32c-.26,15.19,10.34,33.95,23.69,41.9,4.26,2.54,8.29,3.67,11.8,3.54Z"/><path class="cls-26" d="M103.36,488.79a21.09,21.09,0,0,0-2.76,10.78L70.27,542.89a2,2,0,0,1,.27-1.06Z"/><ellipse class="cls-26" cx="72.65" cy="544.32" rx="1.95" ry="3.37" transform="translate(-264.07 110.53) rotate(-30.22)"/><path class="cls-45" d="M136.09,545l-62.32,2.38c.74,0,1.26-.63,1.27-1.65a5.22,5.22,0,0,0-2.34-4.14c-.93-.56-1.76-.43-2.16.23h0l32.82-53c4.11-6.65,12.41-8,21.87-2.32,13.34,7.95,24,26.71,23.68,41.9C148.74,538.7,143.57,544.72,136.09,545Z"/><g class="cls-7"><path class="cls-8" d="M165.39,467.22l.09-48.91a1.33,1.33,0,0,1,.78-1.09,4.17,4.17,0,0,1,3.8,0,1.35,1.35,0,0,1,.79,1.1l-.1,48.91a1.31,1.31,0,0,0-.79-1.1,4.15,4.15,0,0,0-3.79,0A1.33,1.33,0,0,0,165.39,467.22Z"/><path class="cls-8" d="M166.19,468.33a1.16,1.16,0,0,1,0-2.2,4.15,4.15,0,0,1,3.79,0,1.16,1.16,0,0,1,0,2.19A4.18,4.18,0,0,1,166.19,468.33Z"/></g><g class="cls-7"><path class="cls-9" d="M185.79,439.11l-3.53,2a1,1,0,0,0,.42-.92l3.53-2A1,1,0,0,1,185.79,439.11Z"/><path class="cls-9" d="M152.87,295l3.54-2a1,1,0,0,1,1,.1l-3.54,2A1,1,0,0,0,152.87,295Z"/><polygon class="cls-9" points="153.87 295.12 157.41 293.09 184.67 308.69 181.14 310.73 153.87 295.12"/><polygon class="cls-9" points="182.55 313.17 186.09 311.14 186.21 438.19 182.68 440.22 182.55 313.17"/><path class="cls-10" d="M152.46,296c0-.91.63-1.28,1.41-.83l27.27,15.61a3.08,3.08,0,0,1,1.41,2.44l.13,127.05c0,.91-.63,1.28-1.42.83L154,425.44a3.12,3.12,0,0,1-1.42-2.45Z"/><path class="cls-9" d="M181.14,310.73l3.53-2a3.1,3.1,0,0,1,1.42,2.45l-3.54,2A3.08,3.08,0,0,0,181.14,310.73Z"/></g><polygon class="cls-2" points="158.74 428.44 158.55 363.25 158.61 298.06 158.8 363.25 158.74 428.44"/><polygon class="cls-2" points="167.63 433.27 167.44 368.08 167.5 302.89 167.69 368.08 167.63 433.27"/><polygon class="cls-2" points="177.03 438.83 176.84 373.64 176.9 308.45 177.09 373.64 177.03 438.83"/><path class="cls-2" d="M181.77,405.5c-5.07-2.78-10.08-5.67-15.11-8.5s-10-5.76-15-8.73c5.07,2.78,10.07,5.68,15.11,8.51S176.8,402.54,181.77,405.5Z"/><path class="cls-2" d="M182.66,426.61c-5.07-2.77-10.07-5.67-15.11-8.5s-10-5.76-15-8.72c5.07,2.77,10.07,5.67,15.11,8.5S177.7,423.65,182.66,426.61Z"/><path class="cls-2" d="M182.62,381.26c-5.07-2.77-10.07-5.67-15.11-8.5s-10-5.76-15-8.72c5.07,2.78,10.08,5.67,15.11,8.5S177.66,378.3,182.62,381.26Z"/><path class="cls-2" d="M182.6,354.46c-5.07-2.77-10.08-5.67-15.12-8.5s-10-5.76-15-8.72c5.07,2.78,10.07,5.67,15.11,8.5S177.63,351.5,182.6,354.46Z"/><path class="cls-2" d="M182.09,329.13c-5.06-2.78-10.07-5.67-15.11-8.5s-10-5.76-15-8.72c5.07,2.77,10.07,5.67,15.11,8.5S177.13,326.17,182.09,329.13Z"/><g class="cls-7"><path class="cls-8" d="M562.68,225.76l.05-34a1.32,1.32,0,0,1,.78-1.09,4.2,4.2,0,0,1,3.8,0,1.37,1.37,0,0,1,.79,1.11l-.06,34a1.31,1.31,0,0,0-.79-1.1,4.18,4.18,0,0,0-3.79,0A1.33,1.33,0,0,0,562.68,225.76Z"/><path class="cls-8" d="M563.48,226.87a1.16,1.16,0,0,1,0-2.2,4.18,4.18,0,0,1,3.79,0,1.16,1.16,0,0,1,0,2.2A4.22,4.22,0,0,1,563.48,226.87Z"/></g><g class="cls-7"><path class="cls-9" d="M619.83,109.4l3.54,2a1,1,0,0,0-1,.1l-3.54-2A1,1,0,0,1,619.83,109.4Z"/><path class="cls-9" d="M518.35,226.37l-3.53-2a1,1,0,0,1-.42-.92l3.53,2A1,1,0,0,0,518.35,226.37Z"/><polygon class="cls-9" points="519.29 170.78 515.76 168.76 618.84 109.5 622.38 111.52 519.29 170.78"/><polygon class="cls-9" points="517.93 225.45 514.39 223.42 514.35 171.2 517.88 173.23 517.93 225.45"/><path class="cls-10" d="M517.88,173.23a3.14,3.14,0,0,1,1.41-2.45l103.09-59.26c.78-.45,1.41-.08,1.41.83l.05,52.22a3.11,3.11,0,0,1-1.41,2.44L519.35,226.27c-.78.45-1.42.08-1.42-.82Z"/><path class="cls-9" d="M517.88,173.23l-3.53-2a3.07,3.07,0,0,1,1.41-2.44l3.53,2A3.14,3.14,0,0,0,517.88,173.23Z"/></g><polygon class="cls-2" points="623.82 138.26 570.96 168.99 517.97 199.5 570.83 168.77 623.82 138.26"/><polygon class="cls-2" points="623.98 122.56 571.12 153.29 518.13 183.81 570.99 153.08 623.98 122.56"/><polygon class="cls-2" points="624.11 154.13 571.25 184.85 518.26 215.37 571.12 184.64 624.11 154.13"/><path class="cls-2" d="M570.89,196.84c-.12-9.25-.1-18.5-.15-27.75s0-18.5.1-27.74c.11,9.24.09,18.49.15,27.74S571,187.59,570.89,196.84Z"/><path class="cls-2" d="M543.67,212.39c-.11-9.25-.1-18.5-.15-27.74s0-18.5.1-27.75c.11,9.25.1,18.5.15,27.75S543.77,203.14,543.67,212.39Z"/><path class="cls-2" d="M603,178.06c-.12-9.24-.1-18.49-.15-27.74s0-18.5.09-27.75c.12,9.25.1,18.5.15,27.75S603.09,168.82,603,178.06Z"/></svg>