<svg id="Layer_1" data-name="Layer 1" xmlns="http://www.w3.org/2000/svg" xmlns:xlink="http://www.w3.org/1999/xlink" viewBox="0 0 800 800"><defs><style>.cls-1,.cls-29{fill:none;}.cls-2{fill:#fff;}.cls-3{fill:url(#linear-gradient);}.cls-4{clip-path:url(#clip-path);}.cls-5{fill:url(#linear-gradient-2);}.cls-6{isolation:isolate;}.cls-7{fill:#333;}.cls-8{fill:url(#linear-gradient-3);}.cls-9{fill:url(#linear-gradient-4);}.cls-10{fill:#f15b42;}.cls-11{fill:url(#linear-gradient-5);}.cls-12{fill:url(#linear-gradient-6);}.cls-13{fill:url(#linear-gradient-7);}.cls-14{fill:url(#linear-gradient-8);}.cls-15{fill:url(#linear-gradient-9);}.cls-16{fill:url(#linear-gradient-10);}.cls-17{fill:url(#linear-gradient-11);}.cls-18{fill:#1e2e3f;}.cls-19{fill:#2a4156;}.cls-20{fill:url(#linear-gradient-12);}.cls-21{fill:url(#linear-gradient-13);}.cls-22{fill:url(#linear-gradient-14);}.cls-23{fill:url(#linear-gradient-15);}.cls-24{fill:url(#linear-gradient-16);}.cls-25{fill:url(#linear-gradient-17);}.cls-26{fill:url(#linear-gradient-18);}.cls-27{fill:url(#linear-gradient-19);}.cls-28{fill:url(#linear-gradient-20);}.cls-29{stroke:#fff;stroke-miterlimit:10;}.cls-30{clip-path:url(#clip-path-2);}.cls-31{fill:url(#linear-gradient-21);}</style><linearGradient id="linear-gradient" x1="22.37" y1="366.01" x2="716.05" y2="366.01" gradientUnits="userSpaceOnUse"><stop offset="0" stop-color="#4b445e"/><stop offset="1" stop-color="#231c2b"/></linearGradient><clipPath id="clip-path"><path class="cls-1" d="M623.15,272.65a7,7,0,0,1-2.83-5.22c-7-117.57-104.49-210.78-223.8-210.78A224,224,0,0,0,208.43,158.81,7,7,0,0,1,202.9,162c-101,5.18-181.35,88.37-182,190.49-.67,105.78,86.21,193.24,192,193.24a191.85,191.85,0,0,0,61.68-10.14,7,7,0,0,1,8.77,3.95c33.52,80.4,112.5,137.11,204.84,138,123.59,1.18,226.39-100.61,226.39-224.2A223.86,223.86,0,0,0,623.15,272.65Z"/></clipPath><linearGradient id="linear-gradient-2" x1="-186.27" y1="-371" x2="405.65" y2="-371" gradientTransform="translate(185.49 671.09) rotate(73.75)" gradientUnits="userSpaceOnUse"><stop offset="0" stop-color="#1d3768"/><stop offset="1" stop-color="#006095"/></linearGradient><linearGradient id="linear-gradient-3" x1="915.27" y1="-2592.34" x2="896.77" y2="-2618.77" gradientTransform="translate(-985.86 2639.66) rotate(13.01)" gradientUnits="userSpaceOnUse"><stop offset="0" stop-color="#f89a54"/><stop offset="1" stop-color="#f58049"/></linearGradient><linearGradient id="linear-gradient-4" x1="936.41" y1="-2607.14" x2="917.91" y2="-2633.57" xlink:href="#linear-gradient-3"/><linearGradient id="linear-gradient-5" x1="475.32" y1="349.9" x2="423.29" y2="272.74" gradientUnits="userSpaceOnUse"><stop offset="0" stop-color="#f15b42"/><stop offset="1" stop-color="#ef3943"/></linearGradient><linearGradient id="linear-gradient-6" x1="977.96" y1="-2403.62" x2="647.75" y2="-2700.56" gradientTransform="translate(-985.86 2639.66) rotate(13.01)" gradientUnits="userSpaceOnUse"><stop offset="0" stop-color="#f37446"/><stop offset="1" stop-color="#f26343"/></linearGradient><linearGradient id="linear-gradient-7" x1="810.05" y1="-2494.18" x2="791.55" y2="-2520.6" xlink:href="#linear-gradient-3"/><linearGradient id="linear-gradient-8" x1="831.18" y1="-2508.97" x2="812.68" y2="-2535.4" xlink:href="#linear-gradient-3"/><linearGradient id="linear-gradient-9" x1="306.45" y1="339.15" x2="423.2" y2="419.41" xlink:href="#linear-gradient-5"/><linearGradient id="linear-gradient-10" x1="311.39" y1="331.96" x2="428.15" y2="412.22" xlink:href="#linear-gradient-5"/><linearGradient id="linear-gradient-11" x1="960.31" y1="-2341.66" x2="630.1" y2="-2638.61" xlink:href="#linear-gradient-6"/><linearGradient id="linear-gradient-12" x1="524.97" y1="264.9" x2="554.4" y2="264.9" gradientTransform="translate(375.09 984.56) rotate(-120)" xlink:href="#linear-gradient-3"/><linearGradient id="linear-gradient-13" x1="525.07" y1="244.38" x2="554.4" y2="244.38" gradientTransform="translate(375.09 984.56) rotate(-120)" xlink:href="#linear-gradient-3"/><linearGradient id="linear-gradient-14" x1="263.46" y1="401.69" x2="380.21" y2="481.95" xlink:href="#linear-gradient-5"/><linearGradient id="linear-gradient-15" x1="286.87" y1="367.63" x2="403.62" y2="447.89" xlink:href="#linear-gradient-5"/><linearGradient id="linear-gradient-16" x1="269.23" y1="393.29" x2="385.98" y2="473.56" xlink:href="#linear-gradient-5"/><linearGradient id="linear-gradient-17" x1="467.59" y1="192.99" x2="611.79" y2="192.99" gradientTransform="translate(375.09 984.56) rotate(-120)" xlink:href="#linear-gradient-6"/><linearGradient id="linear-gradient-18" x1="535.44" y1="199.29" x2="543.93" y2="199.29" gradientTransform="translate(375.09 984.56) rotate(-120)" xlink:href="#linear-gradient-3"/><linearGradient id="linear-gradient-19" x1="535.54" y1="181.78" x2="543.93" y2="181.78" gradientTransform="translate(375.09 984.56) rotate(-120)" xlink:href="#linear-gradient-3"/><linearGradient id="linear-gradient-20" x1="525.35" y1="176.01" x2="554.02" y2="176.01" gradientTransform="translate(375.09 984.56) rotate(-120)" xlink:href="#linear-gradient-3"/><clipPath id="clip-path-2"><path class="cls-1" d="M-196.85,272.65a7,7,0,0,1-2.83-5.22c-6.95-117.57-104.49-210.78-223.8-210.78A224,224,0,0,0-611.57,158.81,7,7,0,0,1-617.1,162c-101,5.18-181.35,88.37-182,190.49-.67,105.78,86.21,193.24,192,193.24a191.85,191.85,0,0,0,61.68-10.14,7,7,0,0,1,8.77,3.95c33.52,80.4,112.5,137.11,204.84,138,123.59,1.18,226.39-100.61,226.39-224.2A223.86,223.86,0,0,0-196.85,272.65Z"/></clipPath><linearGradient id="linear-gradient-21" x1="-415.76" y1="416.24" x2="176.16" y2="416.24" xlink:href="#linear-gradient-2"/><symbol id="hex_star" data-name="hex_star" viewBox="0 0 11.92 10.33"><polygon class="cls-2" points="8.94 0 2.98 0 0 5.16 2.98 10.33 8.94 10.33 11.92 5.16 8.94 0"/></symbol><symbol id="hex_stars" data-name="hex_stars" viewBox="0 0 28.55 17.86"><use width="11.92" height="10.33" transform="translate(16.62 7)" xlink:href="#hex_star"/><use width="11.92" height="10.33" transform="translate(6.57) scale(0.68)" xlink:href="#hex_star"/><use width="11.92" height="10.33" transform="translate(2.53 13.48) scale(0.42)" xlink:href="#hex_star"/><use width="11.92" height="10.33" transform="translate(0 6.83) scale(0.26)" xlink:href="#hex_star"/></symbol></defs><title>standard</title><path class="cls-3" d="M624.62,271.57a7,7,0,0,1-2.83-5.22C614.84,148.78,517.31,55.58,398,55.58A224,224,0,0,0,209.9,157.73a7,7,0,0,1-5.52,3.19C103.4,166.1,23,249.28,22.38,351.4c-.67,105.79,86.2,193.24,192,193.24a191.63,191.63,0,0,0,61.69-10.14,7.06,7.06,0,0,1,8.77,4c33.52,80.41,112.49,137.11,204.83,138,123.59,1.18,226.39-100.6,226.39-224.19A223.88,223.88,0,0,0,624.62,271.57Z"/><g class="cls-4"><path class="cls-5" d="M708.72,941.1C816.48,909.68,878.37,796.86,847,689.1a203.28,203.28,0,0,0-27.09-57.53,202.27,202.27,0,0,0,5.2-129.25c-31.41-107.76-144.23-169.65-252-138.24A202.6,202.6,0,0,0,450.25,464.29a174.07,174.07,0,1,0,9.13,347C494.08,913.8,603.79,971.68,708.72,941.1Z"/></g><use width="28.55" height="17.86" transform="translate(348.87 585.46)" xlink:href="#hex_stars"/><use width="28.55" height="17.86" transform="translate(356.47 600.11)" xlink:href="#hex_stars"/><use width="28.55" height="17.86" transform="translate(393.46 653.99)" xlink:href="#hex_stars"/><use width="28.55" height="17.86" transform="translate(434.99 698.57)" xlink:href="#hex_stars"/><use width="28.55" height="17.86" transform="translate(473.75 696.02)" xlink:href="#hex_stars"/><use width="28.55" height="17.86" transform="translate(529.06 675.99)" xlink:href="#hex_stars"/><use width="28.55" height="17.86" transform="translate(599.47 657.48)" xlink:href="#hex_stars"/><use width="28.55" height="17.86" transform="translate(669.59 622.6)" xlink:href="#hex_stars"/><use width="28.55" height="17.86" transform="translate(726.71 545.27)" xlink:href="#hex_stars"/><use width="28.55" height="17.86" transform="translate(750.56 486.85)" xlink:href="#hex_stars"/><use width="28.55" height="17.86" transform="translate(744.53 369.87)" xlink:href="#hex_stars"/><use width="28.55" height="17.86" transform="translate(726 336.89)" xlink:href="#hex_stars"/><use width="28.55" height="17.86" transform="translate(673.01 377.76)" xlink:href="#hex_stars"/><use width="28.55" height="17.86" transform="translate(641.98 428.04)" xlink:href="#hex_stars"/><use width="28.55" height="17.86" transform="translate(613.43 518.15)" xlink:href="#hex_stars"/><use width="28.55" height="17.86" transform="translate(547.55 602.07)" xlink:href="#hex_stars"/><use width="28.55" height="17.86" transform="translate(525.82 633.73)" xlink:href="#hex_stars"/><use width="28.55" height="17.86" transform="translate(499.64 620.45)" xlink:href="#hex_stars"/><use width="28.55" height="17.86" transform="translate(508.51 635.63)" xlink:href="#hex_stars"/><use width="28.55" height="17.86" transform="translate(478.32 594.56)" xlink:href="#hex_stars"/><use width="28.55" height="17.86" transform="translate(463.47 583.22)" xlink:href="#hex_stars"/><use width="28.55" height="17.86" transform="translate(523.51 545.75)" xlink:href="#hex_stars"/><use width="28.55" height="17.86" transform="translate(655.36 442.59)" xlink:href="#hex_stars"/><use width="28.55" height="17.86" transform="translate(679.41 397.44)" xlink:href="#hex_stars"/><use width="28.55" height="17.86" transform="translate(579.22 704.59)" xlink:href="#hex_stars"/><use width="28.55" height="17.86" transform="translate(547.85 726.57)" xlink:href="#hex_stars"/><use width="28.55" height="17.86" transform="translate(618.03 646.43)" xlink:href="#hex_stars"/><use width="28.55" height="17.86" transform="translate(666.33 559.19)" xlink:href="#hex_stars"/><use width="28.55" height="17.86" transform="translate(688.65 504.28)" xlink:href="#hex_stars"/><use width="28.55" height="17.86" transform="translate(678.38 484.83)" xlink:href="#hex_stars"/><use width="28.55" height="17.86" transform="translate(659.79 481.26)" xlink:href="#hex_stars"/><use width="28.55" height="17.86" transform="translate(639.76 506.3)" xlink:href="#hex_stars"/><use width="28.55" height="17.86" transform="translate(601.08 552.27)" xlink:href="#hex_stars"/><use width="28.55" height="17.86" transform="translate(572.91 576.76)" xlink:href="#hex_stars"/><use width="28.55" height="17.86" transform="translate(544.33 582.13)" xlink:href="#hex_stars"/><use width="28.55" height="17.86" transform="translate(505.57 586.53)" xlink:href="#hex_stars"/><use width="28.55" height="17.86" transform="translate(471.71 617.55)" xlink:href="#hex_stars"/><use width="28.55" height="17.86" transform="translate(444.71 622.2)" xlink:href="#hex_stars"/><use width="28.55" height="17.86" transform="translate(395.28 625.81)" xlink:href="#hex_stars"/><use width="28.55" height="17.86" transform="translate(348.67 631.15)" xlink:href="#hex_stars"/><use width="28.55" height="17.86" transform="translate(306.85 620.99)" xlink:href="#hex_stars"/><use width="28.55" height="17.86" transform="translate(296.41 637.94)" xlink:href="#hex_stars"/><use width="28.55" height="17.86" transform="translate(329.56 628.47)" xlink:href="#hex_stars"/><use width="28.55" height="17.86" transform="translate(431.55 642.69)" xlink:href="#hex_stars"/><use width="28.55" height="17.86" transform="translate(492.77 652.94)" xlink:href="#hex_stars"/><use width="28.55" height="17.86" transform="translate(559.41 623.7)" xlink:href="#hex_stars"/><use width="28.55" height="17.86" transform="translate(605.33 594.19)" xlink:href="#hex_stars"/><use width="28.55" height="17.86" transform="translate(636.03 584.52)" xlink:href="#hex_stars"/><use width="28.55" height="17.86" transform="translate(686.46 544.59)" xlink:href="#hex_stars"/><use width="28.55" height="17.86" transform="translate(709.77 473.55)" xlink:href="#hex_stars"/><use width="28.55" height="17.86" transform="translate(720.72 403.78)" xlink:href="#hex_stars"/><use width="28.55" height="17.86" transform="translate(708.06 353.73)" xlink:href="#hex_stars"/><use width="28.55" height="17.86" transform="translate(697.83 338.11)" xlink:href="#hex_stars"/><use width="28.55" height="17.86" transform="translate(700.19 376.88)" xlink:href="#hex_stars"/><use width="28.55" height="17.86" transform="translate(698.25 411.35)" xlink:href="#hex_stars"/><use width="28.55" height="17.86" transform="translate(706.87 433.8)" xlink:href="#hex_stars"/><use width="28.55" height="17.86" transform="translate(684.93 428.6)" xlink:href="#hex_stars"/><use width="28.55" height="17.86" transform="translate(688.09 461.41)" xlink:href="#hex_stars"/><use width="28.55" height="17.86" transform="translate(670.22 510.48)" xlink:href="#hex_stars"/><use width="28.55" height="17.86" transform="translate(663.61 535.75)" xlink:href="#hex_stars"/><use width="28.55" height="17.86" transform="translate(663.16 581.93)" xlink:href="#hex_stars"/><use width="28.55" height="17.86" transform="translate(640.17 610.14)" xlink:href="#hex_stars"/><use width="28.55" height="17.86" transform="translate(611.05 623.52)" xlink:href="#hex_stars"/><use width="28.55" height="17.86" transform="translate(568.32 648.05)" xlink:href="#hex_stars"/><use width="28.55" height="17.86" transform="translate(507.39 672.09)" xlink:href="#hex_stars"/><use width="28.55" height="17.86" transform="translate(445.47 672.7)" xlink:href="#hex_stars"/><use width="28.55" height="17.86" transform="translate(390.26 688.39)" xlink:href="#hex_stars"/><use width="28.55" height="17.86" transform="translate(362.92 688.19)" xlink:href="#hex_stars"/><use width="28.55" height="17.86" transform="translate(366.77 662.15)" xlink:href="#hex_stars"/><use width="28.55" height="17.86" transform="translate(515.77 608.93)" xlink:href="#hex_stars"/><use width="28.55" height="17.86" transform="translate(582.12 606.69)" xlink:href="#hex_stars"/><use width="28.55" height="17.86" transform="translate(632.43 551.75)" xlink:href="#hex_stars"/><use width="28.55" height="17.86" transform="translate(637.06 455.35)" xlink:href="#hex_stars"/><use width="28.55" height="17.86" transform="translate(645.18 382.59)" xlink:href="#hex_stars"/><use width="28.55" height="17.86" transform="translate(660.98 333.65)" xlink:href="#hex_stars"/><use width="28.55" height="17.86" transform="translate(682.52 294.41)" xlink:href="#hex_stars"/><use width="28.55" height="17.86" transform="translate(670.06 282.5)" xlink:href="#hex_stars"/><use width="28.55" height="17.86" transform="translate(596.22 347.92)" xlink:href="#hex_stars"/><use width="28.55" height="17.86" transform="translate(534.41 450.56)" xlink:href="#hex_stars"/><use width="28.55" height="17.86" transform="translate(517.5 484.34)" xlink:href="#hex_stars"/><use width="28.55" height="17.86" transform="translate(482.67 509.97)" xlink:href="#hex_stars"/><use width="28.55" height="17.86" transform="translate(429.28 548.88)" xlink:href="#hex_stars"/><use width="28.55" height="17.86" transform="translate(385.25 577.61)" xlink:href="#hex_stars"/><use width="28.55" height="17.86" transform="translate(405.02 542.08)" xlink:href="#hex_stars"/><use width="28.55" height="17.86" transform="translate(513.93 460.27)" xlink:href="#hex_stars"/><use width="28.55" height="17.86" transform="translate(550.76 418.22)" xlink:href="#hex_stars"/><use width="28.55" height="17.86" transform="translate(574.03 371.13)" xlink:href="#hex_stars"/><use width="28.55" height="17.86" transform="translate(603.59 310.34)" xlink:href="#hex_stars"/><use width="28.55" height="17.86" transform="translate(619.44 282.53)" xlink:href="#hex_stars"/><use width="28.55" height="17.86" transform="translate(599.12 290.24)" xlink:href="#hex_stars"/><use width="28.55" height="17.86" transform="translate(591.91 391.91)" xlink:href="#hex_stars"/><use width="28.55" height="17.86" transform="translate(595.12 442.05)" xlink:href="#hex_stars"/><use width="28.55" height="17.86" transform="translate(598.76 481.01)" xlink:href="#hex_stars"/><use width="28.55" height="17.86" transform="translate(590.78 521.61)" xlink:href="#hex_stars"/><use width="28.55" height="17.86" transform="translate(565.91 549.71)" xlink:href="#hex_stars"/><use width="28.55" height="17.86" transform="translate(523.42 568.18)" xlink:href="#hex_stars"/><use width="28.55" height="17.86" transform="translate(466.6 564.63)" xlink:href="#hex_stars"/><use width="28.55" height="17.86" transform="translate(426.32 603.65)" xlink:href="#hex_stars"/><use width="28.55" height="17.86" transform="translate(417.2 588.15)" xlink:href="#hex_stars"/><use width="28.55" height="17.86" transform="translate(505.57 524.2)" xlink:href="#hex_stars"/><use width="28.55" height="17.86" transform="translate(560.16 454.11)" xlink:href="#hex_stars"/><use width="28.55" height="17.86" transform="translate(603.45 370.71)" xlink:href="#hex_stars"/><use width="28.55" height="17.86" transform="translate(634.05 311.51)" xlink:href="#hex_stars"/><use width="28.55" height="17.86" transform="translate(655.18 254.96)" xlink:href="#hex_stars"/><use width="28.55" height="17.86" transform="translate(631.77 264.61)" xlink:href="#hex_stars"/><use width="28.55" height="17.86" transform="translate(499.39 415.25)" xlink:href="#hex_stars"/><use width="28.55" height="17.86" transform="translate(456.28 476.42)" xlink:href="#hex_stars"/><use width="28.55" height="17.86" transform="translate(394.94 508.15)" xlink:href="#hex_stars"/><use width="28.55" height="17.86" transform="translate(294.86 458.08)" xlink:href="#hex_stars"/><use width="28.55" height="17.86" transform="translate(278.69 431.5)" xlink:href="#hex_stars"/><use width="28.55" height="17.86" transform="translate(400.93 364.35)" xlink:href="#hex_stars"/><use width="28.55" height="17.86" transform="translate(494.74 296.98)" xlink:href="#hex_stars"/><use width="28.55" height="17.86" transform="translate(523.38 264.39)" xlink:href="#hex_stars"/><use width="28.55" height="17.86" transform="translate(543.32 229.47)" xlink:href="#hex_stars"/><use width="28.55" height="17.86" transform="translate(470.15 364.31)" xlink:href="#hex_stars"/><use width="28.55" height="17.86" transform="translate(391.42 476.31)" xlink:href="#hex_stars"/><use width="28.55" height="17.86" transform="translate(309.7 516.37)" xlink:href="#hex_stars"/><use width="28.55" height="17.86" transform="translate(224.72 528.63)" xlink:href="#hex_stars"/><use width="28.55" height="17.86" transform="translate(253.01 498.81)" xlink:href="#hex_stars"/><use width="28.55" height="17.86" transform="translate(368.31 417.47)" xlink:href="#hex_stars"/><use width="28.55" height="17.86" transform="translate(455.42 332.95)" xlink:href="#hex_stars"/><use width="28.55" height="17.86" transform="translate(518.77 248)" xlink:href="#hex_stars"/><use width="28.55" height="17.86" transform="translate(557.88 197.07)" xlink:href="#hex_stars"/><use width="28.55" height="17.86" transform="translate(454.74 291.55)" xlink:href="#hex_stars"/><use width="28.55" height="17.86" transform="translate(310.61 467.6)" xlink:href="#hex_stars"/><use width="28.55" height="17.86" transform="translate(223.91 485.88)" xlink:href="#hex_stars"/><use width="28.55" height="17.86" transform="translate(214.97 503.53)" xlink:href="#hex_stars"/><use width="28.55" height="17.86" transform="translate(198.95 494.49)" xlink:href="#hex_stars"/><use width="28.55" height="17.86" transform="translate(143.66 477.19)" xlink:href="#hex_stars"/><use width="28.55" height="17.86" transform="translate(103.1 463.92)" xlink:href="#hex_stars"/><use width="28.55" height="17.86" transform="translate(49.32 420.42)" xlink:href="#hex_stars"/><use width="28.55" height="17.86" transform="translate(62.45 398.9)" xlink:href="#hex_stars"/><use width="28.55" height="17.86" transform="translate(226.53 371.12)" xlink:href="#hex_stars"/><use width="28.55" height="17.86" transform="translate(356.8 325.56)" xlink:href="#hex_stars"/><use width="28.55" height="17.86" transform="translate(457.52 148.28)" xlink:href="#hex_stars"/><use width="28.55" height="17.86" transform="translate(470.35 85.31)" xlink:href="#hex_stars"/><use width="28.55" height="17.86" transform="translate(442.97 123.59)" xlink:href="#hex_stars"/><use width="28.55" height="17.86" transform="translate(299.33 268.18)" xlink:href="#hex_stars"/><use width="28.55" height="17.86" transform="translate(159.9 321.76)" xlink:href="#hex_stars"/><use width="28.55" height="17.86" transform="translate(57.96 323.63)" xlink:href="#hex_stars"/><use width="28.55" height="17.86" transform="translate(135.53 283.37)" xlink:href="#hex_stars"/><use width="28.55" height="17.86" transform="translate(340.4 199.45)" xlink:href="#hex_stars"/><use width="28.55" height="17.86" transform="translate(442.58 102.03)" xlink:href="#hex_stars"/><use width="28.55" height="17.86" transform="translate(464.07 108.75)" xlink:href="#hex_stars"/><use width="28.55" height="17.86" transform="translate(314.19 323.14)" xlink:href="#hex_stars"/><use width="28.55" height="17.86" transform="translate(179.49 335.12)" xlink:href="#hex_stars"/><use width="28.55" height="17.86" transform="translate(91.16 321.36)" xlink:href="#hex_stars"/><use width="28.55" height="17.86" transform="translate(225.93 193.99)" xlink:href="#hex_stars"/><use width="28.55" height="17.86" transform="translate(347.61 144.73)" xlink:href="#hex_stars"/><use width="28.55" height="17.86" transform="translate(415.01 135.76)" xlink:href="#hex_stars"/><use width="28.55" height="17.86" transform="translate(431.47 144.35)" xlink:href="#hex_stars"/><use width="28.55" height="17.86" transform="translate(402.5 255.9)" xlink:href="#hex_stars"/><use width="28.55" height="17.86" transform="translate(336.54 313.13)" xlink:href="#hex_stars"/><use width="28.55" height="17.86" transform="translate(226.16 282.02)" xlink:href="#hex_stars"/><use width="28.55" height="17.86" transform="translate(180.68 264.95)" xlink:href="#hex_stars"/><use width="28.55" height="17.86" transform="translate(210.82 271.02)" xlink:href="#hex_stars"/><use width="28.55" height="17.86" transform="translate(418.1 230.85)" xlink:href="#hex_stars"/><use width="28.55" height="17.86" transform="translate(487.36 195.38)" xlink:href="#hex_stars"/><use width="28.55" height="17.86" transform="translate(444.77 196.09)" xlink:href="#hex_stars"/><use width="28.55" height="17.86" transform="translate(209.17 184.78)" xlink:href="#hex_stars"/><use width="28.55" height="17.86" transform="translate(98.3 210.64)" xlink:href="#hex_stars"/><use width="28.55" height="17.86" transform="translate(83.34 226.73)" xlink:href="#hex_stars"/><path class="cls-2" d="M538.33,267.13c7.11,12.32,7.23,21.9,6.08,27.78-1.27,6.47-4.8,12-9.47,15a43.4,43.4,0,0,1-.42,4.34c-1.45,9.45-6,16.63-13.16,20.77l-72.69,41.92-17.05,9.83a10.88,10.88,0,0,1,.87,3.18c.17,1.42.11,127.4.11,128.66a13.23,13.23,0,0,1-6.69,11.53l-61.77,35.42a10.87,10.87,0,0,1-11.82-.08c-3.43-2-3.72-2.17-4.12-2.45a11,11,0,0,1-3.26-3.54,11.52,11.52,0,0,1-1.5-6.17v-89.8a81.12,81.12,0,0,1-29.58,28.6c-11.7,6.76-30.79,10.78-55.23-8.42-13.79-10.83-25.33-26.17-31.53-36.92-5.82-10.08-13.4-28.24-15.59-46.28-3.76-30.89,9.42-45.44,21.15-52.21,27.84-16.07,57.06-12.34,75.3-3.43a22.29,22.29,0,0,1,7.34-7c4.5-2.62,19.3-11.16,26.24-15.17l-1-.55a11.26,11.26,0,0,1-4.27-4.2,11.44,11.44,0,0,1-1.53-5.94v-1.46c0-81.35,0-124.86,0-125.81a13.47,13.47,0,0,1,6.68-11.28L403.25,138a11.37,11.37,0,0,1,11.65,0l.52.3c.92.53,2.63,1.5,3,1.74a11.38,11.38,0,0,1,3.95,4,11.88,11.88,0,0,1,1.55,6.11c0,4.41,0,109.59,0,124.94l47.26-27.29c8.38-4.83,17.9-4.53,28.33.9C507.94,244.18,525.67,245.2,538.33,267.13Z"/><g class="cls-6"><path class="cls-7" d="M364.85,426.31l0-34a1.33,1.33,0,0,1,.78-1.09,4.15,4.15,0,0,1,3.79,0,1.33,1.33,0,0,1,.79,1.1l-.05,34a1.34,1.34,0,0,0-.79-1.11,4.18,4.18,0,0,0-3.79,0A1.34,1.34,0,0,0,364.85,426.31Z"/><path class="cls-7" d="M365.64,427.41a1.16,1.16,0,0,1,0-2.2,4.18,4.18,0,0,1,3.79,0,1.16,1.16,0,0,1,0,2.2A4.17,4.17,0,0,1,365.64,427.41Z"/></g><g class="cls-6"><path class="cls-7" d="M399.77,406.15l.05-34a1.33,1.33,0,0,1,.78-1.09,4.15,4.15,0,0,1,3.79,0,1.33,1.33,0,0,1,.79,1.1l-.05,34a1.34,1.34,0,0,0-.79-1.11,4.18,4.18,0,0,0-3.79,0A1.34,1.34,0,0,0,399.77,406.15Z"/><path class="cls-7" d="M400.56,407.25a1.16,1.16,0,0,1,0-2.2,4.18,4.18,0,0,1,3.79,0,1.17,1.17,0,0,1,0,2.2A4.2,4.2,0,0,1,400.56,407.25Z"/></g><path class="cls-8" d="M463.92,289.87c0-11.23,7.83-15.84,17.53-10.29S499,298.74,499,310s-7.84,15.83-17.54,10.28S463.93,301.1,463.92,289.87Z"/><path class="cls-9" d="M469.11,278.4l35.33-20.32c3.17-1.82,7.53-1.57,12.35,1.19,9.7,5.55,17.57,19.16,17.58,30.38,0,5.65-2,9.63-5.19,11.47l-35.34,20.32c3.21-1.85,5.2-5.82,5.19-11.47,0-11.23-7.88-24.84-17.58-30.39C476.64,276.83,472.28,276.58,469.11,278.4Z"/><path class="cls-10" d="M376.15,324.74l35.34-20.31c-4,2.32-6.53,7.31-6.52,14.42,0,14.11,9.9,31.21,22.09,38.19,6.05,3.46,11.54,3.78,15.52,1.49l-35.34,20.31c-4,2.29-9.46,2-15.51-1.49-12.2-7-22.09-24.07-22.1-38.19C369.62,332.06,372.12,327.06,376.15,324.74Z"/><path class="cls-11" d="M371.87,317.29l104.58-60.38c5.08-2.92,12.08-2.51,19.8,1.91,15.55,8.9,28.16,30.7,28.18,48.7,0,9.06-3.17,15.43-8.32,18.39L411.53,386.29c5.15-3,8.33-9.33,8.32-18.39,0-18-12.63-39.81-28.18-48.7C384,314.77,377,314.37,371.87,317.29Z"/><path class="cls-12" d="M363.55,335.68c0-18,12.57-25.38,28.12-16.48s28.16,30.7,28.18,48.7-12.57,25.39-28.12,16.49S363.57,353.68,363.55,335.68Zm50.22,28.74c0-14.11-9.91-31.21-22.09-38.18s-22.06-1.19-22.05,12.92,9.9,31.21,22.1,38.19,22,1.19,22-12.93"/><path class="cls-13" d="M339.29,361.82c0-11.22,7.84-15.83,17.54-10.28s17.57,19.15,17.58,30.38-7.85,15.83-17.55,10.28S339.3,373.05,339.29,361.82Z"/><path class="cls-14" d="M344.48,350.35,379.82,330c3.16-1.82,7.52-1.57,12.34,1.18,9.7,5.55,17.57,19.16,17.58,30.39,0,5.65-2,9.62-5.19,11.47l-35.34,20.31c3.21-1.85,5.2-5.82,5.2-11.47,0-11.23-7.89-24.83-17.58-30.38C352,348.78,347.65,348.53,344.48,350.35Z"/><path class="cls-15" d="M325.83,353.76l35.33-20.32c-4,2.32-6.53,7.32-6.52,14.42,0,14.12,9.9,31.21,22.09,38.19,6.06,3.46,11.54,3.78,15.52,1.49l-35.33,20.31c-4,2.29-9.47,2-15.52-1.49-12.2-7-22.08-24.07-22.1-38.19C319.3,361.07,321.79,356.08,325.83,353.76Z"/><path class="cls-16" d="M321.54,346.31,356.88,326c5.08-2.92,12.07-2.52,19.8,1.91,15.55,8.89,28.16,30.7,28.18,48.7,0,9.06-3.18,15.43-8.32,18.39L361.2,415.3c5.15-3,8.33-9.33,8.32-18.39,0-18-12.63-39.8-28.18-48.7C333.62,343.79,326.62,343.39,321.54,346.31Z"/><path class="cls-17" d="M313.22,364.69c0-18,12.57-25.38,28.12-16.48s28.17,30.71,28.18,48.7S357,422.3,341.4,413.4,313.24,382.69,313.22,364.69Zm50.22,28.74c0-14.11-9.9-31.21-22.09-38.18s-22.06-1.19-22.05,12.92,9.9,31.21,22.1,38.19,22.06,1.19,22-12.93"/><g class="cls-6"><path class="cls-7" d="M357,332l.05-34a1.34,1.34,0,0,1,.78-1.09,4.2,4.2,0,0,1,3.8,0,1.35,1.35,0,0,1,.79,1.1l-.05,34a1.37,1.37,0,0,0-.79-1.11,4.2,4.2,0,0,0-3.8,0A1.33,1.33,0,0,0,357,332Z"/><path class="cls-7" d="M357.81,333.11a1.16,1.16,0,0,1,0-2.2,4.2,4.2,0,0,1,3.8,0,1.17,1.17,0,0,1,0,2.2A4.18,4.18,0,0,1,357.81,333.11Z"/></g><g class="cls-6"><path class="cls-7" d="M391.93,311.84l.05-34a1.34,1.34,0,0,1,.78-1.09,4.2,4.2,0,0,1,3.8,0,1.35,1.35,0,0,1,.79,1.1l-.06,34a1.33,1.33,0,0,0-.79-1.11,4.18,4.18,0,0,0-3.79,0A1.33,1.33,0,0,0,391.93,311.84Z"/><path class="cls-7" d="M392.73,313a1.16,1.16,0,0,1,0-2.2,4.18,4.18,0,0,1,3.79,0c1.05.61,1.06,1.6,0,2.2A4.18,4.18,0,0,1,392.73,313Z"/></g><g class="cls-6"><path class="cls-18" d="M349.24,315l-3.54-2a1,1,0,0,1-.42-.92l3.54,2A1,1,0,0,0,349.24,315Z"/><path class="cls-18" d="M409.49,147l3.53,2a1,1,0,0,0-1,.1l-3.53-2A1,1,0,0,1,409.49,147Z"/><polygon class="cls-18" points="350.24 184.56 346.7 182.53 408.5 147.09 412.03 149.12 350.24 184.56"/><polygon class="cls-18" points="348.82 314.07 345.28 312.04 345.28 184.99 348.82 187.02 348.82 314.07"/><path class="cls-19" d="M348.82,187a3.11,3.11,0,0,1,1.42-2.46L412,149.12c.78-.45,1.41-.08,1.41.83V277a3.13,3.13,0,0,1-1.41,2.45l-61.79,35.44c-.79.45-1.42.08-1.42-.82Z"/><path class="cls-18" d="M348.82,187l-3.54-2a3.14,3.14,0,0,1,1.42-2.46l3.54,2A3.11,3.11,0,0,0,348.82,187Z"/></g><path class="cls-2" d="M413.44,213.31c-10.71,6.32-21.5,12.53-32.25,18.8s-21.55,12.45-32.37,18.59c10.71-6.32,21.5-12.53,32.25-18.8S402.62,219.45,413.44,213.31Z"/><path class="cls-2" d="M413.48,249.73c-10.72,6.33-21.5,12.54-32.25,18.81S359.68,281,348.85,287.13c10.72-6.33,21.51-12.54,32.25-18.81S402.65,255.87,413.48,249.73Z"/><path class="cls-2" d="M413.41,179.63c-10.71,6.33-21.5,12.54-32.25,18.81S359.61,210.89,348.79,217c10.71-6.33,21.5-12.54,32.25-18.81S402.59,185.77,413.41,179.63Z"/><polygon class="cls-2" points="381.19 297.25 381.01 232 381.07 166.76 381.26 232 381.19 297.25"/><polygon class="cls-2" points="363.33 307.58 363.15 242.34 363.21 177.09 363.4 242.34 363.33 307.58"/><polygon class="cls-2" points="398.92 287.04 398.73 221.79 398.79 156.54 398.98 221.79 398.92 287.04"/><g class="cls-6"><path class="cls-18" d="M357.89,556.56l-3.53-2a1,1,0,0,1-.42-.92l3.53,2A1,1,0,0,0,357.89,556.56Z"/><path class="cls-18" d="M418.14,388.56l3.54,2a1,1,0,0,0-1,.1l-3.53-2A1,1,0,0,1,418.14,388.56Z"/><polygon class="cls-18" points="358.89 426.13 355.36 424.11 417.15 388.66 420.68 390.69 358.89 426.13"/><polygon class="cls-18" points="357.47 555.64 353.94 553.61 353.94 426.56 357.47 428.59 357.47 555.64"/><path class="cls-19" d="M357.47,428.59a3.14,3.14,0,0,1,1.42-2.46l61.79-35.44c.79-.45,1.42-.07,1.42.83V518.57a3.11,3.11,0,0,1-1.42,2.45l-61.79,35.44c-.78.45-1.42.08-1.42-.82Z"/><path class="cls-18" d="M357.47,428.59l-3.53-2a3.14,3.14,0,0,1,1.41-2.46l3.54,2A3.14,3.14,0,0,0,357.47,428.59Z"/></g><path class="cls-2" d="M422.1,454.88c-10.72,6.32-21.51,12.53-32.25,18.8s-21.55,12.45-32.38,18.59c10.72-6.32,21.5-12.53,32.25-18.8S411.27,461,422.1,454.88Z"/><path class="cls-2" d="M422.13,491.3c-10.72,6.33-21.5,12.54-32.25,18.81s-21.55,12.45-32.37,18.59c10.71-6.33,21.5-12.54,32.25-18.81S411.31,497.44,422.13,491.3Z"/><path class="cls-2" d="M422.07,421.21c-10.72,6.32-21.51,12.53-32.26,18.8s-21.55,12.45-32.37,18.59c10.72-6.33,21.5-12.53,32.25-18.81S411.24,427.35,422.07,421.21Z"/><polygon class="cls-2" points="389.85 538.82 389.66 473.58 389.72 408.33 389.91 473.58 389.85 538.82"/><polygon class="cls-2" points="371.99 549.15 371.8 483.91 371.86 418.66 372.05 483.91 371.99 549.15"/><polygon class="cls-2" points="407.57 528.61 407.38 463.36 407.45 398.12 407.63 463.36 407.57 528.61"/><g class="cls-6"><path class="cls-20" d="M309.56,382.23,337.85,366c1.87-1.07,4.45-.92,7.29.71,5.73,3.29,10.37,11.33,10.37,18,0,3.34-1.17,5.69-3.07,6.78l-28.29,16.22c1.9-1.09,3.08-3.44,3.08-6.77,0-6.64-4.65-14.68-10.37-18C314,381.3,311.43,381.15,309.56,382.23Z"/><path class="cls-21" d="M306.49,389c0-6.64,4.64-9.35,10.37-6.06s10.37,11.32,10.37,18-4.65,9.35-10.37,6.06S306.49,395.63,306.49,389Z"/></g><path class="cls-22" d="M304.64,366.74c7.8,4.63,12.52,14.45,12.31,28.38.21-13.93-4.51-23.75-12.31-28.38a61.35,61.35,0,0,1,6.68,4.57,65.66,65.66,0,0,1,5.31,4.66,62.57,62.57,0,0,1,5.93,6.77c.52.68,1.2,1.59,1.67,2.31,2,3,2.07,3.16,2.95,4.73a65,65,0,0,1,3.66,7.65,62,62,0,0,1,4.05,16.47c.24,2.25.34,5.27.33,7.53a52.69,52.69,0,0,1-.41,6.28,71,71,0,0,1-1.53,8.31,77.27,77.27,0,0,1-2.66,8.09,56.94,56.94,0,0,1-3.29,6.87,90.87,90.87,0,0,1-5.19,7.84,64.14,64.14,0,0,1-4.93,5.62,51.63,51.63,0,0,1-4.7,4.29c-2.35,1.82-5.63,4.07-8.14,5.68-8.18,4.8-19.56,4-32.06-3.37-24.41-14.49-43.85-49-43.43-77,.21-13.89,5.26-23.6,13.27-28.09a68.51,68.51,0,0,1,6.45-3.14,91.8,91.8,0,0,1,9.29-3.07,63.41,63.41,0,0,1,14.71-1.79c2.54,0,5.94.26,8.47.57a55.49,55.49,0,0,1,6.89,1.33,78.16,78.16,0,0,1,8.18,2.68A65.68,65.68,0,0,1,304.64,366.74Z"/><path class="cls-23" d="M236.86,357.94c1.54-.81,3.53-2,5.12-2.68a90.46,90.46,0,0,1,10.64-4,81.31,81.31,0,0,1,8.45-1.92,74.16,74.16,0,0,1,11.5-.94,91.14,91.14,0,0,1,10.57.76,80.65,80.65,0,0,1,9.23,2,61.3,61.3,0,0,1,7.35,2.53,71.71,71.71,0,0,1,9.81,4.86c-9.08-5.39-21.78-4.68-35.9,3.43C259.32,353.44,246.28,352.53,236.86,357.94Z"/><path class="cls-24" d="M344.79,421.58c-.08,2.85-.39,6.66-.77,9.5a60,60,0,0,1-1.48,7.39,95.88,95.88,0,0,1-3.27,9.78,79.76,79.76,0,0,1-4.57,9.1,69.51,69.51,0,0,1-5.12,7.51,106.57,106.57,0,0,1-7.53,8.23,69.21,69.21,0,0,1-6.81,5.63c-1.91,1.41-4.59,3.09-6.63,4.3,9.12-5.23,14.86-16.38,15.1-32.27.49-32.34-21.93-72.1-50.08-88.81,14.12-8.11,26.82-8.82,35.9-3.43,2.17,1.38,5.06,3.24,7.1,4.81a72.11,72.11,0,0,1,6.62,5.74,73,73,0,0,1,6.92,7.87c.6.79,1.39,1.86,1.94,2.69,2.21,3.36,2.39,3.64,3.4,5.45s2.08,4,2.91,5.74c.43.9.93,2.12,1.3,3.05a71.47,71.47,0,0,1,3.15,10,73.53,73.53,0,0,1,1.44,8.19A71,71,0,0,1,344.79,421.58Z"/><path class="cls-25" d="M273.27,362.14c28.15,16.72,50.57,56.48,50.08,88.81s-23.71,45-51.86,28.27-50.58-56.48-50.08-88.81S245.12,345.42,273.27,362.14Zm-.13,8.59c-24-14.27-43.84-3.47-44.26,24.12s18.72,61.52,42.74,75.79,43.84,3.46,44.26-24.13S297.16,385,273.14,370.73"/><g class="cls-6"><path class="cls-26" d="M260.56,422.61l28.29-16.23a2.08,2.08,0,0,1,2.08.21,6.52,6.52,0,0,1,3,5.13,2.13,2.13,0,0,1-.88,1.95l-28.29,16.22a2.1,2.1,0,0,0,.89-1.94,6.54,6.54,0,0,0-3-5.14A2.07,2.07,0,0,0,260.56,422.61Z"/><path class="cls-27" d="M259.68,424.54c0-1.89,1.33-2.67,3-1.73a6.54,6.54,0,0,1,3,5.14c0,1.9-1.33,2.68-3,1.74A6.54,6.54,0,0,1,259.68,424.54Z"/></g><circle class="cls-28" cx="257.68" cy="429.17" r="14.34"/><path class="cls-29" d="M353.94,553.61s0-125.54,0-127a2.74,2.74,0,0,1,1.41-2.46l9.51-5.45v-5.46l-3.67,2.11a16.11,16.11,0,0,1-8.26,1.85,38.77,38.77,0,0,1-8.4-2.15s5.13,44.31-35.93,68c-29.77,17.19-62.08-23.6-72.42-41.5s-28.26-66.84,1.72-84.15,62.69-8.28,75.51,3.55c0,0,.46-10.1,7.17-14s36.43-21,36.43-21L357,311s-5.51,3.15-6.8,3.9-1.08.05-1.08.05l-3.46-2a.92.92,0,0,1-.42-.92c0-.19,0-125.67,0-127a3,3,0,0,1,1.42-2.46l61.8-35.44a.93.93,0,0,1,1.2,0c.36.21,2.84,1.62,3.32,1.91a1.08,1.08,0,0,1,.42,1V277a3,3,0,0,1-1.41,2.45l-14.7,8.43,0,14.73,79.14-45.7c9-5.17,18.77,1.25,23,4l4.94-2.85c2.95-1.71,14.61-3.35,24.83,14.36s2.78,27.1-.06,28.74L524.27,304s2.37,15.88-8.16,22L412.55,385.64c-3.62,2.09-5.94,2.47-7.39,2.49v7.42l12-6.89a1.06,1.06,0,0,1,1-.1l3.54,2a.84.84,0,0,1,.39.63c0,.19,0,125.76,0,127.35a2.78,2.78,0,0,1-1.42,2.45l-61.79,35.44c-.77.45-.67.28-1.07.06s-3.29-1.89-3.63-2.12S353.94,553.61,353.94,553.61Z"/><g class="cls-30"><path class="cls-31" d="M-111.28,941.1C-3.52,909.68,58.37,796.86,27,689.1A203.28,203.28,0,0,0-.13,631.57a202.27,202.27,0,0,0,5.2-129.25c-31.41-107.76-144.23-169.65-252-138.24A202.6,202.6,0,0,0-369.75,464.29a173.73,173.73,0,0,0-57.7,6.76A174,174,0,0,0-545.82,686.84a174.08,174.08,0,0,0,185.2,124.42C-325.92,913.8-216.21,971.68-111.28,941.1Z"/></g></svg>