<svg id="Layer_1" data-name="Layer 1" xmlns="http://www.w3.org/2000/svg" xmlns:xlink="http://www.w3.org/1999/xlink" viewBox="0 0 200 200"><defs><style>.cls-1{fill:url(#linear-gradient);}.cls-2{fill:url(#linear-gradient-2);}.cls-3{fill:url(#linear-gradient-3);}</style><linearGradient id="linear-gradient" x1="-2529.92" y1="-228.03" x2="-2528.92" y2="-228.03" gradientTransform="matrix(161.28, 0, 0, -161.28, 408052.07, -36727.82)" gradientUnits="userSpaceOnUse"><stop offset="0" stop-color="#c36"/><stop offset="0.21" stop-color="#f36"/><stop offset="1" stop-color="#f63"/></linearGradient><linearGradient id="linear-gradient-2" x1="-2516.28" y1="-230.73" x2="-2515.28" y2="-230.73" gradientTransform="matrix(86, 0, 0, -86, 216419, -19729.06)" xlink:href="#linear-gradient"/><linearGradient id="linear-gradient-3" x1="-2512.86" y1="-231.4" x2="-2511.86" y2="-231.4" gradientTransform="matrix(77, 0, 0, -77, 193594.5, -17706.12)" xlink:href="#linear-gradient"/></defs><title>3D</title><polygon class="cls-1" points="104.33 71.78 104.07 72.75 20.95 50.88 101.43 24.73 178.81 47.72 104.36 72.83 104.07 72.75 104.33 71.78 104.01 70.83 172.19 47.84 101.46 26.83 28.05 50.68 104.58 70.81 104.33 71.78 104.01 70.83 104.33 71.78"/><polygon class="cls-2" points="20.5 143.78 19.5 143.78 19.5 51.5 104.5 73 104.5 175.21 19.5 144.48 19.5 143.78 20.5 143.78 20.84 142.84 102.5 172.36 102.5 74.56 21.5 54.07 21.5 143.78 20.5 143.78 20.84 142.84 20.5 143.78"/><polygon class="cls-3" points="105.5 173.78 104.5 173.78 104.5 73.05 180.5 48.41 180.5 144.46 104.5 175.27 104.5 173.78 105.5 173.78 105.12 172.85 178.5 143.11 178.5 51.16 106.5 74.51 106.5 173.78 105.5 173.78 105.12 172.85 105.5 173.78"/></svg>