<svg id="Layer_1" data-name="Layer 1" xmlns="http://www.w3.org/2000/svg" xmlns:xlink="http://www.w3.org/1999/xlink" viewBox="0 0 200 200"><defs><style>.cls-1{fill:none;}.cls-2{clip-path:url(#clip-path);}.cls-3{fill:url(#linear-gradient);}.cls-4{clip-path:url(#clip-path-2);}.cls-5{fill:url(#linear-gradient-2);}.cls-6{clip-path:url(#clip-path-3);}.cls-7{fill:url(#linear-gradient-3);}.cls-8{clip-path:url(#clip-path-4);}.cls-9{fill:url(#linear-gradient-4);}.cls-10{clip-path:url(#clip-path-5);}.cls-11{fill:url(#linear-gradient-5);}.cls-12{clip-path:url(#clip-path-6);}.cls-13{fill:url(#linear-gradient-6);}.cls-14{clip-path:url(#clip-path-7);}.cls-15{fill:url(#linear-gradient-7);}.cls-16{clip-path:url(#clip-path-8);}.cls-17{fill:url(#linear-gradient-8);}.cls-18{clip-path:url(#clip-path-9);}.cls-19{fill:url(#linear-gradient-9);}.cls-20{clip-path:url(#clip-path-10);}.cls-21{fill:url(#linear-gradient-10);}</style><clipPath id="clip-path"><path class="cls-1" d="M162.43,139.4a29.62,29.62,0,0,1-58.51.37,46.51,46.51,0,0,0,58.51-.37M133.25,137a2,2,0,0,0,1.86-1.2,20.4,20.4,0,0,1,26.45-1,42.42,42.42,0,0,1-57,.17,20.46,20.46,0,0,1,26.67.82A2,2,0,0,0,133,137Zm-.11-4.89a24.52,24.52,0,0,0-33.08,1.42,2,2,0,0,0-.6,1.44,33.69,33.69,0,0,0,67.37,0,2,2,0,0,0-.6-1.44,24.5,24.5,0,0,0-33.09-1.42"/></clipPath><linearGradient id="linear-gradient" x1="-2731.51" y1="-231" x2="-2730.67" y2="-231" gradientTransform="matrix(80.44, 0, 0, -80.44, 219816.49, -18434.64)" gradientUnits="userSpaceOnUse"><stop offset="0" stop-color="#c36"/><stop offset="0.21" stop-color="#f36"/><stop offset="1" stop-color="#f63"/></linearGradient><clipPath id="clip-path-2"><path class="cls-1" d="M46.57,161.2a10.31,10.31,0,0,1-2.3-8.4C47.71,132.32,58.4,117.69,66.75,109A89.72,89.72,0,0,1,81.34,96.75v59.66a8.48,8.48,0,0,1-8.47,8.47H54.5a10.37,10.37,0,0,1-7.93-3.68M82.4,91.31a85.36,85.36,0,0,0-18.47,14.78c-8.79,9.1-20,24.47-23.67,46A14.43,14.43,0,0,0,54.5,168.94H72.87a12.55,12.55,0,0,0,12.54-12.53V93.1a2,2,0,0,0-2-2,2.11,2.11,0,0,0-1,.24"/></clipPath><linearGradient id="linear-gradient-2" x1="-2714.79" y1="-234.02" x2="-2713.95" y2="-234.02" gradientTransform="matrix(54.15, 0, 0, -54.15, 147036.49, -12541.49)" xlink:href="#linear-gradient"/><clipPath id="clip-path-3"><path class="cls-1" d="M53.12,156.58a2,2,0,0,0,4,.37c.6-.49,2.92-1.3,6.4-1.3s5.8.81,6.41,1.3a2,2,0,0,0,4-.37c0-3.45-5.24-5-10.43-5s-10.43,1.55-10.43,5"/></clipPath><linearGradient id="linear-gradient-3" x1="-2655.36" y1="-244.49" x2="-2654.52" y2="-244.49" gradientTransform="matrix(24.91, 0, 0, -24.91, 66192.74, -5934.6)" xlink:href="#linear-gradient"/><clipPath id="clip-path-4"><path class="cls-1" d="M37.74,64A68.33,68.33,0,0,1,50.89,51.1a19.33,19.33,0,1,0,36.53,0A68.22,68.22,0,0,1,100.56,64c-3.41,4.39-16.38,19.69-31.41,19.69S41.16,68.35,37.74,64m20.62,4.29a15.28,15.28,0,0,1-.14-21.45,26.71,26.71,0,0,1,10.93-2.53,26.61,26.61,0,0,1,10.94,2.54A15.26,15.26,0,0,1,58.36,68.25m9.72-35.16v7.14a29.66,29.66,0,0,0-6,.89l-3.42-7.34A2,2,0,0,0,55,35.5l3.21,6.89c-14.1,5.51-24.15,19.66-24.67,20.4a2,2,0,0,0,0,2.33c.65.93,16,22.59,35.61,22.59s35-21.67,35.61-22.59a2,2,0,0,0,0-2.33C104.27,62.08,95,49,81.7,43.06l3.52-7.56a2,2,0,0,0-3.69-1.72l-3.64,7.83a30,30,0,0,0-5.75-1.23V33.09a2,2,0,0,0-4.06,0"/></clipPath><linearGradient id="linear-gradient-4" x1="-2733.53" y1="-230.82" x2="-2732.69" y2="-230.82" gradientTransform="matrix(85.92, 0, 0, -85.92, 234902.62, -19773.33)" xlink:href="#linear-gradient"/><clipPath id="clip-path-5"><path class="cls-1" d="M63.89,56.64a5.26,5.26,0,1,1,5.26,5.27,5.27,5.27,0,0,1-5.26-5.27m-4.06,0a9.33,9.33,0,1,0,9.32-9.32,9.33,9.33,0,0,0-9.32,9.32"/></clipPath><linearGradient id="linear-gradient-5" x1="-2642.35" y1="-247.67" x2="-2641.51" y2="-247.67" gradientTransform="matrix(22.27, 0, 0, -22.27, 58894.49, -5457.88)" xlink:href="#linear-gradient"/><clipPath id="clip-path-6"><path class="cls-1" d="M135.08,86.14a5.26,5.26,0,1,1,5.26,5.26,5.27,5.27,0,0,1-5.26-5.26m-4.06,0a9.32,9.32,0,1,0,9.32-9.33A9.33,9.33,0,0,0,131,86.14"/></clipPath><linearGradient id="linear-gradient-6" x1="-2642.97" y1="-247.41" x2="-2642.13" y2="-247.41" gradientTransform="matrix(22.27, 0, 0, -22.27, 58979.51, -5422.66)" xlink:href="#linear-gradient"/><clipPath id="clip-path-7"><path class="cls-1" d="M128.74,96.93a15.26,15.26,0,0,1,21.45-21.72,24.94,24.94,0,0,1,0,21.87,15.27,15.27,0,0,1-21.44-.15m-15.4-10.79c0-15,15.3-28,19.69-31.41a67.46,67.46,0,0,1,12.85,13.15,19.33,19.33,0,1,0,0,36.52A68.38,68.38,0,0,1,133,117.55c-4.4-3.41-19.69-16.36-19.69-31.41m18.52-35.61c-.92.64-22.58,16-22.58,35.61s21.66,35,22.58,35.61a2.08,2.08,0,0,0,1.17.37,2,2,0,0,0,1.16-.37c.71-.5,13.83-9.81,19.74-23.07l7.56,3.52a2,2,0,0,0,.85.19,2,2,0,0,0,.86-3.87l-7.82-3.64a30.8,30.8,0,0,0,1.23-5.75h7.28a2,2,0,1,0,0-4.07h-7.14a28.22,28.22,0,0,0-.89-6l7.34-3.42A2,2,0,1,0,161.49,72L154.6,75.2c-5.52-14.1-19.67-24.15-20.41-24.67a2,2,0,0,0-1.16-.37,2,2,0,0,0-1.17.37"/></clipPath><linearGradient id="linear-gradient-7" x1="-2725.1" y1="-232.34" x2="-2724.26" y2="-232.34" gradientTransform="matrix(67.64, 0, 0, -67.64, 184434.3, -15629)" xlink:href="#linear-gradient"/><clipPath id="clip-path-8"><path class="cls-1" d="M75.39,109c-14.29,9.27-21.33,28.76-21.62,29.58a2,2,0,0,0,3.83,1.36c.06-.19,6.86-19,20-27.53A2,2,0,1,0,75.39,109"/></clipPath><linearGradient id="linear-gradient-8" x1="-2673.15" y1="-241.53" x2="-2672.31" y2="-241.53" gradientTransform="matrix(29.7, 0, 0, -29.7, 79458.99, -7049.59)" xlink:href="#linear-gradient"/><clipPath id="clip-path-9"><path class="cls-1" d="M108.12,48.46a2.21,2.21,0,0,1-.66-1.59,2.25,2.25,0,0,1,.66-1.6,34.55,34.55,0,0,1,48.8,0,2.25,2.25,0,0,1,.66,1.6,2.25,2.25,0,0,1-3.84,1.59,30.06,30.06,0,0,0-42.44,0,2.25,2.25,0,0,1-3.18,0m-2.87-6.06a6.31,6.31,0,0,0,8.93,8.93,26,26,0,0,1,36.68,0,6.31,6.31,0,0,0,8.93-8.93,38.6,38.6,0,0,0-54.54,0"/></clipPath><linearGradient id="linear-gradient-9" x1="-2726.19" y1="-232.26" x2="-2725.36" y2="-232.26" gradientTransform="matrix(69.55, 0, 0, -69.55, 189707.99, -16111.05)" xlink:href="#linear-gradient"/><clipPath id="clip-path-10"><path class="cls-1" d="M96.13,109.91c0-1.19,1.69-4.35,3.63-7.35,2,3,3.64,6.2,3.64,7.35a3.64,3.64,0,1,1-7.27,0m2-12.14c-1.42,2-6.05,8.63-6.05,12.14a7.7,7.7,0,1,0,15.39,0c0-3.51-4.63-10.18-6-12.14a2,2,0,0,0-3.29,0"/></clipPath><linearGradient id="linear-gradient-10" x1="-2616.59" y1="-251.95" x2="-2615.75" y2="-251.95" gradientTransform="matrix(18.37, 0, 0, -18.37, 48165.68, -4521.64)" xlink:href="#linear-gradient"/></defs><title>abstract</title><g class="cls-2"><rect class="cls-3" x="99.46" y="123.97" width="67.36" height="44.64"/></g><g class="cls-4"><rect class="cls-5" x="39.55" y="91.07" width="45.85" height="77.87"/></g><g class="cls-6"><rect class="cls-7" x="53.12" y="151.58" width="20.86" height="7.02"/></g><g class="cls-8"><rect class="cls-9" x="33.05" y="31.06" width="72.2" height="56.65"/></g><g class="cls-10"><rect class="cls-11" x="59.83" y="47.32" width="18.65" height="18.65"/></g><g class="cls-12"><rect class="cls-13" x="131.02" y="76.81" width="18.65" height="18.65"/></g><g class="cls-14"><rect class="cls-15" x="109.28" y="50.16" width="56.65" height="71.96"/></g><g class="cls-16"><rect class="cls-17" x="53.39" y="108.64" width="25.42" height="32.62"/></g><g class="cls-18"><rect class="cls-19" x="103.4" y="31.12" width="58.86" height="22.67"/></g><g class="cls-20"><rect class="cls-21" x="92.07" y="96.93" width="15.39" height="20.67"/></g></svg>