<svg id="Layer_1" data-name="Layer 1" xmlns="http://www.w3.org/2000/svg" xmlns:xlink="http://www.w3.org/1999/xlink" viewBox="0 0 200 200"><defs><style>.cls-1{fill:url(#linear-gradient);}.cls-2{fill:url(#linear-gradient-2);}.cls-3{fill:url(#linear-gradient-3);}.cls-4{fill:url(#linear-gradient-4);}.cls-5{fill:url(#linear-gradient-5);}.cls-6{fill:url(#linear-gradient-6);}.cls-7{fill:url(#linear-gradient-7);}.cls-8{fill:url(#linear-gradient-8);}.cls-9{fill:url(#linear-gradient-9);}.cls-10{fill:url(#linear-gradient-10);}.cls-11{fill:url(#linear-gradient-11);}.cls-12{fill:url(#linear-gradient-12);}.cls-13{fill:url(#linear-gradient-13);}.cls-14{fill:url(#linear-gradient-14);}.cls-15{fill:url(#linear-gradient-15);}.cls-16{fill:url(#linear-gradient-16);}.cls-17{fill:url(#linear-gradient-17);}</style><linearGradient id="linear-gradient" x1="-3402.23" y1="-228.33" x2="-3401.31" y2="-228.33" gradientTransform="matrix(145.95, 0, 0, -145.95, 496577.73, -33204.12)" gradientUnits="userSpaceOnUse"><stop offset="0" stop-color="#c36"/><stop offset="0.21" stop-color="#f36"/><stop offset="1" stop-color="#f63"/></linearGradient><linearGradient id="linear-gradient-2" x1="-3085.32" y1="-274.67" x2="-3084.41" y2="-274.67" gradientTransform="matrix(9.98, 0, 0, -9.98, 30846.65, -2638.32)" xlink:href="#linear-gradient"/><linearGradient id="linear-gradient-3" x1="-3085.46" y1="-274.74" x2="-3084.54" y2="-274.74" gradientTransform="matrix(9.98, 0, 0, -9.98, 30862.99, -2646.84)" xlink:href="#linear-gradient"/><linearGradient id="linear-gradient-4" x1="-3311.38" y1="-241.87" x2="-3310.47" y2="-241.87" gradientTransform="matrix(29.7, 0, 0, -29.7, 98474.43, -7158.37)" xlink:href="#linear-gradient"/><linearGradient id="linear-gradient-5" x1="-3252.72" y1="-250.58" x2="-3251.8" y2="-250.58" gradientTransform="matrix(19.61, 0, 0, -19.61, 63919.16, -4888.59)" xlink:href="#linear-gradient"/><linearGradient id="linear-gradient-6" x1="-3365.54" y1="-233.63" x2="-3364.63" y2="-233.63" gradientTransform="matrix(56.63, 0, 0, -56.63, 190638.05, -13080.27)" xlink:href="#linear-gradient"/><linearGradient id="linear-gradient-7" x1="-3252.55" y1="-250.02" x2="-3251.63" y2="-250.02" gradientTransform="matrix(19.61, 0, 0, -19.61, 63879.84, -4754.1)" xlink:href="#linear-gradient"/><linearGradient id="linear-gradient-8" x1="-3364.74" y1="-233.81" x2="-3363.82" y2="-233.81" gradientTransform="matrix(55.8, 0, 0, -55.8, 187867.61, -12934.4)" xlink:href="#linear-gradient"/><linearGradient id="linear-gradient-9" x1="-3364.16" y1="-233.9" x2="-3363.25" y2="-233.9" gradientTransform="matrix(55.28, 0, 0, -55.28, 186077.28, -12816.8)" xlink:href="#linear-gradient"/><linearGradient id="linear-gradient-10" x1="-3293.32" y1="-244.41" x2="-3292.4" y2="-244.41" gradientTransform="matrix(25.64, 0, 0, -25.64, 84567.21, -6201.46)" xlink:href="#linear-gradient"/><linearGradient id="linear-gradient-11" x1="-3293.32" y1="-244.31" x2="-3292.4" y2="-244.31" gradientTransform="matrix(25.64, 0, 0, -25.64, 84567.21, -6170.44)" xlink:href="#linear-gradient"/><linearGradient id="linear-gradient-12" x1="-3293.32" y1="-244.21" x2="-3292.4" y2="-244.21" gradientTransform="matrix(25.64, 0, 0, -25.64, 84567.21, -6139.41)" xlink:href="#linear-gradient"/><linearGradient id="linear-gradient-13" x1="-3293.32" y1="-244.11" x2="-3292.4" y2="-244.11" gradientTransform="matrix(25.64, 0, 0, -25.64, 84567.21, -6108.39)" xlink:href="#linear-gradient"/><linearGradient id="linear-gradient-14" x1="-3085.32" y1="-274.38" x2="-3084.4" y2="-274.38" gradientTransform="matrix(9.98, 0, 0, -9.98, 30846.04, -2603.3)" xlink:href="#linear-gradient"/><linearGradient id="linear-gradient-15" x1="-3085.32" y1="-274.14" x2="-3084.4" y2="-274.14" gradientTransform="matrix(9.98, 0, 0, -9.98, 30846.04, -2574.51)" xlink:href="#linear-gradient"/><linearGradient id="linear-gradient-16" x1="-3085.46" y1="-274.38" x2="-3084.55" y2="-274.38" gradientTransform="matrix(9.98, 0, 0, -9.98, 30863.59, -2603.3)" xlink:href="#linear-gradient"/><linearGradient id="linear-gradient-17" x1="-3085.46" y1="-274.14" x2="-3084.55" y2="-274.14" gradientTransform="matrix(9.98, 0, 0, -9.98, 30863.59, -2574.51)" xlink:href="#linear-gradient"/></defs><title>corporate</title><path class="cls-1" d="M100,51.91v-.46c36.74,0,66.43,30.59,66.5,68.31s-29.76,68.3-66.5,68.3-66.43-30.59-66.5-68.3S63.26,51.46,100,51.45v.92c-36.21.07-65.58,30.16-65.58,67.39S63.79,187.08,100,187.14s65.58-30.16,65.58-67.38S136.21,52.44,100,52.37Z"/><path class="cls-2" d="M67.5,115.44v.46a4.12,4.12,0,0,1-4.12-4.12V92.53a4.12,4.12,0,0,1,8.24,0v19.25a4.13,4.13,0,0,1-4.12,4.12V115a3.2,3.2,0,0,0,3.2-3.2V92.53a3.2,3.2,0,0,0-6.4,0v19.25a3.2,3.2,0,0,0,3.2,3.2Z"/><path class="cls-3" d="M82.5,115.44v.46a4.13,4.13,0,0,1-4.12-4.12V76.89a4.12,4.12,0,1,1,8.24,0v34.89a4.12,4.12,0,0,1-4.12,4.12V115a3.2,3.2,0,0,0,3.2-3.2V76.89a3.2,3.2,0,1,0-6.4,0v34.89a3.2,3.2,0,0,0,3.2,3.2Z"/><path class="cls-4" d="M137.12,40.33v.46H111.24v-26a2.89,2.89,0,0,1,2.89-2.9h20.55a2.89,2.89,0,0,1,2.89,2.9v26h-.45v-.46h-.46V14.83a2,2,0,0,0-2-2H114.13a2,2,0,0,0-2,2v25h25v.46h0Z"/><path class="cls-5" d="M134.68,12.39v.45H120v-.91a2.89,2.89,0,0,1,2.89,2.9v25h13.73v-25a2,2,0,0,0-2-2v-.91a2.89,2.89,0,0,1,2.89,2.9v26H122v-26a2,2,0,0,0-2-2v-.91h14.64Z"/><path class="cls-6" d="M100.58,187.6V114.36a2,2,0,0,0-2-2H53.35a2,2,0,0,0-2,2V165h-.46l.36-.28s17.88,22.43,48.57,22.42l1.19,0v.92h-1.2c-31.17,0-49.25-22.72-49.29-22.76l-.1-.13V114.36a2.9,2.9,0,0,1,2.9-2.9H98.6a2.89,2.89,0,0,1,2.89,2.9V187.6Z"/><path class="cls-7" d="M98.6,111.92v.46H84v-.92a2.89,2.89,0,0,1,2.89,2.9v71.79H86.4l.09-.45a61.92,61.92,0,0,0,13.35,1.45H101v.46h-.46V114.36a2,2,0,0,0-2-2v-.92a2.89,2.89,0,0,1,2.89,2.9v73.69H99.84A63,63,0,0,1,86.3,186.6l-.36-.08V114.36a2,2,0,0,0-2-2v-.92H98.6Z"/><path class="cls-8" d="M100.21,187.6h-.46L99.26,41.8h0a2.89,2.89,0,0,1,2.9-2.89h44.49a2.89,2.89,0,0,1,2.9,2.89V165.32l-.1.13S131.56,188,100.21,188.06h-.46v-.46h.46v-.46c30.88,0,48.44-22.27,48.52-22.27l.36.29h-.46V41.79a2,2,0,0,0-2-2H102.16a2,2,0,0,0-2,2h0l.49,145.81h-.46v0Z"/><path class="cls-9" d="M146.65,39.35v.46H132V38.9a2.89,2.89,0,0,1,2.9,2.89V162.06a8.57,8.57,0,0,1-2.45,6,68.35,68.35,0,0,1-32.15,18.28l-.11-.45h.46v1.73h-.46v-.46c30.88,0,48.44-22.27,48.52-22.27l.36.29h-.46V41.79a2,2,0,0,0-2-2V38.9a2.89,2.89,0,0,1,2.9,2.89V165.32l-.1.12S131.56,188,100.21,188.06h-.46v-2.55l.35-.09a67.32,67.32,0,0,0,31.71-18,7.62,7.62,0,0,0,2.19-5.33V41.79a2,2,0,0,0-2-2V38.9h14.64Z"/><path class="cls-10" d="M131.59,70v.46H117.22a4.12,4.12,0,0,1,0-8.24h14.37a4.12,4.12,0,0,1,0,8.24v-.92a3.2,3.2,0,1,0,0-6.4H117.22a3.2,3.2,0,0,0,0,6.4h14.37Z"/><path class="cls-11" d="M131.59,98.44v.45H117.22a4.12,4.12,0,1,1,0-8.23h14.37a4.12,4.12,0,1,1,0,8.23V98a3.21,3.21,0,1,0,0-6.41H117.22a3.21,3.21,0,0,0,0,6.41h14.37Z"/><path class="cls-12" d="M131.59,126.9v.46H117.22a4.12,4.12,0,1,1,0-8.24h14.37a4.12,4.12,0,1,1,0,8.24v-.92a3.2,3.2,0,1,0,0-6.4H117.22a3.2,3.2,0,0,0,0,6.4h14.37Z"/><path class="cls-13" d="M131.59,155.37v.46H117.22a4.12,4.12,0,0,1,0-8.24h14.37a4.12,4.12,0,0,1,0,8.24v-.92a3.2,3.2,0,1,0,0-6.4H117.22a3.2,3.2,0,0,0,0,6.4h14.37Z"/><path class="cls-14" d="M67,141.71v.45A4.11,4.11,0,0,1,62.83,138v-7.5a4.12,4.12,0,1,1,8.24,0V138A4.12,4.12,0,0,1,67,142.16v-.91a3.21,3.21,0,0,0,3.2-3.21v-7.5a3.2,3.2,0,0,0-6.4,0V138a3.21,3.21,0,0,0,3.2,3.21Z"/><path class="cls-15" d="M67,168.12v.46a4.11,4.11,0,0,1-4.12-4.12V157a4.12,4.12,0,1,1,8.24,0v7.5A4.12,4.12,0,0,1,67,168.58v-.92a3.2,3.2,0,0,0,3.2-3.2V157a3.2,3.2,0,1,0-6.4,0v7.5a3.2,3.2,0,0,0,3.2,3.2Z"/><path class="cls-16" d="M83.05,141.71v.45A4.12,4.12,0,0,1,78.93,138v-7.5a4.12,4.12,0,0,1,8.24,0V138a4.11,4.11,0,0,1-4.12,4.12v-.91a3.21,3.21,0,0,0,3.2-3.21v-7.5a3.2,3.2,0,0,0-6.4,0V138a3.21,3.21,0,0,0,3.2,3.21Z"/><path class="cls-17" d="M83.05,168.12v.46a4.12,4.12,0,0,1-4.12-4.12V157a4.12,4.12,0,0,1,8.24,0v7.5a4.11,4.11,0,0,1-4.12,4.12v-.92a3.2,3.2,0,0,0,3.2-3.2V157a3.2,3.2,0,1,0-6.4,0v7.5a3.2,3.2,0,0,0,3.2,3.2Z"/></svg>