<svg id="Layer_1" data-name="Layer 1" xmlns="http://www.w3.org/2000/svg" xmlns:xlink="http://www.w3.org/1999/xlink" viewBox="0 0 200 200"><defs><style>.cls-1{fill:url(#linear-gradient);}.cls-2{fill:url(#linear-gradient-2);}.cls-3{fill:url(#linear-gradient-3);}.cls-4{fill:url(#linear-gradient-4);}.cls-5{fill:url(#linear-gradient-5);}.cls-6{fill:url(#linear-gradient-6);}.cls-7{fill:url(#linear-gradient-7);}</style><linearGradient id="linear-gradient" x1="-1847.75" y1="-237.27" x2="-1846.87" y2="-237.27" gradientTransform="matrix(48.24, -2.23, -2.23, -48.24, 88732.69, -15509.18)" gradientUnits="userSpaceOnUse"><stop offset="0" stop-color="#c36"/><stop offset="0.21" stop-color="#f36"/><stop offset="1" stop-color="#f63"/></linearGradient><linearGradient id="linear-gradient-2" x1="-1870.35" y1="-229.03" x2="-1869.47" y2="-229.03" gradientTransform="matrix(122.87, 0, 0, -122.87, 229844.28, -28031.18)" xlink:href="#linear-gradient"/><linearGradient id="linear-gradient-3" x1="-1869.95" y1="-229.17" x2="-1869.07" y2="-229.17" gradientTransform="matrix(119.47, 0, 0, -119.47, 223457.55, -27292.03)" xlink:href="#linear-gradient"/><linearGradient id="linear-gradient-4" x1="-1686.88" y1="-278.77" x2="-1686" y2="-278.77" gradientTransform="matrix(9.33, 0, 0, -9.33, 15831.48, -2486.24)" xlink:href="#linear-gradient"/><linearGradient id="linear-gradient-5" x1="-1807.13" y1="-246.2" x2="-1806.25" y2="-246.2" gradientTransform="matrix(23.73, 0, 0, -23.73, 42924.01, -5744.04)" xlink:href="#linear-gradient"/><linearGradient id="linear-gradient-6" x1="-1791.95" y1="-250.66" x2="-1791.06" y2="-250.66" gradientTransform="matrix(19.85, 0, 0, -19.85, 35629.67, -4921.52)" xlink:href="#linear-gradient"/><linearGradient id="linear-gradient-7" x1="-1678.03" y1="-282.26" x2="-1677.15" y2="-282.26" gradientTransform="matrix(8.94, 0, 0, -8.94, 15082.35, -2482.03)" xlink:href="#linear-gradient"/></defs><title>femenine</title><path class="cls-1" d="M157.34,71.53a23.59,23.59,0,0,0,4.58-38.14,23.59,23.59,0,0,0-33.33,1.54l-.65-.6a24.47,24.47,0,1,1,29.82,38l-.42-.78Z"/><path class="cls-2" d="M120.54,147.51l16,26.15-51.37.16L80,166.46a20.32,20.32,0,0,0-16.66-8.68h-8.8a11.06,11.06,0,0,1-11.05-11.06v-5.14h.44l-.18.41-.12-.06h0a3.94,3.94,0,0,1-2.4-3.64v-1.53l-.43-.55a5.1,5.1,0,0,1-1.1-3.18,5.21,5.21,0,0,1,.37-1.93l.74-1.82a8,8,0,0,0,.6-3.06v-6.34c.34-.74-6.14-3.57-10.39-5.82a2.94,2.94,0,0,1-1.5-2.57,2.9,2.9,0,0,1,1.14-2.32C35,105.81,42,98.13,42,83.5c0-21.58,16.67-36.27,16.7-36.31l.58.66S42.9,62.4,42.92,83.5c0,14.93-7.27,22.91-11.74,26.37a2,2,0,0,0-.8,1.62,2.05,2.05,0,0,0,1.05,1.8c4.21,2.5,10.5,4.37,10.84,6.59v6.34a9,9,0,0,1-.66,3.4l-.74,1.81a4.27,4.27,0,0,0,.6,4.23l.62.79v1.84A3.07,3.07,0,0,0,44,141.12h0l.12.05.27.11v5.43A10.19,10.19,0,0,0,54.53,156.9h8.8A21.19,21.19,0,0,1,80.71,166l4.87,7,49.34-.15L119.78,148l.76-.46Z"/><path class="cls-3" d="M95.48,26.63v.44C75,27.08,58.17,38.59,58.13,55.63A33.54,33.54,0,0,0,62.5,71.41c13.57,25.68,47.6,22.49,48.06,40.17v.24c0,14.4-10.39,15.06-11.89,15.07h-.19l0-.44.42-.15s7.35,21,26.23,21c.59,0,1.2,0,1.81-.06l0,.44-.19-.4c23.8-11.67,33.9-33.21,33.9-54.86A72.67,72.67,0,0,0,152,58.15C135.8,28.07,100.49,27.06,96,27.06h-.49v-.88H96c4.6,0,40.29,1,56.84,31.55a73.78,73.78,0,0,1,8.78,34.69c0,21.91-10.28,43.84-34.4,55.65l-.08,0H127c-.63,0-1.26.06-1.87.06-19.64-.05-27.05-21.57-27.07-21.59l-.21-.62.65,0h.15c1.38-.06,11-.35,11-14.19v-.23c.19-16.37-33.87-13.71-48-39.76a34.38,34.38,0,0,1-4.47-16.2c0-17.72,17.44-29.41,38.23-29.44Z"/><path class="cls-4" d="M96.72,117.66l.19-.4a2.54,2.54,0,0,0,3.39-1.2l.49-1a2.48,2.48,0,0,0,.25-1.09,2.52,2.52,0,0,0-1.45-2.29,2.48,2.48,0,0,0-1.09-.25,2.53,2.53,0,0,0-2.29,1.45l-.5,1h0a2.63,2.63,0,0,0-.25,1.09,2.55,2.55,0,0,0,1.45,2.29l-.19.4-.19.4a3.42,3.42,0,0,1-2-3.09,3.33,3.33,0,0,1,.34-1.47h0l.49-1a3.42,3.42,0,0,1,3.09-1.95,3.49,3.49,0,0,1,1.47.33,3.43,3.43,0,0,1,1.62,4.56l-.5,1a3.41,3.41,0,0,1-3.09,2,3.53,3.53,0,0,1-1.47-.33Z"/><path class="cls-5" d="M66.38,94l-.31.31a2.53,2.53,0,0,0-1.79-.74,2.57,2.57,0,0,0-1.8.74,6.76,6.76,0,0,1-9.58,0,2.57,2.57,0,0,0-1.8-.74,2.54,2.54,0,0,0-1.79,4.34,11.88,11.88,0,0,0,16.76,0,2.54,2.54,0,0,0,0-3.6l.31-.31.32-.31a3.43,3.43,0,0,1,0,4.84,12.77,12.77,0,0,1-18,0,3.43,3.43,0,0,1,0-4.84,3.43,3.43,0,0,1,4.84,0,5.89,5.89,0,0,0,8.34,0,3.43,3.43,0,0,1,4.84,0Z"/><path class="cls-6" d="M79.54,39.54l.17.41c-5.17,2.21-8.85,5.91-10.43,10.4a15.42,15.42,0,0,0-.87,5.14A20.34,20.34,0,0,0,71,65.06a2.55,2.55,0,0,0,2.24,1.35,2.58,2.58,0,0,0,1.2-.31h0a2.53,2.53,0,0,0,1.34-2.24,2.56,2.56,0,0,0-.3-1.19,15.32,15.32,0,0,1-2-7.15A10.57,10.57,0,0,1,74.07,52c1.12-3.17,3.85-5.8,7.63-7.41a2.54,2.54,0,0,0-1-4.88,2.48,2.48,0,0,0-1,.21l-.17-.41-.18-.4a3.41,3.41,0,0,1,4.49,1.8,3.32,3.32,0,0,1,.28,1.34,3.43,3.43,0,0,1-2.08,3.15c-3.61,1.54-6.13,4-7.15,6.9a9.5,9.5,0,0,0-.54,3.19,14.31,14.31,0,0,0,1.92,6.73,3.46,3.46,0,0,1,.4,1.61,3.42,3.42,0,0,1-1.81,3h0a3.41,3.41,0,0,1-4.63-1.4,21.31,21.31,0,0,1-2.71-10,16.13,16.13,0,0,1,.92-5.43C70.12,45.3,74,41.42,79.36,39.14Z"/><path class="cls-7" d="M90.71,37.35v.45h-.16A2.52,2.52,0,0,0,88,40.34h0a2.52,2.52,0,0,0,2.53,2.52h.15a2.54,2.54,0,1,0,0-5.07v-.89a3.42,3.42,0,1,1,0,6.84h-.15a3.42,3.42,0,0,1-3.42-3.4h0v0a3.44,3.44,0,0,1,3.4-3.43h.17Z"/></svg>