<svg id="Layer_1" data-name="Layer 1" xmlns="http://www.w3.org/2000/svg" xmlns:xlink="http://www.w3.org/1999/xlink" viewBox="0 0 200 200"><defs><style>.cls-1{fill:url(#linear-gradient);}.cls-2{fill:url(#linear-gradient-2);}.cls-3{fill:url(#linear-gradient-3);}.cls-4{fill:url(#linear-gradient-4);}.cls-5{fill:url(#linear-gradient-5);}.cls-6{fill:url(#linear-gradient-6);}.cls-7{fill:url(#linear-gradient-7);}.cls-8{fill:url(#linear-gradient-8);}.cls-9{fill:url(#linear-gradient-9);}.cls-10{fill:url(#linear-gradient-10);}.cls-11{fill:url(#linear-gradient-11);}.cls-12{fill:url(#linear-gradient-12);}</style><linearGradient id="linear-gradient" x1="-2309.26" y1="-228.52" x2="-2308.26" y2="-228.52" gradientTransform="matrix(141.07, 0, 0, -141.07, 325795, -32178.07)" gradientUnits="userSpaceOnUse"><stop offset="0" stop-color="#c36"/><stop offset="0.21" stop-color="#f36"/><stop offset="1" stop-color="#f63"/></linearGradient><linearGradient id="linear-gradient-2" x1="-2300.02" y1="-230.55" x2="-2299.02" y2="-230.55" gradientTransform="matrix(89.88, 0, 0, -89.88, 206811.98, -20664.18)" xlink:href="#linear-gradient"/><linearGradient id="linear-gradient-3" x1="-2292.8" y1="-232.14" x2="-2291.8" y2="-232.14" gradientTransform="matrix(70.04, 0, 0, -70.04, 160625.3, -16145.01)" xlink:href="#linear-gradient"/><linearGradient id="linear-gradient-4" x1="-2292.8" y1="-232.14" x2="-2291.8" y2="-232.14" gradientTransform="matrix(70.04, 0, 0, -70.04, 160694.26, -16145.1)" xlink:href="#linear-gradient"/><linearGradient id="linear-gradient-5" x1="-2201.1" y1="-252.33" x2="-2200.1" y2="-252.33" gradientTransform="matrix(18.41, 0, 0, -18.41, 40617.01, -4557.74)" xlink:href="#linear-gradient"/><linearGradient id="linear-gradient-6" x1="-2201.1" y1="-252.33" x2="-2200.1" y2="-252.33" gradientTransform="matrix(18.41, 0, 0, -18.41, 40617.01, -4617.37)" xlink:href="#linear-gradient"/><linearGradient id="linear-gradient-7" x1="-2201.1" y1="-252.33" x2="-2200.1" y2="-252.33" gradientTransform="matrix(18.41, 0, 0, -18.41, 40685.05, -4587.56)" xlink:href="#linear-gradient"/><linearGradient id="linear-gradient-8" x1="-2201.1" y1="-252.33" x2="-2200.1" y2="-252.33" gradientTransform="matrix(18.41, 0, 0, -18.41, 40685.05, -4503.78)" xlink:href="#linear-gradient"/><linearGradient id="linear-gradient-9" x1="-2201.1" y1="-252.33" x2="-2200.1" y2="-252.33" gradientTransform="matrix(18.41, 0, 0, -18.41, 40617.01, -4474.48)" xlink:href="#linear-gradient"/><linearGradient id="linear-gradient-10" x1="-2201.1" y1="-252.33" x2="-2200.1" y2="-252.33" gradientTransform="matrix(18.41, 0, 0, -18.41, 40548.9, -4503.78)" xlink:href="#linear-gradient"/><linearGradient id="linear-gradient-11" x1="-2201.1" y1="-252.33" x2="-2200.1" y2="-252.33" gradientTransform="matrix(18.41, 0, 0, -18.41, 40548.9, -4587.56)" xlink:href="#linear-gradient"/><linearGradient id="linear-gradient-12" x1="-2306.98" y1="-229.02" x2="-2305.98" y2="-229.02" gradientTransform="matrix(123.65, 0, 0, -123.65, 285291.14, -28196.38)" xlink:href="#linear-gradient"/></defs><title>geometric</title><polygon class="cls-1" points="100.03 28.55 100.23 29.01 33.23 58.37 100.03 87.64 166.83 58.37 99.83 29.01 100.03 28.55 100.23 29.01 100.03 28.55 100.23 28.09 169.32 58.37 100.03 88.73 30.74 58.37 100.03 28.01 100.23 28.09 100.03 28.55"/><path class="cls-2" d="M168.08,58.37l.2.46L100,88.73,81.93,80.8l48.5-21.25a1.29,1.29,0,0,0,0-2.36L81.93,35.94,100,28l69.29,30.36-1,.46-.2-.46-.2.46L100,29.1,84.42,35.94l46.41,20.34a2.28,2.28,0,0,1,0,4.18L84.42,80.8,100,87.64l67.85-29.73.2.46-.2.46Z"/><polygon class="cls-3" points="31.99 58.37 32.19 57.91 100.53 87.86 100.53 172.03 31.49 142.28 31.49 57.6 32.19 57.91 31.99 58.37 32.49 58.37 32.49 141.63 99.53 170.51 99.53 88.51 31.79 58.83 31.99 58.37 32.49 58.37 31.99 58.37"/><polygon class="cls-4" points="168.08 58.37 168.28 58.83 100.53 88.51 100.53 170.51 167.58 141.63 167.58 58.37 168.08 58.37 168.28 58.83 168.08 58.37 168.58 58.37 168.58 142.28 99.53 172.03 99.53 87.86 168.58 57.6 168.58 58.37 168.08 58.37"/><path class="cls-5" d="M100,80v-.5a8.71,8.71,0,1,1-8.7,8.71,8.71,8.71,0,0,1,8.7-8.71v1a7.71,7.71,0,1,0,7.71,7.71A7.71,7.71,0,0,0,100,80.48Z"/><path class="cls-6" d="M100,20.35v-.5a8.71,8.71,0,1,1-8.7,8.7,8.71,8.71,0,0,1,8.7-8.7v1a7.71,7.71,0,1,0,7.71,7.7,7.71,7.71,0,0,0-7.71-7.7Z"/><path class="cls-7" d="M168.08,50.16v-.5a8.71,8.71,0,1,1-8.71,8.71,8.71,8.71,0,0,1,8.71-8.71v1a7.71,7.71,0,1,0,7.7,7.71,7.72,7.72,0,0,0-7.7-7.71Z"/><path class="cls-8" d="M168.08,133.94v-.5a8.71,8.71,0,1,1-8.71,8.7,8.71,8.71,0,0,1,8.71-8.7v1a7.71,7.71,0,1,0,7.7,7.7,7.72,7.72,0,0,0-7.7-7.7Z"/><path class="cls-9" d="M100,163.24v-.5a8.71,8.71,0,1,1-8.7,8.71,8.71,8.71,0,0,1,8.7-8.71v1a7.71,7.71,0,1,0,7.71,7.71,7.71,7.71,0,0,0-7.71-7.71Z"/><path class="cls-10" d="M31.92,133.94v-.5a8.71,8.71,0,1,1-8.7,8.7,8.71,8.71,0,0,1,8.7-8.7v1a7.71,7.71,0,1,0,7.71,7.7,7.72,7.72,0,0,0-7.71-7.7Z"/><path class="cls-11" d="M31.92,50.16v-.5a8.71,8.71,0,1,1-8.7,8.71,8.71,8.71,0,0,1,8.7-8.71v1a7.71,7.71,0,1,0,7.71,7.71,7.72,7.72,0,0,0-7.71-7.71Z"/><polygon class="cls-12" points="38.4 136.99 98.95 104.99 161.59 136.99 161.14 137.88 98.96 106.12 38.87 137.88 38.4 136.99 38.4 136.99"/></svg>