<svg id="Layer_1" data-name="Layer 1" xmlns="http://www.w3.org/2000/svg" xmlns:xlink="http://www.w3.org/1999/xlink" viewBox="0 0 200 200"><defs><style>.cls-1{fill:url(#linear-gradient);}.cls-2{fill:url(#linear-gradient-2);}.cls-3{fill:url(#linear-gradient-3);}.cls-4{fill:url(#linear-gradient-4);}.cls-5{fill:url(#linear-gradient-5);}</style><linearGradient id="linear-gradient" x1="-3809.04" y1="-232.28" x2="-3808.08" y2="-232.28" gradientTransform="matrix(67.98, 0, 0, -67.98, 258953.07, -15693.57)" gradientUnits="userSpaceOnUse"><stop offset="0" stop-color="#c36"/><stop offset="0.21" stop-color="#f36"/><stop offset="1" stop-color="#f63"/></linearGradient><linearGradient id="linear-gradient-2" x1="-3809.1" y1="-232.27" x2="-3808.14" y2="-232.27" gradientTransform="matrix(67.98, 0, 0, -67.98, 259049.97, -15685.61)" xlink:href="#linear-gradient"/><linearGradient id="linear-gradient-3" x1="-3781.24" y1="-235.91" x2="-3780.28" y2="-235.91" gradientTransform="matrix(45.51, 0, 0, -45.51, 172181.88, -10646.19)" xlink:href="#linear-gradient"/><linearGradient id="linear-gradient-4" x1="-3765.02" y1="-237.99" x2="-3764.06" y2="-237.99" gradientTransform="matrix(38.18, 0, 0, -38.18, 143810.27, -8978.71)" xlink:href="#linear-gradient"/><linearGradient id="linear-gradient-5" x1="-3817.97" y1="-231.11" x2="-3817.02" y2="-231.11" gradientTransform="matrix(80.72, 0, 0, -80.72, 308236, -18541.76)" xlink:href="#linear-gradient"/></defs><title>green</title><path class="cls-1" d="M70.13,168l-.83-.47a5.35,5.35,0,0,0-2-7.29,65.5,65.5,0,0,1-30.86-39.91,66.4,66.4,0,0,1-2.34-17.4A66,66,0,0,1,67.26,45.86l2.22-1.27L65.28,56.7a5.36,5.36,0,0,0,3.3,6.8,5.7,5.7,0,0,0,1.75.3,5.35,5.35,0,0,0,5-3.6l8.07-23.29.91.31-.91-.3v0h0c.05-.15.1-.31.14-.47h0l0-.11h0l.06-.33h0l0-.21h0a2.13,2.13,0,0,0,0-.27h0v-.22h0V35h0v-.23h0a2.7,2.7,0,0,0,0-.41l0-.18.94-.16-.94.18a3.09,3.09,0,0,0-.07-.35l.93-.23-.93.25,0-.18.92-.26-.91.27c0-.11-.07-.21-.1-.3h0l-.06-.15h0c0-.09-.08-.19-.13-.29l.87-.4-.86.41-.07-.15h0L83,32.43h0l0-.07.82-.5-.82.51A2.94,2.94,0,0,0,82.7,32h0l-.12-.16.77-.57-.75.61a2.54,2.54,0,0,0-.2-.24h0l-.15-.16.7-.65-.68.67-.2-.19h0c0-.06-.1-.1-.15-.15h0l-.25-.2h0l-.15-.12h0l-.35-.23h0L81,30.51h0l-.29-.16h0l-.16-.07h0a2.52,2.52,0,0,0-.33-.13h0l-.06,0h-.06l.19-.47-.14.49,0,0,.19-.47-.14.49h-.07L56.53,22.41a5.35,5.35,0,0,0-6.73,3.42,5.32,5.32,0,0,0,3.42,6.74l10,3.26-1.84,1.08A76.61,76.61,0,0,0,62,169.52a5.34,5.34,0,0,0,7.3-2l.83.47.83.48a7.26,7.26,0,0,1-9.91,2.7,78.54,78.54,0,0,1-.64-135.94l.49.83-.3.91-8-2.6a7.25,7.25,0,0,1-5-6.9A7.38,7.38,0,0,1,48,25.24a7.29,7.29,0,0,1,6.91-5,7.39,7.39,0,0,1,2.25.36l23.52,7.66-.29.91.24-.92.11,0-.29.91.26-.93.14,0-.35.89.29-.91.16.06-.34.9.33-.9a4.22,4.22,0,0,1,.45.18h0l.21.1h0l.4.21h0l.21.12h0a5.72,5.72,0,0,1,.48.32h0l.19.15h0c.1.08.22.17.34.28h0l.2.19-.66.69.65-.7.26.25h0l.18.2h0l.24.29h0v0l.14.17h0c.11.15.23.32.34.5h0l0,.08h0a5.42,5.42,0,0,1,.26.48h0c0,.09.07.15.09.18h0c.06.12.12.26.18.4l-.9.35.89-.35.09.22h0c.05.14.09.28.13.4h0c0,.06,0,.13.05.21h0c0,.15.07.3.1.45h0a2.19,2.19,0,0,0,0,.22,5.14,5.14,0,0,1,.06.55h0c0,.14,0,.24,0,.32h0s0,.1,0,.24v.09h0c0,.12,0,.23,0,.32h0q0,.16,0,.36h0c0,.08,0,.18,0,.27h0c0,.17,0,.33-.08.47l-.94-.2.94.19,0,.19h0c0,.22-.12.44-.19.66h0v0h0L77.2,60.83a7.27,7.27,0,0,1-13.73-4.76l3.36-9.7.91.32.47.83a64,64,0,0,0,.05,111.06,7.26,7.26,0,0,1,2.7,9.91Z"/><path class="cls-2" d="M129.87,32l.83.47a5.36,5.36,0,0,0,2,7.3,65.45,65.45,0,0,1,30.86,39.9,66.4,66.4,0,0,1,2.34,17.4,66,66,0,0,1-33.15,57.08l-2.22,1.27,4.2-12.11a5.34,5.34,0,0,0-10.1-3.5l-8.07,23.29-.91-.31.91.3v0h0c-.05.15-.1.31-.14.47h0l0,.11h0l-.06.33h0l0,.21h0a2.13,2.13,0,0,0,0,.27h0v.22h0V165h0v.23h0a2.7,2.7,0,0,0,0,.41h0l0,.18-.94.16.94-.18a2.24,2.24,0,0,0,.07.34h0l0,.17-.92.26.91-.27.1.3h0l.06.15h0c0,.09.08.19.13.29l-.87.4.86-.41.07.15h0l.19.35h0l0,.07-.82.5.82-.51a4.4,4.4,0,0,0,.26.39h0l.12.16-.77.57.75-.61.19.24h0l.15.16-.7.65.68-.67a1.75,1.75,0,0,0,.2.19h0l.15.14h0l.25.2h0l.14.11h0l.35.23h0l.14.08h0l.29.15h0l.16.07-.4.88.39-.88a3.24,3.24,0,0,0,.33.13h0l0,0h.08l23.56,7.67a5.34,5.34,0,1,0,3.31-10.16l-10-3.26,1.84-1.08A76.61,76.61,0,0,0,138,30.48a5.34,5.34,0,0,0-7.3,2l-.83-.47-.83-.48a7.26,7.26,0,0,1,9.91-2.7,78.54,78.54,0,0,1,.64,135.94l-.49-.83.3-.91,8,2.6a7.25,7.25,0,0,1,5,6.9,7.38,7.38,0,0,1-.35,2.25,7.29,7.29,0,0,1-6.91,5,7.39,7.39,0,0,1-2.25-.36l-23.52-7.66.29-.91-.24.92-.11,0,.29-.92-.26.93-.09,0h0a.92.92,0,0,1-.18-.07l.36-.89-.32.9a3.66,3.66,0,0,1-.46-.18h0l-.21-.1h0l-.4-.21.47-.83-.45.84-.22-.12h0a5.72,5.72,0,0,1-.48-.32h0l-.2-.16h0c-.11-.08-.22-.18-.34-.28h0c-.09-.07-.15-.14-.21-.19h0a3.13,3.13,0,0,1-.26-.25h0l-.18-.2v0l-.24-.29h0v0l-.14-.17h0c-.12-.16-.23-.33-.34-.51h0l0-.08h0a5.42,5.42,0,0,1-.26-.48h0c0-.1-.07-.16-.09-.19h0c-.06-.12-.12-.26-.18-.4l.9-.35-.89.36-.09-.23h0c-.05-.14-.09-.28-.13-.4h0c0-.06,0-.13-.05-.21h0c0-.16-.07-.32-.1-.45h0a1.72,1.72,0,0,0,0-.21h0a5.14,5.14,0,0,1-.06-.55h0c0-.14,0-.24,0-.31h0s0-.1,0-.24v-.09h0c0-.12,0-.22,0-.32h0q0-.16,0-.36h0c0-.08,0-.18,0-.27h0c0-.17,0-.33.08-.47l.94.2-.94-.19a1.57,1.57,0,0,0,0-.2l.93.24-.93-.22c0-.22.12-.44.19-.65h0v0h0l8.07-23.3a7.27,7.27,0,0,1,13.73,4.76l-3.36,9.7-.91-.32-.47-.83a64,64,0,0,0,0-111.06,7.26,7.26,0,0,1-2.7-9.91Z"/><path class="cls-3" d="M101.37,107.43l-1,.06s0-.22,0-.56c-.1-4.16,1.81-31.25,41.49-35.85L143,71,143,72.07s-1.71,36.36-38,36.44q-1.77,0-3.66-.12l-.85-.06,0-.84,1-.06.06-1q1.83.12,3.54.12c34.52.07,36-34.57,36.08-34.61l1,0,.11,1c-38.63,4.61-39.7,30.15-39.8,34,0,.3,0,.45,0,.45l-1,.05.06-1Z"/><path class="cls-4" d="M101.35,122.14l-1,0s0-.11,0-.36c-.1-3.11-.91-24.1-32.78-27.92l.11-1,1,0S70,121.35,98.37,121.28c.94,0,1.91,0,2.92-.09l.06,1-1,0,1,0,.06,1c-1,.07-2.06.1-3,.1-30.16-.07-31.56-30.28-31.59-30.3l0-1.13,1.12.14c32.92,3.8,34.57,26.34,34.47,29.82,0,.29,0,.45,0,.47l0,.84-.85.06Z"/><path class="cls-5" d="M101.37,153.11l-1,0-1-30.83,1,0,.13,1a26.37,26.37,0,0,1-3.35.19c-7.93.1-28.12-3-30.22-30.57l-.09-1.06,1.07,0c.09,0,21.69.66,31.17,17.76l-.84.47-.58-.77,3.13-2.35.57.77-1,.1s-.06-.57-.06-1.51c-.11-6.22,2.88-30.18,41.66-35.34l1.13-.16-.05,1.15s-1.74,37-40,37.05h-1v-1l.56.78-3.53,2.54-.56-.78.7-.65c.16.16,3.14,3.53,3.13,12.36,0,8.54,1.65,30.73,1.65,30.76l.08,1h-3.62l0-.93,1,0v-1H103v1l-1,.07s-1.65-22.2-1.66-30.9c0-8.4-2.7-11-2.61-11.06l-.74-.79,4.67-3.37h1.33c36.61,0,38.07-35.19,38.13-35.23l.95.05.13.95c-37.87,5.21-39.89,27.69-40,33.44,0,.86.06,1.3,0,1.3l.06.54-4.44,3.35-.53-1c-8.7-16-29.52-16.72-29.55-16.77l0-1,1-.08c2.12,26.36,20.67,28.7,28.31,28.8a23.3,23.3,0,0,0,3.08-.17l1.06-.15,1,31.9-1,0v0Z"/></svg>