<svg id="Layer_1" data-name="Layer 1" xmlns="http://www.w3.org/2000/svg" xmlns:xlink="http://www.w3.org/1999/xlink" viewBox="0 0 200 200"><defs><style>.cls-1{fill:url(#linear-gradient);}.cls-2{fill:url(#linear-gradient-2);}.cls-3{fill:url(#linear-gradient-3);}.cls-4{fill:url(#linear-gradient-4);}.cls-5{fill:url(#linear-gradient-5);}.cls-6{fill:url(#linear-gradient-6);}</style><linearGradient id="linear-gradient" x1="-2077.11" y1="-231.7" x2="-2076.25" y2="-231.7" gradientTransform="matrix(73.2, 0, 0, -73.2, 152082.9, -16807.53)" gradientUnits="userSpaceOnUse"><stop offset="0" stop-color="#c36"/><stop offset="0.21" stop-color="#f36"/><stop offset="1" stop-color="#f63"/></linearGradient><linearGradient id="linear-gradient-2" x1="-1878.95" y1="-280.34" x2="-1878.09" y2="-280.34" gradientTransform="matrix(9.13, 0, 0, -9.13, 17260.06, -2474.72)" xlink:href="#linear-gradient"/><linearGradient id="linear-gradient-3" x1="-2001.74" y1="-250.2" x2="-2000.88" y2="-250.2" gradientTransform="matrix(19.87, 0, 0, -19.87, 39918.3, -4862.81)" xlink:href="#linear-gradient"/><linearGradient id="linear-gradient-4" x1="-2018.44" y1="-246.14" x2="-2017.58" y2="-246.14" gradientTransform="matrix(23.73, 0, 0, -23.73, 48012.82, -5737.32)" xlink:href="#linear-gradient"/><linearGradient id="linear-gradient-5" x1="-2075.27" y1="-232.2" x2="-2074.41" y2="-232.2" gradientTransform="matrix(68.48, 0, 0, -68.48, 142216.33, -15761.41)" xlink:href="#linear-gradient"/><linearGradient id="linear-gradient-6" x1="-2091.73" y1="-228.28" x2="-2090.87" y2="-228.28" gradientTransform="matrix(150.99, 0, 0, -150.99, 315862.6, -34370.95)" xlink:href="#linear-gradient"/></defs><title>masculine</title><path class="cls-1" d="M77,124.21s-8.68,24-20.34,30.24l-.2-.38.43.08s-2.66,15.6-8.22,25.77l-.37-.21v-.43h57.88l2.53-4,.72.47-2.78,4.37H47.55l.35-.63C53.35,169.54,56,154,56,154l0-.21.19-.1c11.14-5.88,19.9-29.77,19.93-29.77l.81.29Z"/><path class="cls-2" d="M108.84,69.89a31.64,31.64,0,0,1,4.58,15.45A20.17,20.17,0,0,1,108,99.28l-.22.24-1.64-.78.37-.78,1.36.65-.19.38-.32-.29a19.25,19.25,0,0,0,5.16-13.36c0-8.13-4.46-15-4.44-15l.72-.47Z"/><path class="cls-3" d="M148.2,64.1s5.89,18,6.29,22.32c0,.14,0,.28,0,.43,0,4.52-5.82,10.86-5.82,10.91l-.33-.29.43.09a4.08,4.08,0,0,0-.1.93c-.07,7.06,14.34,19.16,14.92,22.48a3.87,3.87,0,0,1,0,.48c-.06,3.24-3.88,5.68-7.63,6.08-2,.18-2.42,2.15-2.44,3.83a11.49,11.49,0,0,0,.15,1.74l-.42.08.35-.25c0,.07,3.11,4.29,3.18,6.06a.89.89,0,0,1-.12.49,18.58,18.58,0,0,1-3.51,4.28l-.28-.32.4-.18a13.5,13.5,0,0,1,1.38,5.38c0,2.65-1.49,3.51-1.58,3.54l0,0-1.65.42H149.9v-.86h1.42l1.5-.38.1.41-.19-.38s1.1-.46,1.11-2.77a12.63,12.63,0,0,0-1.31-5l-.13-.29.25-.21A17.85,17.85,0,0,0,156,139v0c.07-1-3-5.55-3-5.56l0-.08,0-.08a11.14,11.14,0,0,1-.17-1.91c0-1.72.48-4.39,3.21-4.68,3.49-.33,6.92-2.76,6.86-5.23a2.31,2.31,0,0,0,0-.37c-.15-2.48-14.85-14.87-14.92-22.59a5.78,5.78,0,0,1,.11-1.1l0-.12.07-.08s5.66-6.47,5.61-10.34c0-.12,0-.24,0-.35-.35-4-6.24-22.11-6.24-22.13l.81-.27Z"/><path class="cls-4" d="M141.16,100.68l-.31.3c-.14-.32-4.31-.78-8.18-.72s-8,.4-8.19.72a2.5,2.5,0,0,0,0,3.51c.14.32,4.51.81,8.49.75,3.75.05,7.69-.39,7.88-.75a2.47,2.47,0,0,0,0-3.51l.31-.3.3-.31a3.34,3.34,0,0,1,0,4.73c-1,.84-4.58,1-8.49,1-4.16,0-8.1-.19-9.1-1a3.37,3.37,0,0,1,0-4.73c1-.81,4.75-.92,8.8-1s7.8.16,8.79,1Z"/><path class="cls-5" d="M107.91,99.13c-5.24,7.16-10.71,14.66-10.7,22.63,0,5,2.11,10.24,7.86,15.86,6,5.81,10.67,7.56,14.2,7.56a10.63,10.63,0,0,0,8.68-4.81h0A30,30,0,0,1,153,127.24h1.26L153,133.67l-.2.09s-11.06,5.34-10.92,10.7c0,2.35,2,5,8.61,7.5l.23.08,0,.24a40.76,40.76,0,0,1,.7,7.73c0,8.49-2.69,21.3-18.22,21.32-6.07,0-14.06-2-24.59-6.81l.36-.78c10.46,4.83,18.35,6.73,24.23,6.73,14.88,0,17.31-12,17.36-20.46a41,41,0,0,0-.68-7.56l.42-.09-.15.41c-6.66-2.5-9.16-5.37-9.17-8.31.13-6.36,11.41-11.41,11.42-11.48l.18.39-.42-.08,1.14-5.7.42.08v.43H153a29.24,29.24,0,0,0-24.35,12.71h0a11.42,11.42,0,0,1-9.42,5.23c-3.83,0-8.75-1.9-14.8-7.8-5.87-5.73-8.13-11.23-8.12-16.48,0-8.38,5.64-16,10.87-23.13l.69.5Z"/><path class="cls-6" d="M108.66,174.52c-2.26-1.05-4.63-2.22-7.13-3.54l0,0,0,0s-19.75-15.12-19.78-37a39.67,39.67,0,0,1,6-20.53l.37.22h-.43v-.1c0-1.82-.45-24.89-11.95-24.91a10.51,10.51,0,0,0-2.46.3,13.34,13.34,0,0,0-9.91,11.19,26.21,26.21,0,0,0-.28,3.75c0,6.46,2.54,14,13.4,18.11l.34.13-.06.35c-.06,0-4.84,28.23-20.84,32.25l-.49.12,0-.51S53,123.56,42.87,107.77l.37-.23-.36.24A53,53,0,0,1,35.5,80.47c0-10.22,2.93-22.51,12.43-35.36.28-.38.54-.78.81-1.18,1.07-1.55,6.37-6.32,35.47-6.34,8.06,0,18,.37,30.09,1.29v0h0v0c1.71.18,20.79-20,23.32-20.21h.15l26.67,20.65,0,.19s0,.44,0,1.2c.06,5.8-2.59,31-44.14,31.93h0l-11.82-.34v-.43l.35-.26a25.8,25.8,0,0,1,4.38,13.76,19.69,19.69,0,0,1-3.88,11.74c-.48.66-1,1.34-1.47,2l-.69-.5,1.47-2a18.83,18.83,0,0,0,3.71-11.23,25.07,25.07,0,0,0-4.22-13.25l-.52-.71,12.7.36v0c41.13-1,43.24-25.48,43.3-31.07,0-.73,0-1.12,0-1.12l.43,0-.26.34L137.35,19.44l.27-.34v.43c-1.58-.19-20.68,20-23.32,20.21h-.06c-12.12-.92-22-1.29-30-1.29-29,0-34.09,4.89-34.75,5.95-.27.4-.54.82-.84,1.22C39.23,58.33,36.36,70.41,36.36,80.47a52.7,52.7,0,0,0,7.23,26.83h0c10.34,16.12,12.59,46.89,12.6,46.92l-.43,0-.1-.42c15.15-3.58,20.16-31.56,20.19-31.56l.42.08-.15.4c-11.19-4.18-14-12.24-14-18.92a26.34,26.34,0,0,1,.29-3.87A14.16,14.16,0,0,1,73,88.07a11.12,11.12,0,0,1,2.66-.33c12.79.23,12.73,24,12.81,25.77v.23l-.06.1a38.81,38.81,0,0,0-5.88,20.09c0,21.34,19.47,36.29,19.44,36.33l-.26.34.2-.38q3.73,2,7.09,3.52l-.36.78Z"/></svg>