<svg id="Layer_1" data-name="Layer 1" xmlns="http://www.w3.org/2000/svg" xmlns:xlink="http://www.w3.org/1999/xlink" viewBox="0 0 200 200"><defs><style>.cls-1{fill:url(#linear-gradient);}.cls-2{fill:url(#linear-gradient-2);}.cls-3{fill:url(#linear-gradient-3);}.cls-4{fill:url(#linear-gradient-4);}</style><linearGradient id="linear-gradient" x1="-3522.9" y1="-242.46" x2="-3522.13" y2="-242.46" gradientTransform="matrix(29.66, 0, 0, -29.66, 104502.52, -7161.38)" gradientUnits="userSpaceOnUse"><stop offset="0" stop-color="#c36"/><stop offset="0.21" stop-color="#f36"/><stop offset="1" stop-color="#f63"/></linearGradient><linearGradient id="linear-gradient-2" x1="-3524.34" y1="-242.45" x2="-3523.57" y2="-242.45" gradientTransform="matrix(29.66, 0, 0, -29.66, 104686.11, -7160.14)" xlink:href="#linear-gradient"/><linearGradient id="linear-gradient-3" x1="-3522.9" y1="-241.05" x2="-3522.13" y2="-241.05" gradientTransform="matrix(29.66, 0, 0, -29.66, 104502.52, -6979.96)" xlink:href="#linear-gradient"/><linearGradient id="linear-gradient-4" x1="-3524.35" y1="-241.04" x2="-3523.59" y2="-241.04" gradientTransform="matrix(29.66, 0, 0, -29.66, 104688.58, -6978.73)" xlink:href="#linear-gradient"/></defs><title>minimal</title><path class="cls-1" d="M23.4,39.75v.77a5.91,5.91,0,0,1-5.9-5.91V25a5.9,5.9,0,0,1,5.9-5.9H33.62a5.9,5.9,0,1,1,0,11.8H29.3v3.68a5.91,5.91,0,0,1-5.9,5.91V39a4.39,4.39,0,0,0,4.37-4.37V29.4h5.85a4.37,4.37,0,1,0,0-8.73H23.4A4.36,4.36,0,0,0,19,25v9.58A4.37,4.37,0,0,0,23.4,39Z"/><path class="cls-2" d="M174.7,40.7v.77a5.91,5.91,0,0,1-5.9-5.91V31.88h-4.32a5.9,5.9,0,1,1,0-11.8H174.7a5.9,5.9,0,0,1,5.9,5.9v9.58a5.91,5.91,0,0,1-5.9,5.91V39.93a4.37,4.37,0,0,0,4.36-4.37V26a4.36,4.36,0,0,0-4.36-4.36H164.48a4.37,4.37,0,0,0,0,8.73h5.85v5.21a4.39,4.39,0,0,0,4.37,4.37Z"/><path class="cls-3" d="M33.62,179.15v.77H23.4a5.9,5.9,0,0,1-5.9-5.9v-9.58a5.9,5.9,0,0,1,11.8,0v3.68h4.32a5.9,5.9,0,1,1,0,11.8v-1.54a4.37,4.37,0,1,0,0-8.73H27.77v-5.21a4.37,4.37,0,1,0-8.73,0V174a4.36,4.36,0,0,0,4.36,4.36H33.62Z"/><path class="cls-4" d="M176.6,180.1v.77H166.38a5.9,5.9,0,0,1,0-11.8h4.32v-3.68a5.9,5.9,0,1,1,11.8,0V175a5.9,5.9,0,0,1-5.9,5.9v-1.54A4.36,4.36,0,0,0,181,175v-9.58a4.37,4.37,0,1,0-8.73,0v5.21h-5.85a4.37,4.37,0,1,0,0,8.73H176.6Z"/></svg>