<svg id="Layer_1" data-name="Layer 1" xmlns="http://www.w3.org/2000/svg" xmlns:xlink="http://www.w3.org/1999/xlink" viewBox="0 0 200 200"><defs><style>.cls-1{fill:none;}.cls-2{clip-path:url(#clip-path);}.cls-3{fill:url(#linear-gradient);}.cls-4{clip-path:url(#clip-path-2);}.cls-5{fill:url(#linear-gradient-2);}.cls-6{clip-path:url(#clip-path-3);}.cls-7{fill:url(#linear-gradient-3);}.cls-8{clip-path:url(#clip-path-4);}.cls-9{fill:url(#linear-gradient-4);}</style><clipPath id="clip-path"><path class="cls-1" d="M111.43,132.92l29.06-29.06,22.87,27.45v14.22H124Zm-84.3-11.57,32.8-32.8,57,57H27.13Zm0-56.55H163.36v58.63L142.6,98.51a2.53,2.53,0,0,0-3.56-.33l-.17.16-31,31L61.71,83.2a2.53,2.53,0,0,0-3.57,0l-31,31ZM37.22,54.71H173.45v80.73h-5V62.28a2.52,2.52,0,0,0-2.52-2.52H37.22Zm-2.52-5a2.52,2.52,0,0,0-2.53,2.52v7.57H24.6a2.52,2.52,0,0,0-2.52,2.52v85.78a2.52,2.52,0,0,0,2.52,2.52H165.89a2.52,2.52,0,0,0,2.52-2.52v-7.57H176A2.52,2.52,0,0,0,178.5,138V52.19A2.52,2.52,0,0,0,176,49.67Z"/></clipPath><linearGradient id="linear-gradient" x1="-1338.57" y1="-26.72" x2="-1337.62" y2="-26.72" gradientTransform="matrix(165.33, 0, 0, -165.33, 221332.49, -4317.9)" gradientUnits="userSpaceOnUse"><stop offset="0" stop-color="#c36"/><stop offset="0.21" stop-color="#f36"/><stop offset="1" stop-color="#f63"/></linearGradient><clipPath id="clip-path-2"><path class="cls-1" d="M105.34,87.51A10.09,10.09,0,1,1,115.43,97.6a10.09,10.09,0,0,1-10.09-10.09m-5,0a15.14,15.14,0,1,0,15.14-15.14,15.15,15.15,0,0,0-15.14,15.14"/></clipPath><linearGradient id="linear-gradient-2" x1="-1305.67" y1="-34.17" x2="-1304.73" y2="-34.17" gradientTransform="matrix(32, 0, 0, -32, 41881.83, -1005.9)" xlink:href="#linear-gradient"/><clipPath id="clip-path-3"><path class="cls-1" d="M34.7,135.44a2.53,2.53,0,1,0,0,5.05H49.83a2.53,2.53,0,1,0,0-5.05Z"/></clipPath><linearGradient id="linear-gradient-3" x1="-1285.08" y1="-38.65" x2="-1284.13" y2="-38.65" gradientTransform="matrix(21.33, 0, 0, -21.33, 27447.17, -686.54)" xlink:href="#linear-gradient"/><clipPath id="clip-path-4"><path class="cls-1" d="M57.4,135.44a2.53,2.53,0,0,0,0,5.05h2.53a2.53,2.53,0,0,0,0-5.05Z"/></clipPath><linearGradient id="linear-gradient-4" x1="-1182.87" y1="-61.5" x2="-1181.92" y2="-61.5" gradientTransform="matrix(8, 0, 0, -8, 9517.83, -354.01)" xlink:href="#linear-gradient"/></defs><title>photo</title><g class="cls-2"><rect class="cls-3" x="22.08" y="49.67" width="156.42" height="100.92"/></g><g class="cls-4"><rect class="cls-5" x="100.29" y="72.37" width="30.27" height="30.27"/></g><g class="cls-6"><rect class="cls-7" x="32.17" y="135.44" width="20.18" height="5.05"/></g><g class="cls-8"><rect class="cls-9" x="54.88" y="135.44" width="7.57" height="5.05"/></g></svg>