<svg id="Layer_1" data-name="Layer 1" xmlns="http://www.w3.org/2000/svg" xmlns:xlink="http://www.w3.org/1999/xlink" viewBox="0 0 200 200"><defs><style>.cls-1{fill:none;}.cls-2{clip-path:url(#clip-path);}.cls-3{fill:url(#linear-gradient);}.cls-4{clip-path:url(#clip-path-2);}.cls-5{fill:url(#linear-gradient-2);}.cls-6{clip-path:url(#clip-path-3);}.cls-7{fill:url(#linear-gradient-3);}.cls-8{clip-path:url(#clip-path-4);}.cls-9{fill:url(#linear-gradient-4);}.cls-10{clip-path:url(#clip-path-5);}.cls-11{fill:url(#linear-gradient-5);}</style><clipPath id="clip-path"><path class="cls-1" d="M87.4,124.31h25l7.91,19.2H79.48ZM29.62,136.2v-73a7.3,7.3,0,0,1,7.28-7.31H163.1a7.3,7.3,0,0,1,7.28,7.31v73a7.3,7.3,0,0,1-7.28,7.31H125.83l-9.4-22.81a2.45,2.45,0,0,0-2.25-1.51H85.61a2.44,2.44,0,0,0-2.25,1.51L74,143.51H36.9a7.3,7.3,0,0,1-7.28-7.31m7.06-84.83A12.18,12.18,0,0,0,24.5,63.53v72.94a12.18,12.18,0,0,0,12.18,12.16H163.32a12.19,12.19,0,0,0,12.18-12.16V63.53a12.19,12.19,0,0,0-12.18-12.16Z"/></clipPath><linearGradient id="linear-gradient" x1="-3184.57" y1="-228.21" x2="-3183.57" y2="-228.21" gradientTransform="matrix(151.6, 0, 0, -151.6, 482813.78, -34496.98)" gradientUnits="userSpaceOnUse"><stop offset="0" stop-color="#c36"/><stop offset="0.21" stop-color="#f36"/><stop offset="1" stop-color="#f63"/></linearGradient><clipPath id="clip-path-2"><path class="cls-1" d="M79.42,90.4h41a14.35,14.35,0,0,0,0,19.2H79.42a14.38,14.38,0,0,0,0-19.2M58.55,99.77a9.73,9.73,0,1,1,9.73,9.73,9.72,9.72,0,0,1-9.73-9.73m63.23,0a9.73,9.73,0,1,1,9.73,9.73,9.73,9.73,0,0,1-9.73-9.73M68.19,85.28A14.72,14.72,0,1,0,68,114.72h63.58a14.72,14.72,0,1,0,.19-29.44Z"/></clipPath><linearGradient id="linear-gradient-2" x1="-3171.59" y1="-230.24" x2="-3170.6" y2="-230.24" gradientTransform="matrix(93.57, 0, 0, -93.57, 296831.69, -21444)" xlink:href="#linear-gradient"/><clipPath id="clip-path-3"><path class="cls-1" d="M39.22,66.09H160.78v9.6H39.22ZM36.53,61A2.43,2.43,0,0,0,34.1,63.4V77.73a2.43,2.43,0,0,0,2.43,2.44h126.3a2.43,2.43,0,0,0,2.43-2.44V63.4A2.43,2.43,0,0,0,162.83,61Z"/></clipPath><linearGradient id="linear-gradient-3" x1="-3181.41" y1="-228.7" x2="-3180.41" y2="-228.7" gradientTransform="matrix(131.69, 0, 0, -131.69, 418989.38, -30047.09)" xlink:href="#linear-gradient"/><clipPath id="clip-path-4"><path class="cls-1" d="M36.27,133.91A2.49,2.49,0,0,0,34,135.37,2.58,2.58,0,0,0,36.28,139H51.64A2.49,2.49,0,0,0,54,137.57a2.58,2.58,0,0,0-2.33-3.66Z"/></clipPath><linearGradient id="linear-gradient-4" x1="-3051.15" y1="-249.04" x2="-3050.15" y2="-249.04" gradientTransform="matrix(20.56, 0, 0, -20.56, 62753.9, -4982.79)" xlink:href="#linear-gradient"/><clipPath id="clip-path-5"><path class="cls-1" d="M58.48,133.91a2.49,2.49,0,0,0-2.32,1.46A2.57,2.57,0,0,0,58.48,139h2.57a2.49,2.49,0,0,0,2.32-1.46A2.58,2.58,0,0,0,61,133.91Z"/></clipPath><linearGradient id="linear-gradient-5" x1="-2793.9" y1="-289.2" x2="-2792.9" y2="-289.2" gradientTransform="matrix(7.71, 0, 0, -7.71, 21592.95, -2092.83)" xlink:href="#linear-gradient"/></defs><title>retro</title><g class="cls-2"><rect class="cls-3" x="24.5" y="51.37" width="151" height="97.25"/></g><g class="cls-4"><rect class="cls-5" x="51.72" y="85.28" width="96.35" height="29.43"/></g><g class="cls-6"><rect class="cls-7" x="34.1" y="60.97" width="131.17" height="19.2"/></g><g class="cls-8"><rect class="cls-9" x="33.16" y="133.91" width="21.59" height="5.12"/></g><g class="cls-10"><rect class="cls-11" x="55.37" y="133.91" width="8.79" height="5.12"/></g></svg>