<svg id="Layer_1" data-name="Layer 1" xmlns="http://www.w3.org/2000/svg" xmlns:xlink="http://www.w3.org/1999/xlink" viewBox="0 0 200 200"><defs><style>.cls-1{fill:url(#linear-gradient);}.cls-2{fill:url(#linear-gradient-2);}.cls-3{fill:url(#linear-gradient-3);}.cls-4{fill:url(#linear-gradient-4);}.cls-5{fill:url(#linear-gradient-5);}</style><linearGradient id="linear-gradient" x1="-1638.83" y1="-233.01" x2="-1637.98" y2="-233.01" gradientTransform="matrix(61.23, 0, 0, -61.23, 100400.21, -14151.6)" gradientUnits="userSpaceOnUse"><stop offset="0" stop-color="#c36"/><stop offset="0.21" stop-color="#f36"/><stop offset="1" stop-color="#f63"/></linearGradient><linearGradient id="linear-gradient-2" x1="-1656.15" y1="-227.77" x2="-1655.31" y2="-227.77" gradientTransform="matrix(175.4, 0, 0, -175.4, 290520.29, -39852.36)" xlink:href="#linear-gradient"/><linearGradient id="linear-gradient-3" x1="-1530.85" y1="-266.71" x2="-1530" y2="-266.71" gradientTransform="matrix(12.05, 0, 0, -12.05, 18564.06, -3147.38)" xlink:href="#linear-gradient"/><linearGradient id="linear-gradient-4" x1="-1531" y1="-266.55" x2="-1530.16" y2="-266.55" gradientTransform="matrix(12.05, 0, 0, -12.05, 18573.9, -3134.06)" xlink:href="#linear-gradient"/><linearGradient id="linear-gradient-5" x1="-1530.83" y1="-266.53" x2="-1529.99" y2="-266.53" gradientTransform="matrix(12.05, 0, 0, -12.05, 18562.36, -3133.2)" xlink:href="#linear-gradient"/></defs><title>sweet</title><path class="cls-1" d="M93.58,90.6v.84c-7.07,0-15,3.63-21.15,9.76-6.46,6.45-9.82,14.27-9.81,21.11a15.71,15.71,0,0,0,16.45,16.44c7.06,0,15-3.63,21.15-9.76,6.45-6.45,9.82-14.28,9.81-21.11A15.71,15.71,0,0,0,93.58,91.44V89.75a17.4,17.4,0,0,1,18.14,18.13c0,7.38-3.59,15.57-10.31,22.3-6.41,6.4-14.71,10.25-22.34,10.26a17.41,17.41,0,0,1-18.14-18.13c0-7.39,3.58-15.58,10.31-22.3,6.4-6.4,14.7-10.25,22.34-10.26Z"/><path class="cls-2" d="M155.36,52.91v.84a16.66,16.66,0,0,0-3.8.44l-.52.13-.33-.42a41.71,41.71,0,0,0-2.81-3.14h0a37.63,37.63,0,0,0-3.2-2.85l-.42-.34.13-.52a16.63,16.63,0,0,0,.45-3.83,16.5,16.5,0,0,0-32.92-1.54l0,.5-.46.19a26.15,26.15,0,0,0-8.12,5.52,27.26,27.26,0,0,0-7.77,17.59l-.08,1.1-1-.36C89.24,64.44,80.48,62,71.54,62c-7.41,0-13.62,1.67-18.49,4.92s-7.34,6.77-7.33,10.14A7.71,7.71,0,0,0,46,79c1.3,5.49,8.75,9,15,10.68l1.36.37-1,1c-8.77,9.25-27.53,30-31.53,40.67a24.74,24.74,0,0,0-1.64,8.67,16.23,16.23,0,0,0,2.58,9.24,11,11,0,0,0,9.42,4.72,19.54,19.54,0,0,0,7.41-1.62l1.86-.76-.76,1.86A20,20,0,0,0,47,161.36a12,12,0,0,0,1,4.93c2,4.3,6.73,7,13,7a25,25,0,0,0,8.67-1.62h0c10.7-4,31.4-22.73,40.66-31.52l1-1,.37,1.35c2,7.3,6.29,15.3,12.56,15.18,3.43,0,6.88-2.31,10.22-7.31,3.65-5.47,4.92-12.05,4.92-18.54,0-10.91-3.61-21.49-5.26-25.72l-.39-1,1.07-.13a27,27,0,0,0,15.94-7.62,26,26,0,0,0,5.55-8.19l.2-.46.5,0a16.49,16.49,0,0,0-1.66-32.9V52.07a18.17,18.17,0,0,1,1.82,36.26l-.08-.84.77.34a27.84,27.84,0,0,1-5.9,8.71,28.71,28.71,0,0,1-16.93,8.1l-.1-.83.78-.31c1.68,4.34,5.37,15.06,5.38,26.33,0,6.7-1.31,13.63-5.21,19.47-3.47,5.21-7.36,8.06-11.62,8.07-7.84-.12-12.11-9-14.19-16.42l.82-.22.58.61c-9.38,8.83-29.86,27.55-41.22,31.86h0A26.46,26.46,0,0,1,61,174.94C54.3,175,48.8,172,46.49,167a13.46,13.46,0,0,1-1.17-5.63,21.36,21.36,0,0,1,1.78-8.12l.78.31.32.78a21.16,21.16,0,0,1-8.05,1.74,12.61,12.61,0,0,1-10.8-5.44,17.88,17.88,0,0,1-2.88-10.2,26.42,26.42,0,0,1,1.75-9.27C32.54,119.8,51.27,99.29,60.1,89.93l.61.58-.22.81c-6.35-1.77-14.39-5.2-16.16-11.9A9.51,9.51,0,0,1,44,77.07c0-4.21,2.85-8.07,8.08-11.54s11.76-5.21,19.42-5.21c9.25,0,18.14,2.49,23.44,4.31l-.27.8-.85-.06a29,29,0,0,1,8.26-18.67,27.78,27.78,0,0,1,8.65-5.87l.33.77-.84-.08a18.18,18.18,0,1,1,35.79,5.92l-.82-.19.52-.66a37.79,37.79,0,0,1,3.34,3h0A41.46,41.46,0,0,1,152,52.85l-.66.52-.19-.82a18.23,18.23,0,0,1,4.18-.48Z"/><path class="cls-3" d="M118.53,69.42l.6-.6a2.7,2.7,0,0,0,2,.88,3.39,3.39,0,0,0,3.12-3.13,2.69,2.69,0,0,0-.87-1.94,2.74,2.74,0,0,0-2-.88,3.38,3.38,0,0,0-3.12,3.13,2.65,2.65,0,0,0,.87,1.94l-.6.6-.59.59a4.35,4.35,0,0,1-1.37-3.13,5,5,0,0,1,4.81-4.82,4.69,4.69,0,0,1,4.51,4.51,5,5,0,0,1-4.81,4.81A4.37,4.37,0,0,1,117.94,70Z"/><path class="cls-4" d="M130.21,80.19l.59-.6a2.72,2.72,0,0,0,1.95.88,3.38,3.38,0,0,0,3.12-3.13,3,3,0,0,0-2.82-2.81,3.37,3.37,0,0,0-3.12,3.12,2.69,2.69,0,0,0,.87,1.94l-.59.6-.6.6a4.45,4.45,0,0,1-1.37-3.14,5,5,0,0,1,4.81-4.81,4.69,4.69,0,0,1,4.51,4.5,5,5,0,0,1-4.81,4.81,4.39,4.39,0,0,1-3.14-1.36Z"/><path class="cls-5" d="M118.09,81.24l.59-.6a2.72,2.72,0,0,0,1.95.88,3.39,3.39,0,0,0,3.12-3.13,2.69,2.69,0,0,0-.87-1.94,2.72,2.72,0,0,0-1.95-.88,3.37,3.37,0,0,0-3.12,3.12,2.69,2.69,0,0,0,.87,2l-.59.6-.6.59a4.43,4.43,0,0,1-1.37-3.14,5,5,0,0,1,4.81-4.81,4.69,4.69,0,0,1,4.51,4.51,5,5,0,0,1-4.81,4.81,4.37,4.37,0,0,1-3.14-1.37Z"/></svg>