<svg xmlns="http://www.w3.org/2000/svg" viewBox="0 0 1224.41 324.66"><defs><style>.cls-1{fill:#e9ecef;}</style></defs><title>sect_trans</title><g id="Layer_2" data-name="Layer 2"><g id="Layer_4" data-name="Layer 4"><rect class="cls-1" x="657.36" y="121.88" width="243.26" height="128.59" rx="2.13" transform="translate(473.06 926.37) rotate(-80.99)"/><rect class="cls-1" x="65.7" y="27.51" width="127.92" height="84.11" rx="1.31" transform="translate(40.63 186.72) rotate(-80.99)"/><rect class="cls-1" x="566.34" y="167.17" width="181.85" height="92.06" rx="1.56" transform="translate(343.72 828.93) rotate(-80.99)"/><rect class="cls-1" x="132.32" y="88.07" width="143.81" height="70.87" rx="1.23" transform="translate(50.25 305.86) rotate(-80.99)"/><rect class="cls-1" x="278.86" y="198.47" width="90.67" height="70.87" rx="0.98" transform="translate(42.38 517.46) rotate(-80.99)"/><rect class="cls-1" x="71.62" y="149.52" width="90.98" height="70.87" rx="0.99" transform="translate(-83.91 271.64) rotate(-80.99)"/><rect class="cls-1" x="-3.51" y="58.47" width="90.98" height="70.87" rx="0.99" transform="translate(-57.34 120.66) rotate(-80.99)"/><rect class="cls-1" x="929.35" y="125.3" width="243.26" height="128.59" rx="2.13" transform="matrix(0.16, -0.99, 0.99, 0.16, 699.07, 1197.89)"/><rect class="cls-1" x="793.86" y="125.3" width="243.26" height="128.59" rx="2.13" transform="translate(584.8 1064.06) rotate(-80.99)"/><rect class="cls-1" x="1022.72" y="140.01" width="281.19" height="79.65" rx="1.91" transform="translate(803.44 1300.61) rotate(-80.99)"/><rect class="cls-1" x="437.72" y="129.56" width="243.26" height="100.55" rx="1.9" transform="translate(294.09 704.1) rotate(-80.99)"/><rect class="cls-1" x="232.82" y="34.84" width="166.43" height="128.59" rx="1.78" transform="translate(168.61 395.73) rotate(-80.99)"/><rect class="cls-1" x="323.03" y="70.3" width="243.26" height="128.59" rx="2.13" transform="translate(242.06 552.67) rotate(-80.99)"/></g></g></svg>