<?xml version="1.0" encoding="utf-8"?>
<!-- Generator: Adobe Illustrator 24.0.3, SVG Export Plug-In . SVG Version: 6.00 Build 0)  -->
<svg version="1.1" id="Layer_1" xmlns="http://www.w3.org/2000/svg" xmlns:xlink="http://www.w3.org/1999/xlink" x="0px" y="0px"
	 viewBox="0 0 1224.4 324.7" style="enable-background:new 0 0 1224.4 324.7;" xml:space="preserve">
<style type="text/css">
	.st0{opacity:0.4;}
	.st1{fill:#FFFFFF;}
</style>
<title>sect_trans</title>
<g id="Layer_2_1_" class="st0">
	<g id="Layer_4">
		<path class="st1" d="M696.7,294.1l37.4-236.1c0.2-1.2,1.3-2,2.4-1.8l122.8,19.5c1.2,0.2,2,1.3,1.8,2.4l-37.4,236.1
			c-0.2,1.2-1.3,2-2.4,1.8l-122.8-19.5C697.3,296.4,696.5,295.3,696.7,294.1z"/>
		<path class="st1" d="M78.3,124.8L97.9,1.1C98,0.4,98.7-0.1,99.4,0l80.5,12.8c0.7,0.1,1.2,0.8,1.1,1.5L161.4,138
			c-0.1,0.7-0.8,1.2-1.5,1.1l-80.5-12.8C78.7,126.2,78.2,125.6,78.3,124.8z"/>
		<path class="st1" d="M597.8,294.2l28-176.5c0.1-0.9,0.9-1.4,1.8-1.3l87.8,13.9c0.9,0.1,1.4,0.9,1.3,1.8l-28,176.5
			c-0.1,0.9-0.9,1.4-1.8,1.3L599.1,296C598.2,295.9,597.6,295.1,597.8,294.2z"/>
		<path class="st1" d="M158.1,187.8l22.1-139.6c0.1-0.7,0.7-1.1,1.4-1l67.6,10.7c0.7,0.1,1.1,0.7,1,1.4l-22.1,139.6
			c-0.1,0.7-0.7,1.1-1.4,1l-67.6-10.7C158.5,189.1,158,188.4,158.1,187.8z"/>
		<path class="st1" d="M282.2,272.2l13.9-87.6c0.1-0.5,0.6-0.9,1.1-0.8l68.1,10.8c0.5,0.1,0.9,0.6,0.8,1.1l-13.9,87.6
			c-0.1,0.5-0.6,0.9-1.1,0.8L283,273.3C282.5,273.2,282.1,272.7,282.2,272.2z"/>
		<path class="st1" d="M75.1,223.3l13.9-87.9c0.1-0.5,0.6-0.9,1.1-0.8l68,10.8c0.5,0.1,0.9,0.6,0.8,1.1l-13.9,87.9
			c-0.1,0.5-0.6,0.9-1.1,0.8l-68-10.8C75.4,224.4,75.1,223.9,75.1,223.3z"/>
		<path class="st1" d="M0,132.3L14,44.4c0.1-0.5,0.6-0.9,1.1-0.8l68,10.8c0.5,0.1,0.9,0.6,0.8,1.1L70,143.4
			c-0.1,0.5-0.6,0.9-1.1,0.8l-68-10.8C0.3,133.4-0.1,132.8,0,132.3z"/>
		<path class="st1" d="M972.2,295.8l38.2-236.6c0.2-1.2,1.3-2,2.4-1.8l123.1,19.9c1.2,0.2,2,1.3,1.8,2.4l-38.2,236.6
			c-0.2,1.2-1.3,2-2.4,1.8l-123.1-19.9C972.8,298,972,296.9,972.2,295.8z"/>
		<path class="st1" d="M833.2,297.5l37.4-236.1c0.2-1.2,1.3-2,2.4-1.8l122.8,19.5c1.2,0.2,2,1.3,1.8,2.4l-37.4,236.1
			c-0.2,1.2-1.3,2-2.4,1.8L835,300C833.8,299.8,833,298.7,833.2,297.5z"/>
		<path class="st1" d="M1102.2,310.5l43.4-273.9c0.2-1,1.1-1.8,2.2-1.6l74.9,11.9c1,0.2,1.8,1.1,1.6,2.2L1180.9,323
			c-0.2,1-1.1,1.8-2.2,1.6l-74.9-11.9C1102.7,312.6,1102,311.6,1102.2,310.5z"/>
		<path class="st1" d="M490.9,290.2l37.5-236.5c0.2-1,1.1-1.7,2.2-1.6l95.6,15.2c1,0.2,1.7,1.1,1.6,2.2l-37.5,236.5
			c-0.2,1-1.1,1.7-2.2,1.6l-95.6-15.2C491.4,292.2,490.7,291.2,490.9,290.2z"/>
		<path class="st1" d="M239.8,169.5L265.3,8.6c0.2-1,1.1-1.6,2-1.5l123.5,19.6c1,0.2,1.6,1.1,1.5,2l-25.5,160.9
			c-0.2,1-1.1,1.6-2,1.5l-123.5-19.6C240.3,171.4,239.6,170.5,239.8,169.5z"/>
		<path class="st1" d="M362.4,242.5L399.8,6.5c0.2-1.2,1.3-2,2.4-1.8l122.8,19.5c1.2,0.2,2,1.3,1.8,2.4l-37.4,236.1
			c-0.2,1.2-1.3,2-2.4,1.8L364.2,245C363,244.8,362.2,243.7,362.4,242.5z"/>
	</g>
</g>
</svg>
