<svg xmlns="http://www.w3.org/2000/svg" xmlns:xlink="http://www.w3.org/1999/xlink" viewBox="0 0 426.07 512.17"><defs><style>.cls-1{fill:#fff;}.cls-2{fill:url(#linear-gradient);}.cls-3{fill:url(#linear-gradient-2);}.cls-4{fill:url(#linear-gradient-3);}.cls-5{fill:url(#linear-gradient-4);}.cls-6{fill:url(#linear-gradient-5);}.cls-7{fill:url(#linear-gradient-6);}.cls-8{fill:url(#linear-gradient-7);}.cls-9{fill:url(#linear-gradient-8);}.cls-10{fill:url(#linear-gradient-9);}.cls-11{fill:url(#linear-gradient-10);}.cls-12{fill:url(#linear-gradient-11);}.cls-13{fill:url(#linear-gradient-12);}</style><linearGradient id="linear-gradient" x1="184.64" y1="151.04" x2="364.98" y2="253.4" gradientUnits="userSpaceOnUse"><stop offset="0" stop-color="#d53183"/><stop offset="1" stop-color="#761f83"/></linearGradient><linearGradient id="linear-gradient-2" x1="414.54" y1="385.48" x2="158.59" y2="385.48" gradientTransform="translate(-151.93 388.05) rotate(-60)" xlink:href="#linear-gradient"/><linearGradient id="linear-gradient-3" x1="438.82" y1="263.54" x2="302.24" y2="263.54" gradientTransform="matrix(-0.5, 0.87, -0.87, -0.5, 581.37, 42.12)" gradientUnits="userSpaceOnUse"><stop offset="0" stop-color="#761f83"/><stop offset="0.03" stop-color="#802183"/><stop offset="0.18" stop-color="#a52883"/><stop offset="0.31" stop-color="#bf2d83"/><stop offset="0.43" stop-color="#cf3083"/><stop offset="0.52" stop-color="#d53183"/><stop offset="0.61" stop-color="#cf3083"/><stop offset="0.72" stop-color="#be2d83"/><stop offset="0.85" stop-color="#a22783"/><stop offset="0.99" stop-color="#7b2083"/><stop offset="1" stop-color="#761f83"/></linearGradient><linearGradient id="linear-gradient-4" x1="564.85" y1="243.55" x2="493.91" y2="243.55" gradientTransform="matrix(-0.5, 0.87, -0.87, -0.5, 581.37, 42.12)" xlink:href="#linear-gradient"/><linearGradient id="linear-gradient-5" x1="241.36" y1="472.11" x2="411.97" y2="470.15" gradientTransform="translate(264.87 1005.53) rotate(-150)" xlink:href="#linear-gradient"/><linearGradient id="linear-gradient-6" x1="182.26" y1="454.29" x2="439.65" y2="451.32" gradientTransform="translate(264.87 1005.53) rotate(-150)" xlink:href="#linear-gradient"/><linearGradient id="linear-gradient-7" x1="219.17" y1="314.25" x2="220.65" y2="134.27" gradientTransform="translate(-151.93 388.05) rotate(-60)" xlink:href="#linear-gradient"/><linearGradient id="linear-gradient-8" x1="131.61" y1="34.96" x2="311.94" y2="137.32" xlink:href="#linear-gradient"/><linearGradient id="linear-gradient-9" x1="365.75" y1="301.63" x2="229.16" y2="301.63" gradientTransform="translate(-151.93 388.05) rotate(-60)" xlink:href="#linear-gradient-3"/><linearGradient id="linear-gradient-10" x1="491.88" y1="281.54" x2="420.92" y2="281.54" gradientTransform="translate(-151.93 388.05) rotate(-60)" xlink:href="#linear-gradient"/><linearGradient id="linear-gradient-11" x1="178.93" y1="114.79" x2="436.32" y2="111.82" gradientTransform="translate(-151.93 388.05) rotate(-60)" xlink:href="#linear-gradient"/><linearGradient id="linear-gradient-12" x1="178.72" y1="97.04" x2="436.12" y2="94.07" gradientTransform="translate(-151.93 388.05) rotate(-60)" xlink:href="#linear-gradient"/></defs><title>beslides</title><g id="Layer_2" data-name="Layer 2"><g id="Layer_3" data-name="Layer 3"><path class="cls-1" d="M256.74,512.17a49.9,49.9,0,0,1-25-6.7l-154.17-89a50,50,0,0,1-18.3-68.27l12.34-21.37L25,299.88A50,50,0,0,1,6.72,231.62L126,25A50,50,0,0,1,194.28,6.7l154.17,89A50,50,0,0,1,366.74,164L354.4,185.35l46.66,26.94a50,50,0,0,1,18.29,68.26L300.05,487.18a50.12,50.12,0,0,1-43.31,25Z"/><path class="cls-1" d="M396.06,221,340.75,189l17.34-30a40,40,0,0,0-14.64-54.61l-154.17-89A40,40,0,0,0,134.67,30L15.37,236.62A40,40,0,0,0,30,291.23l55.31,31.93L68,353.19A40,40,0,0,0,82.61,407.8l154.18,89a40,40,0,0,0,54.61-14.64L410.69,275.56A40,40,0,0,0,396.06,221Z"/><path class="cls-2" d="M352,275.62c4.23-7.32,2.11-20.77-7.88-26.55L217,175.7a40,40,0,0,0-54.61,14.63l25.41-43.85a40,40,0,0,1,54.61-14.63l104.28,60.21,5.67,3.27a40,40,0,0,1,14.63,54.61l-5.35,9.27h0Z"/><path class="cls-3" d="M352.07,195.38l43.85,25.42a40,40,0,0,1,14.64,54.61l-90.64,157-3.28,5.66A40,40,0,0,1,262,452.7l-9.27-5.35,29.85-51.7L366.12,251C377.75,230.87,371.2,206.42,352.07,195.38Z"/><path class="cls-4" d="M154.52,305.05,196.14,233,226,181.26l-9.27-5.35a40,40,0,0,0-54.61,14.63l-3.27,5.67-48.21,83.5Z"/><path class="cls-5" d="M129.18,349l-16.55,28.66c-11.62,20.13-5.07,44.58,14.05,55.62L82.83,407.82A40,40,0,0,1,68.2,353.21L85.29,323.6Z"/><path class="cls-6" d="M194.24,413.71,262.3,453a40,40,0,0,0,54.62-14.64L291.5,482.16a40,40,0,0,1-54.61,14.64l-23.35-13.42h0a51.56,51.56,0,0,1-19.3-69.67Z"/><path class="cls-7" d="M185.08,467a51.56,51.56,0,0,1-3.6-57c.52-.91,1.07-1.79,1.64-2.66h0l-13-7.5L117.4,369.35l-5.35,9.27a40,40,0,0,0,14.63,54.61l5.67,3.27L185.08,467Z"/><path class="cls-8" d="M263.77,322l-25.41,43.85a40,40,0,0,1-54.61,14.63L79.47,320.25,73.8,317a40,40,0,0,1-14.63-54.62l5.35-9.26h0l144.64,83.5A40,40,0,0,0,263.77,322Z"/><path class="cls-9" d="M298.92,159.54c4.22-7.32,2.11-20.77-7.89-26.55L163.91,59.63A40,40,0,0,0,109.3,74.26l25.41-43.85a40,40,0,0,1,54.62-14.63L293.61,76l5.66,3.27a40,40,0,0,1,14.64,54.61l-5.36,9.27h0Z"/><path class="cls-10" d="M315.26,232.79,267.05,316.3,263.77,322a40,40,0,0,1-54.61,14.63l-9.27-5.35,29.86-51.7,41.62-72.1Z"/><path class="cls-11" d="M340.56,188.78l17.09-29.61A40,40,0,0,0,343,104.56L299.17,79.15c19.12,11,25.67,35.49,14.05,55.62l-16.55,28.67Z"/><path class="cls-12" d="M128.69,141.92,59.14,262.38A40,40,0,0,0,73.78,317L29.93,291.58A40,40,0,0,1,15.29,237L59,161.22h0a51.56,51.56,0,0,1,69.66-19.3Z"/><path class="cls-13" d="M75.49,132.7a51.58,51.58,0,0,1,57-3.6c.91.53,1.8,1.07,2.66,1.65h0l7.51-13L173.09,65l-9.27-5.35a40,40,0,0,0-54.61,14.64L105.94,80,75.49,132.71Z"/></g></g></svg>