<svg xmlns="http://www.w3.org/2000/svg" xmlns:xlink="http://www.w3.org/1999/xlink" viewBox="0 0 761.92 387.58"><defs><style>.cls-1,.cls-2,.cls-3{opacity:0.3;}.cls-1{fill:url(#linear-gradient);}.cls-2{fill:url(#linear-gradient-2);}.cls-3{fill:url(#linear-gradient-3);}.cls-4{fill:none;}</style><linearGradient id="linear-gradient" x1="286.32" y1="251.04" x2="761.92" y2="251.04" gradientUnits="userSpaceOnUse"><stop offset="0" stop-color="#a8cf40"/><stop offset="1" stop-color="#2aab4a"/></linearGradient><linearGradient id="linear-gradient-2" x1="161.74" y1="193.79" x2="688" y2="193.79" xlink:href="#linear-gradient"/><linearGradient id="linear-gradient-3" x1="0" y1="269.51" x2="454.27" y2="269.51" xlink:href="#linear-gradient"/></defs><title>bg_accent</title><g id="Layer_2" data-name="Layer 2"><g id="Layer_1-2" data-name="Layer 1"><path class="cls-1" d="M761.92,387.58H337L287,301a5,5,0,0,1,1.83-6.83l83.64-48.29L559.35,138l39.52-22.82A5,5,0,0,1,605.7,117Z"/><path class="cls-2" d="M685.5,366.48,649,387.58H278.51L185.06,225.72l-22.64-39.21a5,5,0,0,1,1.83-6.83L474.3.67a5,5,0,0,1,6.83,1.83L559.35,138l128,221.66A5,5,0,0,1,685.5,366.48Z"/><path class="cls-3" d="M454.27,387.58H29.32L.67,338a5,5,0,0,1,1.83-6.83l182.56-105.4,127.49-73.61a5,5,0,0,1,6.83,1.84l53.08,91.94Z"/><path class="cls-4" d="M761.92,387.58H29.32L.67,338a5,5,0,0,1,1.83-6.83l182.56-105.4-22.64-39.21a5,5,0,0,1,1.83-6.83L474.3.67a5,5,0,0,1,6.83,1.83L559.35,138l39.52-22.82A5,5,0,0,1,605.7,117Z"/></g></g></svg>